<svg width="34" height="34" viewBox="0 0 34 34" fill="none" xmlns="http://www.w3.org/2000/svg">
<path d="M28.333 17V20.4H31.733V17H28.333ZM30.5997 19.2667H29.4663V18.1333H30.5997V19.2667Z" fill="#35AC39"/>
<path d="M23.8002 2.2666H10.2002V3.39993H23.8002V2.2666Z" fill="#35AC39"/>
<path d="M23.8 4.5332H17V5.66654H23.8V4.5332Z" fill="#35AC39"/>
<path d="M15.8669 4.5332H10.2002V5.66654H15.8669V4.5332Z" fill="#35AC39"/>
<path d="M23.8002 6.7998H10.2002V7.93314H23.8002V6.7998Z" fill="#35AC39"/>
<path d="M34 9.06667H26.0667V1.7C26.0667 1.24913 25.8876 0.81673 25.5687 0.497919C25.2499 0.179107 24.8175 0 24.3667 0H8.2654L0 8.2654V32.3C0 32.7509 0.179107 33.1833 0.497919 33.5021C0.81673 33.8209 1.24913 34 1.7 34H24.3667C24.8175 34 25.2499 33.8209 25.5687 33.5021C25.8876 33.1833 26.0667 32.7509 26.0667 32.3V31.7333H34V9.06667ZM7.93333 1.9346V7.36667C7.93333 7.51696 7.87363 7.66109 7.76736 7.76736C7.66109 7.87363 7.51696 7.93333 7.36667 7.93333H1.9346L7.93333 1.9346ZM24.9333 32.3C24.9333 32.4503 24.8736 32.5944 24.7674 32.7007C24.6611 32.807 24.517 32.8667 24.3667 32.8667H1.7C1.54971 32.8667 1.40558 32.807 1.29931 32.7007C1.19304 32.5944 1.13333 32.4503 1.13333 32.3V9.06667H7.36667C7.81753 9.06667 8.24994 8.88756 8.56875 8.56875C8.88756 8.24994 9.06667 7.81753 9.06667 7.36667V1.13333H24.3667C24.517 1.13333 24.6611 1.19304 24.7674 1.29931C24.8736 1.40558 24.9333 1.54971 24.9333 1.7V9.06667H17V31.7333H24.9333V32.3ZM32.8667 30.6H18.1333V10.2H32.8667V30.6Z" fill="#35AC39"/>
<path d="M31.7333 11.3335H19.2666V15.8668H31.7333V11.3335ZM30.5999 14.7335H20.3999V12.4668H30.5999V14.7335Z" fill="#35AC39"/>
<path d="M22.6666 17H19.2666V20.4H22.6666V17ZM21.5333 19.2667H20.3999V18.1333H21.5333V19.2667Z" fill="#35AC39"/>
<path d="M23.7998 20.4H27.1998V17H23.7998V20.4ZM24.9331 18.1333H26.0665V19.2667H24.9331V18.1333Z" fill="#35AC39"/>
<path d="M22.6666 21.5332H19.2666V24.9332H22.6666V21.5332ZM21.5333 23.7999H20.3999V22.6665H21.5333V23.7999Z" fill="#35AC39"/>
<path d="M23.7998 24.9332H27.1998V21.5332H23.7998V24.9332ZM24.9331 22.6665H26.0665V23.7999H24.9331V22.6665Z" fill="#35AC39"/>
<path d="M28.333 29.4665H31.733V21.5332H28.333V29.4665ZM29.4663 22.6665H30.5997V28.3332H29.4663V22.6665Z" fill="#35AC39"/>
<path d="M22.6666 26.0669H19.2666V29.4669H22.6666V26.0669ZM21.5333 28.3336H20.3999V27.2002H21.5333V28.3336Z" fill="#35AC39"/>
<path d="M23.7998 29.4669H27.1998V26.0669H23.7998V29.4669ZM24.9331 27.2002H26.0665V28.3336H24.9331V27.2002Z" fill="#35AC39"/>
<path d="M10.7667 15.3001H11.9001C11.9001 14.2053 10.9248 13.2902 9.6334 13.0794V12.4668H8.50006V13.0794C7.20863 13.2902 6.2334 14.2053 6.2334 15.3001C6.2334 16.3949 7.20863 17.3101 8.50006 17.5209V19.7615C7.8484 19.6011 7.36673 19.1824 7.36673 18.7001H6.2334C6.2334 19.7949 7.20863 20.7101 8.50006 20.9209V21.5335H9.6334V20.9209C10.9248 20.7101 11.9001 19.7949 11.9001 18.7001C11.9001 17.6053 10.9248 16.6902 9.6334 16.4794V14.2388C10.2851 14.3991 10.7667 14.8179 10.7667 15.3001ZM7.36673 15.3001C7.36673 14.8179 7.8484 14.3991 8.50006 14.2388V16.3615C7.8484 16.2011 7.36673 15.7824 7.36673 15.3001ZM10.7667 18.7001C10.7667 19.1824 10.2851 19.6011 9.6334 19.7615V17.6388C10.2851 17.7991 10.7667 18.2179 10.7667 18.7001Z" fill="#35AC39"/>
<path d="M9.0666 10.2002C7.72169 10.2002 6.40698 10.599 5.28873 11.3462C4.17047 12.0934 3.2989 13.1554 2.78422 14.3979C2.26955 15.6405 2.13489 17.0077 2.39726 18.3268C2.65964 19.6459 3.30728 20.8575 4.25828 21.8085C5.20928 22.7595 6.42092 23.4072 7.73999 23.6695C9.05906 23.9319 10.4263 23.7973 11.6689 23.2826C12.9114 22.7679 13.9734 21.8963 14.7206 20.7781C15.4678 19.6598 15.8666 18.3451 15.8666 17.0002C15.8647 15.1973 15.1476 13.4688 13.8728 12.194C12.598 10.9192 10.8695 10.2021 9.0666 10.2002ZM9.0666 22.6669C7.94584 22.6669 6.85025 22.3345 5.91837 21.7119C4.98649 21.0892 4.26018 20.2042 3.83129 19.1687C3.40239 18.1333 3.29017 16.9939 3.50882 15.8947C3.72747 14.7955 4.26717 13.7858 5.05967 12.9933C5.85216 12.2008 6.86187 11.6611 7.96109 11.4424C9.06032 11.2238 10.1997 11.336 11.2351 11.7649C12.2706 12.1938 13.1556 12.9201 13.7783 13.852C14.4009 14.7838 14.7333 15.8794 14.7333 17.0002C14.7316 18.5026 14.1341 19.943 13.0717 21.0053C12.0094 22.0677 10.569 22.6652 9.0666 22.6669Z" fill="#35AC39"/>
<path d="M15.8666 24.9331H2.2666V26.0664H15.8666V24.9331Z" fill="#35AC39"/>
<path d="M15.8664 27.2002H9.06641V28.3335H15.8664V27.2002Z" fill="#35AC39"/>
<path d="M7.93327 27.2002H2.2666V28.3335H7.93327V27.2002Z" fill="#35AC39"/>
<path d="M15.8666 29.4668H2.2666V30.6001H15.8666V29.4668Z" fill="#35AC39"/>
<path d="M5.09987 16.4331H4.5332V17.5664H5.09987V16.4331Z" fill="#35AC39"/>
<path d="M13.5999 16.4331H13.0332V17.5664H13.5999V16.4331Z" fill="#35AC39"/>
</svg>
