<svg width="24" height="25" viewBox="0 0 24 25" fill="none" xmlns="http://www.w3.org/2000/svg">
<path d="M12.8571 0.402832C12.3837 0.402832 12 0.786592 12 1.25997C12 1.73336 12.3837 2.11712 12.8571 2.11712C18.0644 2.11712 22.2857 6.33844 22.2857 11.5457C22.2857 12.0191 22.6695 12.4028 23.1429 12.4028C23.6163 12.4028 24 12.0191 24 11.5457C24 5.39166 19.0112 0.402832 12.8571 0.402832Z" fill="#86B03C"/>
<path fill-rule="evenodd" clip-rule="evenodd" d="M6.13803 3.75902C5.09384 2.72121 3.40031 2.70784 2.35279 3.74897C-0.233472 6.31943 -0.843963 10.4001 1.30869 13.4777C4.17678 17.5783 7.13451 20.5653 10.9316 23.1621C14.0085 25.2663 18.0381 24.566 20.5777 22.042C21.6476 20.9786 21.7216 19.2475 20.6285 18.161L18.2625 15.8095C17.2431 14.7963 15.6037 14.7435 14.5319 15.7065L13.3817 16.7399C13.0653 17.0242 12.6151 17.0661 12.277 16.8616C10.0435 15.5103 8.80405 14.2669 7.46768 12.0824C7.26514 11.7513 7.30534 11.3108 7.58983 10.9979L8.62954 9.85491C9.6018 8.78596 9.54771 7.14784 8.52582 6.13226L6.13803 3.75902ZM3.56125 4.96485C3.93126 4.59711 4.54505 4.59275 4.92956 4.97491L7.31734 7.34811C7.6974 7.72585 7.7082 8.32011 7.3614 8.70145L6.32167 9.84445C5.55138 10.6913 5.38466 11.9624 6.00533 12.977C7.4844 15.3948 8.92088 16.8348 11.3897 18.3284C12.4051 18.9426 13.6773 18.7791 14.5275 18.0151L15.6777 16.9816C16.0649 16.6337 16.6716 16.6453 17.0541 17.0254L19.42 19.3769C19.8471 19.8014 19.7724 20.4253 19.3692 20.8261C17.3268 22.856 14.2012 23.3213 11.8993 21.7471C8.28934 19.2783 5.47519 16.4437 2.71346 12.4952C1.08811 10.1714 1.50276 7.01078 3.56125 4.96485Z" fill="#86B03C"/>
<path d="M12.8571 7.25903C12.3837 7.25903 12 7.64278 12 8.11618C12 8.58958 12.3837 8.97332 12.8571 8.97332C14.2773 8.97332 15.4286 10.1245 15.4286 11.5447C15.4286 12.0181 15.8123 12.4019 16.2857 12.4019C16.7591 12.4019 17.1429 12.0181 17.1429 11.5447C17.1429 9.17783 15.2241 7.25903 12.8571 7.25903Z" fill="#86B03C"/>
<path d="M12 4.68844C12 4.21506 12.3837 3.8313 12.8571 3.8313C17.1177 3.8313 20.5714 7.28507 20.5714 11.5456C20.5714 12.019 20.1877 12.4027 19.7143 12.4027C19.2409 12.4027 18.8571 12.019 18.8571 11.5456C18.8571 8.23187 16.1709 5.54558 12.8571 5.54558C12.3837 5.54558 12 5.16182 12 4.68844Z" fill="#86B03C"/>
</svg>
