<svg width="20" height="20" viewBox="0 0 20 20" fill="none" xmlns="http://www.w3.org/2000/svg">
<g clip-path="url(#clip0_4839_582)">
<path d="M9.37853 19.9742C7.64353 19.9742 5.9452 19.49 4.4652 18.575C0.074364 15.8575 -1.28647 10.075 1.4302 5.68417C3.14853 2.9075 6.13103 1.25 9.4077 1.25C11.1427 1.25 12.841 1.73417 14.3202 2.64917C14.4619 2.73667 14.5619 2.875 14.5994 3.0375C14.6377 3.2 14.6102 3.3675 14.5227 3.51C14.4085 3.695 14.2094 3.80583 13.991 3.80583C13.8752 3.80583 13.761 3.77333 13.6619 3.71167C12.3802 2.91917 10.9085 2.5 9.40603 2.5C6.56603 2.5 3.98103 3.93667 2.4927 6.34167C0.138531 10.1458 1.3177 15.1567 5.1227 17.5117C6.40437 18.305 7.87603 18.7242 9.37853 18.7242C12.2185 18.7242 14.8035 17.2875 16.2927 14.8817C17.7244 12.5675 17.9035 9.70917 16.771 7.235C16.7019 7.08333 16.6952 6.91333 16.7535 6.75667C16.8119 6.6 16.9277 6.47583 17.0794 6.40583C17.1619 6.36833 17.2494 6.34917 17.3394 6.34917C17.5827 6.34917 17.806 6.4925 17.9077 6.71417C19.2144 9.57 19.0085 12.8692 17.356 15.5392C15.6377 18.3158 12.656 19.9742 9.37853 19.9742Z" fill="#C41A1A"/>
<path d="M6.24609 6.23828L14.7314 14.7236" stroke="#C41A1A" stroke-width="1.5" stroke-linecap="round" stroke-linejoin="round"/>
<path d="M6.24609 14.7305L18.2461 2.73047" stroke="#C41A1A" stroke-width="1.5" stroke-linecap="round" stroke-linejoin="round"/>
</g>
<defs>
<clipPath id="clip0_4839_582">
<rect width="20" height="20" fill="white"/>
</clipPath>
</defs>
</svg>
