<svg width="34" height="34" viewBox="0 0 34 34" fill="none" xmlns="http://www.w3.org/2000/svg">
<path d="M25.5 11.8999C23.8189 11.8999 22.1755 12.3984 20.7777 13.3324C19.3798 14.2664 18.2904 15.5939 17.647 17.1471C17.0037 18.7003 16.8354 20.4093 17.1633 22.0582C17.4913 23.707 18.3009 25.2216 19.4896 26.4103C20.6783 27.5991 22.1929 28.4086 23.8417 28.7366C25.4906 29.0646 27.1996 28.8962 28.7528 28.2529C30.306 27.6095 31.6335 26.5201 32.5675 25.1222C33.5015 23.7244 34 22.081 34 20.3999C33.9975 18.1463 33.1011 15.9858 31.5076 14.3923C29.9141 12.7988 27.7536 11.9025 25.5 11.8999ZM25.5 27.7666C24.043 27.7666 22.6187 27.3345 21.4073 26.5251C20.1959 25.7156 19.2517 24.5651 18.6941 23.219C18.1365 21.8729 17.9906 20.3917 18.2749 18.9627C18.5591 17.5337 19.2607 16.2211 20.291 15.1909C21.3212 14.1606 22.6338 13.459 24.0628 13.1748C25.4918 12.8905 26.973 13.0364 28.3191 13.594C29.6652 14.1516 30.8157 15.0958 31.6252 16.3072C32.4346 17.5186 32.8667 18.9429 32.8667 20.3999C32.8644 22.353 32.0876 24.2254 30.7065 25.6064C29.3255 26.9875 27.4531 27.7643 25.5 27.7666Z" fill="#1A237E"/>
<path d="M27.7668 17.0001C27.9171 17.0001 28.0612 17.0598 28.1675 17.166C28.2737 17.2723 28.3334 17.4164 28.3334 17.5667H29.4668C29.4668 17.1159 29.2877 16.6835 28.9689 16.3646C28.65 16.0458 28.2176 15.8667 27.7668 15.8667H26.0668V14.7334H24.9334V15.8667H23.2334C22.7826 15.8667 22.3502 16.0458 22.0314 16.3646C21.7126 16.6835 21.5334 17.1159 21.5334 17.5667V19.2667C21.5334 19.7176 21.7126 20.15 22.0314 20.4688C22.3502 20.7876 22.7826 20.9667 23.2334 20.9667H24.9334V23.8001H23.2334C23.0832 23.8001 22.939 23.7404 22.8328 23.6341C22.7265 23.5278 22.6668 23.3837 22.6668 23.2334H21.5334C21.5334 23.6843 21.7126 24.1167 22.0314 24.4355C22.3502 24.7543 22.7826 24.9334 23.2334 24.9334H24.9334V26.0667H26.0668V24.9334H27.7668C28.2176 24.9334 28.65 24.7543 28.9689 24.4355C29.2877 24.1167 29.4668 23.6843 29.4668 23.2334V21.5334C29.4668 21.0825 29.2877 20.6501 28.9689 20.3313C28.65 20.0125 28.2176 19.8334 27.7668 19.8334H26.0668V17.0001H27.7668ZM27.7668 20.9667C27.9171 20.9667 28.0612 21.0264 28.1675 21.1327C28.2737 21.239 28.3334 21.3831 28.3334 21.5334V23.2334C28.3334 23.3837 28.2737 23.5278 28.1675 23.6341C28.0612 23.7404 27.9171 23.8001 27.7668 23.8001H26.0668V20.9667H27.7668ZM24.9334 19.8334H23.2334C23.0832 19.8334 22.939 19.7737 22.8328 19.6674C22.7265 19.5612 22.6668 19.417 22.6668 19.2667V17.5667C22.6668 17.4164 22.7265 17.2723 22.8328 17.166C22.939 17.0598 23.0832 17.0001 23.2334 17.0001H24.9334V19.8334Z" fill="#1A237E"/>
<path d="M20.3999 19.8334H19.8333V20.9668H20.3999V19.8334Z" fill="#1A237E"/>
<path d="M31.1668 19.8334H30.6001V20.9668H31.1668V19.8334Z" fill="#1A237E"/>
<path d="M24.9333 31.7333C24.9333 32.0339 24.8139 32.3222 24.6014 32.5347C24.3888 32.7473 24.1006 32.8667 23.8 32.8667H2.26667C1.96609 32.8667 1.67782 32.7473 1.46528 32.5347C1.25274 32.3222 1.13333 32.0339 1.13333 31.7333V1.7C1.13333 1.54971 1.19304 1.40558 1.29931 1.29931C1.40558 1.19304 1.54971 1.13333 1.7 1.13333H17V7.36667C17 7.81753 17.1791 8.24994 17.4979 8.56875C17.8167 8.88756 18.2491 9.06667 18.7 9.06667H24.9333V10.7667H26.0667V8.2654L17.8013 0H1.7C1.24913 0 0.81673 0.179107 0.497919 0.497919C0.179107 0.81673 0 1.24913 0 1.7V31.7333C0 32.3345 0.238809 32.911 0.663891 33.3361C1.08897 33.7612 1.66551 34 2.26667 34H23.8C24.4012 34 24.9777 33.7612 25.4028 33.3361C25.8279 32.911 26.0667 32.3345 26.0667 31.7333V30.0333H24.9333V31.7333ZM18.1333 7.36667V1.9346L24.1321 7.93333H18.7C18.5497 7.93333 18.4056 7.87363 18.2993 7.76736C18.193 7.66109 18.1333 7.51696 18.1333 7.36667Z" fill="#1A237E"/>
<path d="M2.2666 28.8998H15.8666V27.7665H15.2999V16.4332H11.8999V27.7665H10.7666V23.2332H7.3666V27.7665H6.23327V18.6998H2.83327V27.7665H2.2666V28.8998ZM13.0333 17.5665H14.1666V27.7665H13.0333V17.5665ZM8.49993 24.3665H9.63327V27.7665H8.49993V24.3665ZM3.9666 19.8332H5.09993V27.7665H3.9666V19.8332Z" fill="#1A237E"/>
<path d="M15.8666 2.2666H2.2666V3.39993H15.8666V2.2666Z" fill="#1A237E"/>
<path d="M9.0666 4.5332H2.2666V5.66654H9.0666V4.5332Z" fill="#1A237E"/>
<path d="M15.8666 4.5332H10.2V5.66654H15.8666V4.5332Z" fill="#1A237E"/>
<path d="M15.8666 6.79987H2.2666V7.9332H15.8666V6.79987Z" fill="#1A237E"/>
<path d="M15.8666 9.06683H2.2666V10.2002H15.8666V9.06683Z" fill="#1A237E"/>
<path d="M9.0666 11.3334H2.2666V12.4668H9.0666V11.3334Z" fill="#1A237E"/>
<path d="M15.8666 11.3334H10.2V12.4668H15.8666V11.3334Z" fill="#1A237E"/>
</svg>
