<svg width="39" height="34" viewBox="0 0 39 34" fill="none" xmlns="http://www.w3.org/2000/svg">
<path d="M13.722 21.7941H12.2776V23.2409H13.722V21.7941Z" fill="#1A237E"/>
<path d="M26.722 21.7941H25.2776V23.2409H26.722V21.7941Z" fill="#1A237E"/>
<path d="M18.7775 16.7301V18.0127C18.1895 18.0571 17.6399 18.322 17.2383 18.7544C16.8367 19.1869 16.6126 19.7551 16.6108 20.3457V20.8882C16.6116 21.5115 16.8591 22.1091 17.2992 22.5498C17.7392 22.9906 18.3358 23.2385 18.9581 23.2393H20.0414C20.281 23.2397 20.5106 23.3353 20.6799 23.5051C20.8491 23.6749 20.9442 23.905 20.9442 24.145V24.6875C20.9438 24.9273 20.8486 25.157 20.6794 25.3265C20.5102 25.496 20.2807 25.5914 20.0414 25.5918H18.9581C18.7188 25.5914 18.4894 25.496 18.3201 25.3265C18.1509 25.157 18.0557 24.9273 18.0553 24.6875H16.6108C16.6128 25.2781 16.8369 25.8462 17.2385 26.2786C17.6401 26.711 18.1896 26.9759 18.7775 27.0205V28.3046H20.222V27.0205C20.8099 26.9759 21.3595 26.711 21.761 26.2786C22.1626 25.8462 22.3867 25.2781 22.3887 24.6875V24.145C22.3879 23.5217 22.1404 22.9241 21.7003 22.4834C21.2603 22.0426 20.6637 21.7947 20.0414 21.7939H18.9581C18.7188 21.7935 18.4894 21.6982 18.3201 21.5287C18.1509 21.3592 18.0557 21.1294 18.0553 20.8897V20.3471C18.0557 20.1074 18.1509 19.8776 18.3201 19.7081C18.4894 19.5386 18.7188 19.4433 18.9581 19.4429H20.0414C20.2807 19.4433 20.5102 19.5386 20.6794 19.7081C20.8486 19.8776 20.9438 20.1074 20.9442 20.3471H22.3887C22.3873 19.7563 22.1634 19.1877 21.7617 18.7549C21.3601 18.3222 20.8102 18.0571 20.222 18.0127V16.7301H18.7775Z" fill="#1A237E"/>
<path d="M0.0826509 25.024C0.143862 25.1407 0.23576 25.2385 0.348413 25.3067C0.461065 25.3749 0.590187 25.411 0.721824 25.411H0.734102L2.60757 25.3792C3.16946 27.4329 5.54488 34 12.947 34C13.2585 34 13.5794 33.9879 13.9097 33.9638C14.0871 33.9502 14.2532 33.8715 14.3762 33.7427C14.4993 33.614 14.5705 33.4443 14.5763 33.2662C14.5821 33.0881 14.5221 32.9141 14.4078 32.7776C14.2934 32.6411 14.1328 32.5516 13.9567 32.5264C11.7343 32.0906 9.75257 30.8439 8.39551 29.028H11.764C13.0411 30.5604 14.7441 31.6781 16.6566 32.2391C18.5692 32.8002 20.605 32.7793 22.5057 32.1792C22.8834 32.4794 23.351 32.6435 23.8332 32.6451H36.1111C36.6857 32.6451 37.2368 32.4164 37.6432 32.0094C38.0495 31.6024 38.2778 31.0504 38.2778 30.4748V29.7514C38.2778 29.1759 38.0495 28.6239 37.6432 28.2169C37.2368 27.8099 36.6857 27.5812 36.1111 27.5812H35.256C35.3415 27.3496 35.3865 27.1048 35.3889 26.8578V26.1344C35.387 25.5988 35.1862 25.0831 34.8255 24.6876C35.1862 24.2922 35.387 23.7764 35.3889 23.2408V22.5174C35.387 21.9818 35.1862 21.4661 34.8255 21.0706C35.1862 20.6751 35.387 20.1594 35.3889 19.6238V18.9004C35.3889 18.3248 35.1606 17.7728 34.7542 17.3658C34.3479 16.9588 33.7968 16.7302 33.2222 16.7302H27.7859C26.9244 15.493 25.7976 14.4645 24.488 13.7197C23.1784 12.975 21.7191 12.533 20.217 12.4259C20.217 12.4136 20.222 12.402 20.222 12.3897V11.6663C20.2201 11.1652 20.0433 10.6806 19.7222 10.2962L24.5886 5.42553L29.8609 10.0445C30.0031 10.1698 30.1887 10.2343 30.3778 10.2238C30.567 10.2134 30.7444 10.129 30.872 9.98877L37.5555 2.6766V4.34043H39V0.723404C39 0.531546 38.9239 0.347545 38.7885 0.21188C38.653 0.0762157 38.4693 0 38.2778 0H34.6666V1.44681H36.7199L30.2776 8.48553L25.0306 3.88757C24.8927 3.7669 24.7142 3.7032 24.5312 3.70938C24.3481 3.71556 24.1743 3.79115 24.0448 3.92085L20.1946 7.77732C20.1401 7.34005 19.953 6.93002 19.6587 6.60251C20.0193 6.20705 20.2201 5.69131 20.222 5.1557V4.4323C20.222 3.85672 19.9938 3.30472 19.5874 2.89773C19.1811 2.49073 18.63 2.26208 18.0553 2.26208H5.77743C5.20279 2.26208 4.65168 2.49073 4.24535 2.89773C3.83902 3.30472 3.61074 3.85672 3.61074 4.4323V5.1557C3.61262 5.69131 3.81344 6.20705 4.17408 6.60251C3.81344 6.99797 3.61262 7.51371 3.61074 8.04932V8.77272C3.61262 9.30833 3.81344 9.82407 4.17408 10.2195C3.81344 10.615 3.61262 11.1307 3.61074 11.6663V12.3897C3.61262 12.9254 3.81344 13.4411 4.17408 13.8366C3.81344 14.232 3.61262 14.7478 3.61074 15.2834V16.0068C3.61262 16.5424 3.81344 17.0581 4.17408 17.4536C3.81344 17.849 3.61262 18.3648 3.61074 18.9004V19.3923L0.134651 24.2673C0.0569101 24.3763 0.0108863 24.5047 0.0017052 24.6383C-0.00747586 24.7719 0.0205462 24.9054 0.0826509 25.024ZM7.50139 27.5812C7.15397 26.8883 6.87972 26.161 6.68311 25.411H9.8147C10.0411 26.169 10.3562 26.8975 10.7536 27.5812H7.50139ZM5.0552 18.9004C5.0552 18.7085 5.13129 18.5245 5.26674 18.3889C5.40218 18.2532 5.58589 18.177 5.77743 18.177H10.378C10.046 18.8692 9.79445 19.5974 9.62836 20.3472H5.90238L5.0552 19.3568V18.9004ZM5.0552 16.0068V15.2834C5.0552 15.0915 5.13129 14.9075 5.26674 14.7718C5.40218 14.6362 5.58589 14.56 5.77743 14.56H13.2655C12.4788 15.1785 11.7874 15.9097 11.2137 16.7302H5.77743C5.58589 16.7302 5.40218 16.654 5.26674 16.5183C5.13129 16.3826 5.0552 16.1986 5.0552 16.0068ZM5.0552 12.3897V11.6663C5.0552 11.4745 5.13129 11.2905 5.26674 11.1548C5.40218 11.0192 5.58589 10.9429 5.77743 10.9429H18.0553C18.2469 10.9429 18.4306 11.0192 18.566 11.1548C18.7015 11.2905 18.7776 11.4745 18.7776 11.6663V12.3897C18.7776 12.402 18.7732 12.4143 18.7725 12.4266C17.7419 12.4991 16.7287 12.7307 15.7688 13.1131H5.77743C5.68259 13.1131 5.58867 13.0944 5.50105 13.0581C5.41342 13.0217 5.3338 12.9684 5.26674 12.9013C5.19967 12.8341 5.14647 12.7543 5.11018 12.6666C5.07388 12.5788 5.0552 12.4847 5.0552 12.3897ZM5.0552 8.77272V8.04932C5.0552 7.85746 5.13129 7.67346 5.26674 7.5378C5.40218 7.40213 5.58589 7.32592 5.77743 7.32592H18.0553C18.2469 7.32592 18.4306 7.40213 18.566 7.5378C18.7015 7.67346 18.7776 7.85746 18.7776 8.04932V8.77272C18.7776 8.96458 18.7015 9.14858 18.566 9.28425C18.4306 9.41991 18.2469 9.49613 18.0553 9.49613H5.77743C5.68259 9.49613 5.58867 9.47742 5.50105 9.44106C5.41342 9.40471 5.3338 9.35142 5.26674 9.28425C5.19967 9.21707 5.14647 9.13733 5.11018 9.04956C5.07388 8.96179 5.0552 8.86772 5.0552 8.77272ZM9.42542 21.794C9.40808 22.0342 9.38858 22.2729 9.38858 22.5174C9.39221 23.0018 9.43083 23.4854 9.50414 23.9642H8.99858L7.14172 21.794H9.42542ZM36.8333 29.7514V30.4748C36.8333 30.6667 36.7572 30.8507 36.6218 30.9864C36.4863 31.122 36.3026 31.1983 36.1111 31.1983H23.8332C23.6416 31.1983 23.4579 31.122 23.3225 30.9864C23.187 30.8507 23.1109 30.6667 23.1109 30.4748V29.7514C23.1109 29.5596 23.187 29.3756 23.3225 29.2399C23.4579 29.1043 23.6416 29.028 23.8332 29.028H36.1111C36.3026 29.028 36.4863 29.1043 36.6218 29.2399C36.7572 29.3756 36.8333 29.5596 36.8333 29.7514ZM28.2511 27.5812C28.6493 26.8979 28.9645 26.1693 29.19 25.411H33.2222C33.4137 25.411 33.5974 25.4872 33.7329 25.6229C33.8683 25.7586 33.9444 25.9426 33.9444 26.1344V26.8578C33.9444 27.0497 33.8683 27.2337 33.7329 27.3694C33.5974 27.505 33.4137 27.5812 33.2222 27.5812H28.2511ZM29.5742 21.794H33.2222C33.4137 21.794 33.5974 21.8702 33.7329 22.0059C33.8683 22.1415 33.9444 22.3255 33.9444 22.5174V23.2408C33.9444 23.4327 33.8683 23.6167 33.7329 23.7523C33.5974 23.888 33.4137 23.9642 33.2222 23.9642H29.5027C29.5727 23.4851 29.6089 23.0016 29.611 22.5174C29.611 22.2729 29.5915 22.0342 29.5742 21.794ZM33.2222 18.177C33.4137 18.177 33.5974 18.2532 33.7329 18.3889C33.8683 18.5245 33.9444 18.7085 33.9444 18.9004V19.6238C33.9444 19.8156 33.8683 19.9996 33.7329 20.1353C33.5974 20.271 33.4137 20.3472 33.2222 20.3472H29.3712C29.2051 19.5974 28.9536 18.8692 28.6216 18.177H33.2222ZM28.1666 22.5174C28.1706 24.3363 27.5978 26.1095 26.5307 27.5812H23.8332C23.2585 27.5812 22.7074 27.8099 22.3011 28.2169C21.8948 28.6239 21.6665 29.1759 21.6665 29.7514V30.4748C21.6666 30.6206 21.6813 30.7661 21.7105 30.9089C19.9609 31.3712 18.1106 31.2734 16.4193 30.6292C14.7279 29.985 13.2803 28.8266 12.2794 27.3166C11.2786 25.8066 10.7747 24.0207 10.8384 22.2094C10.9022 20.3981 11.5304 18.6521 12.6349 17.2165C13.7394 15.7808 15.2649 14.7275 16.9973 14.2041C18.7298 13.6808 20.5823 13.7137 22.2951 14.2983C24.0079 14.8829 25.4951 15.9898 26.5481 17.4638C27.6011 18.9378 28.167 20.7049 28.1666 22.5174ZM5.0552 4.4323C5.0552 4.24044 5.13129 4.05644 5.26674 3.92077C5.40218 3.78511 5.58589 3.70889 5.77743 3.70889H18.0553C18.2469 3.70889 18.4306 3.78511 18.566 3.92077C18.7015 4.05644 18.7776 4.24044 18.7776 4.4323V5.1557C18.7776 5.34756 18.7015 5.53156 18.566 5.66723C18.4306 5.80289 18.2469 5.87911 18.0553 5.87911H5.77743C5.58589 5.87911 5.40218 5.80289 5.26674 5.66723C5.13129 5.53156 5.0552 5.34756 5.0552 5.1557V4.4323ZM4.38425 20.7957L7.09622 23.9642H5.77743C5.671 23.9643 5.56591 23.9879 5.46967 24.0334C5.37343 24.079 5.28841 24.1452 5.22072 24.2275C5.15302 24.3097 5.10431 24.4059 5.07807 24.5093C5.05183 24.6126 5.0487 24.7204 5.06892 24.8251C5.50783 27.4933 6.88281 29.9171 8.94658 31.6605C4.86959 29.6234 3.93286 24.7882 3.88447 24.5176C3.85449 24.3507 3.7669 24.1996 3.637 24.0908C3.5071 23.9819 3.34314 23.9223 3.17379 23.9223H3.16152L2.14245 23.9403L4.38425 20.7957Z" fill="#1A237E"/>
</svg>
