<svg width="35" height="35" viewBox="0 0 35 35" fill="none" xmlns="http://www.w3.org/2000/svg">
<g clip-path="url(#clip0_5118_642)">
<path d="M16.7075 0.30026C17.4124 0.287594 17.9714 0.725217 18.5211 1.1573C18.855 1.41811 19.1852 1.67697 19.4733 1.75184C19.7671 1.83037 20.1842 1.76003 20.6012 1.68775C21.2563 1.57692 21.9096 1.46618 22.489 1.80243C23.0703 2.13877 23.3163 2.77262 23.5603 3.40637C23.7114 3.79809 23.8624 4.18968 24.0733 4.39935C24.2824 4.60891 24.6679 4.75057 25.0552 4.89221C25.6792 5.12113 26.3031 5.35186 26.65 5.93625C26.9968 6.52063 26.9122 7.19651 26.8257 7.87639C26.7721 8.306 26.7184 8.73945 26.8031 9.03895C26.8877 9.3328 27.1506 9.66331 27.4154 9.99573C27.8543 10.548 28.2987 11.1077 28.3111 11.8334C28.3235 12.5571 27.8984 13.1326 27.4788 13.7002C27.2256 14.042 26.9741 14.3819 26.8996 14.6784C26.8252 14.9808 26.8937 15.4121 26.9621 15.8395C27.0717 16.5157 27.1795 17.1883 26.8529 17.7847C26.6088 18.2311 26.2005 18.4861 25.7543 18.6904L32.2312 29.7841C32.2748 29.85 32.3058 29.9257 32.3165 30.0094C32.3508 30.2849 32.1608 30.5379 31.893 30.5732L28.043 31.0825L25.7983 34.3426C25.7512 34.4025 25.7168 34.4431 25.6508 34.4824C25.4201 34.6256 25.1208 34.5472 24.9816 34.3096L22.1617 29.481C22.0243 29.2416 22.0986 28.9335 22.3312 28.7922C22.562 28.649 22.8613 28.7274 22.9986 28.965L25.4334 33.1336L27.3693 30.3229C27.4487 30.2073 27.5696 30.1308 27.7062 30.113L31.0282 29.6724L24.8429 19.0782C24.6337 19.1772 24.4504 19.2854 24.3305 19.4133C24.1269 19.6303 23.9893 20.0272 23.8518 20.424C23.6296 21.0663 23.4055 21.7085 22.836 22.0654C22.2684 22.4224 21.6117 22.3352 20.9533 22.2479C20.534 22.1907 20.1148 22.1354 19.8239 22.2244C19.6472 22.2771 19.455 22.4025 19.2577 22.5546L21.8565 27.0061C21.9957 27.2437 21.9214 27.5536 21.6907 27.6968C21.4599 27.84 21.1588 27.7636 21.0196 27.526L18.4857 23.1857C18.0748 23.5056 17.6369 23.765 17.1096 23.7745C16.5823 23.7839 16.1358 23.5405 15.7123 23.2356L9.603 34.586C9.43438 34.9034 9.00006 34.9359 8.78785 34.6483L6.43293 31.4708L2.5678 31.1001C2.19885 31.0648 2.00465 30.6359 2.2047 30.3237L4.84137 25.4238C4.97236 25.1814 5.26881 25.0923 5.50432 25.2271C5.7398 25.36 5.82644 25.6652 5.69551 25.9076L3.40137 30.1689L6.73637 30.4899C6.86795 30.5029 6.99498 30.571 7.08029 30.6876L9.11119 33.4269L14.9228 22.6325C14.7204 22.4876 14.5241 22.3692 14.3437 22.3229C14.0499 22.2444 13.6329 22.3148 13.2177 22.3869C12.5607 22.4978 11.9075 22.6085 11.328 22.2722C10.7467 21.9359 10.5026 21.3021 10.2585 20.6683C10.1057 20.2766 9.9546 19.885 9.74555 19.6754C9.61946 19.5519 9.43446 19.4503 9.22198 19.3609L6.76999 23.9126C6.63899 24.155 6.34252 24.2423 6.10707 24.1074C5.87156 23.9726 5.78675 23.6673 5.91767 23.4249L8.29605 19.0041C7.84306 18.816 7.4281 18.5758 7.1671 18.1384C6.82211 17.554 6.90677 16.878 6.99136 16.1983C7.04511 15.7687 7.10056 15.3352 7.01402 15.0357C6.92941 14.742 6.66841 14.4113 6.4017 14.0789C5.96475 13.5267 5.52022 12.9669 5.50783 12.2432C5.4954 11.5175 5.92049 10.9421 6.33827 10.3745C6.59343 10.0326 6.84295 9.69291 6.91746 9.39626C6.99376 9.09387 6.92344 8.66265 6.85501 8.23523C6.7472 7.55885 6.63945 6.88643 6.96423 6.28997C7.29089 5.69349 7.90842 5.44044 8.52225 5.18928C8.90452 5.03382 9.28496 4.87839 9.48854 4.66141C9.69028 4.44434 9.82783 4.04756 9.96721 3.65062C10.1894 3.00849 10.4116 2.36623 10.9811 2.00921C11.5487 1.65235 12.2054 1.73955 12.8657 1.82675C13.2831 1.88404 13.7024 1.93934 13.9932 1.85031C14.2787 1.7652 14.5997 1.49457 14.9245 1.22192C15.4608 0.770329 16.0026 0.312925 16.7075 0.30026ZM18.3344 22.0282C18.7157 21.7069 19.0972 21.3972 19.552 21.2595C20.0436 21.1116 20.5612 21.1804 21.0768 21.2493C21.5683 21.3147 22.058 21.3783 22.329 21.2096C22.6018 21.0371 22.7658 20.5616 22.9317 20.0861C23.1045 19.5839 23.2791 19.0815 23.6244 18.7134C23.9716 18.3451 24.4531 18.148 24.9347 17.9507C25.3904 17.7653 25.8462 17.578 26.0023 17.2913C26.1585 17.0066 26.0777 16.505 25.9969 16.0035C25.912 15.4736 25.827 14.9435 25.9552 14.4325C26.0781 13.9368 26.3892 13.5159 26.704 13.0911C27.0187 12.6643 27.3371 12.2319 27.3306 11.851C27.324 11.4681 26.991 11.0474 26.6619 10.6323C26.3328 10.2191 26.0074 9.80953 25.8676 9.3186C25.722 8.81253 25.7888 8.27978 25.8555 7.74704C25.919 7.24292 25.9827 6.7388 25.8168 6.45984C25.651 6.17887 25.1891 6.00807 24.7273 5.83927C24.2393 5.65939 23.7513 5.47957 23.3917 5.12412C23.034 4.76844 22.8423 4.2728 22.6524 3.777C22.4704 3.30787 22.2902 2.83857 22.0117 2.67596C21.7351 2.51695 21.2479 2.59829 20.7589 2.68134C20.2459 2.76865 19.731 2.85599 19.2347 2.72586C18.7531 2.59923 18.3442 2.2788 17.9315 1.95475C17.5169 1.63074 17.0967 1.30104 16.7248 1.30772C16.3529 1.3144 15.9443 1.65906 15.5429 1.99767C15.1397 2.33645 14.7438 2.67133 14.2669 2.81512C13.7753 2.96301 13.2559 2.89425 12.7402 2.82542C12.2487 2.75999 11.7608 2.69617 11.4898 2.86502C11.217 3.03754 11.0512 3.51299 10.8872 3.9884C10.7125 4.49076 10.538 4.99298 10.1926 5.36129C9.84729 5.72941 9.36579 5.92664 8.88239 6.12398C8.42842 6.3093 7.97077 6.49663 7.81474 6.78332C7.65856 7.06806 7.73935 7.56958 7.82015 8.07111C7.90508 8.60113 7.99002 9.13108 7.86369 9.64211C7.73893 10.1378 7.4278 10.5587 7.11484 10.9835C6.80015 11.4102 6.47995 11.8426 6.4865 12.2256C6.49302 12.6064 6.82784 13.0272 7.15694 13.4423C7.48418 13.8556 7.80954 14.2651 7.95126 14.756C8.095 15.2621 8.02826 15.7949 7.96152 16.3276C7.89794 16.8317 7.83437 17.3359 8.00021 17.6148C8.24224 18.0239 9.3258 18.2902 9.80913 18.5273C10.0369 18.6394 10.2465 18.7729 10.4253 18.9507C10.783 19.3061 10.9747 19.802 11.1665 20.2976C11.3466 20.7668 11.5286 21.236 11.8072 21.3987C12.0838 21.5576 12.5692 21.4765 13.0582 21.3935C13.5711 21.3061 14.0879 21.2187 14.5843 21.3488C15.0733 21.4791 15.4916 21.8107 15.8875 22.1199C16.3002 22.444 16.7204 22.7736 17.0923 22.7669C17.5677 22.7584 17.9688 22.2958 18.3344 22.0282ZM15.3818 13.9899L16.453 13.9707L16.3848 9.98821L13.8167 10.0344L14.6305 11.0848C14.7157 11.1937 14.7513 11.3322 14.7333 11.4677C14.6748 11.9451 14.447 12.3683 14.1155 12.6753C13.7857 12.9803 13.3522 13.1691 12.8766 13.1777C12.4011 13.1862 11.9632 13.013 11.6233 12.7201C11.2777 12.4252 11.0373 12.0047 10.9624 11.5278C10.9395 11.3797 10.9815 11.236 11.0667 11.1297L12.4009 9.28059C12.4854 9.13996 12.6356 9.04579 12.8058 9.04273L16.3674 8.97873L16.3529 8.135C16.3482 7.85692 16.5626 7.62826 16.8328 7.6234C17.1029 7.61855 17.3269 7.8394 17.3317 8.11742L17.3461 8.96115L20.9058 8.89718C21.0779 8.89409 21.2294 8.98277 21.3205 9.12032L22.7304 10.9392C22.8137 11.0463 22.8513 11.1867 22.8332 11.3221C22.7729 11.7996 22.547 12.2228 22.2154 12.5297C21.8857 12.8347 21.4521 13.0236 20.9766 13.0321C20.5012 13.0407 20.0614 12.8675 19.7214 12.5745C19.3776 12.2797 19.1354 11.8592 19.0606 11.3823C19.0377 11.2341 19.0797 11.0905 19.1667 10.9842L19.9295 9.92452L17.3633 9.97063L17.4315 13.9531L18.5009 13.9339C18.9024 13.9267 19.2698 14.0877 19.5372 14.3554C19.8064 14.6211 19.9756 14.9933 19.9827 15.4067C19.9897 15.8181 19.8334 16.1962 19.5734 16.4714C19.3154 16.7485 18.9537 16.9227 18.5522 16.9299L15.4329 16.9859C15.0313 16.9931 14.6658 16.832 14.3966 16.5644C14.1293 16.2987 13.9582 15.9265 13.9511 15.515C13.9441 15.1018 14.1023 14.7237 14.3604 14.4484C14.6205 14.1712 14.9802 13.9972 15.3818 13.9899ZM18.5184 14.9414L15.399 14.9975C15.2676 14.9998 15.1502 15.0572 15.0647 15.1482C14.9793 15.2394 14.9277 15.3621 14.9301 15.4974C14.9323 15.6308 14.9881 15.7517 15.0766 15.8397C15.1651 15.9276 15.2844 15.9807 15.4158 15.9783L18.5352 15.9223C18.6665 15.9199 18.784 15.8626 18.8695 15.7715C18.9549 15.6805 19.0064 15.5576 19.0041 15.4242C19.0018 15.2889 18.9461 15.1681 18.8576 15.0801C18.7691 14.9922 18.6498 14.9391 18.5184 14.9414ZM21.5625 11.7813C21.6809 11.6744 21.7711 11.5355 21.8221 11.3784L20.9288 10.2247L20.0755 11.4098C20.1318 11.565 20.2267 11.7005 20.3469 11.8032C20.5122 11.945 20.7264 12.0288 20.9596 12.0246C21.1927 12.0204 21.404 11.929 21.5625 11.7813ZM13.4642 11.9269C13.5808 11.8199 13.671 11.6811 13.7238 11.5239L12.8287 10.3702L11.9754 11.5553C12.0318 11.7105 12.1266 11.8461 12.2487 11.9487C12.4121 12.0905 12.6264 12.1743 12.8595 12.1701C13.0945 12.1659 13.3039 12.0745 13.4642 11.9269ZM21.9665 17.0038C22.1518 16.8023 22.4607 16.7948 22.6565 16.9856C22.8523 17.1765 22.8614 17.4944 22.6742 17.6959C21.951 18.4767 21.0809 19.1116 20.1057 19.552C19.1672 19.9747 18.1349 20.218 17.0489 20.2376C14.849 20.2771 12.8425 19.3948 11.3758 17.937C9.90732 16.4793 8.98039 14.4442 8.94165 12.1815C8.90287 9.91686 9.75955 7.84956 11.1773 6.33995C12.5931 4.83037 14.5682 3.87663 16.7681 3.8371C18.968 3.79757 20.9763 4.67974 22.443 6.13752C23.9097 7.59531 24.8366 9.63056 24.8754 11.8951C24.8869 12.5675 24.8185 13.2241 24.6777 13.8591C24.5352 14.5076 24.3163 15.1287 24.0302 15.7131C23.9104 15.961 23.6179 16.0615 23.3771 15.9382C23.1362 15.813 23.0385 15.5118 23.1582 15.2639C23.4067 14.7545 23.5991 14.21 23.7263 13.6362C23.8464 13.0853 23.9069 12.5088 23.8967 11.9127C23.8627 9.92623 23.0492 8.14049 21.7633 6.86227C20.4755 5.5842 18.7151 4.80995 16.7854 4.84463C14.8556 4.8793 13.1229 5.71632 11.8815 7.03983C10.6382 8.36343 9.88826 10.1773 9.92228 12.1638C9.95626 14.1484 10.7678 15.9342 12.0557 17.2124C13.3416 18.4905 15.102 19.2647 17.0317 19.23C17.9883 19.2128 18.8933 19.0003 19.7161 18.6293C20.5701 18.2425 21.3341 17.6876 21.9665 17.0038Z" fill="#1D2940"/>
</g>
<defs>
<clipPath id="clip0_5118_642">
<rect width="33.4221" height="34.4045" fill="white" transform="matrix(0.999836 -0.0179655 0.0171202 0.999856 0 0.600586)"/>
</clipPath>
</defs>
</svg>
