<svg width="26" height="26" viewBox="0 0 26 26" fill="none" xmlns="http://www.w3.org/2000/svg">
<g clip-path="url(#clip0_6010_11898)">
<path d="M21.3077 17.6154H23.1538C23.6435 17.6154 24.1131 17.4209 24.4593 17.0747C24.8055 16.7285 25 16.2589 25 15.7693V13C25 12.5104 24.8055 12.0408 24.4593 11.6946C24.1131 11.3484 23.6435 11.1539 23.1538 11.1539H21.3077C21.0629 11.1539 20.8281 11.2511 20.655 11.4242C20.4819 11.5973 20.3846 11.8321 20.3846 12.0769V16.6923C20.3846 16.9371 20.4819 17.1719 20.655 17.345C20.8281 17.5182 21.0629 17.6154 21.3077 17.6154ZM21.3077 17.6154V19C21.3077 19.9793 20.9187 20.9184 20.2262 21.6109C19.5338 22.3033 18.5946 22.6923 17.6154 22.6923M2.84615 11.1539H4.69231C4.93712 11.1539 5.17191 11.2511 5.34502 11.4242C5.51813 11.5973 5.61538 11.8321 5.61538 12.0769V16.6923C5.61538 16.9371 5.51813 17.1719 5.34502 17.345C5.17191 17.5182 4.93712 17.6154 4.69231 17.6154H2.84615C2.35652 17.6154 1.88695 17.4209 1.54073 17.0747C1.1945 16.7285 1 16.2589 1 15.7693V13C1 12.5104 1.1945 12.0408 1.54073 11.6946C1.88695 11.3484 2.35652 11.1539 2.84615 11.1539Z" stroke="#007DE7" stroke-width="1.38462" stroke-linecap="round" stroke-linejoin="round"/>
<path d="M4.69141 11.1539V9.30772C4.69141 7.10439 5.56668 4.99129 7.12467 3.4333C8.68267 1.8753 10.7958 1.00003 12.9991 1.00003C15.2024 1.00003 17.3155 1.8753 18.8735 3.4333C20.4315 4.99129 21.3068 7.10439 21.3068 9.30772V11.1539M10.2299 7.46157V10.2308M15.7683 7.46157V10.2308M10.2299 13.9231C10.2299 16.3785 15.7683 16.3785 15.7683 13.9231M15.3068 20.3846C15.9188 20.3846 16.5058 20.6278 16.9386 21.0606C17.3714 21.4933 17.6145 22.0803 17.6145 22.6923C17.6145 23.3044 17.3714 23.8913 16.9386 24.3241C16.5058 24.7569 15.9188 25 15.3068 25H12.5376C11.9255 25 11.3386 24.7569 10.9058 24.3241C10.473 23.8913 10.2299 23.3044 10.2299 22.6923C10.2299 22.0803 10.473 21.4933 10.9058 21.0606C11.3386 20.6278 11.9255 20.3846 12.5376 20.3846H15.3068Z" stroke="#007DE7" stroke-width="1.38462" stroke-linecap="round" stroke-linejoin="round"/>
</g>
<defs>
<clipPath id="clip0_6010_11898">
<rect width="25.8462" height="25.8462" fill="white" transform="translate(0.078125 0.0769348)"/>
</clipPath>
</defs>
</svg>
