<svg width="40" height="40" viewBox="0 0 40 40" fill="none" xmlns="http://www.w3.org/2000/svg">
<path d="M4.375 5H35.625C38.04 5 40 6.96 40 9.375V30.625C40 31.7853 39.5391 32.8981 38.7186 33.7186C37.8981 34.5391 36.7853 35 35.625 35H4.375C3.21468 35 2.10188 34.5391 1.28141 33.7186C0.460936 32.8981 0 31.7853 0 30.625L0 9.375C0 6.96 1.96 5 4.375 5ZM3.75 30.6275C3.75 30.9725 4.03 31.2525 4.375 31.2525H35.625C35.7908 31.2525 35.9497 31.1867 36.0669 31.0694C36.1842 30.9522 36.25 30.7933 36.25 30.6275V14.5225L20.95 23.4925C20.662 23.6617 20.334 23.751 20 23.751C19.666 23.751 19.338 23.6617 19.05 23.4925L3.75 14.5225V30.6275ZM36.25 10.175V9.375C36.25 9.20924 36.1842 9.05027 36.0669 8.93306C35.9497 8.81585 35.7908 8.75 35.625 8.75H4.375C4.20924 8.75 4.05027 8.81585 3.93306 8.93306C3.81585 9.05027 3.75 9.20924 3.75 9.375V10.175L20 19.7L36.25 10.175Z" fill="white"/>
</svg>
