<svg width="40" height="41" viewBox="0 0 40 41" fill="none" xmlns="http://www.w3.org/2000/svg">
<path d="M6.66732 33.8327C5.75065 33.8327 4.96565 33.506 4.31232 32.8527C3.65899 32.1994 3.33288 31.4149 3.33399 30.4994V10.4994C3.33399 9.58269 3.66065 8.79768 4.31399 8.14435C4.96732 7.49102 5.75176 7.16491 6.66732 7.16602H33.334C34.2507 7.16602 35.0357 7.49268 35.689 8.14602C36.3423 8.79935 36.6684 9.5838 36.6673 10.4994V30.4994C36.6673 31.416 36.3407 32.201 35.6873 32.8544C35.034 33.5077 34.2495 33.8338 33.334 33.8327H6.66732ZM33.334 13.8327L20.8757 21.6244C20.7368 21.7077 20.5907 21.7705 20.4373 21.8127C20.284 21.8549 20.1384 21.8755 20.0007 21.8744C19.8618 21.8744 19.7157 21.8538 19.5623 21.8127C19.409 21.7716 19.2634 21.7088 19.1257 21.6244L6.66732 13.8327V30.4994H33.334V13.8327ZM20.0007 18.8327L33.334 10.4994H6.66732L20.0007 18.8327ZM6.66732 14.2494V11.791V11.8327V11.8127V14.2494Z" fill="#141B2C"/>
</svg>
