<svg width="40" height="40" viewBox="0 0 40 40" fill="none" xmlns="http://www.w3.org/2000/svg">
<path d="M6.66732 33.3327C5.75065 33.3327 4.96565 33.006 4.31232 32.3527C3.65899 31.6994 3.33288 30.9149 3.33399 29.9994V9.99935C3.33399 9.08269 3.66065 8.29768 4.31399 7.64435C4.96732 6.99102 5.75176 6.66491 6.66732 6.66602H33.334C34.2507 6.66602 35.0357 6.99268 35.689 7.64602C36.3423 8.29935 36.6684 9.0838 36.6673 9.99935V29.9994C36.6673 30.916 36.3407 31.701 35.6873 32.3544C35.034 33.0077 34.2495 33.3338 33.334 33.3327H6.66732ZM33.334 13.3327L20.8757 21.1244C20.7368 21.2077 20.5907 21.2705 20.4373 21.3127C20.284 21.3549 20.1384 21.3755 20.0007 21.3744C19.8618 21.3744 19.7157 21.3538 19.5623 21.3127C19.409 21.2716 19.2634 21.2088 19.1257 21.1244L6.66732 13.3327V29.9994H33.334V13.3327ZM20.0007 18.3327L33.334 9.99935H6.66732L20.0007 18.3327ZM6.66732 13.7494V11.291V11.3327V11.3127V13.7494Z" fill="#080D06"/>
</svg>
