<svg width="19" height="12" viewBox="0 0 19 12" fill="none" xmlns="http://www.w3.org/2000/svg">
<path d="M18.4602 0.358832C18.4448 0.320948 18.4255 0.284611 18.4023 0.250374C18.3932 0.227657 18.3824 0.205518 18.3702 0.184094C18.3104 0.128416 18.2434 0.0798478 18.1709 0.0394834L18.0617 0.00333073H1.10545C1.06058 -0.00111024 1.01534 -0.00111024 0.970466 0.00333073L0.861195 0.0394834C0.827187 0.0568061 0.794918 0.0769728 0.76478 0.0997378C0.72995 0.122786 0.697653 0.149026 0.668365 0.178069C0.656131 0.199486 0.645396 0.221625 0.636227 0.244348C0.568249 0.30901 0.521414 0.390547 0.501245 0.479341C0.499585 0.503418 0.499585 0.52757 0.501245 0.551647V11.3975C0.501245 11.5573 0.568965 11.7105 0.689508 11.8235C0.81005 11.9365 0.973541 12 1.14401 12H17.856C18.0265 12 18.1899 11.9365 18.3105 11.8235C18.431 11.7105 18.4988 11.5573 18.4988 11.3975V0.551647C18.5004 0.52757 18.5004 0.503418 18.4988 0.479341C18.4904 0.43802 18.4775 0.39763 18.4602 0.358832V0.358832ZM15.9662 1.15419L9.5 5.81789L3.03375 1.15419H15.9662ZM17.2132 10.7949H1.78678V1.75674L9.10791 7.03503C9.2203 7.11614 9.35816 7.16012 9.5 7.16012C9.64184 7.16012 9.7797 7.11614 9.89209 7.03503L17.2132 1.75674V10.7949Z" fill="white"/>
</svg>
