<svg width="45" height="48" viewBox="0 0 45 48" fill="none" xmlns="http://www.w3.org/2000/svg">
<path d="M21.3741 7.35971C21.235 7.25585 21.0658 7.19971 20.892 7.19971C20.7181 7.19971 20.5489 7.25585 20.4098 7.35971L10.7667 14.5597C10.6669 14.6343 10.5859 14.7309 10.5302 14.842C10.4744 14.953 10.4453 15.0755 10.4453 15.1997V28.7998C10.4453 29.012 10.53 29.2154 10.6807 29.3655C10.8314 29.5155 11.0358 29.5998 11.2489 29.5998H30.535C30.7482 29.5998 30.9526 29.5155 31.1033 29.3655C31.254 29.2154 31.3386 29.012 31.3386 28.7998V15.1997C31.3386 15.0755 31.3096 14.953 31.2538 14.842C31.198 14.7309 31.117 14.6343 31.0172 14.5597L21.3741 7.35971ZM12.0525 15.5997L20.892 8.99971L29.7315 15.5997V17.5997L21.3741 11.3597C21.235 11.2559 21.0658 11.1997 20.892 11.1997C20.7181 11.1997 20.5489 11.2559 20.4098 11.3597L12.0525 17.5997V15.5997ZM18.4812 27.9998V22.3998C18.4812 21.7632 18.7352 21.1528 19.1873 20.7027C19.6394 20.2526 20.2526 19.9998 20.892 19.9998C21.5313 19.9998 22.1445 20.2526 22.5966 20.7027C23.0487 21.1528 23.3027 21.7632 23.3027 22.3998V27.9998H18.4812ZM29.7315 27.9998H24.9099V22.3998C24.9099 21.3389 24.4866 20.3215 23.7331 19.5713C22.9796 18.8212 21.9576 18.3997 20.892 18.3997C19.8263 18.3997 18.8044 18.8212 18.0509 19.5713C17.2973 20.3215 16.874 21.3389 16.874 22.3998V27.9998H12.0525V19.5997L20.892 12.9997L29.7315 19.5997V27.9998Z" fill="#86B03C"/>
<path d="M7.2323 39.9998C6.59293 39.9998 5.97974 39.747 5.52763 39.2969C5.07552 38.8468 4.82153 38.2363 4.82153 37.5998C4.82153 37.3876 4.73687 37.1841 4.58617 37.0341C4.43547 36.8841 4.23107 36.7998 4.01795 36.7998C3.80482 36.7998 3.60042 36.8841 3.44972 37.0341C3.29902 37.1841 3.21436 37.3876 3.21436 37.5998C3.21436 38.2363 2.96037 38.8468 2.50826 39.2969C2.05615 39.747 1.44296 39.9998 0.803589 39.9998C0.590464 39.9998 0.386068 40.0841 0.235366 40.2341C0.0846638 40.3842 0 40.5876 0 40.7998C0 41.012 0.0846638 41.2155 0.235366 41.3655C0.386068 41.5155 0.590464 41.5998 0.803589 41.5998C1.44296 41.5998 2.05615 41.8527 2.50826 42.3028C2.96037 42.7529 3.21436 43.3633 3.21436 43.9998C3.21436 44.212 3.29902 44.4155 3.44972 44.5655C3.60042 44.7155 3.80482 44.7998 4.01795 44.7998C4.23107 44.7998 4.43547 44.7155 4.58617 44.5655C4.73687 44.4155 4.82153 44.212 4.82153 43.9998C4.82153 43.3633 5.07552 42.7529 5.52763 42.3028C5.97974 41.8527 6.59293 41.5998 7.2323 41.5998C7.44543 41.5998 7.64982 41.5155 7.80052 41.3655C7.95123 41.2155 8.03589 41.012 8.03589 40.7998C8.03589 40.5876 7.95123 40.3842 7.80052 40.2341C7.64982 40.0841 7.44543 39.9998 7.2323 39.9998ZM4.01795 41.6246C3.78385 41.3108 3.5047 41.0329 3.18944 40.7998C3.5047 40.5668 3.78385 40.2889 4.01795 39.975C4.25204 40.2889 4.53119 40.5668 4.84645 40.7998C4.53119 41.0329 4.25204 41.3108 4.01795 41.6246Z" fill="#86B03C"/>
<path d="M44.1971 3.20001C43.5578 3.20001 42.9446 2.94715 42.4925 2.49706C42.0404 2.04698 41.7864 1.43652 41.7864 0.800003C41.7864 0.587829 41.7017 0.384345 41.551 0.234315C41.4003 0.0842857 41.1959 0 40.9828 0C40.7697 0 40.5653 0.0842857 40.4146 0.234315C40.2639 0.384345 40.1792 0.587829 40.1792 0.800003C40.1792 1.43652 39.9252 2.04698 39.4731 2.49706C39.021 2.94715 38.4078 3.20001 37.7684 3.20001C37.5553 3.20001 37.3509 3.2843 37.2002 3.43433C37.0495 3.58436 36.9648 3.78784 36.9648 4.00001C36.9648 4.21219 37.0495 4.41567 37.2002 4.5657C37.3509 4.71573 37.5553 4.80002 37.7684 4.80002C38.4078 4.80002 39.021 5.05287 39.4731 5.50296C39.9252 5.95305 40.1792 6.5635 40.1792 7.20002C40.1792 7.4122 40.2639 7.61568 40.4146 7.76571C40.5653 7.91574 40.7697 8.00003 40.9828 8.00003C41.1959 8.00003 41.4003 7.91574 41.551 7.76571C41.7017 7.61568 41.7864 7.4122 41.7864 7.20002C41.7864 6.5635 42.0404 5.95305 42.4925 5.50296C42.9446 5.05287 43.5578 4.80002 44.1971 4.80002C44.4103 4.80002 44.6147 4.71573 44.7654 4.5657C44.9161 4.41567 45.0007 4.21219 45.0007 4.00001C45.0007 3.78784 44.9161 3.58436 44.7654 3.43433C44.6147 3.2843 44.4103 3.20001 44.1971 3.20001ZM40.9828 4.82482C40.7487 4.51097 40.4695 4.23306 40.1543 4.00001C40.4695 3.76696 40.7487 3.48906 40.9828 3.17521C41.2169 3.48906 41.496 3.76696 41.8113 4.00001C41.496 4.23306 41.2169 4.51097 40.9828 4.82482Z" fill="#86B03C"/>
<path d="M36.9666 18.4004H35.3594V27.2004H36.9666V18.4004Z" fill="#86B03C"/>
<path d="M26.3236 3.5034C26.2483 3.40884 26.1525 3.33245 26.0434 3.27994C25.9343 3.22743 25.8147 3.20017 25.6935 3.2002H16.1035V4.8002H25.3094C27.8968 7.97127 31.41 10.2636 35.3631 11.3602V15.2002H36.9703V10.7442C36.9704 10.565 36.91 10.3909 36.7988 10.2499C36.6876 10.1089 36.5321 10.0091 36.3572 9.96662C32.3779 8.99642 28.8431 6.71948 26.3236 3.5034Z" fill="#86B03C"/>
<path d="M39.38 7.20003C37.0782 7.01978 34.8505 6.30725 32.874 5.11911C30.8975 3.93097 29.2268 2.30001 27.9948 0.356001C27.9214 0.246468 27.8219 0.156666 27.7053 0.0945644C27.5887 0.0324624 27.4584 -1.96955e-05 27.3262 8.95955e-09H14.4688C14.3365 -1.96955e-05 14.2063 0.0324624 14.0896 0.0945644C13.973 0.156666 13.8736 0.246468 13.8002 0.356001C9.29123 7.09043 2.69216 7.20003 2.41492 7.20003C2.20179 7.20003 1.9974 7.28431 1.84669 7.43434C1.69599 7.58437 1.61133 7.78785 1.61133 8.00003V28.8001C1.61137 29.0123 1.69607 29.2157 1.84678 29.3657L20.3293 47.7658C20.48 47.9157 20.6844 48 20.8975 48C21.1105 48 21.3149 47.9157 21.4656 47.7658L39.9482 29.3657C40.0989 29.2157 40.1836 29.0123 40.1836 28.8001V8.00003C40.1836 7.78785 40.0989 7.58437 39.9482 7.43434C39.7975 7.28431 39.5931 7.20003 39.38 7.20003ZM38.5764 28.4689L20.8975 46.069L14.8014 40.0001L20.662 34.1657L19.5257 33.0345L13.6652 38.8689L12.3907 37.6001L16.6441 33.3657L15.5078 32.2345L11.2544 36.4689L3.21851 28.4689V8.74963C5.56575 8.46142 7.82322 7.67375 9.83762 6.44011C11.852 5.20647 13.5762 3.55574 14.893 1.60001H26.9019C28.2187 3.55574 29.9429 5.20647 31.9573 6.44011C33.9717 7.67375 36.2292 8.46142 38.5764 8.74963V28.4689Z" fill="#86B03C"/>
</svg>
