<svg width="54" height="54" viewBox="0 0 54 54" fill="none" xmlns="http://www.w3.org/2000/svg">
<path d="M52.403 26.2795C52.4049 29.2959 51.2546 32.1991 49.1873 34.3956C47.12 36.5921 44.2918 37.916 41.2808 38.0968C41.2769 35.1142 40.3138 32.2119 38.5338 29.8186C36.7539 27.4253 34.2514 25.6678 31.396 24.8059C28.7767 24.009 25.9796 24.009 23.3603 24.8059C20.5049 25.6678 18.0025 27.4253 16.2225 29.8186C14.4425 32.2119 13.4795 35.1142 13.4755 38.0968H12.7804C10.015 38.189 7.32619 37.1788 5.30556 35.2886C3.28494 33.3983 2.09798 30.7828 2.0058 28.0174C1.91362 25.252 2.92377 22.5632 4.81403 20.5426C6.70429 18.5219 9.31982 17.335 12.0852 17.2428V17.2428C12.0978 13.4239 13.5387 9.74785 16.1246 6.93764C18.7105 4.12743 22.2543 2.38643 26.059 2.05703C29.8637 1.72762 33.654 2.83366 36.6844 5.15761C39.7148 7.48157 41.7661 10.8553 42.4348 14.6152C45.2125 15.0552 47.7422 16.4715 49.5694 18.6096C51.3965 20.7476 52.4012 23.4671 52.403 26.2795Z" stroke="#0B111D" stroke-width="2.5" stroke-linecap="round" stroke-linejoin="round"/>
<path d="M41.2821 38.0974C41.2858 38.9228 41.2113 39.7468 41.0596 40.5582C41.0596 40.9057 40.9206 41.2394 40.8372 41.5731C40.5857 42.5722 40.217 43.5382 39.7389 44.4509C39.4387 45.0293 39.0996 45.5867 38.724 46.1192L38.5015 46.439C38.3208 46.6892 38.1262 46.9256 37.9454 47.148C37.2805 47.9164 36.5347 48.6109 35.721 49.2195C33.3173 51.0298 30.3885 52.0061 27.3794 52.0001C25.4286 52.0049 23.4993 51.5925 21.721 50.7905C20.7707 50.3688 19.8706 49.8419 19.0378 49.2195C18.2198 48.6211 17.4775 47.9255 16.8273 47.148C16.6253 46.9216 16.435 46.6849 16.2573 46.439C15.7854 45.8124 15.3669 45.1474 15.006 44.4509C14.5279 43.5382 14.1592 42.5722 13.9077 41.5731C13.6159 40.4377 13.471 39.2696 13.4767 38.0974C13.4741 37.5768 13.5066 37.0565 13.574 36.5403C13.8398 34.0781 14.767 31.7337 16.2573 29.7558C16.438 29.5194 16.6187 29.297 16.8134 29.0746C17.4695 28.2896 18.2162 27.5849 19.0378 26.9753C20.3309 25.9789 21.7966 25.2295 23.3615 24.7647L24.3764 24.4867C26.3557 24.0604 28.4031 24.0604 30.3824 24.4867L31.3973 24.7647C32.9598 25.2353 34.4246 25.9842 35.721 26.9753C36.5385 27.5637 37.2809 28.25 37.9315 29.0189C38.1343 29.2544 38.3245 29.5004 38.5015 29.7558C40.3064 32.1623 41.2821 35.0893 41.2821 38.0974Z" stroke="#0B111D" stroke-width="2.5" stroke-linecap="round" stroke-linejoin="round"/>
<path d="M23.526 43.8658C23.7345 44.0187 23.9708 44.1438 24.1933 44.2828C24.6376 44.5091 25.1033 44.6908 25.5836 44.825L26.098 44.9363C26.519 45.0198 26.9479 45.0571 27.377 45.0475V45.0475M20.4257 38.0962C20.405 37.8371 20.405 37.5767 20.4257 37.3176C20.5711 36.0812 21.0519 34.9082 21.8159 33.9254C21.8971 33.8089 21.9853 33.6974 22.0801 33.5917C22.4163 33.2 22.7939 32.8457 23.2062 32.5351C23.8483 32.0323 24.5793 31.655 25.3611 31.4229L25.8755 31.2838C26.3702 31.1881 26.8731 31.1415 27.377 31.1448L20.4257 38.0962ZM34.3283 38.0962C34.334 38.5067 34.2967 38.9168 34.2171 39.3196C34.2171 39.5003 34.1476 39.6672 34.1059 39.834C33.9716 40.3142 33.79 40.7799 33.5637 41.2243C33.3969 41.5023 33.23 41.7943 33.0493 42.0445L32.9381 42.267L32.66 42.6284C32.3279 43.0109 31.9549 43.3558 31.5478 43.6572C30.3474 44.5651 28.882 45.0536 27.377 45.0475L34.3283 38.0962ZM27.377 31.1448C27.6361 31.1236 27.8965 31.1236 28.1555 31.1448C29.2563 31.2639 30.3111 31.6505 31.228 32.2709L27.377 31.1448Z" stroke="#0B111D" stroke-width="2.5" stroke-linecap="round" stroke-linejoin="round"/>
<path d="M34.3278 35.3164L32.9375 36.7067H35.718L34.3278 35.3164Z" stroke="#0B111D" stroke-width="2.5" stroke-linecap="round" stroke-linejoin="round"/>
<path d="M20.4254 40.8776L21.8157 39.4873H19.0352L20.4254 40.8776Z" stroke="#0B111D" stroke-width="2.5" stroke-linecap="round" stroke-linejoin="round"/>
</svg>
