<svg width="54" height="54" viewBox="0 0 54 54" fill="none" xmlns="http://www.w3.org/2000/svg">
<path d="M52.4036 26.2798C52.3999 29.4129 51.1537 32.4165 48.9383 34.6319C46.7229 36.8473 43.7192 38.0936 40.5862 38.0972H38.5008V26.975C38.5008 24.6671 33.5235 22.8041 27.3785 22.8041C21.2334 22.8041 16.2562 24.6671 16.2562 26.975V38.0972H12.7805C10.0151 38.1894 7.32625 37.1793 5.3056 35.289C3.28496 33.3987 2.09798 30.7831 2.0058 28.0177C1.91362 25.2522 2.92378 22.5634 4.81406 20.5428C6.70435 18.5221 9.31991 17.3352 12.0854 17.243C12.0979 13.424 13.5388 9.74795 16.1248 6.9377C18.7107 4.12746 22.2545 2.38643 26.0593 2.05703C29.864 1.72762 33.6544 2.83367 36.6848 5.15765C39.7153 7.48164 41.7666 10.8554 42.4353 14.6153C45.213 15.0554 47.7428 16.4717 49.57 18.6098C51.3971 20.7478 52.4018 23.4674 52.4036 26.2798Z" stroke="#0B111D" stroke-width="2.5" stroke-linecap="round" stroke-linejoin="round"/>
<path d="M38.5004 33.926V40.8774C38.5004 42.2677 36.5262 43.658 33.5371 44.3531C29.4835 45.2802 25.2728 45.2802 21.2192 44.3531C18.2301 43.658 16.2559 42.2677 16.2559 40.8774V33.926C16.2559 35.3163 18.2301 36.7066 21.2192 37.4017C25.2728 38.3288 29.4835 38.3288 33.5371 37.4017C36.5262 36.7066 38.5004 35.3163 38.5004 33.926ZM38.5004 26.9746C38.5004 28.3648 36.5262 29.7551 33.5371 30.4503C29.4835 31.3774 25.2728 31.3774 21.2192 30.4503C18.2301 29.7551 16.2559 28.3648 16.2559 26.9746C16.2559 24.6667 21.2331 22.8037 27.3781 22.8037C33.5232 22.8037 38.5004 24.6667 38.5004 26.9746Z" stroke="#0B111D" stroke-width="2.5" stroke-linecap="round" stroke-linejoin="round"/>
<path d="M38.5004 26.9746V33.926C38.5004 35.3163 36.5262 36.7066 33.5371 37.4017C29.4835 38.3288 25.2728 38.3288 21.2192 37.4017C18.2301 36.7066 16.2559 35.3163 16.2559 33.926V26.9746C16.2559 28.3649 18.2301 29.7552 21.2192 30.4503C25.2728 31.3774 29.4835 31.3774 33.5371 30.4503C36.5262 29.7552 38.5004 28.3649 38.5004 26.9746ZM38.5004 40.8775V47.8289C38.5004 50.1367 33.5232 51.9997 27.3781 51.9997C21.2331 51.9997 16.2559 50.1367 16.2559 47.8289V40.8775C16.2559 42.2677 18.2301 43.658 21.2192 44.3532C25.2728 45.2803 29.4835 45.2803 33.5371 44.3532C36.5262 43.658 38.5004 42.2677 38.5004 40.8775Z" stroke="#0B111D" stroke-width="2.5" stroke-linecap="round" stroke-linejoin="round"/>
</svg>
