<svg width="51" height="44" viewBox="0 0 51 44" fill="none" xmlns="http://www.w3.org/2000/svg">
<path d="M10.8961 38.9317H8.77094C8.32197 38.9317 7.95818 39.2964 7.95818 39.7465C7.95818 40.1966 8.32197 40.5613 8.77094 40.5613H12.8672C12.9806 40.5613 13.0883 40.5378 13.1863 40.4959C13.1968 40.4913 13.2063 40.4843 13.2166 40.4793C13.2553 40.4608 13.2932 40.4411 13.3282 40.4169C13.3428 40.4067 13.3558 40.3936 13.3699 40.3824C13.3991 40.3592 13.4278 40.3357 13.4535 40.3087C13.4572 40.3048 13.4618 40.3022 13.4654 40.2982C13.4695 40.2937 13.4705 40.2878 13.4745 40.2833C13.539 40.2099 13.5908 40.1258 13.6258 40.0325C13.6298 40.0219 13.6321 40.0115 13.6356 40.0008C13.6621 39.9203 13.68 39.8359 13.68 39.7465C13.68 39.7385 13.6778 39.731 13.6776 39.723C13.6773 39.7129 13.6753 39.7035 13.6747 39.6935C13.6683 39.5951 13.6468 39.5012 13.6087 39.4155C13.6059 39.4092 13.6018 39.4037 13.5988 39.3974C13.5553 39.3059 13.4962 39.2238 13.4235 39.155C13.4209 39.1526 13.4201 39.1492 13.4175 39.1468C9.57999 35.6075 6.97769 30.9987 5.46198 25.0573C5.45759 25.04 5.44942 25.0249 5.44399 25.0081C5.43437 24.9785 5.42498 24.949 5.41215 24.9209C5.40196 24.8986 5.38963 24.8782 5.37765 24.8572C5.36357 24.8324 5.34971 24.8078 5.33317 24.7848C5.31849 24.7643 5.30202 24.7459 5.28562 24.727C5.26766 24.7063 5.24997 24.6857 5.23002 24.6669C5.21213 24.6501 5.19285 24.6354 5.17357 24.6203C5.15165 24.603 5.12992 24.586 5.10627 24.5711C5.08564 24.558 5.06401 24.5473 5.04231 24.5362C5.01781 24.5237 4.99357 24.5112 4.96767 24.5011C4.94287 24.4914 4.91734 24.4847 4.89161 24.4774C4.86717 24.4706 4.84313 24.4633 4.81783 24.4588C4.7878 24.4533 4.75724 24.4516 4.72652 24.4496C4.70902 24.4484 4.69242 24.4443 4.67463 24.4443H2.25807C1.80909 24.4443 1.44531 24.809 1.44531 25.2592C1.44531 25.7093 1.80909 26.074 2.25807 26.074H4.05306C5.46847 31.2891 7.71597 35.5209 10.8961 38.9317Z" fill="#86B03C"/>
<path d="M25.2118 43.9605C25.2932 43.9867 25.3779 44 25.4623 44C25.5467 44 25.6314 43.9867 25.7128 43.9605C44.0456 38.0077 45.5808 21.6573 45.5808 6.79941C45.5808 6.46945 45.5808 6.13313 45.5742 5.80317C45.57 5.57904 45.4737 5.36685 45.3083 5.21619C45.143 5.06527 44.9202 4.98888 44.7004 5.00665C43.8866 5.06846 43.0439 5.09975 42.196 5.09975C35.8775 5.09975 29.9607 3.30382 25.9626 0.172671C25.6684 -0.0575569 25.2562 -0.0575569 24.962 0.172671C20.9638 3.30382 15.047 5.09975 8.72863 5.09975C7.88069 5.09975 7.03804 5.06846 6.22423 5.00665C6.00041 4.98915 5.78135 5.06527 5.61626 5.21619C5.4509 5.36685 5.3546 5.57904 5.35036 5.80317C5.34375 6.13313 5.34375 6.46945 5.34375 6.79941C5.34375 21.6573 6.87904 38.0077 25.2118 43.9605ZM6.96926 6.68588C7.54866 6.7148 8.13759 6.72938 8.72863 6.72938C15.1468 6.72938 21.2025 4.95175 25.4623 1.83572C29.7221 4.95175 35.7778 6.72938 42.196 6.72938C42.787 6.72938 43.3759 6.7148 43.9553 6.68588C43.9553 6.72381 43.9553 6.76174 43.9553 6.79941C43.9553 21.6666 42.5232 36.6481 25.4623 42.3277C8.40136 36.6481 6.96926 21.6666 6.96926 6.79941C6.96926 6.76174 6.96926 6.72381 6.96926 6.68588Z" fill="#86B03C"/>
<path d="M25.1721 38.5461C25.2661 38.5822 25.3647 38.6002 25.4637 38.6002C25.5626 38.6002 25.6613 38.5822 25.7552 38.5461C34.9061 35.02 39.0823 28.4535 40.1697 15.8806C40.2083 15.4324 39.8774 15.0374 39.43 14.9984C38.9823 14.9661 38.5886 15.2918 38.55 15.74C37.537 27.4551 33.7386 33.6153 25.4637 36.9106C15.0842 32.7716 12.5911 24.1688 12.1334 11.6747C17.0076 11.2501 21.5917 9.93024 25.4637 7.83459C29.5425 10.0422 34.4116 11.3891 39.5779 11.7352C40.025 11.763 40.4131 11.4254 40.443 10.9766C40.4729 10.5276 40.1343 10.1392 39.6863 10.1093C34.5908 9.76792 29.81 8.41387 25.8613 6.19408C25.6142 6.0551 25.3131 6.0551 25.066 6.19408C21.1174 8.41387 16.3366 9.76792 11.241 10.1093C10.8048 10.1385 10.4698 10.5085 10.4828 10.9466C10.8902 24.6484 13.4899 34.0447 25.1721 38.5461Z" fill="#86B03C"/>
<path d="M49.3078 24.4443H46.2573C46.241 24.4443 46.2258 24.4482 46.2097 24.4491C46.1765 24.4511 46.1435 24.4531 46.111 24.4591C46.0891 24.4631 46.0684 24.4696 46.0472 24.4753C46.0177 24.4833 45.9885 24.4912 45.9603 24.5023C45.9383 24.511 45.9177 24.5219 45.8967 24.5324C45.8712 24.5452 45.8459 24.5578 45.8219 24.5731C45.8015 24.5861 45.7829 24.601 45.7639 24.6157C45.7416 24.6328 45.7196 24.6498 45.6991 24.6692C45.6815 24.686 45.6658 24.7045 45.6497 24.7228C45.6316 24.7435 45.6134 24.7639 45.5973 24.7866C45.5818 24.8082 45.569 24.8314 45.5557 24.8546C45.543 24.8768 45.5299 24.8984 45.5192 24.9221C45.5067 24.9494 45.4977 24.9782 45.4883 25.0071C45.4826 25.0244 45.4743 25.0402 45.4697 25.0581C44.8638 27.4429 44.0598 29.6589 43.0804 31.6432C42.6346 32.5424 42.175 33.3619 41.6766 34.1476C41.1967 34.9009 40.6802 35.6297 40.1426 36.3119C39.3394 37.3267 38.4552 38.2803 37.5149 39.1465C37.5125 39.1488 37.5117 39.1521 37.5093 39.1543C37.4363 39.2231 37.3771 39.3052 37.3334 39.3969C37.3304 39.4032 37.3263 39.4088 37.3235 39.4152C37.2854 39.5007 37.264 39.5942 37.2574 39.6922C37.2567 39.7027 37.2546 39.7125 37.2543 39.7229C37.2541 39.731 37.252 39.7385 37.252 39.7465C37.252 39.8356 37.2697 39.9197 37.296 39.9999C37.2996 40.0108 37.302 40.0214 37.3061 40.0322C37.3411 40.1257 37.393 40.21 37.4577 40.2835C37.4615 40.2878 37.4624 40.2934 37.4663 40.2977C37.4698 40.3015 37.4741 40.304 37.4776 40.3077C37.504 40.3355 37.5334 40.3598 37.5635 40.3835C37.577 40.3943 37.5894 40.4068 37.6035 40.4166C37.6379 40.4405 37.6753 40.4599 37.7133 40.4782C37.7243 40.4836 37.7345 40.4911 37.7457 40.4959C37.8437 40.5379 37.9514 40.5613 38.0647 40.5613H42.161C42.61 40.5613 42.9738 40.1966 42.9738 39.7465C42.9738 39.2964 42.61 38.9317 42.161 38.9317H40.0347C40.5155 38.4152 40.9778 37.8784 41.417 37.3236C41.9893 36.5971 42.5375 35.8236 43.0473 35.0234C43.5775 34.1879 44.0646 33.3195 44.5366 32.367C45.481 30.4538 46.2602 28.3344 46.8732 26.074H49.3078C49.7568 26.074 50.1205 25.7093 50.1205 25.2592C50.1205 24.809 49.7568 24.4443 49.3078 24.4443Z" fill="#86B03C"/>
<path d="M3.90661 22.4619C3.90846 22.4619 3.91015 22.4613 3.91197 22.4613C3.95569 22.461 3.99951 22.4578 4.04392 22.4502C4.04825 22.4495 4.05202 22.4475 4.05632 22.4467C4.08715 22.441 4.11608 22.4311 4.14558 22.4219C4.16781 22.415 4.19082 22.4099 4.21209 22.4012C4.23858 22.3904 4.26282 22.376 4.28785 22.3626C4.30962 22.3509 4.33227 22.3408 4.35267 22.3273C4.37523 22.3124 4.39514 22.2943 4.41607 22.2772C4.43562 22.2614 4.45619 22.2468 4.47411 22.2292C4.49415 22.2096 4.51098 22.1871 4.52894 22.1654C4.54406 22.1472 4.56056 22.1302 4.57402 22.1106C4.59042 22.087 4.60305 22.0609 4.61694 22.0355C4.62816 22.015 4.64085 21.9954 4.65028 21.9739C4.66096 21.9495 4.66771 21.9235 4.67601 21.898C4.68424 21.8727 4.6938 21.8481 4.69956 21.822C4.70462 21.7989 4.7059 21.7747 4.70895 21.7508C4.71285 21.7206 4.71761 21.6907 4.71808 21.6598C4.71814 21.6554 4.71937 21.6514 4.71937 21.647C4.71937 21.6237 4.71444 21.6016 4.71252 21.5788C4.71057 21.5556 4.71173 21.5328 4.70772 21.5094C4.16166 18.3156 3.86058 14.8113 3.76004 10.4815C3.75945 10.4552 3.75369 10.4305 3.75072 10.4048C3.74771 10.3792 3.74668 10.3531 3.74139 10.3284C3.73286 10.2877 3.71936 10.2494 3.70514 10.2113C3.70134 10.2013 3.69929 10.1905 3.69509 10.1806C3.57881 9.90251 3.3151 9.7072 2.99739 9.69059C2.98059 9.68956 2.96462 9.68555 2.94755 9.68555H0.812753C0.363781 9.68555 0 10.0503 0 10.5004C0 10.9505 0.363781 11.3152 0.812753 11.3152H2.15878C2.26659 14.9482 2.52233 18.0197 2.95367 20.8322H1.35459C0.905616 20.8322 0.541835 21.1969 0.541835 21.647C0.541835 22.0971 0.905616 22.4619 1.35459 22.4619H3.90661Z" fill="#86B03C"/>
<path d="M50.1869 11.3152C50.6359 11.3152 50.9997 10.9505 50.9997 10.5004C50.9997 10.0503 50.6359 9.68555 50.1869 9.68555H47.9844C47.9709 9.68555 47.9584 9.68886 47.9451 9.68953C47.5625 9.70206 47.2636 9.97157 47.1901 10.3297C47.1855 10.3517 47.1849 10.3749 47.182 10.3974C47.1786 10.4254 47.1726 10.4525 47.1719 10.4813C47.0703 14.8516 46.7674 18.3552 46.2192 21.507C46.2152 21.5297 46.2164 21.5519 46.2143 21.5744C46.2122 21.5987 46.207 21.6222 46.207 21.647C46.207 21.6511 46.2082 21.6548 46.2082 21.6589C46.2087 21.6901 46.2135 21.7202 46.2174 21.7506C46.2204 21.7741 46.2215 21.7979 46.2264 21.8206C46.2323 21.8477 46.2422 21.8731 46.2508 21.8992C46.2588 21.9238 46.2651 21.949 46.2754 21.9725C46.2852 21.9951 46.2986 22.0158 46.3105 22.0374C46.3238 22.0616 46.3356 22.0867 46.3513 22.1093C46.3656 22.1302 46.3832 22.1484 46.3994 22.1678C46.4164 22.1882 46.4321 22.2095 46.451 22.2281C46.4696 22.2465 46.4911 22.2617 46.5116 22.2783C46.5318 22.2946 46.5508 22.3123 46.5725 22.3266C46.5929 22.3401 46.6156 22.3502 46.6373 22.3619C46.6623 22.3754 46.6866 22.39 46.7132 22.4009C46.7336 22.4092 46.7557 22.414 46.7769 22.4207C46.8074 22.4304 46.8375 22.4406 46.8695 22.4467C46.8731 22.4474 46.8764 22.449 46.8801 22.4497C46.9275 22.4579 46.9743 22.4621 47.0208 22.4621C47.0214 22.4621 47.0218 22.4619 47.0223 22.4619H50.0515C50.5004 22.4619 50.8642 22.0971 50.8642 21.647C50.8642 21.1969 50.5004 20.8322 50.0515 20.8322H47.9751C48.408 18.0487 48.6647 14.9766 48.7732 11.3152H50.1869Z" fill="#86B03C"/>
<path d="M22.9293 28.4427H28.0098C28.4588 28.4427 28.8226 28.078 28.8226 27.6279V24.2472H32.1887C32.6377 24.2472 33.0014 23.8825 33.0014 23.4324V18.339C33.0014 17.8889 32.6377 17.5241 32.1887 17.5241H28.8226V14.1498C28.8226 13.6997 28.4588 13.335 28.0098 13.335H22.9293C22.4804 13.335 22.1166 13.6997 22.1166 14.1498V17.5241H18.7444C18.2954 17.5241 17.9316 17.8889 17.9316 18.339V23.4324C17.9316 23.8825 18.2954 24.2472 18.7444 24.2472H22.1166V27.6279C22.1166 28.078 22.4804 28.4427 22.9293 28.4427ZM19.5571 22.6175V19.1538H22.9293C23.3783 19.1538 23.7421 18.7891 23.7421 18.339V14.9646H27.1971V18.339C27.1971 18.7891 27.5609 19.1538 28.0098 19.1538H31.3759V22.6175H28.0098C27.5609 22.6175 27.1971 22.9822 27.1971 23.4324V26.8131H23.7421V23.4324C23.7421 22.9822 23.3783 22.6175 22.9293 22.6175H19.5571Z" fill="#86B03C"/>
</svg>
