<svg width="40" height="48" viewBox="0 0 40 48" fill="none" xmlns="http://www.w3.org/2000/svg">
<path d="M24.7992 35.2H21.5992V32H18.3992V35.2H15.1992V38.4H18.3992V41.6H21.5992V38.4H24.7992V35.2Z" fill="#86B03C"/>
<path d="M20 0C9.36 0 0 8.56 0 18.4H1.6C1.6 17.04 2.64 16 4 16C5.36 16 6.4 17.04 6.4 18.4H8C8 17.04 9.04 16 10.4 16C11.76 16 12.8 17.04 12.8 18.4H14.4C14.4 17.04 15.44 16 16.8 16C18.16 16 19.2 17.04 19.2 18.4V23.76C16.8 20.32 12.24 19.04 8.32 20.8C4.32 22.64 2.24 27.2 3.6 31.44C6.16 40.08 20 48 20 48C20 48 33.84 40.08 36.4 31.44C37.84 26.8 35.28 21.84 30.64 20.4C29.76 20.16 28.88 20 28 20C25.12 20 22.4 21.44 20.8 23.76V18.4C20.8 17.04 21.84 16 23.2 16C24.56 16 25.6 17.04 25.6 18.4H27.2C27.2 17.04 28.24 16 29.6 16C30.96 16 32 17.04 32 18.4H33.6C33.6 17.04 34.64 16 36 16C37.36 16 38.4 17.04 38.4 18.4H40C40 8.56 30.64 0 20 0ZM30.96 22.24C34.24 23.76 35.92 27.44 34.88 30.96C32.88 37.76 22.88 44.32 20 46.16C17.12 44.4 7.12 37.76 5.12 30.96C3.92 27.2 6 23.12 9.84 21.92C13.28 20.8 17.04 22.48 18.56 25.76L20 28.96L21.44 25.76C23.12 22.16 27.36 20.64 30.96 22.24ZM6.64 15.36C5.92 14.72 4.96 14.4 4 14.4C3.28 14.4 2.64 14.56 2 14.88C3.36 9.52 7.76 4.88 13.36 2.8C8.8 6.64 7.12 12.72 6.64 15.36ZM12.88 15.28C12.16 14.72 11.28 14.4 10.4 14.4C9.68 14.4 8.96 14.56 8.4 14.96C9.2 11.68 11.36 5.2 16.88 2.48C14 6.16 13.12 12.08 12.88 15.28ZM16.8 14.4C16 14.4 15.2 14.64 14.56 15.12C14.88 11.52 15.84 5.12 19.2 2.32V15.2C18.48 14.72 17.68 14.4 16.8 14.4ZM23.2 14.4C22.32 14.4 21.52 14.72 20.8 15.2V2.32C24.16 5.12 25.2 11.6 25.44 15.12C24.8 14.64 24 14.4 23.2 14.4ZM29.6 14.4C28.72 14.4 27.84 14.72 27.12 15.28C26.88 12 26 6.16 23.2 2.48C28.72 5.2 30.88 11.68 31.68 14.96C31.04 14.56 30.32 14.4 29.6 14.4ZM36 14.4C35.04 14.4 34.08 14.72 33.36 15.36C32.8 12.64 31.2 6.56 26.64 2.8C32.24 4.88 36.64 9.52 38 14.88C37.36 14.56 36.72 14.4 36 14.4Z" fill="#86B03C"/>
</svg>
