<svg width="61" height="68" viewBox="0 0 61 68" fill="none" xmlns="http://www.w3.org/2000/svg">
<path d="M35.7974 36.0723H33.7148V38.1446H35.7974V36.0723Z" fill="white"/>
<path d="M35.7974 40.2173H33.7148V42.2897H35.7974V40.2173Z" fill="white"/>
<path d="M35.7974 44.3623H33.7148V46.4347H35.7974V44.3623Z" fill="white"/>
<path d="M27.4673 36.0723H25.3848V38.1446H27.4673V36.0723Z" fill="white"/>
<path d="M27.4673 40.2173H25.3848V42.2897H27.4673V40.2173Z" fill="white"/>
<path d="M27.4673 44.3623H25.3848V46.4347H27.4673V44.3623Z" fill="white"/>
<path d="M31.6312 2.94056V0.842285H29.5487V2.94056C13.3785 3.48974 0.392578 16.7425 0.392578 32.964H2.47516C2.47516 32.7049 2.48765 32.45 2.49494 32.1931C3.77468 30.0513 6.02178 28.8193 8.72289 28.8193C11.4427 28.8193 13.7055 30.0668 14.98 32.2387C14.9769 32.4801 14.9706 32.7205 14.9706 32.964H17.0532C17.0532 32.7112 17.0594 32.4604 17.0626 32.2086C18.3402 30.0565 20.5936 28.8193 23.3009 28.8193C26.0166 28.8193 28.2741 30.0627 29.5487 32.2242V59.9048C29.5487 61.8414 30.3078 63.663 31.6843 65.0329C33.0609 66.4027 34.8915 67.1581 36.8377 67.1581C38.7838 67.1581 40.6144 66.4027 41.991 65.0329C43.3676 63.663 44.1267 61.8414 44.1267 59.9048H42.0441C42.0441 61.2881 41.5016 62.5895 40.5186 63.5677C39.5357 64.5459 38.2278 65.0857 36.8377 65.0857C35.4476 65.0857 34.1397 64.5459 33.1567 63.5677C32.1737 62.5895 31.6312 61.2881 31.6312 59.9048V32.2252C32.9079 30.0627 35.1664 28.8193 37.879 28.8193C40.5884 28.8193 42.8418 30.0575 44.1173 32.2097C44.1205 32.4614 44.1267 32.7112 44.1267 32.964H46.2093C46.2093 32.7205 46.203 32.4811 46.1999 32.2397C47.4734 30.0679 49.7361 28.8193 52.457 28.8193C55.1592 28.8193 57.4073 30.0513 58.685 32.1941C58.6922 32.45 58.7047 32.706 58.7047 32.964H60.7873C60.7873 16.7425 47.8004 3.48974 31.6312 2.94056ZM8.72289 26.7469C6.46954 26.7469 4.41091 27.465 2.79587 28.7426C4.50359 17.557 12.8943 8.5287 23.7747 5.82322C19.0847 10.0975 15.7568 18.7134 15.0956 29.1363C13.4222 27.6183 11.1928 26.7469 8.72289 26.7469ZM23.3009 26.7469C20.9653 26.7469 18.8453 27.5251 17.2052 28.8908C18.1403 16.2731 23.3322 6.11543 29.5487 5.08235V29.0244C27.8899 27.5769 25.7105 26.7469 23.3009 26.7469ZM37.879 26.7469C35.4705 26.7469 33.291 27.5769 31.6312 29.0255V5.08235C37.8477 6.11543 43.0396 16.2721 43.9747 28.8908C42.3346 27.5251 40.2146 26.7469 37.879 26.7469ZM52.457 26.7469C49.986 26.7469 47.7577 27.6183 46.0843 29.1353C45.4231 18.7123 42.0951 10.0964 37.4052 5.82219C48.2846 8.5287 56.6753 17.5559 58.384 28.7415C56.77 27.465 54.7104 26.7469 52.457 26.7469Z" fill="white"/>
<path d="M50.6196 44.3616H52.4575V42.2893H51.1736L53.7685 37.9839L50.6571 34.8868L47.251 36.0162L43.845 34.8857L40.7336 37.9829L43.3285 42.2893H42.0446V44.3616H43.8825C43.4358 45.3792 42.4268 46.4682 41.3011 47.6805C38.8489 50.3207 35.7969 53.6075 35.7969 58.8682C35.7969 60.1407 35.9822 61.3033 36.3467 62.3239L38.3095 61.6297C38.0242 60.8318 37.8795 59.9023 37.8795 58.8682C37.8795 54.4178 40.5087 51.5859 42.8297 49.0877C44.3386 47.464 45.6756 46.0227 46.0838 44.3616H48.4183C48.8265 46.0227 50.1635 47.4629 51.6724 49.0877C53.9934 51.5859 56.6226 54.4178 56.6226 58.8682C56.6226 62.9933 54.5203 65.0853 50.3749 65.0853H44.1272V67.1577H50.3749C55.6688 67.1577 58.7052 64.1362 58.7052 58.8682C58.7052 53.6075 55.6532 50.3207 53.202 47.6805C52.0764 46.4682 51.0663 45.3792 50.6196 44.3616ZM45.7578 42.2893L43.3545 38.3051L44.4083 37.2576L47.251 38.2005L50.0927 37.2586L51.1465 38.3062L48.7443 42.2893H45.7578Z" fill="white"/>
<path d="M16.0128 44.3623C9.69735 44.3623 4.55859 49.4759 4.55859 55.7603C4.55859 62.0448 9.69735 67.1584 16.0128 67.1584C22.3282 67.1584 27.4669 62.0448 27.4669 55.7603C27.4669 49.4759 22.3282 44.3623 16.0128 44.3623ZM16.0128 65.086C10.8459 65.086 6.64117 60.9029 6.64117 55.7603C6.64117 50.6177 10.8459 46.4347 16.0128 46.4347C21.1796 46.4347 25.3844 50.6177 25.3844 55.7603C25.3844 60.9029 21.1796 65.086 16.0128 65.086Z" fill="white"/>
<path d="M17.0541 54.7239H14.9715C14.6935 54.7239 14.4321 54.6162 14.2343 54.4193C14.0385 54.2245 13.9302 53.9655 13.9302 53.6878C13.9302 53.4101 14.0385 53.151 14.2343 52.9562C14.4321 52.7593 14.6935 52.6516 14.9715 52.6516H19.1367V50.5792H17.0541V48.5068H14.9715V50.5792C14.1385 50.5792 13.3534 50.9025 12.7629 51.489C12.1725 52.0755 11.8477 52.8567 11.8477 53.6878C11.8477 54.5188 12.1736 55.3001 12.7629 55.8865C13.3523 56.473 14.1385 56.7963 14.9715 56.7963H17.0541C17.3321 56.7963 17.5935 56.9041 17.7913 57.1009C17.9871 57.2957 18.0954 57.5548 18.0954 57.8325C18.0954 58.1102 17.9871 58.3692 17.7913 58.564C17.5935 58.7609 17.3321 58.8687 17.0541 58.8687H12.8889V60.941H14.9715V63.0134H17.0541V60.941C17.8871 60.941 18.6723 60.6178 19.2627 60.0313C19.8531 59.4448 20.178 58.6635 20.178 57.8325C20.178 57.0015 19.852 56.2202 19.2627 55.6337C18.6733 55.0472 17.8871 54.7239 17.0541 54.7239Z" fill="white"/>
</svg>
