<svg width="40" height="41" viewBox="0 0 40 41" fill="none" xmlns="http://www.w3.org/2000/svg">
<g clip-path="url(#clip0_6089_8652)">
<g clip-path="url(#clip1_6089_8652)">
<path d="M15.9375 18.1812V12.0137H20.3875C22.82 12.0137 24.2425 13.1562 24.2425 15.1062C24.2425 17.1112 22.7325 18.1812 19.8325 18.1812H15.9375ZM15.9375 27.5862H20.6825C23.6425 27.5862 25.2075 26.3862 25.2075 24.1437C25.2075 21.9312 23.5825 20.7737 20.4925 20.7737H15.9375V27.5862Z" fill="white"/>
<path d="M10 0.369141C7.34783 0.369141 4.8043 1.42271 2.92893 3.29807C1.05357 5.17344 0 7.71698 0 10.3691V30.3691C0 33.0213 1.05357 35.5648 2.92893 37.4402C4.8043 39.3156 7.34783 40.3691 10 40.3691H30C32.6522 40.3691 35.1957 39.3156 37.0711 37.4402C38.9464 35.5648 40 33.0213 40 30.3691V10.3691C40 7.71698 38.9464 5.17344 37.0711 3.29807C35.1957 1.42271 32.6522 0.369141 30 0.369141L10 0.369141ZM12.65 30.3691V9.23164H21.1475C25.115 9.23164 27.505 11.2541 27.505 14.5066C27.505 16.7166 25.88 18.6941 23.7975 19.0466V19.2966C26.655 19.5891 28.5575 21.6241 28.5575 24.3791C28.5575 28.0991 25.8475 30.3691 21.3375 30.3691H12.65Z" fill="white"/>
</g>
</g>
<defs>
<clipPath id="clip0_6089_8652">
<rect width="40" height="40" fill="white" transform="translate(0 0.369141)"/>
</clipPath>
<clipPath id="clip1_6089_8652">
<rect width="40" height="40" fill="white" transform="translate(0 0.369141)"/>
</clipPath>
</defs>
</svg>
