<svg width="40" height="41" viewBox="0 0 40 41" fill="none" xmlns="http://www.w3.org/2000/svg">
<path d="M6.66667 18.7025H16.6667C17.1087 18.7025 17.5326 18.5269 17.8452 18.2143C18.1577 17.9018 18.3333 17.4778 18.3333 17.0358V7.03581C18.3333 6.59378 18.1577 6.16986 17.8452 5.8573C17.5326 5.54474 17.1087 5.36914 16.6667 5.36914H6.66667C6.22464 5.36914 5.80072 5.54474 5.48816 5.8573C5.17559 6.16986 5 6.59378 5 7.03581V17.0358C5 17.4778 5.17559 17.9018 5.48816 18.2143C5.80072 18.5269 6.22464 18.7025 6.66667 18.7025ZM8.33333 8.70247H15V15.3691H8.33333V8.70247ZM33.3333 5.36914H23.3333C22.8913 5.36914 22.4674 5.54474 22.1548 5.8573C21.8423 6.16986 21.6667 6.59378 21.6667 7.03581V17.0358C21.6667 17.4778 21.8423 17.9018 22.1548 18.2143C22.4674 18.5269 22.8913 18.7025 23.3333 18.7025H33.3333C33.7754 18.7025 34.1993 18.5269 34.5118 18.2143C34.8244 17.9018 35 17.4778 35 17.0358V7.03581C35 6.59378 34.8244 6.16986 34.5118 5.8573C34.1993 5.54474 33.7754 5.36914 33.3333 5.36914ZM31.6667 15.3691H25V8.70247H31.6667V15.3691ZM16.6667 35.3691C17.1087 35.3691 17.5326 35.1935 17.8452 34.881C18.1577 34.5684 18.3333 34.1445 18.3333 33.7025V23.7025C18.3333 23.2604 18.1577 22.8365 17.8452 22.524C17.5326 22.2114 17.1087 22.0358 16.6667 22.0358H6.66667C6.22464 22.0358 5.80072 22.2114 5.48816 22.524C5.17559 22.8365 5 23.2604 5 23.7025V33.7025C5 34.1445 5.17559 34.5684 5.48816 34.881C5.80072 35.1935 6.22464 35.3691 6.66667 35.3691H16.6667ZM8.33333 25.3691H15V32.0358H8.33333V25.3691ZM30 23.7025H26.6667V27.0358H23.3333V30.3691H26.6667V33.7025H30V30.3691H33.3333V27.0358H30V23.7025Z" fill="white"/>
</svg>
