<svg width="52" height="41" viewBox="0 0 52 41" fill="none" xmlns="http://www.w3.org/2000/svg">
<path d="M19.2174 0.369141L26.113 24.6715L33.1217 0.369141H49.9652V2.92728L43.8609 15.4854C46.6493 16.4157 48.6464 17.8885 49.8522 19.904C51.2841 22.2296 52 24.7877 52 27.5784C52 31.2994 51.1333 34.3226 49.4 36.6482C47.4406 39.1288 45.029 40.3691 42.1652 40.3691C40.1304 40.3691 38.2087 39.6327 36.4 38.1598C34.742 36.6095 33.5362 34.6327 32.7826 32.2296L36.7391 30.4854C37.342 32.1908 38.0957 33.3924 39 34.0901C39.829 34.9428 40.9217 35.3691 42.2783 35.3691C43.7101 35.3691 44.8406 34.5939 45.6696 33.0436C46.5739 31.5707 47.0261 29.749 47.0261 27.5784C47.0261 24.6327 46.5362 22.5397 45.5565 21.2994C44.1246 19.2839 42.3159 18.2761 40.1304 18.2761H36.8522V17.3459L44.9913 4.90402H36.4L26.6783 38.2761H26.113L18.9913 13.5087L11.8696 38.2761H11.4174L0 0.369141H4.97391L11.8696 24.6715L16.5043 8.3924L14.2435 0.369141H19.2174Z" fill="white"/>
</svg>
