<svg width="40" height="41" viewBox="0 0 40 41" fill="none" xmlns="http://www.w3.org/2000/svg">
<g clip-path="url(#clip0_6089_8661)">
<path fill-rule="evenodd" clip-rule="evenodd" d="M19.2734 7.86914H36.2484L37.5234 9.11914V34.1191L36.2734 35.3691H3.77344L2.52344 34.1191V6.61914L3.77344 5.36914H16.2734L17.1484 5.74414L19.2734 7.86914ZM34.9734 32.8691V29.0941L34.9984 19.0941V15.3441H19.2484L17.0984 17.4941L16.2234 17.8691H4.99844V32.8691H34.9734ZM18.7234 12.8691H34.9734L34.9984 10.3941H18.7484L17.8484 10.0191L15.7234 7.89414H4.99844V15.3941H15.6984L17.8484 13.2441L18.7234 12.8691ZM24.4484 23.0441L21.0484 19.6191L22.8984 17.8941L28.4484 23.4441V25.2191L22.7234 30.7441L20.9734 28.9441L24.4734 25.5691H21.0484C19.7697 25.6267 18.5618 26.1725 17.6734 27.0941C17.2431 27.5224 16.9038 28.0333 16.6761 28.5962C16.4484 29.159 16.3369 29.7621 16.3484 30.3691H13.8484C13.8329 29.4424 14.0041 28.5221 14.3521 27.663C14.7 26.804 15.2174 26.0238 15.8734 25.3691C17.1844 23.9873 18.972 23.1561 20.8734 23.0441H24.4484Z" fill="white"/>
</g>
<defs>
<clipPath id="clip0_6089_8661">
<rect width="40" height="40" fill="white" transform="translate(0 0.369141)"/>
</clipPath>
</defs>
</svg>
