<svg width="34" height="41" viewBox="0 0 34 41" fill="none" xmlns="http://www.w3.org/2000/svg">
<path d="M31.1667 14.6549H19.8333V3.22628H2.83333V37.512H31.1667V14.6549ZM29.9937 11.7977L22.6667 4.40914V11.7977H29.9937ZM1.41667 0.369141H22.6667L34 11.7977V38.9406C34 39.3195 33.8507 39.6828 33.5851 39.9507C33.3194 40.2186 32.9591 40.3691 32.5833 40.3691H1.41667C1.04094 40.3691 0.680609 40.2186 0.414932 39.9507C0.149256 39.6828 0 39.3195 0 38.9406V1.79771C0 1.41883 0.149256 1.05547 0.414932 0.787559C0.680609 0.51965 1.04094 0.369141 1.41667 0.369141ZM8.5 20.3691H25.5V23.2263H8.5V20.3691ZM8.5 11.7977H15.5833V14.6549H8.5V11.7977ZM8.5 28.9406H25.5V31.7977H8.5V28.9406Z" fill="white"/>
</svg>
