<svg width="24" height="24" viewBox="0 0 24 24" fill="none" xmlns="http://www.w3.org/2000/svg">
<path d="M21.286 2.65129C20.4147 1.79898 20.3469 0.739091 20.3469 0.434019V0H3.65954V0.434019C3.65954 0.739091 3.595 1.79898 2.71722 2.65129C1.84591 3.50046 0.75837 3.56965 0.445341 3.56965H0V4.00367C0 6.80592 0.551835 11.0738 3.15611 15.4737C5.76361 19.8768 9.28439 22.4746 11.7757 23.8773L12.0016 24L12.2243 23.8773C14.7188 22.4746 18.2428 19.8768 20.8471 15.4737C23.4546 11.0738 24 6.80907 24 4.00367V3.56965H23.5547C23.2481 3.56965 22.1573 3.5036 21.286 2.65129ZM20.0791 15.0397C17.6458 19.1472 14.3864 21.6223 12.0016 22.9999C9.62001 21.6223 6.36063 19.1472 3.92416 15.0397C1.53933 11.0109 0.948769 7.10156 0.893909 4.40624C1.50383 4.3339 2.50424 4.08544 3.34651 3.26458C4.18879 2.44057 4.44373 1.46246 4.51795 0.868038H19.4853C19.5595 1.46246 19.8112 2.44057 20.6567 3.26458C21.499 4.08544 22.4994 4.3339 23.1093 4.40624C23.0577 7.10156 22.4671 11.0109 20.0791 15.0397Z" fill="#6083A9"/>
<path d="M19.1052 1.29883H4.89943C4.76712 1.95929 4.43472 2.81161 3.66345 3.56642C2.89539 4.31495 2.02407 4.63574 1.34961 4.77098C1.44965 7.39082 2.07894 11.0548 4.31209 14.8195C6.6227 18.7194 9.69168 21.1159 12.0055 22.4934C14.3226 21.1222 17.3916 18.7225 19.6989 14.8195C21.9289 11.0548 22.5614 7.39397 22.6647 4.77098C21.987 4.63574 21.1189 4.31495 20.3508 3.56642C19.5699 2.81475 19.2407 1.95929 19.1052 1.29883ZM10.3403 14.5867L6.15477 10.5107L7.41012 9.28415L10.3403 12.1399L16.5977 6.04473L17.853 7.26816L10.3403 14.5867Z" fill="#6083A9"/>
</svg>
