<svg width="36" height="40" viewBox="0 0 36 40" fill="none" xmlns="http://www.w3.org/2000/svg">
<path d="M21.1047 21.25H19.8633V22.5H21.1047V21.25Z" fill="#86B03C"/>
<path d="M21.1047 23.75H19.8633V25H21.1047V23.75Z" fill="#86B03C"/>
<path d="M21.1047 26.25H19.8633V27.5H21.1047V26.25Z" fill="#86B03C"/>
<path d="M16.1379 21.25H14.8965V22.5H16.1379V21.25Z" fill="#86B03C"/>
<path d="M16.1379 23.75H14.8965V25H16.1379V23.75Z" fill="#86B03C"/>
<path d="M16.1379 26.25H14.8965V27.5H16.1379V26.25Z" fill="#86B03C"/>
<path d="M18.6207 1.26562V0H17.3793V1.26562C7.74062 1.59688 0 9.59062 0 19.375H1.24138C1.24138 19.2188 1.24883 19.065 1.25317 18.91C2.016 17.6181 3.35545 16.875 4.96552 16.875C6.58676 16.875 7.93552 17.6275 8.69524 18.9375C8.69338 19.0831 8.68966 19.2281 8.68966 19.375H9.93103C9.93103 19.2225 9.93476 19.0712 9.93662 18.9194C10.6982 17.6213 12.0414 16.875 13.6552 16.875C15.2739 16.875 16.6196 17.625 17.3793 18.9287V35.625C17.3793 36.7931 17.8318 37.8919 18.6523 38.7181C19.4729 39.5444 20.5641 40 21.7241 40C22.8842 40 23.9754 39.5444 24.7959 38.7181C25.6165 37.8919 26.069 36.7931 26.069 35.625H24.8276C24.8276 36.4594 24.5042 37.2444 23.9183 37.8344C23.3323 38.4244 22.5528 38.75 21.7241 38.75C20.8955 38.75 20.1159 38.4244 19.53 37.8344C18.9441 37.2444 18.6207 36.4594 18.6207 35.625V18.9294C19.3817 17.625 20.7279 16.875 22.3448 16.875C23.9599 16.875 25.303 17.6219 26.0634 18.92C26.0652 19.0719 26.069 19.2225 26.069 19.375H27.3103C27.3103 19.2281 27.3066 19.0837 27.3048 18.9381C28.0639 17.6281 29.4126 16.875 31.0345 16.875C32.6452 16.875 33.9852 17.6181 34.7468 18.9106C34.7512 19.065 34.7586 19.2194 34.7586 19.375H36C36 9.59062 28.2588 1.59688 18.6207 1.26562ZM4.96552 15.625C3.62234 15.625 2.39524 16.0581 1.43255 16.8288C2.45048 10.0819 7.452 4.63625 13.9376 3.00437C11.142 5.5825 9.15828 10.7794 8.76414 17.0662C7.76669 16.1506 6.43779 15.625 4.96552 15.625ZM13.6552 15.625C12.263 15.625 10.9992 16.0944 10.0217 16.9181C10.579 9.3075 13.6738 3.18062 17.3793 2.5575V16.9988C16.3906 16.1256 15.0914 15.625 13.6552 15.625ZM22.3448 15.625C20.9092 15.625 19.6101 16.1256 18.6207 16.9994V2.5575C22.3262 3.18062 25.421 9.30688 25.9783 16.9181C25.0008 16.0944 23.737 15.625 22.3448 15.625ZM31.0345 15.625C29.5616 15.625 28.2333 16.1506 27.2359 17.0656C26.8417 10.7788 24.858 5.58188 22.0624 3.00375C28.5474 4.63625 33.5489 10.0812 34.5674 16.8281C33.6054 16.0581 32.3777 15.625 31.0345 15.625Z" fill="#86B03C"/>
<path d="M29.939 26.2498H31.0345V24.9998H30.2692L31.816 22.4029L29.9614 20.5348L27.9311 21.2161L25.9008 20.5342L24.0462 22.4023L25.593 24.9998H24.8277V26.2498H25.9232C25.6569 26.8636 25.0554 27.5204 24.3845 28.2517C22.9228 29.8442 21.1035 31.8267 21.1035 34.9998C21.1035 35.7673 21.214 36.4686 21.4312 37.0842L22.6012 36.6654C22.4312 36.1842 22.3449 35.6236 22.3449 34.9998C22.3449 32.3154 23.9121 30.6073 25.2957 29.1004C26.195 28.1211 26.992 27.2517 27.2353 26.2498H28.6269C28.8702 27.2517 29.6672 28.1204 30.5665 29.1004C31.9501 30.6073 33.5173 32.3154 33.5173 34.9998C33.5173 37.4879 32.2641 38.7498 29.7932 38.7498H26.069V39.9998H29.7932C32.9488 39.9998 34.7587 38.1773 34.7587 34.9998C34.7587 31.8267 32.9394 29.8442 31.4783 28.2517C30.8074 27.5204 30.2053 26.8636 29.939 26.2498ZM27.041 24.9998L25.6085 22.5967L26.2366 21.9648L27.9311 22.5336L29.625 21.9654L30.2531 22.5973L28.8212 24.9998H27.041Z" fill="#86B03C"/>
<path d="M9.31196 26.25C5.54748 26.25 2.48438 29.3344 2.48438 33.125C2.48438 36.9156 5.54748 40 9.31196 40C13.0764 40 16.1395 36.9156 16.1395 33.125C16.1395 29.3344 13.0764 26.25 9.31196 26.25ZM9.31196 38.75C6.2321 38.75 3.72575 36.2269 3.72575 33.125C3.72575 30.0231 6.2321 27.5 9.31196 27.5C12.3918 27.5 14.8982 30.0231 14.8982 33.125C14.8982 36.2269 12.3918 38.75 9.31196 38.75Z" fill="#86B03C"/>
<path d="M9.93157 32.5H8.69019C8.52447 32.5 8.36868 32.435 8.25075 32.3163C8.13406 32.1988 8.0695 32.0425 8.0695 31.875C8.0695 31.7075 8.13406 31.5512 8.25075 31.4337C8.36868 31.315 8.52447 31.25 8.69019 31.25H11.173V30H9.93157V28.75H8.69019V30C8.19364 30 7.72564 30.195 7.37371 30.5487C7.02178 30.9025 6.82812 31.3737 6.82812 31.875C6.82812 32.3763 7.0224 32.8475 7.37371 33.2013C7.72502 33.555 8.19364 33.75 8.69019 33.75H9.93157C10.0973 33.75 10.2531 33.815 10.371 33.9337C10.4877 34.0512 10.5523 34.2075 10.5523 34.375C10.5523 34.5425 10.4877 34.6988 10.371 34.8163C10.2531 34.935 10.0973 35 9.93157 35H7.44881V36.25H8.69019V37.5H9.93157V36.25C10.4281 36.25 10.8961 36.055 11.2481 35.7013C11.6 35.3475 11.7936 34.8762 11.7936 34.375C11.7936 33.8738 11.5994 33.4025 11.2481 33.0487C10.8967 32.695 10.4281 32.5 9.93157 32.5Z" fill="#86B03C"/>
</svg>
