<svg width="38" height="40" viewBox="0 0 38 40" fill="none" xmlns="http://www.w3.org/2000/svg">
<path d="M18.0489 6.13333C17.9315 6.04679 17.7886 6 17.6418 6C17.495 6 17.3521 6.04679 17.2346 6.13333L9.09174 12.1334C9.00747 12.1955 8.93906 12.276 8.89195 12.3685C8.84484 12.4611 8.82031 12.5632 8.82031 12.6667V24.0001C8.82031 24.1769 8.8918 24.3464 9.01906 24.4715C9.14632 24.5965 9.31892 24.6667 9.49889 24.6667H25.7847C25.9647 24.6667 26.1373 24.5965 26.2645 24.4715C26.3918 24.3464 26.4633 24.1769 26.4633 24.0001V12.6667C26.4633 12.5632 26.4387 12.4611 26.3916 12.3685C26.3445 12.276 26.2761 12.1955 26.1918 12.1334L18.0489 6.13333ZM10.1775 13L17.6418 7.50001L25.1061 13V14.6667L18.0489 9.46668C17.9315 9.38013 17.7886 9.33334 17.6418 9.33334C17.495 9.33334 17.3521 9.38013 17.2346 9.46668L10.1775 14.6667V13ZM15.6061 23.3334V18.6667C15.6061 18.1363 15.8205 17.6276 16.2023 17.2525C16.5841 16.8774 17.1019 16.6667 17.6418 16.6667C18.1817 16.6667 18.6995 16.8774 19.0813 17.2525C19.463 17.6276 19.6775 18.1363 19.6775 18.6667V23.3334H15.6061ZM25.1061 23.3334H21.0347V18.6667C21.0347 17.7827 20.6772 16.9348 20.0409 16.3097C19.4046 15.6846 18.5416 15.3334 17.6418 15.3334C16.7419 15.3334 15.879 15.6846 15.2427 16.3097C14.6064 16.9348 14.2489 17.7827 14.2489 18.6667V23.3334H10.1775V16.3334L17.6418 10.8333L25.1061 16.3334V23.3334Z" fill="#86B03C"/>
<path d="M6.10718 33.3332C5.56727 33.3332 5.04947 33.1225 4.6677 32.7474C4.28593 32.3723 4.07145 31.8636 4.07145 31.3332C4.07145 31.1564 3.99996 30.9868 3.8727 30.8618C3.74544 30.7367 3.57285 30.6665 3.39288 30.6665C3.21291 30.6665 3.04031 30.7367 2.91305 30.8618C2.78579 30.9868 2.7143 31.1564 2.7143 31.3332C2.7143 31.8636 2.49982 32.3723 2.11805 32.7474C1.73628 33.1225 1.21848 33.3332 0.678575 33.3332C0.498606 33.3332 0.326008 33.4034 0.19875 33.5284C0.0714927 33.6535 0 33.823 0 33.9998C0 34.1767 0.0714927 34.3462 0.19875 34.4713C0.326008 34.5963 0.498606 34.6665 0.678575 34.6665C1.21848 34.6665 1.73628 34.8772 2.11805 35.2523C2.49982 35.6274 2.7143 36.1361 2.7143 36.6665C2.7143 36.8433 2.78579 37.0129 2.91305 37.1379C3.04031 37.263 3.21291 37.3332 3.39288 37.3332C3.57285 37.3332 3.74544 37.263 3.8727 37.1379C3.99996 37.0129 4.07145 36.8433 4.07145 36.6665C4.07145 36.1361 4.28593 35.6274 4.6677 35.2523C5.04947 34.8772 5.56727 34.6665 6.10718 34.6665C6.28715 34.6665 6.45974 34.5963 6.587 34.4713C6.71426 34.3462 6.78575 34.1767 6.78575 33.9998C6.78575 33.823 6.71426 33.6535 6.587 33.5284C6.45974 33.4034 6.28715 33.3332 6.10718 33.3332ZM3.39288 34.6872C3.1952 34.4256 2.95948 34.1941 2.69327 33.9998C2.95948 33.8056 3.1952 33.5741 3.39288 33.3125C3.59055 33.5741 3.82627 33.8056 4.09249 33.9998C3.82627 34.1941 3.59055 34.4256 3.39288 34.6872Z" fill="#86B03C"/>
<path d="M37.322 2.66668C36.7821 2.66668 36.2643 2.45596 35.8825 2.08089C35.5008 1.70581 35.2863 1.1971 35.2863 0.666669C35.2863 0.489857 35.2148 0.320287 35.0875 0.195263C34.9603 0.0702381 34.7877 0 34.6077 0C34.4278 0 34.2552 0.0702381 34.1279 0.195263C34.0006 0.320287 33.9291 0.489857 33.9291 0.666669C33.9291 1.1971 33.7147 1.70581 33.3329 2.08089C32.9511 2.45596 32.4333 2.66668 31.8934 2.66668C31.7134 2.66668 31.5409 2.73691 31.4136 2.86194C31.2863 2.98696 31.2148 3.15653 31.2148 3.33334C31.2148 3.51016 31.2863 3.67973 31.4136 3.80475C31.5409 3.92978 31.7134 4.00001 31.8934 4.00001C32.4333 4.00001 32.9511 4.21073 33.3329 4.5858C33.7147 4.96088 33.9291 5.46959 33.9291 6.00002C33.9291 6.17683 34.0006 6.3464 34.1279 6.47143C34.2552 6.59645 34.4278 6.66669 34.6077 6.66669C34.7877 6.66669 34.9603 6.59645 35.0875 6.47143C35.2148 6.3464 35.2863 6.17683 35.2863 6.00002C35.2863 5.46959 35.5008 4.96088 35.8825 4.5858C36.2643 4.21073 36.7821 4.00001 37.322 4.00001C37.502 4.00001 37.6746 3.92978 37.8018 3.80475C37.9291 3.67973 38.0006 3.51016 38.0006 3.33334C38.0006 3.15653 37.9291 2.98696 37.8018 2.86194C37.6746 2.73691 37.502 2.66668 37.322 2.66668ZM34.6077 4.02068C34.41 3.75914 34.1743 3.52755 33.9081 3.33334C34.1743 3.13914 34.41 2.90755 34.6077 2.64601C34.8054 2.90755 35.0411 3.13914 35.3073 3.33334C35.0411 3.52755 34.8054 3.75914 34.6077 4.02068Z" fill="#86B03C"/>
<path d="M31.2165 15.3335H29.8594V22.6669H31.2165V15.3335Z" fill="#86B03C"/>
<path d="M22.2278 2.91942C22.1642 2.84062 22.0834 2.77696 21.9912 2.7332C21.8991 2.68945 21.7981 2.66673 21.6958 2.66675H13.5977V4.00009H21.3714C23.5563 6.64264 26.5229 8.55293 29.8611 9.46677V12.6668H31.2182V8.95344C31.2183 8.80405 31.1673 8.65897 31.0734 8.54147C30.9795 8.42396 30.8482 8.34084 30.7005 8.30543C27.3402 7.49693 24.3554 5.59949 22.2278 2.91942Z" fill="#86B03C"/>
<path d="M33.2544 6.00002C31.3107 5.84982 29.4295 5.25604 27.7605 4.26592C26.0914 3.27581 24.6806 1.91668 23.6403 0.296668C23.5783 0.20539 23.4944 0.130555 23.3959 0.0788037C23.2974 0.027052 23.1874 -1.64129e-05 23.0757 7.46629e-09H12.2185C12.1068 -1.64129e-05 11.9969 0.027052 11.8984 0.0788037C11.7999 0.130555 11.7159 0.20539 11.654 0.296668C7.84647 5.90869 2.27401 6.00002 2.0399 6.00002C1.85993 6.00002 1.68734 6.07026 1.56008 6.19528C1.43282 6.32031 1.36133 6.48988 1.36133 6.66669V24.0001C1.36137 24.1769 1.43288 24.3464 1.56015 24.4714L17.1674 39.8048C17.2946 39.9298 17.4672 40 17.6471 40C17.8271 40 17.9996 39.9298 18.1269 39.8048L33.7341 24.4714C33.8614 24.3464 33.9329 24.1769 33.9329 24.0001V6.66669C33.9329 6.48988 33.8615 6.32031 33.7342 6.19528C33.6069 6.07026 33.4343 6.00002 33.2544 6.00002ZM32.5758 23.7241L17.6471 38.3908L12.4995 33.3335L17.4483 28.4714L16.4888 27.5288L11.54 32.3908L10.4637 31.3334L14.0554 27.8048L13.0959 26.8621L9.50423 30.3908L2.71848 23.7241V7.29136C4.70056 7.05118 6.60684 6.39479 8.30786 5.36676C10.0089 4.33872 11.4648 2.96311 12.5768 1.33334H22.7174C23.8294 2.96311 25.2854 4.33872 26.9864 5.36676C28.6874 6.39479 30.5937 7.05118 32.5758 7.29136V23.7241Z" fill="#86B03C"/>
</svg>
