<svg width="40" height="40" viewBox="0 0 40 40" fill="none" xmlns="http://www.w3.org/2000/svg">
<path d="M3.75915 22.1132C3.63447 22.2971 3.43111 22.3962 3.22465 22.3962C3.09998 22.3962 2.97398 22.3599 2.86302 22.2848L0.282942 20.5341C0.106103 20.4138 0 20.214 0 20C0 19.786 0.106103 19.5862 0.282942 19.4659L2.86302 17.7152C3.1579 17.5154 3.55888 17.5919 3.75915 17.8868C3.95897 18.1817 3.88249 18.5831 3.58761 18.7829L2.74498 19.355H6.52976C6.88609 19.355 7.17478 19.6437 7.17478 20C7.17478 20.3563 6.88609 20.645 6.52976 20.645H2.74498L3.58761 21.2167C3.88249 21.4169 3.95942 21.8183 3.75915 22.1132ZM29.525 11.1201C29.6899 11.1201 29.8552 11.0568 29.9812 10.9313L32.6572 8.25527L32.4658 9.25529C32.3986 9.60499 32.628 9.94319 32.9782 10.0104C33.0193 10.0183 33.06 10.0219 33.1002 10.0219C33.4035 10.0219 33.674 9.80703 33.7333 9.498L34.3199 6.4356C34.3602 6.2256 34.2939 6.00942 34.1427 5.85822C33.9915 5.70702 33.7753 5.64071 33.5653 5.68094L30.5029 6.2676C30.1527 6.3348 29.9237 6.67256 29.9905 7.0227C30.0577 7.3724 30.3955 7.60141 30.7456 7.53509L31.7456 7.34366L29.0696 10.0197C28.8176 10.2717 28.8176 10.6802 29.0696 10.9322C29.1947 11.0573 29.3596 11.1201 29.525 11.1201ZM22.1132 36.2409C21.8183 36.041 21.4174 36.1175 21.2171 36.4124L20.6455 37.255V33.4702C20.6455 33.1139 20.3568 32.8252 20.0004 32.8252C19.6441 32.8252 19.3554 33.1139 19.3554 33.4702V37.255L18.7838 36.4124C18.5835 36.1175 18.1825 36.0406 17.8877 36.2409C17.5928 36.4407 17.5159 36.8421 17.7161 37.137L19.4668 39.7171C19.5871 39.8939 19.7869 40 20.0009 40C20.2149 40 20.4147 39.8939 20.5349 39.7171L22.2856 37.137C22.4846 36.8421 22.4077 36.4407 22.1132 36.2409ZM33.7333 30.502C33.6661 30.1523 33.3274 29.9229 32.9782 29.9896C32.628 30.0568 32.399 30.3946 32.4658 30.7447L32.6572 31.7447L29.9812 29.0687C29.7292 28.8172 29.3207 28.8167 29.0687 29.0687C28.8167 29.3207 28.8167 29.7292 29.0687 29.9812L31.7447 32.6572L30.7447 32.4658C30.3941 32.399 30.0568 32.628 29.9896 32.9782C29.9224 33.3279 30.1519 33.6661 30.502 33.7333L33.5644 34.3199C33.6046 34.3275 33.6453 34.3314 33.686 34.3314C33.8553 34.3314 34.0202 34.2647 34.1422 34.1427C34.2934 33.9915 34.3597 33.7753 34.3195 33.5653L33.7333 30.502ZM39.7171 19.4659L37.137 17.7152C36.8421 17.5154 36.4411 17.5919 36.2409 17.8868C36.041 18.1817 36.1175 18.5831 36.4124 18.7829L37.255 19.3545H33.4702C33.1139 19.3545 32.8252 19.6432 32.8252 19.9996C32.8252 20.3559 33.1139 20.6446 33.4702 20.6446H37.255L36.4124 21.2162C36.1175 21.416 36.0406 21.8175 36.2409 22.1123C36.3655 22.2962 36.5684 22.3953 36.7753 22.3953C36.9 22.3953 37.026 22.359 37.137 22.2839L39.7171 20.5332C39.8939 20.4129 40 20.2131 40 19.9991C40 19.7851 39.8939 19.5862 39.7171 19.4659ZM10.0188 29.0687L7.34278 31.7447L7.53421 30.7447C7.60141 30.395 7.37196 30.0568 7.02182 29.9896C6.67168 29.9229 6.33392 30.1519 6.26672 30.502L5.68006 33.5644C5.63982 33.7744 5.70614 33.9906 5.85734 34.1418C5.97935 34.2638 6.14426 34.3306 6.31358 34.3306C6.35381 34.3306 6.39448 34.3266 6.43516 34.3191L9.49756 33.7324C9.8477 33.6652 10.0767 33.3274 10.0099 32.9773C9.94275 32.6272 9.60455 32.3982 9.25485 32.4649L8.25483 32.6563L10.9308 29.9803C11.1828 29.7283 11.1828 29.3198 10.9308 29.0678C10.6793 28.8172 10.2708 28.8167 10.0188 29.0687ZM17.8868 3.75915C18.1817 3.95897 18.5831 3.88249 18.7829 3.58761L19.3545 2.74498V6.52976C19.3545 6.88609 19.6432 7.17478 19.9996 7.17478C20.3559 7.17478 20.6446 6.88609 20.6446 6.52976V2.74498L21.2162 3.58761C21.3409 3.77153 21.5438 3.87055 21.7507 3.87055C21.8754 3.87055 22.0014 3.8343 22.1123 3.75915C22.4072 3.55932 22.4841 3.1579 22.2839 2.86302L20.5332 0.282942C20.4129 0.106103 20.2131 0 19.9991 0C19.7851 0 19.5853 0.106103 19.4651 0.282942L17.7144 2.86302C17.5154 3.1579 17.5923 3.55932 17.8868 3.75915ZM6.26672 9.498C6.32596 9.80703 6.59652 10.0219 6.8998 10.0219C6.94003 10.0219 6.9807 10.0179 7.02182 10.0104C7.37196 9.94319 7.60096 9.60543 7.53421 9.25529L7.34278 8.25527L10.0188 10.9313C10.1448 11.0573 10.3097 11.1201 10.475 11.1201C10.6399 11.1201 10.8053 11.0568 10.9313 10.9313C11.1833 10.6793 11.1833 10.2708 10.9313 10.0188L8.25527 7.34278L9.25529 7.53421C9.60587 7.60096 9.94319 7.37196 10.0104 7.02182C10.0776 6.67212 9.84814 6.33392 9.498 6.26672L6.4356 5.68006C6.2256 5.63982 6.00942 5.70614 5.85822 5.85734C5.70702 6.00853 5.64071 6.22472 5.68094 6.43471L6.26672 9.498ZM29.7151 20.3868C29.7151 23.0067 28.7787 25.5625 27.0784 27.5828C25.379 29.6023 23.0217 30.9622 20.4408 31.4123C20.2971 31.4375 20.1463 31.4795 20 31.4795C19.8541 31.4795 19.7025 31.4375 19.5592 31.4123C16.9783 30.9622 14.621 29.6023 12.9216 27.5828C11.2213 25.5625 10.2849 23.0067 10.2849 20.3868V13.0529C10.2849 12.7947 10.4388 12.5617 10.6757 12.46L19.7458 8.57313C19.908 8.50373 20.092 8.50373 20.2542 8.57313L29.3243 12.46C29.5617 12.5617 29.7151 12.7952 29.7151 13.0529V20.3868ZM28.4246 13.4782L20 9.86804L11.5754 13.4786V20.3868C11.5754 25.2101 15.0264 29.3123 19.7807 30.1413L20 30.1793L20.2193 30.1413C24.9736 29.3123 28.4246 25.2101 28.4246 20.3868V13.4782ZM20 12.964C23.8798 12.964 27.036 16.1202 27.036 20C27.036 23.8794 23.8798 27.036 20 27.036C16.1206 27.036 12.964 23.8798 12.964 20C12.964 16.1202 16.1206 12.964 20 12.964ZM20 14.2545C16.8319 14.2545 14.2545 16.8319 14.2545 20C14.2545 23.1681 16.8319 25.7455 20 25.7455C23.1681 25.7455 25.7455 23.1681 25.7455 20C25.7455 16.8319 23.1681 14.2545 20 14.2545ZM19.0433 19.7958L21.8497 16.9637C22.1375 16.6741 22.5204 16.5145 22.9276 16.5132C22.9289 16.5132 22.9307 16.5132 22.932 16.5132C23.3378 16.5132 23.7194 16.6706 24.0076 16.9571C24.604 17.5499 24.6066 18.5177 24.0138 19.114C23.3922 19.7418 21.1959 21.9718 20.1273 23.0403C19.8386 23.329 19.4553 23.4877 19.0468 23.4877C18.6388 23.4877 18.255 23.329 17.9668 23.0403L15.9906 21.0641C15.7019 20.7754 15.5432 20.3921 15.5432 19.9836C15.5432 19.5756 15.7019 19.1918 15.9906 18.9036C16.5861 18.3081 17.5556 18.3081 18.1512 18.9036L19.0433 19.7958ZM19.0451 21.355C18.874 21.355 18.71 21.2869 18.5888 21.1663L17.2382 19.8156C17.1458 19.7232 16.9951 19.7232 16.9027 19.8156C16.8421 19.8762 16.8333 19.9465 16.8333 19.9832C16.8333 20.0199 16.8421 20.0906 16.9027 20.1512L18.8788 22.1274C18.9712 22.2198 19.122 22.2202 19.2144 22.1274C20.2798 21.0619 22.474 18.8346 23.0973 18.2046C23.1897 18.1118 23.1893 17.9628 23.0973 17.8713C23.0376 17.8121 22.9682 17.8032 22.9315 17.8032C22.8953 17.8032 22.825 17.8125 22.7653 17.8726L19.5035 21.1645C19.3828 21.2865 19.2184 21.355 19.0468 21.3555C19.0464 21.355 19.0455 21.355 19.0451 21.355Z" fill="#86B03C"/>
</svg>
