<svg width="40" height="40" viewBox="0 0 40 40" fill="none" xmlns="http://www.w3.org/2000/svg">
<path d="M28.291 23.2654C26.6769 22.1054 24.418 23.2654 24.418 25.2545C24.418 27.2436 26.6733 28.4036 28.291 27.2436C29.9087 28.4036 32.164 27.2436 32.164 25.2545C32.164 23.2654 29.9087 22.1054 28.291 23.2654ZM29.0233 26.4145C29.4059 25.709 29.4241 24.8326 29.0233 24.0908C29.9378 23.5454 31.071 24.2108 31.071 25.2508C31.071 26.2908 29.9415 26.9599 29.0233 26.4108V26.4145ZM27.5587 26.4145C26.6405 26.9636 25.511 26.2872 25.511 25.2508C25.511 24.2145 26.6368 23.5381 27.5587 24.0872C28.444 24.6181 28.444 25.8799 27.5587 26.4108V26.4145Z" fill="#86B03C"/>
<path d="M23.4413 15.7818C23.6599 16.0945 24.1263 16.0873 24.3376 15.7818C25.908 13.5564 29.5952 13.4836 31.2238 15.7818C31.3732 15.9964 31.6428 16.0618 31.8651 15.9818C32.2476 15.8364 33.1585 14.0764 35.5632 14.0764C37.7784 14.0764 38.9553 15.7127 39.0026 15.7782C39.3342 16.2582 40.0957 15.9455 39.99 15.3673C39.9609 15.2145 36.9295 0 19.9982 0C3.06694 0 0.0392047 15.2182 0.0100569 15.3709C-0.0956042 15.9455 0.658597 16.2618 0.993798 15.7818C1.04116 15.7127 2.22165 14.0764 4.43689 14.0764C6.65213 14.0764 7.82898 15.7127 7.87999 15.7782C8.10588 16.1018 8.5686 16.0764 8.77628 15.7782C9.39932 14.8945 10.711 14.0727 12.2194 14.0727C14.4346 14.0727 15.6115 15.7091 15.6625 15.7745C15.841 16.0291 16.1653 16.0655 16.3948 15.9273C16.6717 15.76 17.0543 14.9236 18.4206 14.3782V20.8073H6.99826C6.01452 20.8073 5.2166 21.6036 5.2166 22.5855V38.2218C5.2166 39.2036 6.01452 40 6.99826 40H33.0055C33.9892 40 34.7871 39.2036 34.7871 38.2218V22.5855C34.7871 21.6036 33.9892 20.8073 33.0055 20.8073H21.5868V14.3782C22.7782 14.8545 23.4122 15.7273 23.445 15.7782L23.4413 15.7818ZM33.6904 22.5891V28.5455H6.30964V22.5891C6.30964 22.2109 6.61934 21.9018 6.99826 21.9018H33.0055C33.3844 21.9018 33.6941 22.2109 33.6941 22.5891H33.6904ZM33.6904 38.2255C33.6904 38.6036 33.3807 38.9127 33.0018 38.9127H6.99826C6.61934 38.9127 6.30964 38.6036 6.30964 38.2255V32.2691H33.6941V38.2255H33.6904ZM6.32057 31.1782V29.6327H33.6832V31.1782H6.32057ZM20.4937 20.8109H19.5136V14.1091C19.8416 14.0727 20.133 14.0655 20.4828 14.1091C20.5192 14.1127 20.4937 14.1164 20.4937 20.8145V20.8109ZM16.2054 1.38182C10.4559 4.59636 8.52488 11.6073 7.97836 14.3127C6.0801 12.6909 3.52602 12.6 1.59133 13.8073C3.80657 7.35273 8.80543 2.53455 16.2054 1.38182ZM38.416 13.8073C36.4814 12.5964 33.9273 12.6909 32.029 14.3127C31.4825 11.6073 29.5478 4.59636 23.7984 1.38182C31.1546 2.52727 36.1826 7.30546 38.416 13.8073ZM15.5969 14.1782C13.6331 12.6218 11.0316 12.6473 9.17342 13.9382C9.89483 10.7709 12.1684 3.81091 18.4534 1.54909C16.2017 5.05818 15.7062 11.4364 15.5969 14.1782ZM24.4068 14.1782C24.2975 11.4364 23.7984 5.05818 21.5467 1.54909C27.8354 3.81091 30.1089 10.7709 30.8303 13.9382C28.8738 12.6073 26.3087 12.6655 24.4068 14.1782ZM20.0019 1.31273C22.5924 4.10545 23.1753 11.1564 23.3065 14.1236C21.35 12.6218 18.6683 12.6109 16.6972 14.1236C16.8284 11.1564 17.4113 4.10909 19.9982 1.31273H20.0019Z" fill="#86B03C"/>
<path d="M13.3236 23.1782H8.39027C8.08786 23.1782 7.84375 23.4219 7.84375 23.7237V26.7891C7.84375 27.0909 8.08786 27.3346 8.39027 27.3346H13.3236C13.626 27.3346 13.8701 27.0909 13.8701 26.7891V23.7237C13.8701 23.4219 13.626 23.1782 13.3236 23.1782ZM12.777 26.2437H8.9368V24.2691H12.777V26.2437Z" fill="#86B03C"/>
<path d="M9.095 36.4436V34.8217C9.095 34.1017 8.00195 34.1017 8.00195 34.8217V36.4436C8.00195 37.1636 9.095 37.1636 9.095 36.4436Z" fill="#86B03C"/>
<path d="M11.427 36.4436V34.8217C11.427 34.1017 10.334 34.1017 10.334 34.8217V36.4436C10.334 37.1636 11.427 37.1636 11.427 36.4436Z" fill="#86B03C"/>
<path d="M13.7493 36.4436V34.8217C13.7493 34.1017 12.6562 34.1017 12.6562 34.8217V36.4436C12.6562 37.1636 13.7493 37.1636 13.7493 36.4436Z" fill="#86B03C"/>
</svg>
