<svg width="35" height="30" viewBox="0 0 35 30" fill="none" xmlns="http://www.w3.org/2000/svg">
<path d="M16.9768 5.80787H10.0119C9.86958 5.80753 9.73322 5.7502 9.63273 5.64847C9.53224 5.54673 9.47581 5.40889 9.47584 5.26519C9.47586 5.12148 9.53233 4.98364 9.63286 4.88191C9.73338 4.78017 9.86976 4.72285 10.0121 4.72251H16.977C17.0476 4.72234 17.1177 4.73625 17.183 4.76345C17.2483 4.79065 17.3077 4.83059 17.3578 4.881C17.4078 4.93141 17.4475 4.99129 17.4746 5.05722C17.5016 5.12314 17.5156 5.19381 17.5156 5.26519C17.5155 5.33656 17.5016 5.40723 17.4745 5.47316C17.4474 5.53908 17.4077 5.59896 17.3576 5.64937C17.3076 5.69978 17.2482 5.73973 17.1828 5.76693C17.1175 5.79412 17.0475 5.80803 16.9768 5.80787ZM16.6541 7.41778C16.6541 7.3465 16.6402 7.27592 16.6132 7.21007C16.5862 7.14422 16.5467 7.08439 16.4968 7.03399C16.4469 6.98359 16.3876 6.94361 16.3224 6.91634C16.2572 6.88906 16.1873 6.87502 16.1167 6.87503H10.0117C9.86918 6.87503 9.73247 6.9322 9.63166 7.03398C9.53085 7.13576 9.47421 7.2738 9.47418 7.41774C9.47416 7.56167 9.53076 7.69971 9.63153 7.80149C9.73231 7.90327 9.869 7.96045 10.0115 7.96045H16.1166C16.1871 7.96046 16.257 7.94643 16.3222 7.91916C16.3875 7.89189 16.4467 7.85192 16.4966 7.80153C16.5465 7.75114 16.5861 7.69131 16.6132 7.62546C16.6402 7.55962 16.6541 7.48905 16.6541 7.41778ZM10.0112 10.1131H15.2563C15.3988 10.1131 15.5356 10.0559 15.6364 9.95412C15.7372 9.85234 15.7938 9.71429 15.7939 9.57035C15.7939 9.42642 15.7373 9.28837 15.6365 9.18659C15.5357 9.08481 15.399 9.02763 15.2565 9.02763H10.0114C9.86882 9.02763 9.73211 9.08481 9.6313 9.18659C9.53049 9.28837 9.47384 9.42642 9.47381 9.57035C9.47379 9.71429 9.53039 9.85234 9.63117 9.95412C9.73195 10.0559 9.86864 10.1131 10.0112 10.1131ZM10.0108 12.2657H15.256C15.3985 12.2657 15.5352 12.2085 15.636 12.1067C15.7368 12.0049 15.7935 11.8669 15.7935 11.723C15.7935 11.579 15.7369 11.441 15.6361 11.3392C15.5354 11.2374 15.3987 11.1803 15.2561 11.1803H10.011C9.86847 11.1803 9.73176 11.2374 9.63095 11.3392C9.53014 11.441 9.4735 11.579 9.47347 11.723C9.47345 11.8669 9.53005 12.0049 9.63082 12.1067C9.7316 12.2085 9.86829 12.2657 10.0108 12.2657ZM18.2655 13.3329H10.0107C9.86811 13.3329 9.7314 13.39 9.63059 13.4918C9.52979 13.5936 9.47314 13.7316 9.47312 13.8756C9.47309 14.0195 9.52969 14.1575 9.63047 14.2593C9.73124 14.3611 9.86793 14.4183 10.0105 14.4183H18.2653C18.4078 14.4183 18.5445 14.3611 18.6454 14.2593C18.7462 14.1575 18.8028 14.0195 18.8028 13.8756C18.8028 13.7316 18.7463 13.5936 18.6455 13.4918C18.5447 13.39 18.408 13.3329 18.2655 13.3329ZM18.2651 15.4855H10.0103C9.86776 15.4855 9.73105 15.5426 9.63024 15.6444C9.52943 15.7462 9.47279 15.8842 9.47276 16.0282C9.47274 16.1721 9.52934 16.3102 9.63011 16.4119C9.73089 16.5137 9.86758 16.5709 10.0101 16.5709H18.2649C18.4075 16.5709 18.5442 16.5137 18.645 16.4119C18.7458 16.3102 18.8024 16.1721 18.8025 16.0282C18.8025 15.8842 18.7459 15.7462 18.6451 15.6444C18.5443 15.5426 18.4077 15.4855 18.2651 15.4855ZM24.9283 20.8761C25.0709 20.8761 25.2076 20.8189 25.3084 20.7172C25.4092 20.6154 25.4658 20.4774 25.4659 20.3334C25.4659 20.1895 25.4093 20.0514 25.3085 19.9497C25.2077 19.8479 25.071 19.7907 24.9285 19.7907H10.0096C9.86705 19.7907 9.73034 19.8479 9.62953 19.9497C9.52872 20.0514 9.47208 20.1895 9.47205 20.3334C9.47203 20.4774 9.52863 20.6154 9.6294 20.7172C9.73018 20.8189 9.86687 20.8761 10.0094 20.8761H24.9283ZM34.3374 18.1808C34.3374 18.2521 34.3234 18.3227 34.2964 18.3885C34.2694 18.4544 34.2298 18.5142 34.1799 18.5646C34.13 18.615 34.0707 18.6549 34.0055 18.6822C33.9403 18.7095 33.8704 18.7235 33.7999 18.7235H27.6138L27.6131 22.9354H32.2015C32.2721 22.9354 32.342 22.9495 32.4072 22.9767C32.4724 23.004 32.5316 23.044 32.5815 23.0944C32.6314 23.1448 32.671 23.2046 32.698 23.2705C32.725 23.3363 32.7389 23.4069 32.7389 23.4782L32.7384 26.1332C32.7371 27.1585 32.333 28.1414 31.6149 28.8663C30.8968 29.5912 29.9233 29.9989 28.908 30H10.3121L10.3099 29.9998C9.40603 29.9967 8.53995 29.6336 7.89989 28.9893C7.55799 28.6497 7.28606 28.2451 7.09981 27.7989C6.91355 27.3527 6.81666 26.8736 6.81471 26.3893L6.81851 3.35422C6.81803 2.75276 6.58129 2.1761 6.16023 1.75076C5.73918 1.32542 5.16819 1.08614 4.57257 1.08543C3.91025 1.08621 3.27525 1.35227 2.80687 1.82522C2.3385 2.29818 2.07502 2.9394 2.07424 3.60821L2.07333 9.08489H5.23525C5.37779 9.08489 5.51448 9.14207 5.61525 9.24385C5.71603 9.34562 5.77263 9.48366 5.7726 9.6276C5.77258 9.77154 5.71593 9.90958 5.61513 10.0114C5.51432 10.1131 5.37761 10.1703 5.23507 10.1703H1.53573C1.46516 10.1703 1.39527 10.1563 1.33007 10.129C1.26487 10.1017 1.20563 10.0618 1.15574 10.0114C1.10584 9.96098 1.06627 9.90116 1.03927 9.83531C1.01228 9.76947 0.998394 9.6989 0.998411 9.62763L0.999405 3.60821C1.00059 2.65165 1.37747 1.73455 2.04737 1.05812C2.71727 0.381687 3.62548 0.00115258 4.57276 0H27.0794C27.222 0 27.3587 0.0571784 27.4594 0.158956C27.5602 0.260734 27.6168 0.398775 27.6168 0.54271C27.6168 0.686646 27.5601 0.824686 27.4593 0.926464C27.3585 1.02824 27.2218 1.08542 27.0793 1.08542H7.01663C7.5812 1.70329 7.89428 2.51344 7.89339 3.35421L7.88959 26.3893C7.89123 26.7294 7.95951 27.0657 8.0905 27.379C8.22149 27.6923 8.4126 27.9763 8.65281 28.2146C8.87333 28.4375 9.13542 28.614 9.42392 28.7339C9.71242 28.8539 10.0216 28.9149 10.3336 28.9135C10.3782 28.9131 10.4219 28.9095 10.4658 28.9067C10.5041 28.9043 10.5427 28.903 10.5806 28.8987C10.6194 28.8943 10.6572 28.8871 10.6954 28.8809C10.738 28.874 10.7809 28.868 10.8228 28.8588C10.8499 28.8529 10.8762 28.8448 10.903 28.838C10.9555 28.8245 11.0081 28.8113 11.0593 28.7943C11.0702 28.7907 11.0806 28.7862 11.0914 28.7824C11.53 28.6296 11.9164 28.3539 12.2054 27.9875C12.4945 27.621 12.6742 27.1791 12.7237 26.7133C12.7317 26.6325 12.736 26.5506 12.736 26.4678L12.7365 23.4782C12.7365 23.4069 12.7504 23.3363 12.7774 23.2705C12.8044 23.2046 12.844 23.1448 12.8939 23.0944C12.9439 23.044 13.0031 23.004 13.0683 22.9767C13.1335 22.9495 13.2034 22.9354 13.274 22.9354H26.5382L26.5389 18.7235H10.0098C9.86722 18.7235 9.73053 18.6663 9.62976 18.5646C9.52898 18.4628 9.47238 18.3247 9.47241 18.1808C9.47243 18.0369 9.52908 17.8988 9.62988 17.7971C9.73069 17.6953 9.8674 17.6381 10.0099 17.6381H19.8726L19.8729 15.731C19.873 15.6597 19.8869 15.5891 19.9139 15.5233C19.9409 15.4574 19.9805 15.3976 20.0304 15.3472C20.0804 15.2968 20.1396 15.2569 20.2048 15.2296C20.27 15.2023 20.3399 15.1883 20.4105 15.1883H22.6619L22.6622 13.3121C22.6622 13.2408 22.6761 13.1703 22.7031 13.1044C22.7301 13.0386 22.7697 12.9788 22.8197 12.9284C22.8696 12.878 22.9288 12.838 22.9941 12.8107C23.0593 12.7835 23.1292 12.7694 23.1997 12.7694H25.1807L25.1821 4.53848H20.353L21.9384 9.1604H22.2182C22.2888 9.16038 22.3587 9.17441 22.4239 9.20168C22.4891 9.22895 22.5483 9.26892 22.5983 9.31931C22.6482 9.36971 22.6877 9.42953 22.7147 9.49538C22.7417 9.56123 22.7556 9.6318 22.7556 9.70307C22.7555 10.549 22.4226 11.3602 21.8302 11.9583C21.2377 12.5564 20.4343 12.8925 19.5967 12.8925C18.759 12.8925 17.9557 12.5564 17.3635 11.9583C16.7712 11.3602 16.4386 10.549 16.4387 9.70307C16.4388 9.63181 16.4527 9.56124 16.4797 9.4954C16.5067 9.42956 16.5463 9.36973 16.5962 9.31934C16.6461 9.26895 16.7054 9.22897 16.7706 9.2017C16.8358 9.17443 16.9057 9.16039 16.9762 9.1604H17.2559L19.0902 3.81806C19.0915 3.81413 19.0944 3.81121 19.0958 3.80735C19.1127 3.76118 19.1357 3.71756 19.1643 3.67771C19.1698 3.67012 19.176 3.66357 19.1818 3.6563C19.2096 3.62129 19.2416 3.58989 19.2771 3.56282C19.2818 3.55924 19.2858 3.55495 19.2907 3.55151C19.3304 3.52396 19.3737 3.50197 19.4193 3.48615C19.4293 3.48256 19.4392 3.47969 19.4494 3.47671C19.4976 3.46175 19.5477 3.45378 19.5981 3.45304H25.1823L25.1823 2.93111C25.1824 2.78717 25.239 2.64913 25.3398 2.54735C25.4406 2.44557 25.5773 2.38839 25.7199 2.38839C25.8624 2.38839 25.9991 2.44557 26.0999 2.54735C26.2007 2.64913 26.2573 2.78717 26.2573 2.93111L26.2572 3.45304H31.8411C31.8915 3.45378 31.9416 3.46175 31.9898 3.47671C32 3.47969 32.0099 3.48256 32.0198 3.48615C32.0655 3.50197 32.1087 3.52396 32.1485 3.55151C32.1534 3.55495 32.1574 3.55924 32.1621 3.56285C32.1975 3.5899 32.2295 3.62128 32.2573 3.65626C32.2631 3.66353 32.2693 3.67011 32.2748 3.67774C32.3034 3.71758 32.3264 3.76119 32.3433 3.80735C32.3447 3.81121 32.3476 3.81413 32.3489 3.81806L34.1815 9.16039H34.461C34.5316 9.16038 34.6015 9.1744 34.6667 9.20167C34.7319 9.22894 34.7911 9.26891 34.841 9.3193C34.8909 9.3697 34.9305 9.42953 34.9575 9.49537C34.9845 9.56122 34.9984 9.63179 34.9984 9.70306C34.9983 10.5489 34.6654 11.3602 34.0729 11.9583C33.4805 12.5564 32.6771 12.8924 31.8394 12.8924C31.0018 12.8924 30.1985 12.5564 29.6062 11.9583C29.014 11.3602 28.6814 10.5489 28.6815 9.70306C28.6815 9.6318 28.6954 9.56123 28.7225 9.49539C28.7495 9.42955 28.7891 9.36972 28.839 9.31933C28.8889 9.26894 28.9482 9.22896 29.0134 9.20169C29.0786 9.17442 29.1485 9.16039 29.219 9.16039H29.4989L31.0858 4.53847H26.257L26.2556 12.7694H28.2364C28.307 12.7694 28.3768 12.7835 28.442 12.8107C28.5072 12.838 28.5665 12.878 28.6164 12.9284C28.6663 12.9788 28.7058 13.0386 28.7328 13.1044C28.7598 13.1703 28.7737 13.2408 28.7737 13.3121L28.7734 15.1883H31.0248C31.0954 15.1883 31.1653 15.2023 31.2305 15.2296C31.2957 15.2569 31.3549 15.2969 31.4048 15.3472C31.4547 15.3976 31.4943 15.4575 31.5212 15.5233C31.5482 15.5892 31.5621 15.6597 31.5621 15.731L31.5618 17.6381H33.8C33.8706 17.6381 33.9405 17.6521 34.0057 17.6794C34.0709 17.7067 34.1301 17.7467 34.18 17.7971C34.2299 17.8475 34.2695 17.9073 34.2965 17.9731C34.3235 18.039 34.3374 18.1096 34.3374 18.1808ZM33.8531 10.2458H29.8267C29.9451 10.6936 30.2066 11.0893 30.5705 11.3716C30.9345 11.6539 31.3806 11.8069 31.8396 11.8069C32.2986 11.8069 32.7448 11.6539 33.1088 11.3716C33.4729 11.0893 33.7345 10.6936 33.8531 10.2458ZM31.8407 5.65314L30.6365 9.16039H33.0438L31.8407 5.65314ZM21.6103 10.2458H17.5839C17.7023 10.6936 17.9638 11.0893 18.3278 11.3716C18.6917 11.6539 19.1379 11.8069 19.5968 11.8069C20.0558 11.8069 20.502 11.6539 20.8661 11.3716C21.2301 11.0893 21.4917 10.6936 21.6103 10.2458ZM19.5977 5.65314L18.3934 9.16039H20.8008L19.5977 5.65314ZM23.7367 15.1883H27.6986L27.6988 13.8548H23.737L23.7367 15.1883ZM27.0755 24.0209H13.8113L13.8109 26.4677C13.8114 27.3805 13.4608 28.2578 12.833 28.9146H28.9082C29.6385 28.9138 30.3387 28.6205 30.8553 28.0991C31.3718 27.5776 31.6625 26.8706 31.6635 26.1332L31.6639 24.0209L27.0755 24.0209ZM30.4872 16.2737H20.9478L20.9475 17.6381H30.487L30.4872 16.2737Z" fill="#1D2940"/>
</svg>
