<svg width="41" height="41" viewBox="0 0 41 41" fill="none" xmlns="http://www.w3.org/2000/svg">
<g clip-path="url(#clip0_6089_8430)">
<path d="M2.85938 0.369141L6.06938 36.3691L20.4744 40.3691L34.9169 36.3641L38.1319 0.369141H2.86188H2.85938ZM32.1644 34.0741L20.5544 37.2916V37.3091L20.5244 37.2991L20.4944 37.3091V37.2916L8.88437 34.0741L6.13937 3.31414H34.9094L32.1644 34.0741ZM25.9144 21.0791L25.4044 26.8041L20.4744 28.1341L15.5569 26.8091L15.2419 23.2841H10.8094L11.4269 30.2191L20.4919 32.7266L29.5294 30.2191L30.7419 16.6641H14.6494L14.2469 12.1416H31.1419L31.5369 7.72664H9.41938L10.6119 21.0791H25.9144Z" fill="white"/>
</g>
<defs>
<clipPath id="clip0_6089_8430">
<rect width="40" height="40" fill="white" transform="translate(0.5 0.369141)"/>
</clipPath>
</defs>
</svg>
