<svg width="32" height="32" viewBox="0 0 32 32" fill="none" xmlns="http://www.w3.org/2000/svg">
<g clip-path="url(#clip0_4903_2724)">
<path d="M26.3748 15.9376L26.3748 18.5229L24.5004 16.6485C24.1494 16.9968 23.0977 18.0658 16.9375 24.1441L16.9375 31.9998L26.3748 31.9998L26.3748 29.2178L31.9996 24.1123L31.9996 11.2502L31.0622 11.2502C28.4775 11.2502 26.3748 13.353 26.3748 15.9376V15.9376ZM30.1247 23.282L24.4998 28.3875L24.4998 30.1248L18.8125 30.1248L18.8125 24.928C19.7274 24.0249 22.6784 21.1106 24.4992 19.2989L25.8208 20.6205L20.9657 25.4222L22.2841 26.7553L28.2497 20.8553L28.2497 15.9376C28.2497 14.7154 29.0334 13.6728 30.1247 13.2858L30.1247 23.282Z" fill="#184E77"/>
<path d="M5.62487 31.9998L15.0621 31.9998L15.0621 24.1441C8.76117 17.927 7.95656 17.1023 7.49926 16.6485L5.62487 18.5229L5.62487 15.9376C5.62487 13.353 3.5221 11.2502 0.937478 11.2502L0 11.2502L1.43697e-07 24.1123L5.62487 29.2178L5.62487 31.9998ZM1.87496 23.282L1.87496 13.2859C2.96624 13.6728 3.74991 14.7155 3.74991 15.9377L3.74991 20.8523L9.6494 26.7517L10.9752 25.4259L6.17436 20.6251L7.50051 19.299C9.32128 21.1107 12.2724 24.0249 13.1873 24.928L13.1873 30.1249L7.49989 30.1249L7.49989 28.3876L1.87496 23.282Z" fill="#184E77"/>
<path d="M24.4538 5.75086C25.626 5.75086 26.5969 5.56068 27.525 4.63245L28.1878 3.96959L24.2185 0.000244133L23.5556 0.663041C22.6273 1.59114 22.4372 2.56193 22.4372 3.73409L22.4372 4.34308L22.1574 4.5517C20.6168 2.90618 18.4265 1.87601 15.9998 1.87601C11.3475 1.87601 7.5625 5.66099 7.5625 10.3133C7.5625 14.9656 11.3475 18.7506 15.9998 18.7506C20.6521 18.7506 24.4371 14.9656 24.4371 10.3133C24.4371 8.76041 24.0149 7.30451 23.2801 6.05342L23.6857 5.75092L24.4538 5.75092L24.4538 5.75086ZM24.3121 3.73409C24.3121 3.35467 24.3342 3.06542 24.3917 2.82512L25.3629 3.79628C25.1225 3.85384 24.8332 3.8759 24.4537 3.8759L24.312 3.8759L24.312 3.73409L24.3121 3.73409ZM22.5621 10.3133C22.5621 13.9317 19.6183 16.8756 15.9998 16.8756C12.3813 16.8756 9.43746 13.9317 9.43746 10.3133C9.43746 6.69478 12.3813 3.75091 15.9998 3.75091C17.8119 3.75091 19.4547 4.4892 20.6434 5.68074L19.1185 6.8179C18.2893 6.07723 17.1965 5.62586 15.9998 5.62586C13.4152 5.62586 11.3124 7.72863 11.3124 10.3133C11.3124 12.8979 13.4152 15.0006 15.9998 15.0006C18.5844 15.0006 20.6872 12.8979 20.6872 10.3133C20.6872 9.60071 20.5266 8.92516 20.241 8.3198L21.766 7.18251C22.2735 8.11355 22.5621 9.18034 22.5621 10.3133ZM18.8122 10.3133C18.8122 11.864 17.5506 13.1257 15.9998 13.1257C14.449 13.1257 13.1874 11.864 13.1874 10.3133C13.1874 8.76248 14.449 7.50082 15.9998 7.50082C16.5784 7.50082 17.1165 7.67657 17.564 7.97725L15.4393 9.56177L16.5603 11.0648L18.6861 9.47946C18.7681 9.74302 18.8122 10.0231 18.8122 10.3133Z" fill="#184E77"/>
</g>
<defs>
<clipPath id="clip0_4903_2724">
<rect width="32" height="32" fill="white" transform="translate(0 0.000244141)"/>
</clipPath>
</defs>
</svg>
