<svg width="40" height="40" viewBox="0 0 40 40" fill="none" xmlns="http://www.w3.org/2000/svg">
<path d="M19.9993 3.33594C16.4631 3.33594 13.0717 4.7407 10.5713 7.24118C8.07077 9.74166 6.66602 13.133 6.66602 16.6693C6.66602 25.6693 18.416 35.8359 18.916 36.2693C19.2179 36.5275 19.6021 36.6694 19.9993 36.6694C20.3966 36.6694 20.7808 36.5275 21.0827 36.2693C21.666 35.8359 33.3327 25.6693 33.3327 16.6693C33.3327 13.133 31.9279 9.74166 29.4274 7.24118C26.927 4.7407 23.5356 3.33594 19.9993 3.33594ZM19.9993 32.7526C16.4493 29.4193 9.99935 22.2359 9.99935 16.6693C9.99935 14.0171 11.0529 11.4736 12.9283 9.5982C14.8036 7.72284 17.3472 6.66927 19.9993 6.66927C22.6515 6.66927 25.1951 7.72284 27.0704 9.5982C28.9458 11.4736 29.9993 14.0171 29.9993 16.6693C29.9993 22.2359 23.5493 29.4359 19.9993 32.7526ZM19.9993 10.0026C18.6808 10.0026 17.3919 10.3936 16.2955 11.1261C15.1992 11.8587 14.3447 12.8999 13.8402 14.118C13.3356 15.3362 13.2035 16.6767 13.4608 17.9699C13.718 19.2631 14.353 20.451 15.2853 21.3833C16.2177 22.3157 17.4055 22.9506 18.6987 23.2078C19.992 23.4651 21.3324 23.333 22.5506 22.8285C23.7687 22.3239 24.8099 21.4694 25.5425 20.3731C26.275 19.2767 26.666 17.9878 26.666 16.6693C26.666 14.9012 25.9636 13.2055 24.7134 11.9552C23.4632 10.705 21.7675 10.0026 19.9993 10.0026ZM19.9993 20.0026C19.3401 20.0026 18.6956 19.8071 18.1474 19.4408C17.5993 19.0746 17.172 18.554 16.9197 17.9449C16.6675 17.3358 16.6014 16.6656 16.7301 16.019C16.8587 15.3724 17.1762 14.7784 17.6423 14.3122C18.1085 13.8461 18.7024 13.5286 19.349 13.4C19.9957 13.2714 20.6659 13.3374 21.275 13.5897C21.884 13.842 22.4046 14.2692 22.7709 14.8174C23.1372 15.3655 23.3327 16.01 23.3327 16.6693C23.3327 17.5533 22.9815 18.4012 22.3564 19.0263C21.7312 19.6514 20.8834 20.0026 19.9993 20.0026Z" fill="white"/>
</svg>
