<svg width="40" height="41" viewBox="0 0 40 41" fill="none" xmlns="http://www.w3.org/2000/svg">
<path d="M29.4569 26.7352C29.1046 26.3811 28.6861 26.1001 28.2252 25.9084C27.7643 25.7167 27.2702 25.618 26.7711 25.618C26.2721 25.618 25.778 25.7167 25.3171 25.9084C24.8562 26.1001 24.4377 26.3811 24.0854 26.7352L22.2528 28.5712C20.1894 27.2593 18.2777 25.722 16.5527 23.9876C14.8252 22.2562 13.291 20.3414 11.9775 18.2771L13.8101 16.4411C14.1636 16.0882 14.4441 15.6689 14.6354 15.2071C14.8268 14.7454 14.9253 14.2504 14.9253 13.7504C14.9253 13.2505 14.8268 12.7555 14.6354 12.2937C14.4441 11.832 14.1636 11.4127 13.8101 11.0598L10.2333 7.48913C9.88607 7.13382 9.47104 6.85209 9.01291 6.66068C8.55479 6.46926 8.06294 6.37207 7.56658 6.37488C7.06669 6.37365 6.5715 6.47146 6.10949 6.66269C5.64748 6.85392 5.22777 7.13478 4.87452 7.48913L3.15565 9.19849C2.33637 10.081 1.72491 11.1362 1.36622 12.2866C1.00752 13.4369 0.91071 14.6532 1.0829 15.846C1.48734 20.5942 4.59647 26.3047 9.38655 31.1163C14.1766 35.9278 19.9399 39.03 24.6794 39.4858C25.0331 39.5047 25.3875 39.5047 25.7411 39.4858C26.7613 39.5287 27.7798 39.3671 28.7369 39.0106C29.694 38.654 30.5704 38.1096 31.3148 37.4092L33.021 35.6872C33.3747 35.3333 33.655 34.9128 33.8459 34.45C34.0368 33.9871 34.1344 33.491 34.1332 32.9902C34.136 32.493 34.039 32.0002 33.8479 31.5412C33.6569 31.0823 33.3757 30.6665 33.021 30.3186L29.4569 26.7352ZM31.2389 33.9019L29.5201 35.6113C28.8845 36.1419 28.1426 36.5296 27.3445 36.748C26.5465 36.9665 25.7109 37.0106 24.8943 36.8774C20.7867 36.5229 15.5543 33.6107 11.2318 29.2803C6.90936 24.9499 4.00245 19.7459 3.61065 15.6307C3.47435 14.8127 3.51676 13.9747 3.73496 13.1747C3.95316 12.3746 4.34195 11.6315 4.87452 10.9965L6.65659 9.27446C6.77468 9.1571 6.91474 9.06426 7.06873 9.00125C7.22271 8.93824 7.3876 8.9063 7.55394 8.90726C7.72027 8.9063 7.88516 8.93824 8.03915 9.00125C8.19313 9.06426 8.33319 9.1571 8.45129 9.27446L12.0281 12.8958C12.2634 13.133 12.3956 13.4539 12.3956 13.7884C12.3956 14.1229 12.2634 14.4439 12.0281 14.6811L9.5003 17.2135C9.3025 17.4107 9.1754 17.6679 9.13882 17.945C9.10224 18.2222 9.15824 18.5037 9.29808 18.7456C10.8114 21.3266 12.6508 23.7014 14.7707 25.8109C16.8764 27.9347 19.2467 29.7774 21.8231 31.2935C22.0646 31.4336 22.3455 31.4897 22.6221 31.4531C22.8988 31.4164 23.1555 31.2891 23.3524 31.0909L25.8801 28.5586C26.1169 28.3227 26.4372 28.1904 26.7711 28.1904C27.105 28.1904 27.4254 28.3227 27.6622 28.5586L31.2389 32.1419C31.3561 32.2602 31.4488 32.4005 31.5116 32.5548C31.5745 32.7091 31.6064 32.8742 31.6055 33.0409C31.5976 33.3643 31.4664 33.6723 31.2389 33.9019ZM33.4381 7.05862C31.6816 5.29225 29.5935 3.89167 27.2942 2.93765C24.9948 1.98363 22.5297 1.49503 20.041 1.50004C19.7058 1.50004 19.3843 1.63344 19.1473 1.8709C18.9103 2.10835 18.7771 2.43042 18.7771 2.76623C18.7771 3.10205 18.9103 3.42411 19.1473 3.66156C19.3843 3.89902 19.7058 4.03242 20.041 4.03242C22.2104 4.03234 24.3584 4.46268 26.3609 5.29859C28.3635 6.13451 30.1809 7.35945 31.7085 8.90273C33.236 10.446 34.4433 12.2771 35.2608 14.2903C36.0783 16.3034 36.4897 18.4589 36.4714 20.6322C36.4714 20.968 36.6045 21.2901 36.8416 21.5275C37.0786 21.765 37.4001 21.8984 37.7353 21.8984C38.0705 21.8984 38.3919 21.765 38.6289 21.5275C38.866 21.2901 38.9991 20.968 38.9991 20.6322C39.0233 18.1124 38.5438 15.6132 37.5887 13.282C36.6336 10.9508 35.2223 8.83479 33.4381 7.05862Z" fill="white"/>
<path d="M26.3918 14.0813C27.0854 14.7632 27.6341 15.5754 28.0055 16.4701C28.377 17.3648 28.5638 18.324 28.555 19.2912C28.555 19.6118 28.6837 19.9193 28.9129 20.146C29.1421 20.3726 29.453 20.5 29.7771 20.5C30.1012 20.5 30.4121 20.3726 30.6413 20.146C30.8705 19.9193 30.9992 19.6118 30.9992 19.2912C31.0154 18.0111 30.7745 16.7406 30.2904 15.5534C29.8063 14.3662 29.0887 13.2858 28.1792 12.375C27.2697 11.4642 26.1864 10.741 24.9921 10.2475C23.7979 9.75398 22.5164 9.4999 21.2221 9.5C20.898 9.5 20.5872 9.62735 20.358 9.85405C20.1288 10.0807 20 10.3882 20 10.7088C20 11.0294 20.1288 11.3368 20.358 11.5635C20.5872 11.7902 20.898 11.9176 21.2221 11.9176C22.1853 11.9248 23.1376 12.1195 24.0246 12.4908C24.9116 12.8621 25.716 13.4025 26.3918 14.0813Z" fill="white"/>
</svg>
