<svg width="16" height="16" viewBox="0 0 16 16" fill="none" xmlns="http://www.w3.org/2000/svg">
<g clip-path="url(#clip0_4839_1347)">
<path d="M15.0094 10.0096L11.9406 8.69393C11.2716 8.4039 10.4831 8.59677 10.0281 9.16112L9.17063 10.208C7.77125 9.40331 6.59906 8.23143 5.79563 6.86112L6.84406 6.00237C7.40375 5.54549 7.59688 4.76174 7.31344 4.09456L5.99063 0.985493C5.67313 0.260493 4.88625 -0.135132 4.11969 0.0420551L1.26813 0.70018C0.521875 0.870805 0 1.52612 0 2.29362C0 9.85299 6.14688 15.9999 13.7063 15.9999C14.4738 15.9999 15.1291 15.4783 15.2719 14.7333L15.93 11.8789C16.1375 11.1096 15.7375 10.3221 15.0094 10.0096ZM14.4969 11.5408L13.8378 14.3974C13.8232 14.4317 13.7719 14.4999 13.706 14.4999C6.97472 14.4999 1.49972 9.0249 1.49972 2.29365C1.49972 2.22821 1.54025 2.17696 1.60422 2.16231L4.45859 1.50356C4.46836 1.50111 4.47861 1.50014 4.48838 1.50014C4.54257 1.50014 4.59335 1.53286 4.61485 1.58167L5.93172 4.65448C5.95516 4.70967 5.93953 4.77411 5.89266 4.81267L4.36875 6.03456C4.09922 6.25524 4.01719 6.63268 4.1705 6.94518C5.20206 9.04612 6.92863 10.7733 9.02988 11.8046C9.31425 11.9579 9.72019 11.8758 9.94113 11.6063L11.1914 10.0791C11.2261 10.0352 11.291 10.0186 11.3453 10.044L14.4159 11.3593C14.475 11.4127 14.5094 11.4783 14.4969 11.5408Z" fill="white"/>
</g>
<defs>
<clipPath id="clip0_4839_1347">
<rect width="16" height="16" fill="white"/>
</clipPath>
</defs>
</svg>
