<svg width="40" height="40" viewBox="0 0 40 40" fill="none" xmlns="http://www.w3.org/2000/svg">
<path d="M29.4569 26.2352C29.1046 25.8811 28.6861 25.6001 28.2252 25.4084C27.7643 25.2167 27.2702 25.118 26.7711 25.118C26.2721 25.118 25.778 25.2167 25.3171 25.4084C24.8562 25.6001 24.4377 25.8811 24.0854 26.2352L22.2528 28.0712C20.1894 26.7593 18.2777 25.222 16.5527 23.4876C14.8252 21.7562 13.291 19.8414 11.9775 17.7771L13.8101 15.9411C14.1636 15.5882 14.4441 15.1689 14.6354 14.7071C14.8268 14.2454 14.9253 13.7504 14.9253 13.2504C14.9253 12.7505 14.8268 12.2555 14.6354 11.7937C14.4441 11.332 14.1636 10.9127 13.8101 10.5598L10.2333 6.98913C9.88607 6.63382 9.47104 6.35209 9.01291 6.16068C8.55479 5.96926 8.06294 5.87207 7.56658 5.87488C7.06669 5.87365 6.5715 5.97146 6.10949 6.16269C5.64748 6.35392 5.22777 6.63478 4.87452 6.98913L3.15565 8.69849C2.33637 9.58098 1.72491 10.6362 1.36622 11.7866C1.00752 12.9369 0.91071 14.1532 1.0829 15.346C1.48734 20.0942 4.59647 25.8047 9.38655 30.6163C14.1766 35.4278 19.9399 38.53 24.6794 38.9858C25.0331 39.0047 25.3875 39.0047 25.7411 38.9858C26.7613 39.0287 27.7798 38.8671 28.7369 38.5106C29.694 38.154 30.5704 37.6096 31.3148 36.9092L33.021 35.1872C33.3747 34.8333 33.655 34.4128 33.8459 33.95C34.0368 33.4871 34.1344 32.991 34.1332 32.4902C34.136 31.993 34.039 31.5002 33.8479 31.0412C33.6569 30.5823 33.3757 30.1665 33.021 29.8186L29.4569 26.2352ZM31.2389 33.4019L29.5201 35.1113C28.8845 35.6419 28.1426 36.0296 27.3445 36.248C26.5465 36.4665 25.7109 36.5106 24.8943 36.3774C20.7867 36.0229 15.5543 33.1107 11.2318 28.7803C6.90936 24.4499 4.00245 19.2459 3.61065 15.1307C3.47435 14.3127 3.51676 13.4747 3.73496 12.6747C3.95316 11.8746 4.34195 11.1315 4.87452 10.4965L6.65659 8.77446C6.77468 8.6571 6.91474 8.56426 7.06873 8.50125C7.22271 8.43824 7.3876 8.4063 7.55394 8.40726C7.72027 8.4063 7.88516 8.43824 8.03915 8.50125C8.19313 8.56426 8.33319 8.6571 8.45129 8.77446L12.0281 12.3958C12.2634 12.633 12.3956 12.9539 12.3956 13.2884C12.3956 13.6229 12.2634 13.9439 12.0281 14.1811L9.5003 16.7135C9.3025 16.9107 9.1754 17.1679 9.13882 17.445C9.10224 17.7222 9.15824 18.0037 9.29808 18.2456C10.8114 20.8266 12.6508 23.2014 14.7707 25.3109C16.8764 27.4347 19.2467 29.2774 21.8231 30.7935C22.0646 30.9336 22.3455 30.9897 22.6221 30.9531C22.8988 30.9164 23.1555 30.7891 23.3524 30.5909L25.8801 28.0586C26.1169 27.8227 26.4372 27.6904 26.7711 27.6904C27.105 27.6904 27.4254 27.8227 27.6622 28.0586L31.2389 31.6419C31.3561 31.7602 31.4488 31.9005 31.5116 32.0548C31.5745 32.2091 31.6064 32.3742 31.6055 32.5409C31.5976 32.8643 31.4664 33.1723 31.2389 33.4019ZM33.4381 6.55862C31.6816 4.79225 29.5935 3.39167 27.2942 2.43765C24.9948 1.48363 22.5297 0.995034 20.041 1.00004C19.7058 1.00004 19.3843 1.13344 19.1473 1.3709C18.9103 1.60835 18.7771 1.93042 18.7771 2.26623C18.7771 2.60205 18.9103 2.92411 19.1473 3.16156C19.3843 3.39902 19.7058 3.53242 20.041 3.53242C22.2104 3.53234 24.3584 3.96268 26.3609 4.79859C28.3635 5.63451 30.1809 6.85945 31.7085 8.40273C33.236 9.94601 34.4433 11.7771 35.2608 13.7903C36.0783 15.8034 36.4897 17.9589 36.4714 20.1322C36.4714 20.468 36.6045 20.7901 36.8416 21.0275C37.0786 21.265 37.4001 21.3984 37.7353 21.3984C38.0705 21.3984 38.3919 21.265 38.6289 21.0275C38.866 20.7901 38.9991 20.468 38.9991 20.1322C39.0233 17.6124 38.5438 15.1132 37.5887 12.782C36.6336 10.4508 35.2223 8.33479 33.4381 6.55862Z" fill="white"/>
<path d="M26.3918 13.5813C27.0854 14.2632 27.6341 15.0754 28.0055 15.9701C28.377 16.8648 28.5638 17.824 28.555 18.7912C28.555 19.1118 28.6837 19.4193 28.9129 19.646C29.1421 19.8726 29.453 20 29.7771 20C30.1012 20 30.4121 19.8726 30.6413 19.646C30.8705 19.4193 30.9992 19.1118 30.9992 18.7912C31.0154 17.5111 30.7745 16.2406 30.2904 15.0534C29.8063 13.8662 29.0887 12.7858 28.1792 11.875C27.2697 10.9642 26.1864 10.241 24.9921 9.7475C23.7979 9.25398 22.5164 8.9999 21.2221 9C20.898 9 20.5872 9.12735 20.358 9.35405C20.1288 9.58074 20 9.8882 20 10.2088C20 10.5294 20.1288 10.8368 20.358 11.0635C20.5872 11.2902 20.898 11.4176 21.2221 11.4176C22.1853 11.4248 23.1376 11.6195 24.0246 11.9908C24.9116 12.3621 25.716 12.9025 26.3918 13.5813Z" fill="white"/>
</svg>
