<svg width="39" height="38" viewBox="0 0 39 38" fill="none" xmlns="http://www.w3.org/2000/svg">
<g clip-path="url(#clip0_5118_2290)">
<path d="M18.1294 4.2036C18.0474 4.7716 17.7591 5.27235 17.3468 5.63209C16.9364 5.98559 16.4021 6.20231 15.8213 6.20231C15.2385 6.20231 14.7063 5.98559 14.296 5.63209C13.8816 5.27235 13.5934 4.76952 13.5134 4.19937C13.4882 4.03527 13.5408 3.87956 13.6396 3.76178L15.3542 1.53373C15.4533 1.38225 15.6257 1.28131 15.8213 1.28131H18.9435V0.557531C18.9435 0.25034 19.1918 0 19.4989 0C19.8081 0 20.0564 0.25034 20.0564 0.557531V1.28131H23.1786C23.3742 1.28131 23.5447 1.38225 23.6457 1.53373L25.377 3.78278C25.4675 3.90064 25.5075 4.05635 25.4865 4.2036C25.4045 4.76952 25.1183 5.27235 24.7039 5.63209C24.2937 5.98559 23.7614 6.20231 23.1786 6.20231C22.5957 6.20231 22.0635 5.98559 21.6531 5.63209C21.2387 5.27235 20.9526 4.76952 20.8706 4.19937C20.8474 4.03527 20.8979 3.87956 20.9967 3.76178L22.0509 2.39422H20.0564V7.00796H21.5606C22.0025 7.00796 22.4021 7.1889 22.6946 7.47925C22.9849 7.76959 23.1638 8.17141 23.1638 8.61323C23.1638 9.05506 22.9849 9.45688 22.6946 9.7473C22.4021 10.0376 22.0025 10.2186 21.5606 10.2186H17.4392C16.9974 10.2186 16.5956 10.0376 16.3052 9.7473C16.0149 9.45688 15.8338 9.05506 15.8338 8.61323C15.8338 8.17141 16.0149 7.76959 16.3052 7.47925C16.5956 7.18898 16.9974 7.00796 17.4392 7.00796H18.9435V2.39422H16.9491L18.0177 3.78278C18.1104 3.90272 18.1483 4.05628 18.1294 4.2036ZM30.1866 25.8165H27.723V28.6547H30.1866V25.8165ZM27.1655 24.7036H30.7442C31.0514 24.7036 31.3017 24.954 31.3017 25.2612V29.2122C31.3017 29.5194 31.0514 29.7676 30.7442 29.7676H27.1655C26.8583 29.7676 26.608 29.5193 26.608 29.2122V25.2611C26.608 24.954 26.8583 24.7036 27.1655 24.7036ZM8.25589 24.7036H11.8347C12.1418 24.7036 12.39 24.954 12.39 25.2612V29.2122C12.39 29.5194 12.1417 29.7676 11.8347 29.7676H8.25589C7.9487 29.7676 7.69836 29.5193 7.69836 29.2122V25.2611C7.69836 24.954 7.9487 24.7036 8.25589 24.7036ZM11.277 25.8165H8.81134V28.6547H11.277V25.8165ZM24.4241 36.8871V29.6203H22.0382V36.8871H24.4241ZM22.0382 28.5052H24.9817C25.2889 28.5052 25.537 28.7556 25.537 29.0628V36.8871H32.3725V24.3165L29.101 22.4273C28.8359 22.2758 28.7434 21.937 28.8969 21.6719C29.0484 21.4068 29.3872 21.3143 29.6543 21.4678C31.3983 22.4735 33.1425 23.4813 34.8866 24.489L36.7653 21.2321L22.0382 12.7284V17.0687L27.4727 20.2055C27.7376 20.359 27.8281 20.6999 27.6746 20.9649C27.521 21.2301 27.1802 21.3205 26.9151 21.167L22.0383 18.352V28.5052H22.0382ZM13.4609 36.8871V29.0628C13.4609 28.7556 13.7112 28.5052 14.0184 28.5052H16.9618V18.3521L6.62753 24.3186V36.8871H13.4609ZM16.9618 29.6203H14.5758V36.8871H16.9618V29.6203ZM33.4854 24.9581V37.4445C33.4854 37.7517 33.2351 37.9999 32.9279 37.9999H21.4807C21.1735 37.9999 20.9254 37.7517 20.9254 37.4445V11.7669C20.9254 11.6723 20.9506 11.5755 21.0011 11.4871C21.1547 11.2221 21.4934 11.1316 21.7585 11.2852L37.8026 20.5485C38.0677 20.7021 38.1582 21.0408 38.0047 21.3058L35.5705 25.5241C35.4168 25.7872 35.078 25.8776 34.8131 25.7261L33.4854 24.9581ZM18.0747 37.4446C18.0747 37.7518 17.8265 38 17.5194 38H6.07208C5.76489 38 5.51455 37.7517 5.51455 37.4446V24.9603L4.18915 25.7261C3.92404 25.8796 3.58315 25.7892 3.42967 25.5241L0.995514 21.3058C0.841881 21.0407 0.93228 20.702 1.19746 20.5484L8.12757 16.5469C8.39267 16.3934 8.73133 16.4838 8.88497 16.7489C9.03845 17.014 8.94805 17.3548 8.68287 17.5084L2.2346 21.2321L4.1133 24.4869L16.9617 17.0688V12.7284L10.8667 16.2483C10.6017 16.4018 10.2629 16.3114 10.1094 16.0442C9.95364 15.7791 10.0461 15.4403 10.3114 15.2868L17.2393 11.2853C17.6139 11.0706 18.0746 11.3463 18.0746 11.767L18.0747 37.4446ZM21.5607 8.12302H17.4393C17.3046 8.12302 17.1827 8.17772 17.0921 8.26604C17.0038 8.35659 16.9491 8.47853 16.9491 8.61323C16.9491 8.74787 17.0038 8.86988 17.0921 8.96043C17.1827 9.04868 17.3046 9.10345 17.4393 9.10345H21.5607C21.6954 9.10345 21.8174 9.04875 21.9057 8.96043C21.9962 8.86988 22.0509 8.74794 22.0509 8.61323C22.0509 8.47853 21.9962 8.35659 21.9057 8.26604C21.8174 8.17779 21.6954 8.12302 21.5607 8.12302ZM23.9782 4.79268C24.1423 4.64958 24.2685 4.46441 24.338 4.254L23.1788 2.74765L22.0195 4.254C22.0889 4.46441 22.2152 4.64958 22.3793 4.79268C22.5916 4.9757 22.8716 5.08718 23.1788 5.08718C23.4859 5.08718 23.7656 4.9757 23.9782 4.79268ZM16.6209 4.79268C16.7851 4.64958 16.9092 4.46441 16.9807 4.254L15.8214 2.74765L14.6623 4.254C14.7316 4.46441 14.8579 4.64958 15.022 4.79268C15.2345 4.9757 15.5143 5.08718 15.8214 5.08718C16.1285 5.08718 16.4063 4.9757 16.6209 4.79268Z" fill="#1D2940"/>
</g>
<defs>
<clipPath id="clip0_5118_2290">
<rect width="38" height="38" fill="white" transform="translate(0.5)"/>
</clipPath>
</defs>
</svg>
