<svg width="38" height="38" viewBox="0 0 38 38" fill="none" xmlns="http://www.w3.org/2000/svg">
<path d="M31.0879 35.6436C31.0879 35.3364 31.336 35.0861 31.6432 35.0861C31.9525 35.0861 32.2007 35.3364 32.2007 35.6436V37.4445C32.2007 37.7517 31.9525 37.9999 31.6432 37.9999H13.0934C12.9398 37.9999 12.8031 37.941 12.6979 37.8358L5.96347 31.1014C5.85823 30.9963 5.79722 30.8511 5.79937 30.7017C5.79937 22.0948 5.79937 13.4878 5.79937 4.87892C5.79937 4.57173 6.04971 4.32339 6.3569 4.32339C6.66409 4.32339 6.91236 4.57173 6.91236 4.87892V6.2674H16.4028C16.4744 5.93082 16.569 5.60055 16.6889 5.27866C16.5458 5.20288 16.4153 5.10395 16.2997 4.99039C16.0031 4.69367 15.82 4.28554 15.82 3.83325C15.82 3.38311 16.0031 2.97276 16.2997 2.67826C16.5964 2.38161 17.0066 2.19643 17.4569 2.19643H20.5432C20.9934 2.19643 21.4037 2.38161 21.7003 2.67826C21.9969 2.97276 22.18 3.38304 22.18 3.83325C22.18 4.28561 21.9969 4.69374 21.7003 4.99039C21.5867 5.10395 21.4542 5.20288 21.3111 5.27866C21.4183 5.56262 21.5068 5.86558 21.5783 6.18324C21.6983 6.72392 21.7655 7.30454 21.7655 7.90422C21.7655 8.50391 21.6983 9.08452 21.5783 9.62729C21.5068 9.94494 21.4184 10.2458 21.3111 10.5298C21.4542 10.6076 21.5867 10.7045 21.7003 10.8181C21.9969 11.1148 22.18 11.525 22.18 11.9752C22.18 12.4254 21.9969 12.8357 21.7003 13.1323C21.4037 13.4289 20.9935 13.612 20.5432 13.612H17.4569C17.0067 13.612 16.5964 13.4289 16.2997 13.1323C16.0031 12.8357 15.82 12.4255 15.82 11.9752C15.82 11.5249 16.0031 11.1147 16.2997 10.8181C16.4154 10.7045 16.5458 10.6056 16.6889 10.5298C16.569 10.2079 16.4743 9.87762 16.4028 9.54104H6.91236V30.1505H13.0934C13.4006 30.1505 13.651 30.3987 13.651 30.7059V36.887H31.0879V35.6436ZM20.2613 28.6168C19.9541 28.6168 19.7037 28.3664 19.7037 28.0593C19.7037 27.7521 19.9541 27.5038 20.2613 27.5038H28.62V21.6467H9.38013V27.5038H17.7387C18.0459 27.5038 18.2963 27.7522 18.2963 28.0593C18.2963 28.3664 18.0459 28.6168 17.7387 28.6168H8.82468C8.51548 28.6168 8.26715 28.3664 8.26715 28.0593V21.0892C8.26715 20.782 8.51548 20.5337 8.82468 20.5337H29.1775C29.4847 20.5337 29.7328 20.782 29.7328 21.0892V28.0593C29.7328 28.3664 29.4847 28.6168 29.1775 28.6168H20.2613ZM17.3433 15.0217H20.6568C21.2081 15.0217 21.7067 15.2446 22.0685 15.6065C22.4304 15.9684 22.6555 16.4691 22.6555 17.0181V18.0112H23.8253C24.1325 18.0112 24.3829 18.2615 24.3829 18.5687C24.3829 18.8759 24.1325 19.1241 23.8253 19.1241C20.6085 19.1241 17.3917 19.1241 14.1749 19.1241C13.8677 19.1241 13.6174 18.8758 13.6174 18.5687C13.6174 18.2615 13.8677 18.0112 14.1749 18.0112H15.3446V17.0181C15.3446 16.4691 15.5697 15.9683 15.9316 15.6065C16.2935 15.2446 16.7942 15.0217 17.3433 15.0217ZM20.6568 16.1346H17.3433C17.1013 16.1346 16.8805 16.2334 16.7184 16.3933C16.5585 16.5553 16.4596 16.7762 16.4596 17.0181V18.0112H21.5404V17.0181C21.5404 16.7762 21.4416 16.5553 21.2817 16.3933C21.1196 16.2334 20.8988 16.1346 20.6568 16.1346ZM25.1865 3.63553C24.8793 3.63553 24.631 3.38519 24.631 3.078C24.631 2.77081 24.8794 2.52262 25.1865 2.52262H29.1775C29.4847 2.52262 29.7328 2.77088 29.7328 3.078C29.7328 3.38519 29.4847 3.63553 29.1775 3.63553H25.1865ZM25.1865 6.15593C24.8793 6.15593 24.631 5.90766 24.631 5.60055C24.631 5.29336 24.8794 5.04302 25.1865 5.04302H29.1775C29.4847 5.04302 29.7328 5.29336 29.7328 5.60055C29.7328 5.90774 29.4847 6.15593 29.1775 6.15593H25.1865ZM16.4976 31.2634C16.1904 31.2634 15.94 31.0151 15.94 30.7059C15.94 30.3987 16.1904 30.1505 16.4976 30.1505H29.1776C29.4848 30.1505 29.7329 30.3987 29.7329 30.7059C29.7329 31.0151 29.4847 31.2634 29.1776 31.2634H16.4976ZM16.4976 33.7859C16.1904 33.7859 15.94 33.5356 15.94 33.2284C15.94 32.9212 16.1904 32.6709 16.4976 32.6709H27.2314C27.5386 32.6709 27.789 32.9212 27.789 33.2284C27.789 33.5356 27.5386 33.7859 27.2314 33.7859H16.4976ZM7.69922 31.2634L12.536 36.1001V31.2634H7.69922ZM20.5432 11.4514H17.4569C17.318 11.4514 17.1854 11.5082 17.0866 11.6049C16.9919 11.7017 16.9331 11.8322 16.9331 11.9752C16.9331 12.1182 16.9919 12.2487 17.0866 12.3455C17.1834 12.4401 17.3139 12.499 17.4569 12.499H20.5432C20.6863 12.499 20.8166 12.4401 20.9134 12.3455C21.0081 12.2486 21.0671 12.1183 21.0671 11.9752C21.0671 11.8321 21.0081 11.7016 20.9134 11.6049C20.8166 11.5103 20.6863 11.4514 20.5432 11.4514ZM17.4569 4.35716H20.5432C20.6821 4.35716 20.8146 4.30246 20.9134 4.2036C21.0081 4.10897 21.0671 3.9785 21.0671 3.83332C21.0671 3.69023 21.0081 3.5599 20.9134 3.4652C20.8166 3.36834 20.6862 3.30949 20.5432 3.30949H17.4569C17.3138 3.30949 17.1833 3.36834 17.0866 3.4652C16.9919 3.55983 16.9331 3.69023 16.9331 3.83332C16.9331 3.9785 16.9919 4.10897 17.0866 4.2036C17.1854 4.30239 17.318 4.35716 17.4569 4.35716ZM6.91236 7.38031V8.42813H16.2367V7.90422V7.38031H6.91236ZM17.5052 6.42104C17.4044 6.87548 17.3495 7.37408 17.3495 7.90422C17.3495 8.43444 17.4043 8.93512 17.5052 9.38748C17.581 9.73038 17.6841 10.0502 17.8062 10.3384H20.1941C20.3182 10.0502 20.4191 9.73045 20.4949 9.38748C20.5959 8.93512 20.6506 8.43444 20.6506 7.90422C20.6506 7.374 20.596 6.87548 20.4949 6.42104C20.4191 6.07814 20.3182 5.75834 20.1941 5.47222H17.8062C17.6841 5.75834 17.581 6.07814 17.5052 6.42104ZM6.91236 2.35845C6.91236 2.66564 6.66402 2.9139 6.3569 2.9139C6.04979 2.9139 5.79937 2.66557 5.79937 2.35845V0.557605C5.79937 0.250414 6.04971 0 6.3569 0H31.6432C31.9525 0 32.2007 0.250414 32.2007 0.557605V33.1212C32.2007 33.4283 31.9525 33.6787 31.6432 33.6787C31.336 33.6787 31.0879 33.4283 31.0879 33.1212V1.11298H6.91236V2.35845Z" fill="white"/>
</svg>
