<svg width="32" height="32" viewBox="0 0 32 32" fill="none" xmlns="http://www.w3.org/2000/svg">
<path d="M1.32341 32H17.8785C18.246 31.9813 18.5913 31.8181 18.839 31.5458C19.0867 31.2736 19.2166 30.9144 19.2005 30.5467V30.0875C19.2005 26.2672 17.9409 23.68 15.6545 22.8032L12.2675 21.5003V21.2869C12.4867 21.1211 12.6941 20.9541 12.8824 20.8005C13.0088 20.6987 13.1277 20.6011 13.2408 20.5131C14.0561 19.848 14.5846 18.895 14.717 17.8512L14.8535 16.6992C15.1944 16.5465 15.4839 16.2986 15.6874 15.9854C15.8909 15.6722 15.9997 15.3069 16.0007 14.9333V13.8667H22.4004V16.4107C22.3991 16.6311 22.4595 16.8475 22.5748 17.0355C22.69 17.2234 22.8556 17.3753 23.0526 17.4741C23.2447 17.5711 23.4599 17.6125 23.6742 17.5936C23.8885 17.5748 24.0932 17.4965 24.2654 17.3675L28.9767 13.8667H30.4001C30.8244 13.8667 31.2313 13.6981 31.5314 13.398C31.8314 13.098 32 12.691 32 12.2667V1.6C32 1.17565 31.8314 0.768687 31.5314 0.468629C31.2313 0.168571 30.8244 0 30.4001 0L16.0007 0C15.5763 0 15.1694 0.168571 14.8693 0.468629C14.5693 0.768687 14.4007 1.17565 14.4007 1.6V8.57013C13.9366 8.04612 13.39 7.60135 12.7827 7.25333C12.7928 7.14667 12.8008 7.04 12.8008 6.93333C12.8008 6.08464 12.4637 5.27071 11.8636 4.67059C11.2635 4.07048 10.4496 3.73333 9.60093 3.73333C8.75228 3.73333 7.93838 4.07048 7.33829 4.67059C6.7382 5.27071 6.40107 6.08464 6.40107 6.93333C6.40107 7.04 6.40907 7.14667 6.4192 7.25333C5.44441 7.80752 4.63339 8.60948 4.06828 9.578C3.50317 10.5465 3.20404 11.6472 3.2012 12.7685V14.9333C3.20256 15.3065 3.3115 15.6714 3.51497 15.9842C3.71843 16.297 4.00779 16.5445 4.34835 16.6971L4.48648 17.8613C4.62082 18.901 5.14879 19.8495 5.96162 20.5115C6.07415 20.5989 6.19308 20.6965 6.31947 20.7984C6.50826 20.952 6.71519 21.1184 6.93438 21.2848V21.4981L3.54785 22.8032C1.26102 23.68 0.00133611 26.2672 0.00133611 30.0875V30.5467C-0.0147659 30.9144 0.115195 31.2736 0.36287 31.5458C0.610544 31.8181 0.955833 31.9813 1.32341 32ZM16.0007 1.06667H30.4001C30.5415 1.06667 30.6772 1.12286 30.7772 1.22288C30.8772 1.3229 30.9334 1.45855 30.9334 1.6V4.26667H15.4674V1.6C15.4674 1.45855 15.5235 1.3229 15.6236 1.22288C15.7236 1.12286 15.8592 1.06667 16.0007 1.06667ZM15.4674 5.33333H30.9334V12.2667C30.9334 12.4081 30.8772 12.5438 30.7772 12.6438C30.6772 12.7438 30.5415 12.8 30.4001 12.8H28.8001C28.6847 12.8 28.5725 12.8374 28.4801 12.9067L23.627 16.5125C23.6139 16.5243 23.5973 16.5315 23.5798 16.5332C23.5622 16.535 23.5446 16.5311 23.5294 16.5221C23.5091 16.5118 23.4924 16.4957 23.4813 16.4759C23.4702 16.456 23.4652 16.4333 23.467 16.4107V13.3333C23.467 13.1919 23.4108 13.0562 23.3108 12.9562C23.2108 12.8562 23.0752 12.8 22.9337 12.8H16.0007V12.7685C16.0007 11.8948 15.8191 11.0307 15.4674 10.2309V5.33333ZM9.60093 4.8C10.1361 4.80151 10.6511 5.00461 11.0433 5.36883C11.4355 5.73306 11.6761 6.23167 11.7171 6.76533C10.3484 6.27821 8.8535 6.27821 7.48476 6.76533C7.52579 6.23167 7.76636 5.73306 8.15854 5.36883C8.55072 5.00461 9.06572 4.80151 9.60093 4.8ZM9.60093 7.46667C11.0107 7.46411 12.3639 8.02088 13.3637 9.01482C14.3635 10.0088 14.9283 11.3587 14.934 12.7685V13.2112C14.6645 13.0703 14.3652 12.9957 14.061 12.9936C14.0371 12.9939 14.0133 12.9955 13.9896 12.9984C13.9128 13.0091 12.076 13.2048 11.1731 10.4981C11.1381 10.3914 11.0702 10.2985 10.9792 10.2327C10.8883 10.1668 10.7788 10.1313 10.6665 10.1313C10.5542 10.1313 10.4447 10.1668 10.3538 10.2327C10.2628 10.2985 10.1949 10.3914 10.1598 10.4981C9.23882 13.2592 5.21659 12.9968 5.13872 12.9936C4.83527 12.996 4.53676 13.0706 4.26782 13.2112V12.7685C4.27361 11.3587 4.83835 10.0088 5.83815 9.01482C6.83795 8.02088 8.19117 7.46411 9.60093 7.46667ZM5.54457 17.7237L5.36805 16.2357C5.35496 16.125 5.30748 16.0211 5.23229 15.9387C5.1571 15.8564 5.05797 15.7996 4.94886 15.7765C4.74314 15.7305 4.56114 15.6113 4.43671 15.4411C4.31229 15.2709 4.2539 15.0613 4.27242 14.8513C4.29094 14.6413 4.38509 14.4451 4.53738 14.2993C4.68966 14.1535 4.88971 14.068 5.10032 14.0587C5.27898 14.0731 8.96096 14.3205 10.6324 11.9253C11.6643 13.7979 13.261 14.1653 14.0919 14.0635C14.3174 14.0717 14.531 14.1669 14.688 14.329C14.8449 14.4911 14.9331 14.7077 14.934 14.9333C14.9338 15.1305 14.8661 15.3216 14.7422 15.475C14.6183 15.6284 14.4457 15.7348 14.253 15.7765C14.1439 15.7996 14.0448 15.8564 13.9696 15.9387C13.8944 16.0211 13.8469 16.125 13.8338 16.2357L13.6589 17.7115C13.5648 18.4771 13.1815 19.1778 12.5875 19.6699C12.4696 19.7616 12.3443 19.8635 12.2142 19.9707C11.4627 20.5781 10.5337 21.3333 9.60093 21.3333C8.66817 21.3333 7.73915 20.5781 6.99198 19.9707C6.85972 19.864 6.73439 19.7616 6.61866 19.6704C6.02568 19.1821 5.64149 18.4858 5.54457 17.7237ZM11.1913 21.9733C11.1853 22.176 11.1395 22.3754 11.0562 22.5603C10.973 22.7451 10.8541 22.9117 10.7063 23.0504C10.5586 23.1892 10.3849 23.2974 10.1952 23.3688C10.0055 23.4402 9.80352 23.4735 9.60093 23.4667C9.39835 23.4735 9.19641 23.4402 9.00671 23.3688C8.81702 23.2974 8.6433 23.1892 8.49553 23.0504C8.34776 22.9117 8.22885 22.7451 8.14563 22.5603C8.06242 22.3754 8.01653 22.176 8.0106 21.9733C8.4992 22.2401 9.04442 22.3864 9.60093 22.4C10.1574 22.3864 10.7027 22.2401 11.1913 21.9733ZM1.06796 30.0875C1.06796 26.7403 2.08445 24.5067 3.93077 23.7989L7.04104 22.6021C7.18851 23.165 7.52135 23.6617 7.98581 24.0121C8.45028 24.3625 9.01927 24.5461 9.60093 24.5333C10.1826 24.5461 10.7516 24.3625 11.2161 24.0121C11.6805 23.6617 12.0134 23.165 12.1608 22.6021L15.2722 23.7989C17.1174 24.5067 18.1339 26.7403 18.1339 30.0875V30.5467C18.1339 30.768 17.999 30.9333 17.8785 30.9333H1.32341C1.20289 30.9333 1.06796 30.768 1.06796 30.5467V30.0875Z" fill="white"/>
<path d="M17.0675 3.19997H17.6008C17.7423 3.19997 17.878 3.14378 17.978 3.04376C18.078 2.94374 18.1342 2.80808 18.1342 2.66663C18.1342 2.52519 18.078 2.38953 17.978 2.28951C17.878 2.18949 17.7423 2.1333 17.6008 2.1333H17.0675C16.9261 2.1333 16.7904 2.18949 16.6904 2.28951C16.5904 2.38953 16.5342 2.52519 16.5342 2.66663C16.5342 2.80808 16.5904 2.94374 16.6904 3.04376C16.7904 3.14378 16.9261 3.19997 17.0675 3.19997Z" fill="white"/>
<path d="M19.734 3.19997H20.2674C20.4088 3.19997 20.5445 3.14378 20.6445 3.04376C20.7445 2.94374 20.8007 2.80808 20.8007 2.66663C20.8007 2.52519 20.7445 2.38953 20.6445 2.28951C20.5445 2.18949 20.4088 2.1333 20.2674 2.1333H19.734C19.5926 2.1333 19.4569 2.18949 19.3569 2.28951C19.2569 2.38953 19.2007 2.52519 19.2007 2.66663C19.2007 2.80808 19.2569 2.94374 19.3569 3.04376C19.4569 3.14378 19.5926 3.19997 19.734 3.19997Z" fill="white"/>
<path d="M26.1339 9.06689H20.2672C20.1258 9.06689 19.9901 9.12308 19.8901 9.2231C19.7901 9.32312 19.7339 9.45878 19.7339 9.60023C19.7339 9.74168 19.7901 9.87733 19.8901 9.97735C19.9901 10.0774 20.1258 10.1336 20.2672 10.1336H26.1339C26.2753 10.1336 26.411 10.0774 26.511 9.97735C26.611 9.87733 26.6672 9.74168 26.6672 9.60023C26.6672 9.45878 26.611 9.32312 26.511 9.2231C26.411 9.12308 26.2753 9.06689 26.1339 9.06689Z" fill="white"/>
<path d="M18.1339 7.99977H28.2673C28.4087 7.99977 28.5444 7.94358 28.6444 7.84356C28.7444 7.74354 28.8006 7.60789 28.8006 7.46644C28.8006 7.32499 28.7444 7.18933 28.6444 7.08932C28.5444 6.9893 28.4087 6.93311 28.2673 6.93311H18.1339C17.9925 6.93311 17.8568 6.9893 17.7568 7.08932C17.6568 7.18933 17.6006 7.32499 17.6006 7.46644C17.6006 7.60789 17.6568 7.74354 17.7568 7.84356C17.8568 7.94358 17.9925 7.99977 18.1339 7.99977Z" fill="white"/>
</svg>
