<svg width="32" height="32" viewBox="0 0 32 32" fill="none" xmlns="http://www.w3.org/2000/svg">
<path d="M31.2809 30.5618H1.4382V0.719101C1.4382 0.322157 1.11604 0 0.719101 0C0.322157 0 0 0.322157 0 0.719101V31.2809C0 31.6778 0.322157 32 0.719101 32H31.2809C31.6778 32 32 31.6778 32 31.2809C32 30.884 31.6778 30.5618 31.2809 30.5618Z" fill="white"/>
<path d="M4.44933 29.1236H11.4156C11.8126 29.1236 12.1347 28.8014 12.1347 28.4045V18.2023C12.1347 17.8053 11.8126 17.4832 11.4156 17.4832H4.44933C4.05238 17.4832 3.73022 17.8053 3.73022 18.2023V28.4045C3.73022 28.8014 4.05238 29.1236 4.44933 29.1236ZM5.16843 18.9214H10.6965V27.6854H5.16843V18.9214Z" fill="white"/>
<path d="M13.6628 11.91V28.4044C13.6628 28.8013 13.985 29.1235 14.3819 29.1235H21.3482C21.7452 29.1235 22.0673 28.8013 22.0673 28.4044V11.91C22.0673 11.5131 21.7452 11.1909 21.3482 11.1909H14.3819C13.985 11.1909 13.6628 11.5131 13.6628 11.91ZM15.101 12.6291H20.6291V27.6853H15.101V12.6291Z" fill="white"/>
<path d="M31.2809 4.13477H24.3146C23.9176 4.13477 23.5955 4.45692 23.5955 4.85387V28.4044C23.5955 28.8014 23.9176 29.1235 24.3146 29.1235H31.2809C31.6778 29.1235 32 28.8014 32 28.4044V4.85387C32 4.45692 31.6778 4.13477 31.2809 4.13477ZM30.5618 27.6853H25.0337V5.57297H30.5618V27.6853Z" fill="white"/>
<path d="M5.23708 15.0084C5.42117 15.0084 5.60526 14.9382 5.74548 14.7977L18.0881 2.45501V5.62373C18.0881 6.02067 18.4103 6.34283 18.8072 6.34283C19.2042 6.34283 19.5263 6.02067 19.5263 5.62373V0.719101C19.5263 0.672 19.5213 0.624899 19.512 0.578157C19.5076 0.556944 19.4997 0.537168 19.4936 0.516674C19.4864 0.492584 19.4807 0.467775 19.471 0.444045C19.4609 0.419955 19.4472 0.398023 19.4347 0.375011C19.4246 0.356674 19.4167 0.337618 19.4048 0.320359C19.3523 0.241258 19.2844 0.173663 19.2053 0.120809C19.1887 0.109663 19.1704 0.102112 19.1528 0.0924045C19.1294 0.0794607 19.1064 0.0650786 19.0812 0.0550112C19.0586 0.0456629 19.0345 0.0402697 19.0111 0.0330787C18.9895 0.0266067 18.9694 0.0183371 18.9471 0.0140225C18.9014 0.00503372 18.8554 0 18.809 0C18.8083 0 18.8076 0 18.8065 0H13.9026C13.5057 0 13.1835 0.322157 13.1835 0.719101C13.1835 1.11604 13.5057 1.4382 13.9026 1.4382H17.0713L4.72867 13.7809C4.44786 14.0617 4.44786 14.5169 4.72867 14.7977C4.8689 14.9379 5.05299 15.0084 5.23708 15.0084Z" fill="white"/>
</svg>
