<svg width="32" height="32" viewBox="0 0 32 32" fill="none" xmlns="http://www.w3.org/2000/svg">
<path d="M27.5351 30.0753C27.4938 29.9102 27.4691 29.7414 27.4417 29.5731C30.2237 28.1786 32.0002 25.3305 32.0002 22.1935C32.0002 17.6402 28.2954 13.9354 23.7421 13.9354H23.453C23.515 13.78 23.6337 13.6474 23.7968 13.5736L25.5935 12.7653C26.5942 12.3152 27.0794 11.1849 26.7217 10.1372C26.538 9.59831 26.1111 9.14515 25.5511 8.89328L23.7968 8.1036C23.4758 7.95959 23.3225 7.58901 23.4474 7.25972L24.1297 5.46151C24.3475 4.88706 24.3284 4.2646 24.0771 3.75312C23.5888 2.76008 22.4471 2.30227 21.421 2.6935L19.579 3.39234C19.2502 3.5157 18.8796 3.36344 18.7351 3.0424L17.9459 1.28807C17.6935 0.728066 17.2404 0.301224 16.701 0.116965C15.6522 -0.240198 14.5234 0.24445 14.0734 1.24575L13.2651 3.04189C13.1206 3.36292 12.749 3.51518 12.4212 3.39182L10.6225 2.7095C10.0481 2.49117 9.42612 2.51027 8.91464 2.76163C7.92108 3.2504 7.46534 4.39209 7.8545 5.41764L8.55334 7.25972C8.67825 7.58901 8.52444 7.95908 8.20341 8.1036L6.44959 8.89328C5.88959 9.14515 5.46274 9.59831 5.279 10.1372C4.92132 11.1849 5.40597 12.3152 6.40727 12.7653L8.20341 13.5736C8.36702 13.6474 8.48573 13.78 8.54767 13.9354H8.25812C3.7048 13.9354 0 17.6402 0 22.1935C0 24.304 0.338583 26.3891 1.00594 28.3917L1.86427 30.9677H0V32H32.0002V30.9677H27.8428C27.7194 30.6777 27.611 30.3809 27.5351 30.0753ZM4.81448 24.4387C4.38506 24.1527 4.12906 23.6738 4.12906 23.1581C4.12906 22.4949 4.55177 21.9086 5.18145 21.6985L5.67745 21.5334V20.6451C5.67745 20.0758 6.14043 19.6128 6.70972 19.6128H10.3226C11.1763 19.6128 11.871 20.3075 11.871 21.1612V21.5685C11.871 22.0794 12.0212 22.5744 12.3046 22.9997L12.8016 23.7455C12.8682 23.8456 12.9033 23.9618 12.9033 24.081C12.9033 24.3117 12.7748 24.5192 12.5694 24.6224L11.871 24.9713V26.8387C11.871 27.6924 11.1763 28.3871 10.3226 28.3871H6.70972V29.4193H8.77425V29.9541C8.77425 30.2983 8.83154 30.6374 8.92857 30.9677H5.26971C5.34455 30.7566 5.41216 30.5424 5.46636 30.3257C5.60674 29.7667 5.67745 29.1907 5.67745 28.6131V25.0136L4.81448 24.4387ZM9.93761 30.7608C9.85038 30.5001 9.80651 30.2281 9.80651 29.9541V29.4193H10.3226C11.7456 29.4193 12.9033 28.2617 12.9033 26.8387V25.6093L13.0308 25.5458C13.5887 25.2665 13.9356 24.705 13.9356 24.081C13.9356 23.7569 13.8406 23.443 13.6605 23.1731L13.183 22.4567C13.6961 22.2188 14.3867 21.7661 14.8791 20.9475C15.2269 21.0838 15.6042 21.1612 16.0001 21.1612C16.396 21.1612 16.7733 21.0838 17.1211 20.9481C17.6135 21.7666 18.3036 22.2188 18.8171 22.4572L18.3397 23.1736C18.1596 23.443 18.0646 23.7569 18.0646 24.081C18.0646 24.705 18.4115 25.2665 18.9699 25.5458L19.0969 25.6093V26.8387C19.0969 28.2617 20.2546 29.4193 21.6776 29.4193H22.1937V29.9541C22.1937 30.2281 22.1498 30.5001 22.0626 30.7608C22.0388 30.8325 22.0001 30.8986 21.9697 30.9677H10.0305C10.0001 30.8981 9.96135 30.832 9.93761 30.7608ZM10.9028 10.0138C11.2486 7.77275 13.1412 5.96319 15.4035 5.71081C15.6058 5.6881 15.8071 5.67726 16.0068 5.67726C17.2796 5.67726 18.4806 6.133 19.4396 6.9903C20.5338 7.96888 21.1614 9.37173 21.1614 10.8386C21.1614 12.4004 20.4626 13.8616 19.245 14.8474C18.5601 15.4012 18.1462 16.1873 18.0786 17.0322H17.068L17.3777 12.387H18.0646C18.9183 12.387 19.613 11.6923 19.613 10.8386C19.613 9.9849 18.9183 9.29018 18.0646 9.29018H17.998C17.1862 9.29018 16.5075 9.92503 16.4533 10.7359L16.412 11.3547H15.5882L15.5469 10.7359C15.4927 9.92503 14.814 9.29018 14.0022 9.29018H13.9356C13.0819 9.29018 12.3872 9.9849 12.3872 10.8386C12.3872 11.6923 13.0819 12.387 13.9356 12.387H14.6225L14.9322 17.0322H13.9211C13.8514 16.1909 13.4298 15.3986 12.7335 14.8288C11.3023 13.6582 10.6179 11.8585 10.9028 10.0138ZM15.9666 17.0322L15.6569 12.387H16.3428L16.0331 17.0322H15.9666ZM17.4463 11.3547L17.4829 10.8045C17.501 10.5341 17.7276 10.3224 17.998 10.3224H18.0646C18.349 10.3224 18.5808 10.5537 18.5808 10.8386C18.5808 11.1235 18.349 11.3547 18.0646 11.3547H17.4463ZM14.5539 11.3547H13.9356C13.6512 11.3547 13.4194 11.1235 13.4194 10.8386C13.4194 10.5537 13.6512 10.3224 13.9356 10.3224H14.0022C14.2726 10.3224 14.4992 10.5341 14.5173 10.8045L14.5539 11.3547ZM18.0646 18.0644C18.0646 19.203 17.1387 20.129 16.0001 20.129C14.8615 20.129 13.9356 19.203 13.9356 18.0644H18.0646ZM23.226 29.9541V29.4193H25.2905V28.3871H21.6776C20.8239 28.3871 20.1292 27.6924 20.1292 26.8387V24.9713L19.4313 24.6224C19.2254 24.5192 19.0969 24.3117 19.0969 24.081C19.0969 23.9618 19.132 23.8456 19.1986 23.746L19.6956 23.0002C19.979 22.5749 20.1292 22.0799 20.1292 21.569V21.1612C20.1292 20.3075 20.8239 19.6128 21.6776 19.6128H25.2905C25.8598 19.6128 26.3227 20.0758 26.3227 20.6451V21.5334L26.8187 21.6985C27.4484 21.9086 27.8711 22.4949 27.8711 23.1581C27.8711 23.6738 27.6151 24.1527 27.1857 24.4381L26.3227 25.0142V28.6137C26.3227 29.1907 26.3935 29.7667 26.5333 30.3257C26.5875 30.5424 26.6551 30.7566 26.73 30.9677H23.0711C23.1687 30.6379 23.226 30.2983 23.226 29.9541ZM30.9679 22.1935C30.9679 24.7943 29.5713 27.1669 27.355 28.448V25.5664L27.7586 25.2975C28.4755 24.8196 28.9034 24.0201 28.9034 23.1581C28.9034 22.1254 28.2897 21.2035 27.355 20.7994V20.6451C27.355 19.5065 26.4291 18.5806 25.2905 18.5806H21.6776C20.2546 18.5806 19.0969 19.7382 19.0969 21.1612V21.4451C18.749 21.2588 18.3232 20.9424 18.0068 20.4185C18.6726 19.8503 19.0969 19.0064 19.0969 18.0644V17.2747C19.0969 16.6518 19.3875 16.0598 19.8938 15.65C20.1514 15.4414 20.3826 15.2097 20.6004 14.9682H23.7421C27.7266 14.9676 30.9679 18.2089 30.9679 22.1935ZM8.62715 12.6321L6.83049 11.8239C6.31849 11.5937 6.07126 11.012 6.25604 10.4711C6.34791 10.2022 6.57294 9.96993 6.87333 9.83522L8.62715 9.04554C9.4447 8.67753 9.83645 7.7325 9.51851 6.8943L8.81967 5.05222C8.62044 4.5268 8.85734 3.94151 9.36986 3.6886C9.62587 3.56318 9.94845 3.55854 10.2566 3.67518L12.0553 4.35751C12.8935 4.67699 13.8391 4.28422 14.2065 3.46615L15.0148 1.67001C15.245 1.15749 15.8267 0.909228 16.3676 1.09504C16.637 1.18742 16.8693 1.41194 17.004 1.71233L17.7931 3.46615C18.1606 4.2837 19.1067 4.67648 19.9444 4.35751L21.787 3.65866C22.3134 3.46047 22.8982 3.69583 23.1501 4.20835C23.2755 4.46383 23.2801 4.78745 23.1635 5.09558L22.4812 6.89378C22.1632 7.73198 22.555 8.67702 23.3725 9.04502L25.1269 9.8347C25.4273 9.96993 25.6523 10.2017 25.7442 10.4706C25.9289 11.0115 25.6817 11.5932 25.1697 11.8234L23.3725 12.6316C22.828 12.8773 22.4791 13.38 22.3965 13.9349H21.3555C21.8948 13.0058 22.1937 11.9452 22.1937 10.8386C22.1937 9.07857 21.4406 7.39546 20.1281 6.22126C18.8166 5.04809 17.054 4.49015 15.2894 4.68474C12.5719 4.98822 10.2984 7.1632 9.8829 9.8569C9.65942 11.3062 9.94432 12.7287 10.6463 13.9354H9.60419C9.52109 13.38 9.17167 12.8773 8.62715 12.6321ZM1.98504 28.065C1.35278 26.1682 1.03226 24.193 1.03226 22.1935C1.03226 18.2089 4.27357 14.9676 8.25812 14.9676H11.3962C11.6068 15.2009 11.8313 15.4244 12.0801 15.6283C12.6029 16.0556 12.9033 16.6569 12.9033 17.2778V18.0644C12.9033 19.0064 13.3276 19.8503 13.9934 20.4185C13.677 20.9424 13.2517 21.2588 12.9033 21.4451V21.1612C12.9033 19.7382 11.7456 18.5806 10.3226 18.5806H6.70972C5.57113 18.5806 4.64519 19.5065 4.64519 20.6451V20.7994C3.71047 21.2041 3.09679 22.1254 3.09679 23.1581C3.09679 24.0201 3.52467 24.8196 4.24157 25.2975L4.64519 25.5664V28.6131C4.64519 29.1055 4.5848 29.5974 4.46506 30.0753C4.38919 30.3809 4.2808 30.6777 4.15745 30.9677H2.95279L1.98504 28.065Z" fill="white"/>
</svg>
