<svg width="42" height="38" viewBox="0 0 42 38" fill="none" xmlns="http://www.w3.org/2000/svg">
<path d="M41.8266 19.1793L38.4402 22.8256C38.3216 22.9531 38.1567 23.0287 37.9817 23.036C37.9725 23.0368 37.9633 23.0371 37.9541 23.037C37.7883 23.0367 37.6286 22.975 37.5067 22.8639L33.5054 19.2176C33.4077 19.1286 33.3395 19.0124 33.3097 18.8844C33.2798 18.7563 33.2897 18.6224 33.338 18.5C33.3864 18.3776 33.4709 18.2725 33.5806 18.1984C33.6903 18.1243 33.82 18.0847 33.9528 18.0847H35.282C35.1305 14.861 33.8679 11.7859 31.7042 9.37088C29.5405 6.95586 26.6063 5.34659 23.3896 4.81081C20.1729 4.27503 16.8677 4.84504 14.024 6.42602C11.1803 8.00699 8.96947 10.5036 7.75939 13.5005C7.69433 13.6611 7.56746 13.7897 7.40667 13.8578C7.24588 13.926 7.0643 13.9283 6.90184 13.8641C6.73938 13.7999 6.60932 13.6745 6.54023 13.5155C6.47115 13.3565 6.46869 13.1769 6.5334 13.0161C7.87825 9.68525 10.3539 6.92193 13.5348 5.20105C16.7156 3.48017 20.4031 2.90923 23.9633 3.58636C27.5236 4.26349 30.7342 6.1464 33.0434 8.91145C35.3525 11.6765 36.616 15.151 36.6167 18.7377C36.6167 18.9108 36.5471 19.0769 36.4234 19.1993C36.2996 19.3218 36.1317 19.3906 35.9567 19.3906H35.6428L37.9155 21.4614L39.8384 19.3906H39.3008C39.2141 19.3906 39.1283 19.3737 39.0482 19.3409C38.9681 19.3081 38.8954 19.26 38.8341 19.1994C38.7728 19.1388 38.7242 19.0668 38.691 18.9876C38.6578 18.9083 38.6408 18.8234 38.6408 18.7377C38.6402 14.7022 37.2246 10.7918 34.6353 7.67358C32.0461 4.55531 28.4436 2.42224 24.4423 1.63816C20.441 0.854075 16.2886 1.46754 12.6934 3.37394C9.09821 5.28034 6.28282 8.36158 4.7274 12.0922C4.67741 12.2117 4.59272 12.3138 4.48405 12.3857C4.37537 12.4576 4.2476 12.496 4.11687 12.4961C4.03068 12.4961 3.94535 12.4792 3.86582 12.4464C3.70397 12.3804 3.57523 12.2536 3.50789 12.0938C3.44055 11.9339 3.44013 11.7542 3.50672 11.594C5.1571 7.63582 8.12779 4.35609 11.9244 2.30062C15.7211 0.245145 20.1147 -0.462112 24.3742 0.296542C28.6337 1.0552 32.5021 3.23401 35.3358 6.4704C38.1694 9.70679 39.7974 13.8056 39.9488 18.0847H41.3406C41.4687 18.0849 41.5939 18.1219 41.7011 18.1913C41.8083 18.2606 41.8927 18.3593 41.9442 18.4753C41.9957 18.5913 42.012 18.7196 41.9912 18.8446C41.9703 18.9696 41.9131 19.0859 41.8266 19.1793ZM38.1345 25.5539C38.0551 25.5212 37.9699 25.5044 37.8839 25.5044C37.753 25.5044 37.625 25.5429 37.5163 25.6149C37.4075 25.687 37.3228 25.7894 37.273 25.9092C35.7173 29.6395 32.9017 32.7203 29.3066 34.6264C25.7114 36.5325 21.5592 37.1458 17.5581 36.3617C13.5569 35.5776 9.95461 33.4447 7.36539 30.3266C4.77617 27.2086 3.3604 23.2985 3.35951 19.2632C3.3595 19.09 3.28998 18.9239 3.16621 18.8015C3.04245 18.679 2.8746 18.6102 2.69956 18.6101H2.16197L4.08485 16.5393L6.35751 18.6101H6.04457C5.86952 18.6102 5.70164 18.679 5.57787 18.8014C5.45409 18.9239 5.38455 19.09 5.38454 19.2632C5.38524 22.8497 6.64872 26.3241 8.95783 29.089C11.2669 31.8539 14.4775 33.7368 18.0375 34.4139C21.5976 35.091 25.285 34.5201 28.4658 32.7993C31.6465 31.0786 34.1221 28.3154 35.467 24.9847C35.5313 24.824 35.5286 24.6446 35.4594 24.4859C35.3902 24.3271 35.2603 24.202 35.098 24.1379C34.9357 24.0738 34.7544 24.0759 34.5937 24.1439C34.4331 24.2118 34.3062 24.34 34.2409 24.5003C33.0308 27.497 30.82 29.9935 27.9764 31.5744C25.1328 33.1552 21.8278 33.7252 18.6112 33.1894C15.3947 32.6536 12.4605 31.0444 10.2969 28.6295C8.13336 26.2146 6.8708 23.1395 6.71932 19.916H8.04758C8.18038 19.916 8.31009 19.8764 8.41976 19.8023C8.52943 19.7282 8.61395 19.6231 8.66227 19.5007C8.71058 19.3784 8.72045 19.2444 8.69058 19.1164C8.66071 18.9884 8.59249 18.8723 8.49484 18.7832L4.49357 15.1365C4.37337 15.026 4.21555 14.9642 4.05144 14.9634C4.0405 14.9634 4.02955 14.9637 4.01859 14.9643C3.93196 14.9679 3.84689 14.9883 3.76824 15.0244C3.68959 15.0605 3.61889 15.1115 3.5602 15.1747L0.173686 18.8215C0.087083 18.9149 0.0298196 19.0312 0.00887897 19.1562C-0.0120616 19.2813 0.00422565 19.4096 0.0557546 19.5257C0.107284 19.6417 0.191827 19.7404 0.299076 19.8097C0.406324 19.879 0.531643 19.916 0.659748 19.916H2.05148C2.20307 24.195 3.83116 28.2937 6.66485 31.5299C9.49853 34.7662 13.3669 36.9449 17.6263 37.7035C21.8857 38.4621 26.2792 37.7548 30.0758 35.6994C33.8724 33.6441 36.8431 30.3645 38.4936 26.4064C38.5266 26.3271 38.5434 26.2421 38.5433 26.1564C38.5431 26.0706 38.5258 25.9857 38.4925 25.9066C38.4591 25.8274 38.4104 25.7555 38.3489 25.695C38.2875 25.6345 38.2146 25.5866 38.1345 25.5539ZM29.6559 14.2793C29.6617 14.2937 29.6666 14.3081 29.672 14.3229C29.695 14.3849 29.7084 14.4501 29.7115 14.5162C29.7119 14.5253 29.7167 14.5327 29.7167 14.5419V26.0102C29.716 26.5283 29.5077 27.025 29.1374 27.3913C28.7671 27.7577 28.2651 27.9638 27.7414 27.9645H14.3013C13.7776 27.9638 13.2756 27.7577 12.9053 27.3913C12.535 27.025 12.3267 26.5283 12.326 26.0102V14.5419C12.326 14.5327 12.3309 14.5253 12.3313 14.5162C12.3343 14.4501 12.3476 14.3849 12.3707 14.3228C12.3774 14.3043 12.3825 14.2863 12.3908 14.2687C12.3952 14.2593 12.3966 14.2492 12.4015 14.2399L15.0101 9.29598C15.156 9.01763 15.3765 8.78437 15.6474 8.62175C15.9184 8.45913 16.2294 8.37343 16.5463 8.37403H25.4962C25.8132 8.37339 26.1242 8.45909 26.3952 8.62171C26.6662 8.78434 26.8867 9.01762 27.0325 9.296L29.6412 14.2399C29.6461 14.2491 29.6476 14.2593 29.6519 14.2686C29.6536 14.272 29.6545 14.2758 29.6559 14.2793ZM14.0749 13.8888H20.3609V13.1349C20.3609 13.0491 20.3779 12.9642 20.4111 12.885C20.4443 12.8058 20.4929 12.7338 20.5542 12.6732C20.6155 12.6126 20.6882 12.5645 20.7683 12.5317C20.8484 12.4988 20.9342 12.482 21.0209 12.482C21.1075 12.482 21.1934 12.4988 21.2734 12.5317C21.3535 12.5645 21.4263 12.6126 21.4875 12.6732C21.5488 12.7338 21.5974 12.8058 21.6306 12.885C21.6638 12.9642 21.6809 13.0491 21.6809 13.1349V13.8888H27.9678L25.8635 9.89982C25.8285 9.8334 25.7758 9.77777 25.711 9.73899C25.6462 9.70021 25.5719 9.67976 25.4962 9.67989H21.6808V10.9907C21.6808 11.1639 21.6113 11.33 21.4875 11.4524C21.3638 11.5749 21.1959 11.6437 21.0208 11.6437C20.8458 11.6437 20.6779 11.5749 20.5542 11.4524C20.4304 11.33 20.3609 11.1639 20.3609 10.9907V9.67989H16.5463C16.4707 9.67968 16.3965 9.7001 16.3319 9.7389C16.2673 9.7777 16.2147 9.83338 16.1799 9.89982L14.0749 13.8888ZM28.3968 15.1947H21.6808V18.1511C21.6808 18.3243 21.6113 18.4904 21.4875 18.6128C21.3638 18.7353 21.1959 18.8041 21.0208 18.8041C20.8458 18.8041 20.6779 18.7353 20.5542 18.6128C20.4304 18.4904 20.3609 18.3243 20.3609 18.1511V15.1947H13.646V26.0102C13.6461 26.1821 13.7151 26.347 13.838 26.4686C13.9609 26.5902 14.1275 26.6585 14.3013 26.6586H27.7414C27.9152 26.6585 28.0818 26.5902 28.2047 26.4686C28.3276 26.347 28.3967 26.1821 28.3968 26.0102V15.1947ZM18.8715 20.8204H16.0724C15.8973 20.8204 15.7294 20.8892 15.6057 21.0116C15.4819 21.1341 15.4124 21.3002 15.4124 21.4733C15.4124 21.6465 15.4819 21.8126 15.6057 21.935C15.7294 22.0575 15.8973 22.1263 16.0724 22.1263H18.8715C19.0465 22.1263 19.2144 22.0575 19.3382 21.935C19.4619 21.8126 19.5315 21.6465 19.5315 21.4733C19.5315 21.3002 19.4619 21.1341 19.3382 21.0116C19.2144 20.8892 19.0465 20.8204 18.8715 20.8204ZM18.8715 23.5823H16.0724C15.8973 23.5823 15.7294 23.6511 15.6057 23.7736C15.4819 23.896 15.4124 24.0621 15.4124 24.2353C15.4124 24.4084 15.4819 24.5745 15.6057 24.697C15.7294 24.8194 15.8973 24.8882 16.0724 24.8882H18.8715C19.0465 24.8882 19.2144 24.8194 19.3382 24.697C19.4619 24.5745 19.5315 24.4084 19.5315 24.2353C19.5315 24.0621 19.4619 23.896 19.3382 23.7736C19.2144 23.6511 19.0465 23.5823 18.8715 23.5823Z" fill="white"/>
</svg>
