<svg width="38" height="38" viewBox="0 0 38 38" fill="none" xmlns="http://www.w3.org/2000/svg">
<path d="M17.6294 4.2036C17.5474 4.7716 17.2591 5.27235 16.8468 5.63209C16.4364 5.98559 15.9021 6.20231 15.3213 6.20231C14.7385 6.20231 14.2063 5.98559 13.796 5.63209C13.3816 5.27235 13.0934 4.76952 13.0134 4.19937C12.9882 4.03527 13.0408 3.87956 13.1396 3.76178L14.8542 1.53373C14.9533 1.38225 15.1257 1.28131 15.3213 1.28131H18.4435V0.557531C18.4435 0.25034 18.6918 0 18.9989 0C19.3081 0 19.5564 0.25034 19.5564 0.557531V1.28131H22.6786C22.8742 1.28131 23.0447 1.38225 23.1457 1.53373L24.877 3.78278C24.9675 3.90064 25.0075 4.05635 24.9865 4.2036C24.9045 4.76952 24.6183 5.27235 24.2039 5.63209C23.7937 5.98559 23.2614 6.20231 22.6786 6.20231C22.0957 6.20231 21.5635 5.98559 21.1531 5.63209C20.7387 5.27235 20.4526 4.76952 20.3706 4.19937C20.3474 4.03527 20.3979 3.87956 20.4967 3.76178L21.5509 2.39422H19.5564V7.00796H21.0606C21.5025 7.00796 21.9021 7.1889 22.1946 7.47925C22.4849 7.76959 22.6638 8.17141 22.6638 8.61323C22.6638 9.05506 22.4849 9.45688 22.1946 9.7473C21.9021 10.0376 21.5025 10.2186 21.0606 10.2186H16.9392C16.4974 10.2186 16.0956 10.0376 15.8052 9.7473C15.5149 9.45688 15.3338 9.05506 15.3338 8.61323C15.3338 8.17141 15.5149 7.76959 15.8052 7.47925C16.0956 7.18898 16.4974 7.00796 16.9392 7.00796H18.4435V2.39422H16.4491L17.5177 3.78278C17.6104 3.90272 17.6483 4.05628 17.6294 4.2036ZM29.6866 25.8165H27.223V28.6547H29.6866V25.8165ZM26.6655 24.7036H30.2442C30.5514 24.7036 30.8017 24.954 30.8017 25.2612V29.2122C30.8017 29.5194 30.5514 29.7676 30.2442 29.7676H26.6655C26.3583 29.7676 26.108 29.5193 26.108 29.2122V25.2611C26.108 24.954 26.3583 24.7036 26.6655 24.7036ZM7.75589 24.7036H11.3347C11.6418 24.7036 11.89 24.954 11.89 25.2612V29.2122C11.89 29.5194 11.6417 29.7676 11.3347 29.7676H7.75589C7.4487 29.7676 7.19836 29.5193 7.19836 29.2122V25.2611C7.19836 24.954 7.4487 24.7036 7.75589 24.7036ZM10.777 25.8165H8.31134V28.6547H10.777V25.8165ZM23.9241 36.8871V29.6203H21.5382V36.8871H23.9241ZM21.5382 28.5052H24.4817C24.7889 28.5052 25.037 28.7556 25.037 29.0628V36.8871H31.8725V24.3165L28.601 22.4273C28.3359 22.2758 28.2434 21.937 28.3969 21.6719C28.5484 21.4068 28.8872 21.3143 29.1543 21.4678C30.8983 22.4735 32.6425 23.4813 34.3866 24.489L36.2653 21.2321L21.5382 12.7284V17.0687L26.9727 20.2055C27.2376 20.359 27.3281 20.6999 27.1746 20.9649C27.021 21.2301 26.6802 21.3205 26.4151 21.167L21.5383 18.352V28.5052H21.5382ZM12.9609 36.8871V29.0628C12.9609 28.7556 13.2112 28.5052 13.5184 28.5052H16.4618V18.3521L6.12753 24.3186V36.8871H12.9609ZM16.4618 29.6203H14.0758V36.8871H16.4618V29.6203ZM32.9854 24.9581V37.4445C32.9854 37.7517 32.7351 37.9999 32.4279 37.9999H20.9807C20.6735 37.9999 20.4254 37.7517 20.4254 37.4445V11.7669C20.4254 11.6723 20.4506 11.5755 20.5011 11.4871C20.6547 11.2221 20.9934 11.1316 21.2585 11.2852L37.3026 20.5485C37.5677 20.7021 37.6582 21.0408 37.5047 21.3058L35.0705 25.5241C34.9168 25.7872 34.578 25.8776 34.3131 25.7261L32.9854 24.9581ZM17.5747 37.4446C17.5747 37.7518 17.3265 38 17.0194 38H5.57208C5.26489 38 5.01455 37.7517 5.01455 37.4446V24.9603L3.68915 25.7261C3.42404 25.8796 3.08315 25.7892 2.92967 25.5241L0.495514 21.3058C0.341882 21.0407 0.43228 20.702 0.697464 20.5484L7.62757 16.5469C7.89267 16.3934 8.23133 16.4838 8.38497 16.7489C8.53845 17.014 8.44805 17.3548 8.18287 17.5084L1.7346 21.2321L3.6133 24.4869L16.4617 17.0688V12.7284L10.3667 16.2483C10.1017 16.4018 9.76291 16.3114 9.60943 16.0442C9.45364 15.7791 9.54612 15.4403 9.81138 15.2868L16.7393 11.2853C17.1139 11.0706 17.5746 11.3463 17.5746 11.767L17.5747 37.4446ZM21.0607 8.12302H16.9393C16.8046 8.12302 16.6827 8.17772 16.5921 8.26604C16.5038 8.35659 16.4491 8.47853 16.4491 8.61323C16.4491 8.74787 16.5038 8.86988 16.5921 8.96043C16.6827 9.04868 16.8046 9.10345 16.9393 9.10345H21.0607C21.1954 9.10345 21.3174 9.04875 21.4057 8.96043C21.4962 8.86988 21.5509 8.74794 21.5509 8.61323C21.5509 8.47853 21.4962 8.35659 21.4057 8.26604C21.3174 8.17779 21.1954 8.12302 21.0607 8.12302ZM23.4782 4.79268C23.6423 4.64958 23.7685 4.46441 23.838 4.254L22.6788 2.74765L21.5195 4.254C21.5889 4.46441 21.7152 4.64958 21.8793 4.79268C22.0916 4.9757 22.3716 5.08718 22.6788 5.08718C22.9859 5.08718 23.2656 4.9757 23.4782 4.79268ZM16.1209 4.79268C16.2851 4.64958 16.4092 4.46441 16.4807 4.254L15.3214 2.74765L14.1623 4.254C14.2316 4.46441 14.3579 4.64958 14.522 4.79268C14.7345 4.9757 15.0143 5.08718 15.3214 5.08718C15.6285 5.08718 15.9063 4.9757 16.1209 4.79268Z" fill="white"/>
</svg>
