<svg width="39" height="38" viewBox="0 0 39 38" fill="none" xmlns="http://www.w3.org/2000/svg">
<g clip-path="url(#clip0_5118_2327)">
<path d="M16.8836 5.93927V2.87589C16.8836 2.56877 17.134 2.31836 17.4411 2.31836H37.9423C38.2495 2.31836 38.4999 2.56877 38.4999 2.87589V13.5536C38.4999 13.8608 38.2495 14.109 37.9423 14.109C37.6351 14.109 37.3868 13.8608 37.3868 13.5536V3.43134H17.9966V6.49688L19.9112 7.45415C20.1847 7.59086 20.2941 7.92336 20.1574 8.19686C20.0206 8.47043 19.6882 8.5819 19.4147 8.44512L13.4394 5.45744L2.29249 11.0309L13.4394 16.6044L23.7258 11.4622C23.7551 11.4433 23.7868 11.4285 23.8183 11.4159L24.5863 11.0308L21.6701 9.5728C21.3966 9.43601 21.2851 9.10359 21.4219 8.83009C21.5586 8.55452 21.8931 8.44504 22.1666 8.58183L26.0737 10.5365C26.3473 10.6732 26.4588 11.0057 26.3221 11.2792C26.2673 11.3907 26.1768 11.477 26.0737 11.5274L24.5757 12.2764V13.6608H24.6704C24.9776 13.6608 25.228 13.9092 25.228 14.2163C25.228 14.5235 24.9776 14.7739 24.6704 14.7739H24.5757V15.2494L25.8529 18.8893C25.9791 19.2491 25.7055 19.6277 25.329 19.6277H22.7095C22.3034 19.6277 22.0383 19.209 22.2003 18.8451L23.4627 15.2494V14.7739H23.368C23.0609 14.7739 22.8105 14.5235 22.8105 14.2163C22.8105 13.9092 23.0609 13.6608 23.368 13.6608H23.4627V12.8319L20.9422 14.0943V21.7338C20.9422 22.7437 20.0291 23.6106 18.5541 24.1934C18.3774 24.2629 18.1922 24.3302 17.9966 24.3933V30.0972H28.8489V27.787L28.3187 27.726C27.9253 27.6819 27.7086 27.2547 27.8917 26.9118L28.5965 25.2854L27.8727 23.6148C27.7212 23.2614 27.9632 22.8848 28.3314 22.8427L30.1261 22.6345L31.2097 21.1764C31.4348 20.8713 31.8892 20.8797 32.1059 21.1848L33.1832 22.6345L34.9905 22.8427C35.3819 22.889 35.6007 23.3161 35.4176 23.657L34.7127 25.2854L35.4365 26.9539C35.5881 27.3073 35.346 27.686 34.9758 27.7281L34.4603 27.787V30.0972H37.3869V16.0741C37.3869 15.7669 37.6352 15.5187 37.9424 15.5187C38.2495 15.5187 38.5 15.7669 38.5 16.0741V30.6526C38.5 30.9598 38.2495 31.2102 37.9424 31.2102H34.4603V35.1236C34.4603 35.5443 34.0163 35.8073 33.6502 35.6201L31.6535 34.7701L29.6211 35.6348C29.2571 35.7905 28.8468 35.5212 28.8489 35.1235V31.2101H17.4411C17.1339 31.2101 16.8836 30.9597 16.8836 30.6526V24.6877C15.8569 24.9108 14.6829 25.037 13.4394 25.037C11.4511 25.037 9.64379 24.7151 8.32462 24.1934C6.85183 23.6105 5.93871 22.7437 5.93871 21.7338V19.0575C5.93871 18.7503 6.18905 18.5 6.49624 18.5C6.80344 18.5 7.0517 18.7504 7.0517 19.0575V21.7338C7.0517 22.2387 7.69554 22.7479 8.7349 23.1582C9.92997 23.6315 11.5921 23.924 13.4394 23.924C15.2867 23.924 16.9509 23.6315 18.146 23.1582C19.1853 22.7479 19.8292 22.2387 19.8292 21.7338V14.6497L13.6877 17.7193C13.5257 17.8014 13.3405 17.7951 13.1891 17.7193L7.05177 14.6497V16.5348C7.05177 16.8441 6.80351 17.0923 6.49632 17.0923C6.18913 17.0923 5.93879 16.8441 5.93879 16.5348V14.0942L0.805076 11.5273C0.392717 11.3212 0.403256 10.7341 0.807154 10.5343L13.1933 4.3423C13.3553 4.26029 13.5404 4.26653 13.6919 4.34438L16.8836 5.93927ZM28.0788 11.5884C27.7716 11.5884 27.5213 11.3381 27.5213 11.0309C27.5213 10.7237 27.7716 10.4754 28.0788 10.4754H35.6911C35.9983 10.4754 36.2486 10.7237 36.2486 11.0309C36.2486 11.3381 35.9983 11.5884 35.6911 11.5884H28.0788ZM28.0788 19.1523C27.7716 19.1523 27.5213 18.904 27.5213 18.5968C27.5213 18.2897 27.7716 18.0393 28.0788 18.0393H35.6911C35.9983 18.0393 36.2486 18.2897 36.2486 18.5968C36.2486 18.904 35.9983 19.1523 35.6911 19.1523H28.0788ZM28.0788 16.6317C27.7716 16.6317 27.5213 16.3813 27.5213 16.0742C27.5213 15.767 27.7716 15.5188 28.0788 15.5188H35.6911C35.9983 15.5188 36.2486 15.767 36.2486 16.0742C36.2486 16.3814 35.9983 16.6317 35.6911 16.6317H28.0788ZM28.0788 14.109C27.7716 14.109 27.5213 13.8608 27.5213 13.5536C27.5213 13.2464 27.7716 12.9961 28.0788 12.9961H35.6911C35.9983 12.9961 36.2486 13.2464 36.2486 13.5536C36.2486 13.8608 35.9983 14.109 35.6911 14.109H28.0788ZM29.9619 27.9154V30.6526V34.2841L31.4369 33.6571C31.5715 33.6002 31.7272 33.5939 31.8724 33.6571L33.3473 34.2841V30.6526V27.9154L33.1832 27.9343L32.0996 29.3945C31.8745 29.6995 31.4179 29.689 31.2012 29.386L30.1261 27.9342L29.9619 27.9154ZM24.5462 18.5147L24.0203 17.0146L23.4922 18.5147H24.5462ZM32.4362 23.4907L31.6535 22.4365L30.8919 23.4633C30.8056 23.5979 30.6605 23.6926 30.49 23.7116L29.1876 23.863L29.7094 25.0644C29.7662 25.2012 29.7726 25.359 29.7094 25.5041L29.1876 26.7076L30.4731 26.857C30.633 26.8739 30.774 26.9475 30.8729 27.08L31.6535 28.132L32.4173 27.1053C32.5035 26.9727 32.6487 26.878 32.8192 26.8592L34.1215 26.7076L33.5997 25.5041C33.5408 25.3695 33.5366 25.2117 33.5997 25.0644L34.1215 23.863L32.836 23.7137C32.676 23.6948 32.533 23.6211 32.4362 23.4907Z" fill="white"/>
</g>
<defs>
<clipPath id="clip0_5118_2327">
<rect width="38" height="38" fill="white" transform="translate(0.5)"/>
</clipPath>
</defs>
</svg>
