<svg width="60" height="60" viewBox="0 0 60 60" fill="none" xmlns="http://www.w3.org/2000/svg">
<path d="M30.0006 58.2857C29.1242 58.2919 28.2595 58.0844 27.4814 57.6812C26.7032 57.2779 26.0351 56.691 25.5349 55.9714C25.0308 55.2504 24.289 54.7299 23.4396 54.5011C22.5901 54.2723 21.6873 54.3498 20.8892 54.7199C20.0948 55.0821 19.2252 55.2489 18.3532 55.2062C17.4812 55.1636 16.632 54.9127 15.8768 54.4747C15.1215 54.0366 14.4822 53.4241 14.0121 52.6884C13.542 51.9526 13.255 51.115 13.1749 50.2456C13.101 49.3611 12.716 48.5313 12.0884 47.9036C11.4607 47.276 10.6309 46.891 9.74635 46.8171C8.87695 46.737 8.03936 46.45 7.30361 45.9799C6.56787 45.5098 5.95537 44.8705 5.51733 44.1152C5.07929 43.36 4.82844 42.5108 4.78578 41.6388C4.74311 40.7668 4.90985 39.8972 5.27207 39.1028C5.6425 38.307 5.72097 37.4061 5.49371 36.5583C5.26646 35.7104 4.74799 34.9695 4.02921 34.4656C3.31292 33.9608 2.72843 33.2913 2.32498 32.5134C1.92153 31.7354 1.71094 30.872 1.71094 29.9956C1.71094 29.1193 1.92153 28.2559 2.32498 27.4779C2.72843 26.7 3.31292 26.0305 4.02921 25.5256C4.75014 25.0215 5.27063 24.2797 5.49944 23.4303C5.72825 22.5808 5.6508 21.678 5.28064 20.8799C4.91842 20.0855 4.75168 19.216 4.79435 18.3439C4.83702 17.4719 5.08786 16.6227 5.5259 15.8675C5.96394 15.1123 6.57644 14.4729 7.31218 14.0028C8.04793 13.5328 8.88552 13.2457 9.75493 13.1656C10.6395 13.0917 11.4693 12.7068 12.0969 12.0791C12.7246 11.4514 13.1096 10.6217 13.1835 9.73708C13.2636 8.86768 13.5506 8.03008 14.0207 7.29434C14.4907 6.55859 15.1301 5.94609 15.8853 5.50805C16.6406 5.07001 17.4897 4.81917 18.3618 4.7765C19.2338 4.73383 20.1034 4.90058 20.8978 5.26279C21.6936 5.63322 22.5944 5.71169 23.4423 5.48444C24.2902 5.25718 25.031 4.73872 25.5349 4.01993C26.0397 3.30364 26.7093 2.71915 27.4872 2.3157C28.2651 1.91225 29.1286 1.70166 30.0049 1.70166C30.8812 1.70166 31.7447 1.91225 32.5226 2.3157C33.3005 2.71915 33.9701 3.30364 34.4749 4.01993C34.9791 4.74086 35.7209 5.26135 36.5703 5.49016C37.4197 5.71898 38.3226 5.64152 39.1206 5.27136C39.915 4.90915 40.7846 4.7424 41.6567 4.78507C42.5287 4.82774 43.3778 5.07858 44.1331 5.51662C44.8883 5.95466 45.5277 6.56716 45.9978 7.30291C46.4678 8.03865 46.7549 8.87625 46.8349 9.74565C46.9089 10.6302 47.2938 11.46 47.9215 12.0877C48.5492 12.7153 49.3789 13.1003 50.2635 13.1742C51.1329 13.2543 51.9705 13.5413 52.7062 14.0114C53.442 14.4814 54.0545 15.1208 54.4925 15.8761C54.9306 16.6313 55.1814 17.4805 55.2241 18.3525C55.2667 19.2245 55.1 20.0941 54.7378 20.8885C54.3674 21.6843 54.2889 22.5852 54.5161 23.433C54.7434 24.2809 55.2619 25.0218 55.9806 25.5256C56.6969 26.0305 57.2814 26.7 57.6849 27.4779C58.0883 28.2559 58.2989 29.1193 58.2989 29.9956C58.2989 30.872 58.0883 31.7354 57.6849 32.5134C57.2814 33.2913 56.6969 33.9608 55.9806 34.4656C55.2653 34.9704 54.75 35.7103 54.5244 36.5562C54.2988 37.4021 54.3774 38.3003 54.7463 39.0942C55.1086 39.8886 55.2753 40.7582 55.2326 41.6302C55.19 42.5023 54.9391 43.3514 54.5011 44.1067C54.0631 44.8619 53.4506 45.5013 52.7148 45.9713C51.9791 46.4414 51.1415 46.7284 50.2721 46.8085C49.3875 46.8824 48.5577 47.2674 47.9301 47.8951C47.3024 48.5227 46.9174 49.3525 46.8435 50.2371C46.7634 51.1065 46.4764 51.9441 46.0063 52.6798C45.5363 53.4156 44.8969 54.0281 44.1416 54.4661C43.3864 54.9041 42.5373 55.155 41.6652 55.1977C40.7932 55.2403 39.9236 55.0736 39.1292 54.7114C38.3334 54.3409 37.4326 54.2625 36.5847 54.4897C35.7368 54.717 34.996 55.2354 34.4921 55.9542C33.9908 56.6801 33.3193 57.2722 32.5364 57.6786C31.7534 58.0851 30.8828 58.2935 30.0006 58.2857ZM22.4664 52.6542C23.3417 52.6537 24.2044 52.8637 24.9816 53.2665C25.7588 53.6693 26.4277 54.253 26.9321 54.9685C27.2777 55.4602 27.7365 55.8614 28.2699 56.1384C28.8032 56.4154 29.3954 56.56 29.9964 56.56C30.5973 56.56 31.1895 56.4154 31.7228 56.1384C32.2562 55.8614 32.715 55.4602 33.0606 54.9685C33.7975 53.9201 34.8786 53.1633 36.1158 52.8297C37.3531 52.4962 38.6681 52.6069 39.8321 53.1428C40.3774 53.395 40.9753 53.5127 41.5756 53.4859C42.1758 53.4591 42.7609 53.2887 43.2816 52.9888C43.8022 52.689 44.2434 52.2686 44.5679 51.7629C44.8924 51.2572 45.0907 50.6811 45.1464 50.0828C45.2566 48.8058 45.814 47.6088 46.7203 46.7025C47.6266 45.7962 48.8237 45.2388 50.1006 45.1285C50.694 45.0689 51.2646 44.8688 51.7653 44.5448C52.2659 44.2208 52.6822 43.7822 52.9796 43.2653C53.277 42.7484 53.447 42.1681 53.4755 41.5724C53.504 40.9768 53.3902 40.3829 53.1435 39.8399C52.6034 38.6791 52.4877 37.3655 52.8166 36.1281C53.1455 34.8907 53.8982 33.8079 54.9435 33.0685C55.4334 32.7226 55.8331 32.2642 56.109 31.7317C56.3849 31.1992 56.5289 30.6082 56.5289 30.0085C56.5289 29.4088 56.3849 28.8178 56.109 28.2853C55.8331 27.7528 55.4334 27.2944 54.9435 26.9485C53.8975 26.2076 53.1446 25.1233 52.8157 23.8845C52.4868 22.6456 52.6028 21.3306 53.1435 20.1685C53.3957 19.6232 53.5134 19.0253 53.4866 18.425C53.4598 17.8248 53.2894 17.2397 52.9895 16.719C52.6897 16.1983 52.2693 15.7572 51.7636 15.4327C51.2579 15.1082 50.6818 14.9098 50.0835 14.8542C48.8079 14.7442 47.6119 14.1881 46.7058 13.2835C45.7997 12.3789 45.2414 11.1839 45.1292 9.90851C45.0727 9.31355 44.8747 8.74074 44.5516 8.23794C44.2286 7.73513 43.7899 7.31693 43.2722 7.01825C42.7546 6.71957 42.173 6.5491 41.576 6.52106C40.979 6.49302 40.384 6.60823 39.8406 6.85708C38.6782 7.39295 37.3651 7.50549 36.1284 7.1752C34.8918 6.84491 33.8096 6.0926 33.0692 5.04851C32.7236 4.55686 32.2647 4.15559 31.7314 3.87859C31.1981 3.60159 30.6059 3.45698 30.0049 3.45698C29.4039 3.45698 28.8118 3.60159 28.2785 3.87859C27.7451 4.15559 27.2863 4.55686 26.9406 5.04851C26.2013 6.09392 25.1191 6.84728 23.8821 7.17769C22.645 7.50809 21.3313 7.39465 20.1692 6.85708C19.6239 6.60483 19.026 6.48716 18.4257 6.51395C17.8255 6.54074 17.2404 6.7112 16.7197 7.01102C16.199 7.31084 15.7579 7.73126 15.4334 8.23694C15.1089 8.74263 14.9105 9.31881 14.8549 9.91708C14.7449 11.1927 14.1888 12.3887 13.2842 13.2948C12.3797 14.2009 11.1846 14.7592 9.90921 14.8714C9.31396 14.9292 8.74115 15.1284 8.23847 15.4524C7.73579 15.7764 7.31779 16.2158 7.01927 16.7341C6.72074 17.2523 6.55034 17.8343 6.52226 18.4317C6.49417 19.0291 6.6092 19.6246 6.85778 20.1685C7.39307 21.3296 7.50528 22.6414 7.17496 23.8766C6.84465 25.1117 6.09262 26.1924 5.04921 26.9314C4.55756 27.277 4.1563 27.7358 3.87929 28.2692C3.60229 28.8025 3.45769 29.3947 3.45769 29.9956C3.45769 30.5966 3.60229 31.1888 3.87929 31.7221C4.1563 32.2555 4.55756 32.7143 5.04921 33.0599C6.09463 33.7992 6.84799 34.8814 7.17839 36.1185C7.50879 37.3555 7.39535 38.6693 6.85778 39.8314C6.60554 40.3767 6.48787 40.9746 6.51465 41.5749C6.54144 42.1751 6.71191 42.7602 7.01173 43.2808C7.31155 43.8015 7.73196 44.2427 8.23765 44.5672C8.74333 44.8917 9.31952 45.09 9.91778 45.1456C11.1934 45.2556 12.3894 45.8118 13.2955 46.7164C14.2016 47.6209 14.7599 48.8159 14.8721 50.0914C14.9299 50.6866 15.1291 51.2594 15.4531 51.7621C15.7771 52.2648 16.2166 52.6828 16.7348 52.9813C17.253 53.2798 17.835 53.4502 18.4324 53.4783C19.0298 53.5064 19.6253 53.3914 20.1692 53.1428C20.8901 52.8142 21.6742 52.6474 22.4664 52.6542Z" fill="white"/>
<path d="M30.0009 53.4085C29.2548 53.4117 28.5192 53.233 27.8576 52.888C27.196 52.543 26.6284 52.0421 26.2038 51.4285C25.8106 50.8656 25.2322 50.4586 24.5696 50.2784C23.907 50.0983 23.2022 50.1565 22.5781 50.4428C21.9024 50.7586 21.1605 50.9067 20.4154 50.8747C19.6702 50.8426 18.9438 50.6313 18.2978 50.2586C17.6517 49.886 17.1051 49.363 16.7042 48.734C16.3034 48.105 16.0602 47.3887 15.9952 46.6457C15.9337 45.9617 15.634 45.321 15.1484 44.8354C14.6628 44.3497 14.0221 44.05 13.3381 43.9885C12.5962 43.9231 11.8811 43.6799 11.2531 43.2795C10.6251 42.8792 10.1028 42.3335 9.73029 41.6886C9.35782 41.0437 9.14614 40.3186 9.11319 39.5746C9.08023 38.8306 9.22695 38.0896 9.54095 37.4143C9.82278 36.7937 9.88028 36.0946 9.7036 35.4363C9.52693 34.7781 9.12706 34.2017 8.57237 33.8057C7.96393 33.3759 7.46754 32.8063 7.12494 32.1448C6.78233 31.4833 6.60352 30.7492 6.60352 30.0043C6.60352 29.2593 6.78233 28.5252 7.12494 27.8637C7.46754 27.2022 7.96393 26.6326 8.57237 26.2028C9.13599 25.8081 9.54331 25.2283 9.72343 24.5642C9.90354 23.9001 9.84503 23.1939 9.55809 22.5685C9.24409 21.8932 9.09737 21.1522 9.13033 20.4082C9.16329 19.6642 9.37496 18.9391 9.74744 18.2942C10.1199 17.6493 10.6422 17.1036 11.2702 16.7033C11.8982 16.3029 12.6134 16.0597 13.3552 15.9943C14.0392 15.9328 14.6799 15.633 15.1656 15.1474C15.6512 14.6618 15.9509 14.0211 16.0124 13.3371C16.0779 12.5953 16.321 11.8801 16.7214 11.2521C17.1217 10.6241 17.6674 10.1018 18.3123 9.72931C18.9572 9.35684 19.6823 9.14517 20.4263 9.11221C21.1704 9.07925 21.9114 9.22597 22.5867 9.53997C23.2072 9.8218 23.9064 9.8793 24.5646 9.70262C25.2228 9.52595 25.7992 9.12608 26.1952 8.5714C26.6206 7.95663 27.1896 7.45496 27.8528 7.10992C28.516 6.76488 29.2534 6.58689 30.0009 6.59139C30.7473 6.58681 31.4835 6.76483 32.1454 7.10994C32.8072 7.45504 33.3746 7.95677 33.7981 8.5714C34.1913 9.13433 34.7696 9.54137 35.4323 9.72151C36.0949 9.90165 36.7997 9.84347 37.4238 9.55711C38.0995 9.24133 38.8414 9.09319 39.5865 9.12526C40.3316 9.15732 41.0581 9.36865 41.7041 9.74131C42.3502 10.114 42.8968 10.637 43.2976 11.2659C43.6985 11.8949 43.9417 12.6113 44.0067 13.3543C44.0682 14.0383 44.3679 14.679 44.8535 15.1646C45.3391 15.6502 45.9798 15.9499 46.6638 16.0114C47.4057 16.0769 48.1208 16.3201 48.7488 16.7204C49.3768 17.1207 49.8991 17.6664 50.2716 18.3113C50.6441 18.9562 50.8557 19.6814 50.8887 20.4254C50.9217 21.1694 50.7749 21.9104 50.4609 22.5857C50.1791 23.2062 50.1216 23.9054 50.2983 24.5636C50.475 25.2218 50.8748 25.7983 51.4295 26.1943C52.0379 26.6231 52.5344 27.1919 52.8771 27.8527C53.2197 28.5135 53.3986 29.247 53.3986 29.9914C53.3986 30.7358 53.2197 31.4693 52.8771 32.1301C52.5344 32.7909 52.0379 33.3597 51.4295 33.7885C50.8638 34.1835 50.4544 34.7643 50.2727 35.4299C50.0911 36.0955 50.1486 36.8038 50.4352 37.4314C50.7492 38.1067 50.896 38.8477 50.863 39.5917C50.83 40.3357 50.6184 41.0608 50.2459 41.7057C49.8734 42.3506 49.3511 42.8963 48.7231 43.2967C48.0951 43.697 47.3799 43.9402 46.6381 44.0057C45.9541 44.0672 45.3134 44.3669 44.8278 44.8525C44.3421 45.3381 44.0424 45.9788 43.9809 46.6628C43.9155 47.4047 43.6723 48.1198 43.2719 48.7478C42.8716 49.3758 42.3259 49.8981 41.681 50.2706C41.0361 50.6431 40.311 50.8548 39.567 50.8877C38.823 50.9207 38.082 50.774 37.4067 50.46C36.7871 50.1804 36.0899 50.1241 35.4335 50.3007C34.7772 50.4773 34.2023 50.8758 33.8067 51.4285C33.3813 52.0433 32.8123 52.545 32.1491 52.89C31.4859 53.2351 30.7485 53.413 30.0009 53.4085ZM23.8038 48.48C24.5479 48.4778 25.2815 48.6551 25.9425 48.9968C26.6035 49.3385 27.1724 49.8345 27.6009 50.4428C27.8704 50.8283 28.2288 51.1431 28.6459 51.3604C29.063 51.5778 29.5264 51.6913 29.9967 51.6913C30.467 51.6913 30.9303 51.5778 31.3474 51.3604C31.7645 51.1431 32.123 50.8283 32.3924 50.4428C33.0185 49.5527 33.9373 48.9107 34.9884 48.6287C36.0395 48.3468 37.1562 48.4428 38.1438 48.9C38.5707 49.0987 39.0392 49.1916 39.5097 49.1709C39.9801 49.1502 40.4387 49.0165 40.8465 48.7811C41.2543 48.5456 41.5994 48.2154 41.8526 47.8183C42.1058 47.4213 42.2596 46.9691 42.3009 46.5C42.3972 45.4162 42.8716 44.4008 43.6409 43.6314C44.4103 42.862 45.4257 42.3877 46.5095 42.2914C46.9775 42.2495 47.4285 42.0957 47.8246 41.8431C48.2207 41.5904 48.5502 41.2462 48.7855 40.8396C49.0208 40.4329 49.1548 39.9756 49.1764 39.5063C49.198 39.037 49.1065 38.5694 48.9095 38.1428C48.4515 37.1562 48.3541 36.0401 48.6345 34.9891C48.9149 33.9381 49.5552 33.0188 50.4438 32.3914L50.9495 33.0857L50.4524 32.3828C50.8361 32.1131 51.1494 31.7551 51.3656 31.3388C51.5818 30.9226 51.6947 30.4604 51.6947 29.9914C51.6947 29.5224 51.5818 29.0602 51.3656 28.644C51.1494 28.2277 50.8361 27.8696 50.4524 27.6C49.5623 26.9738 48.9203 26.0551 48.6383 25.0039C48.3563 23.9528 48.4523 22.8361 48.9095 21.8485C49.1082 21.4216 49.2012 20.9531 49.1805 20.4826C49.1598 20.0122 49.0261 19.5536 48.7906 19.1458C48.5552 18.738 48.2249 18.3929 47.8279 18.1397C47.4308 17.8866 46.9786 17.7328 46.5095 17.6914C45.4257 17.5951 44.4103 17.1208 43.6409 16.3514C42.8716 15.582 42.3972 14.5666 42.3009 13.4828C42.2609 13.014 42.1083 12.5618 41.8561 12.1646C41.6039 11.7674 41.2596 11.437 40.8523 11.2013C40.445 10.9657 39.9869 10.8319 39.5169 10.8113C39.0468 10.7907 38.5787 10.8838 38.1524 11.0828C37.1657 11.5409 36.0497 11.6382 34.9987 11.3578C33.9476 11.0774 33.0283 10.4372 32.4009 9.54854C32.1315 9.16244 31.7723 8.84759 31.3542 8.63109C30.9362 8.41458 30.4717 8.30291 30.0009 8.30568C29.5313 8.30284 29.0681 8.41454 28.6514 8.63111C28.2347 8.84768 27.8771 9.16258 27.6095 9.54854C26.9834 10.4386 26.0646 11.0806 25.0135 11.3626C23.9624 11.6446 22.8457 11.5486 21.8581 11.0914C21.4312 10.8927 20.9627 10.7997 20.4922 10.8204C20.0217 10.8411 19.5632 10.9748 19.1554 11.2103C18.7476 11.4457 18.4025 11.776 18.1493 12.173C17.8961 12.5701 17.7423 13.0223 17.7009 13.4914C17.6047 14.5752 17.1303 15.5906 16.361 16.36C15.5916 17.1293 14.5762 17.6037 13.4924 17.7C13.0236 17.74 12.5714 17.8926 12.1742 18.1448C11.777 18.397 11.4465 18.7413 11.2109 19.1486C10.9753 19.5559 10.8415 20.014 10.8209 20.4841C10.8002 20.9541 10.8934 21.4222 11.0924 21.8485C11.5504 22.8352 11.6477 23.9512 11.3674 25.0023C11.087 26.0533 10.4467 26.9726 9.55809 27.6C9.1726 27.8694 8.85782 28.2279 8.64048 28.6449C8.42313 29.062 8.30964 29.5254 8.30964 29.9957C8.30964 30.466 8.42313 30.9294 8.64048 31.3464C8.85782 31.7635 9.1726 32.122 9.55809 32.3914C10.4482 33.0175 11.0902 33.9363 11.3722 34.9874C11.6541 36.0385 11.5581 37.1553 11.1009 38.1428C10.9022 38.5697 10.8093 39.0383 10.83 39.5087C10.8507 39.9792 10.9844 40.4377 11.2198 40.8455C11.4553 41.2534 11.7855 41.5985 12.1826 41.8516C12.5796 42.1048 13.0319 42.2586 13.5009 42.3C14.5847 42.3963 15.6002 42.8706 16.3695 43.64C17.1389 44.4093 17.6132 45.4247 17.7095 46.5085C17.7495 46.9773 17.9021 47.4296 18.1543 47.8268C18.4065 48.224 18.7509 48.5544 19.1582 48.79C19.5654 49.0256 20.0235 49.1594 20.4936 49.1801C20.9637 49.2007 21.4317 49.1076 21.8581 48.9085C22.4681 48.6269 23.1319 48.4807 23.8038 48.48Z" fill="white"/>
<path d="M22.2869 41.5974H16.0212C15.7939 41.5974 15.5759 41.5071 15.4151 41.3463C15.2544 41.1856 15.1641 40.9676 15.1641 40.7403V26.8288C15.1641 26.6015 15.2544 26.3835 15.4151 26.2227C15.5759 26.062 15.7939 25.9717 16.0212 25.9717H22.2869C22.8348 25.9717 23.3602 26.1893 23.7476 26.5767C24.135 26.9641 24.3526 27.4895 24.3526 28.0374V39.5317C24.3526 40.0795 24.135 40.605 23.7476 40.9924C23.3602 41.3798 22.8348 41.5974 22.2869 41.5974ZM16.8783 39.8831H22.2869C22.3794 39.8809 22.4676 39.8432 22.533 39.7778C22.5984 39.7123 22.6362 39.6242 22.6383 39.5317V28.0374C22.6362 27.9449 22.5984 27.8567 22.533 27.7913C22.4676 27.7259 22.3794 27.6881 22.2869 27.686H16.8783V39.8831Z" fill="white"/>
<path d="M26.152 41.323C25.3719 41.3292 24.613 41.0692 24.0006 40.5858C23.3122 40.0337 22.8464 39.2514 22.6892 38.383C22.6539 38.1994 22.6367 38.0128 22.6377 37.8258V27.7801C22.6382 27.6053 22.692 27.4349 22.792 27.2916L25.7492 23.0058C27.4755 20.4474 28.224 17.3533 27.8577 14.2887C27.8357 14.1194 27.8647 13.9474 27.9411 13.7946C28.0174 13.6419 28.1376 13.5155 28.2863 13.4316C28.8448 13.1404 29.465 12.9875 30.0949 12.9858C31.252 12.9858 32.8549 13.5087 33.9349 16.0116C34.3538 17.1038 34.5378 18.272 34.4749 19.4401C34.4222 20.0767 34.2808 20.7027 34.0549 21.3001C34.0549 21.4373 33.9606 21.583 33.9177 21.7287C33.7895 22.1088 33.692 22.4986 33.6263 22.8944H42.8577C43.6333 22.9033 44.3746 23.2147 44.9238 23.7623C45.473 24.3099 45.7866 25.0504 45.7977 25.8258C45.7988 26.4305 45.6133 27.0208 45.2666 27.5162C44.92 28.0117 44.429 28.3882 43.8606 28.5944C44.1748 29.1569 44.2978 29.8061 44.2113 30.4445C44.1247 31.0829 43.8332 31.6759 43.3806 32.1344C43.1891 32.3312 42.9696 32.4988 42.7292 32.6316C43.0308 33.1087 43.1912 33.6614 43.192 34.2258C43.1931 34.6123 43.1179 34.9952 42.9708 35.3526C42.8237 35.71 42.6076 36.0349 42.3349 36.3087C41.9754 36.6715 41.5257 36.9319 41.032 37.063C41.2202 37.4502 41.317 37.8754 41.3149 38.3058C41.3219 38.6944 41.2495 39.0804 41.1022 39.44C40.9548 39.7996 40.7355 40.1254 40.4577 40.3973C40.1877 40.6775 39.8623 40.8984 39.5023 41.046C39.1422 41.1936 38.7553 41.2646 38.3663 41.2544L26.152 41.323ZM24.3092 28.0458V37.8258C24.3003 37.9113 24.3003 37.9975 24.3092 38.083C24.3936 38.5377 24.6366 38.9477 24.9949 39.2401C25.3137 39.4922 25.7116 39.6228 26.1177 39.6087L38.3235 39.5401C38.4811 39.5487 38.6389 39.5241 38.7865 39.468C38.9341 39.4119 39.0684 39.3255 39.1806 39.2144C39.3081 39.0991 39.4087 38.9572 39.4754 38.7987C39.542 38.6402 39.5731 38.4691 39.5663 38.2973C39.5643 38.0375 39.4804 37.785 39.3265 37.5756C39.1726 37.3663 38.9565 37.2109 38.7092 37.1316C38.4818 37.0997 38.2765 36.9789 38.1382 36.7957C38 36.6124 37.9402 36.3817 37.972 36.1544C38.0039 35.9271 38.1247 35.7217 38.3079 35.5835C38.4912 35.4452 38.7218 35.3854 38.9492 35.4173H40.2435C40.4051 35.4173 40.5652 35.3853 40.7145 35.3232C40.8638 35.261 40.9993 35.17 41.1132 35.0552C41.2271 34.9405 41.3173 34.8044 41.3783 34.6547C41.4394 34.505 41.4703 34.3447 41.4692 34.183C41.4692 33.8579 41.34 33.5461 41.1102 33.3163C40.8803 33.0864 40.5685 32.9573 40.2435 32.9573C40.0161 32.9573 39.7981 32.867 39.6374 32.7062C39.4766 32.5455 39.3863 32.3275 39.3863 32.1001C39.3863 31.8728 39.4766 31.6548 39.6374 31.494C39.7981 31.3333 40.0161 31.243 40.2435 31.243H41.2892C41.4492 31.2455 41.608 31.2148 41.7555 31.1529C41.903 31.0909 42.0361 30.999 42.1463 30.883C42.2615 30.7717 42.3534 30.6386 42.4167 30.4914C42.4799 30.3443 42.5133 30.186 42.5149 30.0258C42.5149 29.8571 42.4813 29.69 42.4159 29.5344C42.3506 29.3788 42.2548 29.2378 42.1343 29.1196C42.0138 29.0015 41.8709 28.9086 41.714 28.8464C41.5571 28.7841 41.3893 28.7538 41.2206 28.7573C40.9933 28.7573 40.7753 28.667 40.6145 28.5062C40.4538 28.3455 40.3635 28.1275 40.3635 27.9001C40.3605 27.6959 40.4305 27.4974 40.561 27.3402C40.6914 27.1831 40.8736 27.0777 41.0749 27.043H41.2806H42.8577C43.0194 27.043 43.1795 27.011 43.3288 26.9489C43.4781 26.8867 43.6136 26.7957 43.7275 26.681C43.8414 26.5662 43.9315 26.4301 43.9926 26.2804C44.0537 26.1307 44.0846 25.9704 44.0835 25.8087C44.0705 25.4894 43.9367 25.1869 43.7091 24.9625C43.4816 24.7381 43.1772 24.6086 42.8577 24.6001H32.692C32.4788 24.6012 32.2728 24.5227 32.1143 24.3801C31.9558 24.2375 31.8562 24.0409 31.8349 23.8287C31.7854 22.9331 31.9225 22.037 32.2377 21.1973L32.3835 20.7516C32.5457 20.3177 32.655 19.8659 32.7092 19.4058C32.7681 18.4762 32.6308 17.5447 32.3063 16.6716C31.4492 14.7001 30.3949 14.7001 30.0435 14.7001C29.8848 14.6984 29.7266 14.7157 29.572 14.7516C29.8192 18.0225 28.9554 21.2811 27.1206 24.0001L24.3092 28.0458Z" fill="white"/>
</svg>
