<svg width="27" height="42" viewBox="0 0 27 42" fill="none" xmlns="http://www.w3.org/2000/svg">
<path d="M3.28004 10.1611C3.28004 10.1611 2.48438 10.1567 1.67151 10.5762C0.858638 10.9957 -2.48062e-07 11.9709 0 13.5515V38.6145C0 40.1951 0.858638 41.1704 1.67151 41.5899C2.48438 42.0094 3.28004 41.9999 3.28004 41.9999H22.97C22.97 41.9999 23.7608 42.0094 24.5736 41.5899C25.3865 41.1704 26.25 40.1951 26.25 38.6145V13.5515C26.25 11.9709 25.3865 10.9957 24.5736 10.5762C23.7608 10.1567 22.97 10.1611 22.97 10.1611H20.7171V11.5163H22.97C22.97 11.5163 23.4876 11.5284 23.9874 11.7863C24.4872 12.0442 24.937 12.4225 24.937 13.5515V38.6145C24.937 39.7435 24.4872 40.1218 23.9874 40.3797C23.4876 40.6376 22.97 40.6447 22.97 40.6447H3.28004C3.28004 40.6447 2.76238 40.6376 2.2626 40.3797C1.76281 40.1218 1.31298 39.7435 1.31298 38.6145V13.5515C1.31298 12.4225 1.76281 12.0442 2.2626 11.7863C2.76238 11.5284 3.28004 11.5163 3.28004 11.5163H5.53295V10.1611H3.28004Z" fill="#22BFCA"/>
<path d="M13.1267 0C8.42222 0 4.59473 3.95544 4.59473 8.81104C4.59473 13.6666 8.42222 17.6171 13.1267 17.6171C17.8312 17.6171 21.6587 13.6666 21.6587 8.81104C21.6587 3.95544 17.8312 5.12061e-07 13.1267 0ZM13.1267 1.35516C17.1218 1.35516 20.3457 4.68765 20.3457 8.81104C20.3457 12.9344 17.1218 16.2619 13.1267 16.2619C9.13164 16.2619 5.90771 12.9344 5.90771 8.81104C5.90771 4.68765 9.13164 1.35516 13.1267 1.35516Z" fill="#22BFCA"/>
<path d="M11.7058 0.25C9.48265 3.02105 8.29247 5.87335 8.27557 8.77101C8.25868 11.6687 9.41596 14.5526 11.7058 17.372L12.7136 16.5019C10.5648 13.8563 9.56901 11.3023 9.58371 8.78101C9.59842 6.2597 10.6294 3.71392 12.7184 1.1101L11.7058 0.25Z" fill="#22BFCA"/>
<path d="M14.5341 0.25L13.5215 1.1101C15.6105 3.71392 16.6366 6.2597 16.6513 8.78101C16.666 11.3023 15.675 13.8563 13.5263 16.5019L14.5292 17.372C16.8191 14.5526 17.9812 11.6687 17.9643 8.77101C17.9474 5.87335 16.7572 3.02105 14.5341 0.25Z" fill="#22BFCA"/>
<path d="M12.459 0.680176V16.9371H13.772V0.680176H12.459Z" fill="#22BFCA"/>
<path d="M5.23828 8.13086V9.48602H20.9941V8.13086H5.23828Z" fill="#22BFCA"/>
<path d="M19.177 3.54541C15.0889 6.40105 11.2048 6.47109 7.06456 3.55542L6.32812 4.67055C10.8107 7.82732 15.4902 7.75191 19.9086 4.66556L19.177 3.54541Z" fill="#22BFCA"/>
<path d="M13.1401 10.6112C10.8579 10.601 8.56838 11.3691 6.32812 12.9465L7.0694 14.0666C11.2076 11.1529 15.086 11.2193 19.1721 14.0716L19.9037 12.9515C17.6955 11.41 15.4224 10.6213 13.1401 10.6112Z" fill="#22BFCA"/>
<path d="M16.6121 19.0872C16.4398 19.0873 16.2745 19.1574 16.1518 19.2822L9.6547 25.993C9.53247 26.1199 9.46387 26.2916 9.46387 26.4705C9.46387 26.6495 9.53247 26.8212 9.6547 26.9481C9.77767 27.0743 9.94401 27.1451 10.1174 27.1451C10.2908 27.1451 10.4571 27.0743 10.5801 26.9481L17.0772 20.2423C17.1384 20.1794 17.187 20.1046 17.2202 20.0222C17.2534 19.9398 17.2704 19.8515 17.2704 19.7623C17.2704 19.673 17.2534 19.5847 17.2202 19.5023C17.187 19.4199 17.1384 19.3451 17.0772 19.2822C16.9533 19.1561 16.786 19.086 16.6121 19.0872Z" fill="#22BFCA"/>
<path d="M8.04494 24.8683C7.88034 24.9256 7.74444 25.0478 7.66703 25.2083C7.62837 25.2881 7.60534 25.3749 7.59928 25.4639C7.59321 25.5529 7.60422 25.6422 7.63168 25.7267C7.65914 25.8113 7.7025 25.8894 7.75929 25.9566C7.81607 26.0239 7.88515 26.0788 7.96258 26.1184L9.61955 26.9735L10.4529 28.6887C10.5304 28.8488 10.6661 28.9708 10.8304 29.0279C10.9947 29.0851 11.1743 29.0728 11.3298 28.9938C11.4072 28.9542 11.4763 28.8992 11.5331 28.832C11.5899 28.7648 11.6333 28.6866 11.6607 28.6021C11.6882 28.5175 11.6992 28.4282 11.6931 28.3392C11.6871 28.2503 11.664 28.1634 11.6254 28.0837L10.5982 25.9634L8.54882 24.9083C8.47156 24.8676 8.38725 24.8431 8.30076 24.8362C8.21427 24.8294 8.12732 24.8403 8.04494 24.8683Z" fill="#22BFCA"/>
<path d="M10.2347 20.057C10.15 20.0391 10.0628 20.0386 9.97798 20.0556C9.89317 20.0726 9.81244 20.1067 9.74042 20.1559C9.6684 20.2051 9.60651 20.2686 9.55829 20.3426C9.51008 20.4166 9.47649 20.4996 9.45946 20.5871C9.44218 20.6748 9.4419 20.7651 9.45865 20.8529C9.4754 20.9408 9.50884 21.0243 9.55704 21.0987C9.60525 21.1731 9.66726 21.2369 9.73949 21.2864C9.81172 21.3359 9.89274 21.3701 9.97787 21.3872L14.1881 22.2573L15.0312 26.6028C15.0656 26.7783 15.166 26.9326 15.3104 27.0319C15.4547 27.1312 15.6313 27.1675 15.8015 27.1328C15.8861 27.1158 15.9667 27.0817 16.0386 27.0325C16.1104 26.9833 16.1722 26.92 16.2203 26.8462C16.2685 26.7723 16.3021 26.6894 16.3192 26.6022C16.3362 26.5149 16.3365 26.4251 16.3199 26.3377L15.3025 21.1021L10.2347 20.057Z" fill="#22BFCA"/>
<path d="M5.8972 30.4836C5.81058 30.4833 5.72474 30.5006 5.64464 30.5347C5.56454 30.5688 5.49177 30.6188 5.43052 30.6821C5.36926 30.7453 5.32074 30.8204 5.28775 30.9031C5.25476 30.9857 5.23794 31.0743 5.23829 31.1637C5.23858 31.2527 5.25586 31.3408 5.28914 31.4229C5.32242 31.505 5.37104 31.5795 5.43223 31.6422C5.49342 31.7049 5.56598 31.7545 5.64576 31.7882C5.72554 31.822 5.81098 31.8392 5.8972 31.8388H20.3352C20.4214 31.8392 20.5068 31.822 20.5866 31.7882C20.6664 31.7545 20.739 31.7049 20.8002 31.6422C20.8613 31.5795 20.91 31.505 20.9432 31.4229C20.9765 31.3408 20.9938 31.2527 20.9941 31.1637C20.9944 31.0743 20.9776 30.9857 20.9446 30.9031C20.9116 30.8204 20.8631 30.7453 20.8019 30.6821C20.7406 30.6188 20.6678 30.5688 20.5877 30.5347C20.5076 30.5006 20.4218 30.4833 20.3352 30.4836H5.8972Z" fill="#22BFCA"/>
<path d="M5.8972 33.8743C5.81098 33.8739 5.72554 33.8911 5.64576 33.9248C5.56598 33.9586 5.49342 34.0082 5.43223 34.0709C5.37104 34.1336 5.32242 34.2081 5.28914 34.2902C5.25586 34.3723 5.23858 34.4604 5.23829 34.5494C5.23794 34.6388 5.25476 34.7274 5.28775 34.81C5.32074 34.8927 5.36926 34.9678 5.43052 35.031C5.49177 35.0943 5.56454 35.1443 5.64464 35.1784C5.72474 35.2124 5.81058 35.2298 5.8972 35.2294H20.3352C20.4218 35.2298 20.5076 35.2124 20.5877 35.1784C20.6678 35.1443 20.7406 35.0943 20.8019 35.031C20.8631 34.9678 20.9116 34.8927 20.9446 34.81C20.9776 34.7274 20.9944 34.6388 20.9941 34.5494C20.9938 34.4604 20.9765 34.3723 20.9432 34.2902C20.91 34.2081 20.8613 34.1336 20.8002 34.0709C20.739 34.0082 20.6664 33.9586 20.5866 33.9248C20.5068 33.8911 20.4214 33.8739 20.3352 33.8743H5.8972Z" fill="#22BFCA"/>
<path d="M5.8972 37.2595C5.81058 37.2592 5.72474 37.2765 5.64464 37.3106C5.56454 37.3446 5.49177 37.3947 5.43052 37.4579C5.36926 37.5212 5.32074 37.5963 5.28775 37.6789C5.25476 37.7616 5.23794 37.8502 5.23829 37.9396C5.23858 38.0286 5.25586 38.1166 5.28914 38.1987C5.32242 38.2808 5.37104 38.3554 5.43223 38.418C5.49342 38.4807 5.56598 38.5304 5.64576 38.5641C5.72554 38.5979 5.81098 38.615 5.8972 38.6147H20.3352C20.4214 38.615 20.5068 38.5979 20.5866 38.5641C20.6664 38.5304 20.739 38.4807 20.8002 38.418C20.8613 38.3554 20.91 38.2808 20.9432 38.1987C20.9765 38.1166 20.9938 38.0286 20.9941 37.9396C20.9944 37.8502 20.9776 37.7616 20.9446 37.6789C20.9116 37.5963 20.8631 37.5212 20.8019 37.4579C20.7406 37.3947 20.6678 37.3446 20.5877 37.3106C20.5076 37.2765 20.4218 37.2592 20.3352 37.2595H5.8972Z" fill="#22BFCA"/>
</svg>
