<svg width="30" height="42" viewBox="0 0 30 42" fill="none" xmlns="http://www.w3.org/2000/svg">
<path d="M2.289 42H24.311C24.9175 41.9982 25.4987 41.7564 25.9275 41.3275C26.3564 40.8987 26.5982 40.3175 26.6 39.711V39.2H27.111C27.7175 39.1982 28.2987 38.9564 28.7275 38.5275C29.1564 38.0987 29.3982 37.5175 29.4 36.911V6.489C29.3982 5.88249 29.1564 5.30134 28.7275 4.87247C28.2987 4.4436 27.7175 4.20185 27.111 4.2H23.8V1.575C23.8 1.15728 23.6341 0.756677 23.3387 0.461307C23.0433 0.165937 22.6427 0 22.225 0H4.375C3.95728 0 3.55668 0.165937 3.26131 0.461307C2.96594 0.756677 2.8 1.15728 2.8 1.575V7H2.289C1.68249 7.00185 1.10134 7.2436 0.672472 7.67247C0.243601 8.10134 0.00184632 8.68249 0 9.289V39.711C0.00184632 40.3175 0.243601 40.8987 0.672472 41.3275C1.10134 41.7564 1.68249 41.9982 2.289 42ZM27.111 5.6C27.3468 5.6 27.5729 5.69366 27.7396 5.86038C27.9063 6.0271 28 6.25322 28 6.489V36.911C28 37.1468 27.9063 37.3729 27.7396 37.5396C27.5729 37.7063 27.3468 37.8 27.111 37.8H26.6V9.289C26.5982 8.68249 26.3564 8.10134 25.9275 7.67247C25.4987 7.2436 24.9175 7.00185 24.311 7H23.8V5.6H27.111ZM22.4 1.575V7H21V1.4H22.225C22.2714 1.4 22.3159 1.41844 22.3487 1.45126C22.3816 1.48408 22.4 1.52859 22.4 1.575ZM4.2 1.575C4.2 1.52859 4.21844 1.48408 4.25126 1.45126C4.28407 1.41844 4.32859 1.4 4.375 1.4H5.6V2.8C5.6 2.98565 5.67375 3.1637 5.80502 3.29497C5.9363 3.42625 6.11435 3.5 6.3 3.5C6.48565 3.5 6.6637 3.42625 6.79498 3.29497C6.92625 3.1637 7 2.98565 7 2.8V1.4H8.4V2.8C8.4 2.98565 8.47375 3.1637 8.60502 3.29497C8.7363 3.42625 8.91435 3.5 9.1 3.5C9.28565 3.5 9.4637 3.42625 9.59498 3.29497C9.72625 3.1637 9.8 2.98565 9.8 2.8V1.4H11.2V4.2C11.2 4.38565 11.2737 4.5637 11.405 4.69497C11.5363 4.82625 11.7143 4.9 11.9 4.9C12.0857 4.9 12.2637 4.82625 12.395 4.69497C12.5263 4.5637 12.6 4.38565 12.6 4.2V1.4H14V2.8C14 2.98565 14.0737 3.1637 14.205 3.29497C14.3363 3.42625 14.5143 3.5 14.7 3.5C14.8857 3.5 15.0637 3.42625 15.195 3.29497C15.3263 3.1637 15.4 2.98565 15.4 2.8V1.4H16.8V2.8C16.8 2.98565 16.8737 3.1637 17.005 3.29497C17.1363 3.42625 17.3143 3.5 17.5 3.5C17.6857 3.5 17.8637 3.42625 17.995 3.29497C18.1263 3.1637 18.2 2.98565 18.2 2.8V1.4H19.6V7H4.2V1.575ZM1.4 9.275C1.40368 9.04166 1.49896 8.81912 1.66528 8.65541C1.8316 8.49171 2.05563 8.39997 2.289 8.4H24.311C24.4277 8.4 24.5433 8.42299 24.6512 8.46767C24.7591 8.51235 24.8571 8.57783 24.9396 8.66038C25.0222 8.74293 25.0877 8.84094 25.1323 8.94879C25.177 9.05665 25.2 9.17226 25.2 9.289V39.711C25.2 39.8277 25.177 39.9433 25.1323 40.0512C25.0877 40.1591 25.0222 40.2571 24.9396 40.3396C24.8571 40.4222 24.7591 40.4877 24.6512 40.5323C24.5433 40.577 24.4277 40.6 24.311 40.6H2.289C2.05322 40.6 1.8271 40.5063 1.66038 40.3396C1.49366 40.1729 1.4 39.9468 1.4 39.711V9.275Z" fill="#49357F"/>
<path d="M6.35788 24.7728C6.39903 24.8655 6.45856 24.9488 6.53288 25.0178C6.57014 25.045 6.61 25.0685 6.65188 25.0878C7.49995 26.0048 8.52849 26.7365 9.6729 27.2369C10.8173 27.7373 12.0528 27.9956 13.3019 27.9956C14.5509 27.9956 15.7864 27.7373 16.9309 27.2369C18.0753 26.7365 19.1038 26.0048 19.9519 25.0878C19.994 25.0662 20.0339 25.0405 20.0709 25.0108C20.1452 24.9418 20.2047 24.8585 20.2459 24.7658C21.6335 23.1235 22.3948 21.0429 22.3948 18.8928C22.3948 16.7428 21.6335 14.6622 20.2459 13.0198C20.2047 12.9272 20.1452 12.8438 20.0709 12.7748C20.0354 12.745 19.9952 12.7213 19.9519 12.7048C19.1044 11.7869 18.076 11.0544 16.9315 10.5534C15.787 10.0523 14.5512 9.7937 13.3019 9.7937C12.0525 9.7937 10.8167 10.0523 9.67224 10.5534C8.52776 11.0544 7.49939 11.7869 6.65188 12.7048C6.61 12.7242 6.57014 12.7476 6.53288 12.7748C6.45856 12.8438 6.39903 12.9272 6.35788 13.0198C4.97027 14.6622 4.20898 16.7428 4.20898 18.8928C4.20898 21.0429 4.97027 23.1235 6.35788 24.7658V24.7728ZM7.09288 14.3708C7.59286 14.8313 8.14219 15.2351 8.73088 15.5748C8.5496 16.4394 8.43957 17.3173 8.40188 18.1998H5.60188C5.73903 16.8111 6.25477 15.4866 7.09288 14.3708ZM21.0019 18.1998H18.2019C18.1711 17.3179 18.0681 16.4399 17.8939 15.5748C18.4852 15.2358 19.0369 14.832 19.5389 14.3708C20.3635 15.4915 20.8691 16.8147 21.0019 18.1998ZM19.5459 23.4288C19.0459 22.9684 18.4966 22.5646 17.9079 22.2248C18.0774 21.3593 18.1757 20.4814 18.2019 19.5998H21.0019C20.8647 20.9886 20.349 22.313 19.5109 23.4288H19.5459ZM10.0399 16.1908C12.1388 17.0025 14.4649 17.0025 16.5639 16.1908C16.6896 16.8542 16.7691 17.5255 16.8019 18.1998H9.80188C9.83465 17.5255 9.91417 16.8542 10.0399 16.1908ZM16.8019 19.5998C16.776 20.2737 16.7035 20.945 16.5849 21.6088C14.4821 20.8181 12.1637 20.8181 10.0609 21.6088C9.92812 20.946 9.84158 20.2747 9.80188 19.5998H16.8019ZM10.1519 25.8998C9.36682 25.556 8.64511 25.0828 8.01688 24.4998C8.35291 24.184 8.71597 23.8983 9.10188 23.6458C9.35287 24.4394 9.70582 25.1971 10.1519 25.8998ZM10.3689 22.9598C12.2511 22.2037 14.3526 22.2037 16.2349 22.9598C15.5629 25.1998 14.3939 26.5998 13.3019 26.5998C12.2099 26.5998 11.0409 25.1998 10.3689 22.9808V22.9598ZM17.4949 23.6598C17.8839 23.9057 18.2494 24.1869 18.5869 24.4998C17.9724 25.0945 17.2625 25.5819 16.4869 25.9418C16.9241 25.2241 17.2653 24.4522 17.5019 23.6458L17.4949 23.6598ZM17.4949 14.1678C17.2472 13.3697 16.8966 12.6073 16.4519 11.8998C17.2275 12.2598 17.9374 12.7472 18.5519 13.3418C18.2253 13.6415 17.874 13.9131 17.5019 14.1538L17.4949 14.1678ZM16.2349 14.8678C14.3526 15.624 12.2511 15.624 10.3689 14.8678C11.0409 12.5998 12.2099 11.1998 13.3019 11.1998C14.3939 11.1998 15.5629 12.5998 16.2349 14.8188V14.8678ZM9.10188 14.1538C8.71471 13.9031 8.35151 13.6173 8.01688 13.2998C8.64511 12.7169 9.36682 12.2436 10.1519 11.8998C9.70582 12.6026 9.35287 13.3602 9.10188 14.1538ZM8.40188 19.5998C8.43265 20.4818 8.53566 21.3597 8.70988 22.2248C8.11964 22.5622 7.57004 22.9662 7.07188 23.4288C6.25376 22.307 5.75758 20.983 5.63688 19.5998H8.40188Z" fill="#49357F"/>
<path d="M3.50273 30.8001H23.1027C23.2884 30.8001 23.4664 30.7264 23.5977 30.5951C23.729 30.4638 23.8027 30.2858 23.8027 30.1001C23.8027 29.9145 23.729 29.7364 23.5977 29.6052C23.4664 29.4739 23.2884 29.4001 23.1027 29.4001H3.50273C3.31708 29.4001 3.13904 29.4739 3.00776 29.6052C2.87648 29.7364 2.80273 29.9145 2.80273 30.1001C2.80273 30.2858 2.87648 30.4638 3.00776 30.5951C3.13904 30.7264 3.31708 30.8001 3.50273 30.8001Z" fill="#49357F"/>
<path d="M18.9039 32.2H7.70391C7.51825 32.2 7.34021 32.2737 7.20893 32.405C7.07766 32.5363 7.00391 32.7143 7.00391 32.9V38.5C7.00391 38.6856 7.07766 38.8637 7.20893 38.9949C7.34021 39.1262 7.51825 39.2 7.70391 39.2H18.9039C19.0896 39.2 19.2676 39.1262 19.3989 38.9949C19.5302 38.8637 19.6039 38.6856 19.6039 38.5V32.9C19.6039 32.7143 19.5302 32.5363 19.3989 32.405C19.2676 32.2737 19.0896 32.2 18.9039 32.2ZM13.3039 33.6H18.2039V35H15.2779C15.1308 34.5945 14.8624 34.2443 14.5092 33.9967C14.156 33.7492 13.7352 33.6164 13.3039 33.6164C12.8726 33.6164 12.4518 33.7492 12.0986 33.9967C11.7454 34.2443 11.477 34.5945 11.3299 35H8.40391V33.6H13.3039ZM14.0039 35.7C14.0039 35.8384 13.9629 35.9737 13.8859 36.0888C13.809 36.204 13.6997 36.2937 13.5718 36.3467C13.4439 36.3996 13.3031 36.4135 13.1673 36.3865C13.0316 36.3595 12.9068 36.2928 12.8089 36.1949C12.711 36.097 12.6444 35.9723 12.6174 35.8365C12.5903 35.7007 12.6042 35.56 12.6572 35.4321C12.7102 35.3042 12.7999 35.1948 12.915 35.1179C13.0301 35.041 13.1655 35 13.3039 35C13.4896 35 13.6676 35.0737 13.7989 35.205C13.9302 35.3363 14.0039 35.5143 14.0039 35.7ZM13.3039 37.8H8.40391V36.4H11.3299C11.477 36.8054 11.7454 37.1556 12.0986 37.4032C12.4518 37.6507 12.8726 37.7835 13.3039 37.7835C13.7352 37.7835 14.156 37.6507 14.5092 37.4032C14.8624 37.1556 15.1308 36.8054 15.2779 36.4H18.2039V37.8H13.3039Z" fill="#49357F"/>
</svg>
