<svg width="38" height="42" viewBox="0 0 38 42" fill="none" xmlns="http://www.w3.org/2000/svg">
<path d="M36.7325 10.9889C37.4337 9.85074 37.8 8.54092 37.8 7.19497C37.8 3.22487 34.6064 4.69912e-06 30.6849 4.69912e-06C27.4377 4.69912e-06 24.6998 2.21315 23.8466 5.22121C23.8243 5.21669 23.8065 5.20766 23.7841 5.20314C20.5191 4.30885 17.1603 4.3495 14.0337 5.21669C13.1628 2.20411 10.4159 4.69912e-06 7.1598 4.69912e-06C3.21588 -0.00451191 0 3.24745 0 7.24014C0 8.59512 0.37072 9.91397 1.07643 11.0612C1.08536 11.0747 1.09429 11.0883 1.10323 11.1018L3.00596 13.7305C1.29529 16.6482 0.393052 19.9905 0.419851 23.4096C0.424318 24.0826 0.464516 24.7601 0.544913 25.4376C1.05409 29.891 3.13102 34.0146 6.4005 37.0543C9.49131 39.9314 13.4978 41.6748 17.6784 41.9548C18.1072 41.9865 18.536 42 18.9648 42C24.137 42 29.0367 39.8365 32.5697 35.9568C33.003 35.478 33.4094 34.9857 33.7891 34.4708C34.928 32.9352 35.8169 31.2414 36.4377 29.4212C38.2645 24.0916 37.599 18.3194 34.8208 13.6402L36.7102 11.0296C36.7102 11.0296 36.728 11.0025 36.737 10.9889H36.7325ZM31.5782 35.0399C28.2462 38.6984 23.5965 40.6947 18.7236 40.645C19.3221 38.9468 19.1658 37.3298 18.2457 35.9206C16.8968 33.8475 17.0576 31.5892 17.9911 30.6046C18.0045 30.591 18.0179 30.582 18.0313 30.5685C18.0447 30.591 18.0581 30.6136 18.0715 30.6362C18.0804 30.6497 18.0893 30.6633 18.0983 30.6768L22.0868 36.1871C21.8859 36.1916 21.6625 36.1962 21.4213 36.1962C20.8898 36.1962 20.3538 36.1826 19.8223 36.151C19.4561 36.1284 19.139 36.4175 19.1166 36.7923C19.0988 37.1672 19.3801 37.4834 19.7509 37.506C20.3047 37.5376 20.8675 37.5511 21.4213 37.5511C22.6273 37.5511 23.3911 37.4789 23.4223 37.4744C23.4402 37.4744 23.4581 37.4653 23.4804 37.4608C23.4983 37.4608 23.5161 37.4563 23.534 37.4518C23.5697 37.4427 23.601 37.4292 23.6367 37.4156C23.6501 37.4111 23.6591 37.4066 23.6725 37.4021C23.7171 37.3795 23.7573 37.3524 23.7931 37.3208C23.802 37.3163 23.8065 37.3072 23.8154 37.2982C23.8422 37.2711 23.869 37.244 23.8958 37.2124C23.8958 37.2079 23.9047 37.2034 23.9092 37.1988L28.2953 31.1421C29.7335 29.7374 33.1012 28.7799 34.9727 29.5206C34.2 31.5531 33.061 33.4049 31.5826 35.0309L31.5782 35.0399ZM7.3072 36.0607C4.57816 33.5223 2.75136 30.171 2.06799 26.5125C3.34988 27.0681 4.3995 27.33 5.24814 27.3842C5.27047 27.5513 5.29727 27.7185 5.32854 27.8856C5.3866 28.2108 5.66799 28.4411 5.98511 28.4411C6.02531 28.4411 6.06551 28.4411 6.11017 28.4276C6.47196 28.3598 6.71315 28.003 6.64615 27.6372C6.62382 27.5197 6.61489 27.3933 6.59702 27.2758C7.52605 27.0319 8.0933 26.4538 8.43275 25.826C10.2864 22.416 11.2288 21.5668 15.4809 21.7204C17.0486 21.7791 18.1206 21.4313 18.7593 20.6725C19.8223 19.4079 19.4114 17.3303 18.9335 14.9229C18.8397 14.4577 18.7459 13.9789 18.6566 13.4821C18.3395 11.7297 19.9251 10.3521 21.6045 8.89322C22.3012 8.28799 23.0114 7.66922 23.5831 7.00979C23.5831 7.06851 23.5742 7.13174 23.5742 7.19045C23.5742 8.53641 23.9449 9.85074 24.6417 10.9844C24.6506 10.998 24.6596 11.0115 24.6685 11.0251L26.9643 14.2002C26.2318 14.417 25.5261 14.6971 24.8829 15.0268C24.8069 14.9635 24.7132 14.9139 24.6104 14.8868C23.4313 14.6158 22.203 14.4396 20.9613 14.3764C20.5727 14.3538 20.2779 14.6429 20.2556 15.0177C20.2377 15.3926 20.5191 15.7088 20.8898 15.7314C21.7072 15.7765 22.5201 15.8714 23.3107 16.0114C22.2476 16.8199 21.4705 17.7729 21.1399 18.762C20.9122 19.4395 20.8094 20.379 21.332 21.3771C18.8978 22.2353 17.1469 24.5704 17.1469 27.321C17.1469 27.994 17.2586 28.6624 17.464 29.2948C17.3122 29.4032 17.1737 29.5296 17.0352 29.6696C15.8695 30.8982 15.4362 33.4184 16.7136 35.9252C16.6243 35.8348 16.5082 35.7716 16.3742 35.7445C15.1727 35.5141 14.0561 35.2025 13.0511 34.8096C12.7072 34.6741 12.3186 34.8502 12.1846 35.198C12.0506 35.5458 12.2248 35.9387 12.5687 36.0742C13.6452 36.4942 14.8422 36.833 16.1241 37.0769C16.1643 37.0859 16.2089 37.0904 16.2491 37.0904C16.5663 37.0904 16.8476 36.8646 16.9057 36.5394C16.9236 36.4536 16.9191 36.3678 16.9057 36.282C16.9816 36.4084 17.0531 36.5394 17.138 36.6659C17.8839 37.8131 17.9375 39.1229 17.3166 40.5637C13.605 40.2114 10.0675 38.6216 7.31166 36.0607H7.3072ZM7.16873 1.35047C10.3801 1.35047 12.9931 3.99269 12.9931 7.24014C12.9931 8.33316 12.6938 9.39908 12.131 10.325L7.16873 17.1812L2.20645 10.325C1.64367 9.39908 1.34442 8.33316 1.34442 7.24014C1.34442 3.99269 3.95732 1.35047 7.16873 1.35047ZM22.4486 6.26455C21.9663 6.79299 21.3633 7.31692 20.7335 7.86343C18.929 9.4307 16.8834 11.2057 17.339 13.7215C17.3836 13.9789 17.4328 14.2319 17.4819 14.4848C17.4194 14.4712 17.3568 14.4667 17.2898 14.4758C16.1017 14.5977 14.8868 14.81 13.6809 15.1036C13.3236 15.1894 13.1002 15.5552 13.1851 15.9211C13.261 16.2327 13.5335 16.4405 13.8372 16.4405C13.8908 16.4405 13.9399 16.436 13.9935 16.4224C15.1414 16.1424 16.2983 15.9391 17.4238 15.8262C17.5355 15.8127 17.6337 15.7765 17.7231 15.7178C18.0804 17.5516 18.3261 19.1008 17.7365 19.7963C17.3836 20.2119 16.6377 20.4061 15.5256 20.3654C10.7375 20.1893 9.33052 21.3546 7.2536 25.1711C7.066 25.5144 6.79355 25.7357 6.46749 25.8667C6.46749 25.7312 6.44963 25.6047 6.44963 25.4692C6.44963 25.0672 6.46749 24.6472 6.50323 24.2226C6.53449 23.8477 6.26203 23.5225 5.89132 23.4909C5.52506 23.4593 5.19901 23.7348 5.16774 24.1097C5.12754 24.5749 5.10968 25.0311 5.10968 25.4692C5.10968 25.6499 5.11414 25.8305 5.12308 26.0067C4.04218 25.8938 2.79603 25.3879 1.8402 24.9182C1.50968 21.4223 2.24218 17.9535 3.88139 14.9274L6.42729 18.4413C6.1995 19.1188 5.99404 19.7918 5.82432 20.4332C5.73052 20.7945 5.94491 21.1649 6.30223 21.2597C6.3603 21.2733 6.41836 21.2823 6.47196 21.2823C6.76675 21.2823 7.03921 21.079 7.1196 20.7764C7.28933 20.1351 7.49479 19.4621 7.72705 18.7801C8.15136 18.5452 9.19653 18.0077 10.6615 17.4477C11.0099 17.3167 11.1841 16.9238 11.0501 16.576C10.9206 16.2282 10.5365 16.0475 10.1881 16.183C9.8665 16.305 9.56725 16.4269 9.28586 16.5444L13.2342 11.0928C13.2342 11.0928 13.2521 11.0657 13.261 11.0522C13.9667 9.90946 14.3375 8.58609 14.3375 7.2311C14.3375 6.99624 14.3241 6.77041 14.3017 6.54006C16.9146 5.79934 19.7017 5.67739 22.4486 6.25552V6.26455ZM27.5851 17.2941C28.5275 17.7051 29.4476 18.202 30.3275 18.7711C30.3365 18.7756 30.3454 18.7756 30.3543 18.7846C30.3901 18.8072 30.4303 18.8207 30.4705 18.8388C30.4883 18.8433 30.5017 18.8524 30.5196 18.8569C30.5732 18.8704 30.6313 18.8795 30.6893 18.8795C30.7429 18.8795 30.7965 18.8704 30.8501 18.8614C30.8635 18.8614 30.8769 18.8524 30.8903 18.8478C30.9261 18.8343 30.9618 18.8253 30.9975 18.8072C31.0154 18.7982 31.0332 18.7846 31.0511 18.7711C31.0779 18.753 31.1092 18.7349 31.1315 18.7123C31.1494 18.6988 31.1628 18.6807 31.1762 18.6627C31.194 18.6446 31.2119 18.6265 31.2298 18.6039L32.4134 16.9689C32.4134 16.9689 32.4134 16.9915 32.4134 16.996C32.4089 17.0999 32.4223 17.1993 32.4625 17.2941C32.6993 17.8677 32.5965 18.622 32.1901 19.3627C31.6943 20.257 30.8591 20.939 30.1131 21.0565C28.8 21.2687 28.4918 21.612 28.005 22.4792C27.938 22.5966 27.862 22.7276 27.7727 22.8767C26.6471 21.734 25.0883 21.0294 23.3687 21.0294C23.1454 21.0294 22.9265 21.0429 22.7077 21.0655C22.2834 20.4828 22.1806 19.8686 22.404 19.2046C22.931 17.6193 25.2134 16.043 27.8084 15.3836L28.3891 16.1875C28.2953 16.1469 28.2015 16.1017 28.1122 16.0566C27.7727 15.9075 27.3797 16.0656 27.2323 16.4089C27.0849 16.7521 27.2412 17.1496 27.5806 17.2986L27.5851 17.2941ZM28.2596 27.3165C28.2596 28.2334 28.0094 29.1231 27.5404 29.9L23.3732 35.6587L19.206 29.9C18.7325 29.1231 18.4868 28.2334 18.4868 27.3165C18.4868 24.593 20.6799 22.3753 23.3732 22.3753C26.0665 22.3753 28.2596 24.593 28.2596 27.3165ZM35.3926 28.2514C33.6953 27.6236 31.3102 27.9669 29.4119 28.8341C29.5325 28.3418 29.5995 27.8314 29.5995 27.3165C29.5995 26.097 29.2467 24.9588 28.6526 23.9923C28.8849 23.6445 29.0457 23.3644 29.1707 23.1431C29.5057 22.5515 29.5236 22.5153 30.3275 22.3889C31.4754 22.2037 32.668 21.2733 33.3603 20.0176C33.9409 18.9653 34.0839 17.8406 33.7533 16.9057C33.7444 16.6437 33.6953 16.1153 33.4273 15.5643L33.9454 14.8461C36.1608 18.8795 36.728 23.7032 35.3881 28.2559L35.3926 28.2514ZM30.6893 17.0502L25.7672 10.2482C25.2089 9.33133 24.9141 8.27444 24.9141 7.19045C24.9141 3.97011 27.5047 1.35047 30.6893 1.35047C33.8739 1.35047 36.4645 3.97011 36.4645 7.19045C36.4645 8.27444 36.1697 9.33133 35.6114 10.2482L30.6893 17.0502Z" fill="#22BFCA"/>
</svg>
