<svg width="35" height="38" viewBox="0 0 35 38" fill="none" xmlns="http://www.w3.org/2000/svg">
<path d="M33.9114 27.7436C33.8348 27.4752 33.7039 27.2256 33.5268 27.0103C33.3498 26.795 33.1305 26.6187 32.8825 26.4924L28.3423 24.2006L28.3385 1.54232C28.338 1.13341 28.1759 0.741384 27.8879 0.452242C27.5998 0.1631 27.2094 0.000458733 26.8021 5.82814e-08H4.59503C4.52081 -3.57346e-05 4.4475 0.0164152 4.38037 0.0481734C4.31323 0.0799315 4.25393 0.12621 4.20671 0.183692L0.113923 5.16591C0.097166 5.18721 0.0818875 5.20965 0.0681951 5.23306L0.06345 5.24042C0.0509263 5.26312 0.0401126 5.28672 0.0310996 5.31104L0.027218 5.32187C0.0187844 5.34615 0.0122955 5.37107 0.00781308 5.39639L0.00781498 5.40765C0.00334393 5.43399 0.00103898 5.46065 0.000924103 5.48737L0.00575751 34.1884C0.0063971 34.5971 0.168443 34.989 0.456368 35.278C0.744294 35.5671 1.1346 35.7297 1.54172 35.7303H8.32919C8.32618 35.7736 8.32403 35.8169 8.32404 35.8602L8.32431 37.4944C8.32432 37.5608 8.33737 37.6266 8.36271 37.688C8.38806 37.7494 8.4252 37.8051 8.47201 37.8521C8.51882 37.899 8.57439 37.9363 8.63554 37.9616C8.69669 37.987 8.76222 38.0001 8.82838 38H19.5226C19.6559 38 19.7836 37.947 19.8779 37.8525C19.9722 37.7581 20.0254 37.6299 20.0257 37.4962L20.0254 35.862C20.0254 35.8187 20.0254 35.7753 20.0206 35.732H26.8081C27.2153 35.7316 27.6057 35.569 27.8936 35.2799C28.1815 34.9909 28.3435 34.599 28.344 34.1901L28.3433 30.3382L30.0311 31.4508C30.3576 31.6662 30.74 31.7806 31.1306 31.7796C31.2973 31.7794 31.4634 31.7596 31.6255 31.7207C31.9207 31.6499 32.1985 31.5196 32.442 31.3378C32.6855 31.1559 32.8896 30.9262 33.042 30.6627L33.7076 29.5047C33.8588 29.2404 33.9548 28.948 33.9898 28.6452C34.0249 28.3424 33.9982 28.0357 33.9114 27.7436ZM4.21561 1.7637L4.21606 4.44977C4.21597 4.59053 4.16028 4.72549 4.0612 4.82507C3.96213 4.92464 3.82776 4.98069 3.68756 4.98092H1.57106L4.21561 1.7637ZM19.0189 36.9906H9.32962L9.32943 35.862C9.32961 35.6008 9.43302 35.3503 9.61696 35.1656C9.80089 34.9809 10.0503 34.877 10.3105 34.8768H18.0373C18.2975 34.877 18.547 34.9809 18.731 35.1656C18.915 35.3503 19.0185 35.6008 19.0187 35.862L19.0189 36.9906ZM17.5336 33.8652H10.8139L10.8137 32.9398C10.8139 32.7424 10.8921 32.5531 11.0311 32.4135C11.1702 32.2738 11.3587 32.1953 11.5553 32.1951H16.7916C16.9882 32.1953 17.1768 32.2738 17.3159 32.4135C17.4549 32.5531 17.5332 32.7424 17.5334 32.9398L17.5336 33.8652ZM27.3364 34.1884C27.3363 34.3291 27.2806 34.464 27.1816 34.5635C27.0825 34.663 26.9481 34.719 26.8079 34.7191H19.6662C19.3959 34.3307 18.9971 34.0512 18.5407 33.9306L18.5406 32.9398C18.54 32.4742 18.3556 32.0278 18.0276 31.6985C17.6997 31.3693 17.2551 31.184 16.7914 31.1835H11.5552C11.0914 31.184 10.6468 31.3693 10.319 31.6985C9.99107 32.0278 9.80666 32.4742 9.80617 32.9398L9.80634 33.9306C9.3502 34.0514 8.95161 34.3308 8.68155 34.7191H1.53939C1.39927 34.7189 1.26495 34.6629 1.16585 34.5634C1.06676 34.4639 1.01097 34.3291 1.01072 34.1884L1.00597 5.99295H3.68773C4.095 5.9925 4.48543 5.82985 4.77336 5.54071C5.0613 5.25157 5.22322 4.85954 5.22361 4.45063L5.22303 1.01291H26.8023C26.9422 1.01313 27.0763 1.06894 27.1753 1.16814C27.2744 1.26734 27.3303 1.40186 27.3309 1.54232L27.3347 23.6906L21.3307 20.658L21.4554 20.4414H24.094C24.2276 20.4414 24.3556 20.3881 24.45 20.2933C24.5445 20.1985 24.5975 20.0699 24.5975 19.9358C24.5975 19.8017 24.5444 19.6731 24.4499 19.5783C24.3555 19.4835 24.2274 19.4302 24.0938 19.4302H22.8425C23.1064 19.3717 23.3553 19.2587 23.5733 19.0983C23.7913 18.938 23.9737 18.7338 24.1088 18.4987L24.7304 17.4178C24.8937 17.1338 24.938 16.7962 24.8535 16.4793C24.7689 16.1625 24.5625 15.8923 24.2796 15.7282L19.6941 13.0712C19.4111 12.9071 19.0749 12.8626 18.7593 12.9474C18.4438 13.0322 18.1747 13.2394 18.0113 13.5235L17.3897 14.6066C17.2484 14.8519 17.1621 15.1253 17.137 15.4076H4.24768C4.11662 15.4115 3.99223 15.4664 3.9009 15.5609C3.80957 15.6553 3.75849 15.7818 3.75852 15.9134C3.75854 16.0451 3.80966 16.1715 3.90102 16.2659C3.99238 16.3604 4.11679 16.4154 4.24785 16.4192H17.3162C17.3945 16.5877 17.4962 16.7443 17.6183 16.8841L16.1517 19.4315H4.24835C4.1148 19.4315 3.98673 19.4848 3.89231 19.5796C3.79789 19.6744 3.74486 19.803 3.74488 19.9371C3.7449 20.0712 3.79798 20.1998 3.89243 20.2946C3.98688 20.3894 4.11497 20.4427 4.24853 20.4427H15.5736L14.1117 22.9875C13.8122 22.9278 13.503 22.9389 13.2085 23.0199C12.914 23.101 12.6424 23.2498 12.4151 23.4545H4.24903C4.11548 23.4545 3.98741 23.5078 3.89299 23.6026C3.79857 23.6974 3.74554 23.826 3.74556 23.9601C3.74558 24.0942 3.79866 24.2228 3.89311 24.3176C3.98756 24.4124 4.11565 24.4657 4.2492 24.4657H11.7232L11.4104 25.0094C11.2474 25.2936 11.2033 25.6311 11.2879 25.9479C11.3725 26.2647 11.5788 26.5349 11.8616 26.699L13.208 27.4789H4.24971C4.11865 27.4827 3.99426 27.5377 3.90293 27.6321C3.8116 27.7266 3.76053 27.853 3.76055 27.9847C3.76057 28.1163 3.81169 28.2428 3.90305 28.3372C3.99441 28.4316 4.11882 28.4866 4.24988 28.4905H14.951L16.445 29.3569C16.728 29.521 17.0642 29.5655 17.3798 29.4807C17.6953 29.3959 17.9644 29.1887 18.1278 28.9046L18.3659 28.4909H24.0954C24.1721 28.4913 24.2479 28.474 24.317 28.4403C24.386 28.4067 24.4465 28.3575 24.4936 28.2967C24.5407 28.2359 24.5733 28.165 24.5889 28.0895C24.6044 28.0141 24.6025 27.936 24.5833 27.8614L27.3357 29.6762L27.3364 34.1884ZM12.3651 25.8209C12.3144 25.7906 12.2774 25.7416 12.2621 25.6844C12.2468 25.6272 12.2543 25.5663 12.283 25.5146L12.9046 24.4315C13.0308 24.2145 13.2373 24.0564 13.479 23.9914C13.7208 23.9265 13.9783 23.9601 14.1956 24.0849L17.5314 26.0184C17.7475 26.1452 17.9051 26.3525 17.9698 26.5952C18.0345 26.838 18.0011 27.0965 17.8768 27.3147L17.2557 28.3978C17.2254 28.4486 17.1765 28.4856 17.1195 28.5009C17.0624 28.5162 17.0017 28.5086 16.9502 28.4796L12.3651 25.8209ZM18.9451 26.3343C18.867 26.0413 18.7222 25.7707 18.5221 25.5436L19.1424 24.4648H19.4345L24.0037 27.4771H18.906C19.0325 27.1087 19.0461 26.7106 18.9451 26.3343ZM17.7025 24.9479L15.0356 23.4021L18.4435 17.4746L21.1099 19.0204L17.7025 24.9479ZM18.2661 15.1087L18.8878 14.0278C18.9179 13.9769 18.9667 13.9398 19.0236 13.9244C19.0806 13.909 19.1413 13.9166 19.1928 13.9454L23.7762 16.6051C23.8269 16.6355 23.8637 16.6846 23.879 16.7418C23.8942 16.7991 23.8866 16.8601 23.8578 16.9118L23.2362 17.9927C23.1106 18.2104 22.9042 18.3692 22.6622 18.4341C22.4201 18.4991 22.1623 18.465 21.9452 18.3393L18.6103 16.4066C18.5006 16.3432 18.4048 16.2582 18.3285 16.1568C18.2523 16.0553 18.1972 15.9395 18.1666 15.8161L18.1631 15.7993C18.108 15.5651 18.1441 15.3187 18.264 15.1104L18.2661 15.1087ZM32.8354 28.9991L32.1694 30.1567C32.086 30.3012 31.9741 30.4271 31.8405 30.5268C31.707 30.6265 31.5547 30.6978 31.3928 30.7364C31.2563 30.7716 31.114 30.7783 30.9748 30.7559C30.8356 30.7336 30.7025 30.6827 30.5837 30.6064L28.1213 28.9826L19.7269 23.4476L20.8264 21.5353L32.4291 27.3957C32.5545 27.4606 32.6651 27.5507 32.7542 27.6604C32.8433 27.7701 32.909 27.8971 32.947 28.0334C32.9946 28.1936 33.0092 28.3618 32.99 28.5278C32.9709 28.6938 32.9183 28.8541 32.8354 28.9991ZM13.9832 7.8641C13.9831 7.73001 14.0362 7.60141 14.1306 7.5066C14.225 7.41178 14.3531 7.35851 14.4866 7.35851H24.0918C24.2253 7.35851 24.3534 7.41178 24.4479 7.5066C24.5423 7.60141 24.5954 7.73001 24.5954 7.8641C24.5955 7.99819 24.5424 8.12679 24.448 8.2216C24.3536 8.31642 24.2255 8.36969 24.092 8.36969H14.4868C14.3533 8.36969 14.2252 8.31642 14.1307 8.2216C14.0363 8.12679 13.9832 7.99819 13.9832 7.8641ZM9.0682 11.8009C9.0681 11.2169 8.80444 11.1099 7.98931 10.9314C7.24581 10.7702 6.12258 10.5224 6.12233 9.08063C6.11572 8.655 6.26005 8.2409 6.52954 7.91233C6.79904 7.58376 7.17613 7.36212 7.59344 7.28703L7.59338 6.89712C7.59139 6.82945 7.60295 6.76207 7.62737 6.69897C7.65179 6.63588 7.68857 6.57834 7.73554 6.52978C7.78251 6.48121 7.8387 6.44261 7.9008 6.41624C7.9629 6.38988 8.02964 6.37629 8.09706 6.37629C8.16449 6.37629 8.23123 6.38988 8.29334 6.41624C8.35545 6.44261 8.41166 6.48121 8.45864 6.52978C8.50562 6.57834 8.54242 6.63588 8.56686 6.69897C8.5913 6.76207 8.60289 6.82945 8.60093 6.89712L8.60099 7.28703C9.0188 7.36157 9.39658 7.58297 9.6667 7.9116C9.93682 8.24022 10.0817 8.65462 10.0753 9.08063C10.0715 9.21221 10.0167 9.33712 9.9227 9.42883C9.82866 9.52054 9.70271 9.57184 9.5716 9.57184C9.44049 9.57184 9.31453 9.52054 9.22045 9.42883C9.12638 9.33712 9.0716 9.21221 9.06774 9.08063C9.06296 8.96023 9.03361 8.8421 8.9815 8.73355C8.92938 8.62501 8.85563 8.52836 8.76479 8.4496C8.67396 8.37085 8.56798 8.31166 8.45344 8.2757C8.33889 8.23975 8.21821 8.22779 8.09889 8.24058C7.97953 8.22779 7.85884 8.23975 7.74428 8.2757C7.62973 8.31165 7.52374 8.37083 7.4329 8.44958C7.34206 8.52834 7.26829 8.62498 7.21617 8.73353C7.16405 8.84207 7.13468 8.96021 7.12988 9.08063C7.12998 9.65813 7.39235 9.76427 8.2036 9.94234C8.94925 10.1057 10.0755 10.3522 10.0758 11.8001C10.0825 12.226 9.9381 12.6405 9.66833 12.9693C9.39856 13.298 9.02104 13.5197 8.60335 13.5945L8.60341 13.9844C8.5996 14.116 8.54486 14.2409 8.45082 14.3326C8.35678 14.4243 8.23084 14.4756 8.09972 14.4756C7.96861 14.4756 7.84265 14.4243 7.74857 14.3326C7.6545 14.2409 7.59972 14.116 7.59586 13.9844L7.5958 13.5945C7.17808 13.5197 6.80049 13.298 6.53061 12.9693C6.26072 12.6405 6.11616 12.226 6.12279 11.8001C6.12661 11.6685 6.18134 11.5436 6.27539 11.4518C6.36943 11.3601 6.49537 11.3088 6.62648 11.3088C6.7576 11.3088 6.88356 11.3601 6.97763 11.4518C7.0717 11.5436 7.12648 11.6685 7.13034 11.8001C7.13518 11.9205 7.16459 12.0386 7.21675 12.1472C7.2689 12.2557 7.3427 12.3523 7.43357 12.4311C7.52444 12.5098 7.63044 12.569 7.74501 12.605C7.85958 12.6409 7.98028 12.6529 8.09963 12.6401C8.21889 12.6529 8.33949 12.641 8.45397 12.6051C8.56845 12.5692 8.67436 12.51 8.76516 12.4314C8.85595 12.3527 8.9297 12.2562 8.98182 12.1477C9.03395 12.0393 9.06335 11.9212 9.0682 11.8009ZM13.9838 11.8876C13.9838 11.8212 13.9968 11.7554 14.0221 11.6941C14.0474 11.6327 14.0845 11.577 14.1313 11.5301C14.178 11.4831 14.2335 11.4459 14.2946 11.4205C14.3557 11.3951 14.4212 11.382 14.4873 11.382H24.0925C24.226 11.382 24.3541 11.4352 24.4486 11.5301C24.543 11.6249 24.5961 11.7535 24.5961 11.8876C24.5961 12.0217 24.5431 12.1503 24.4487 12.2451C24.3543 12.3399 24.2262 12.3932 24.0926 12.3932H14.4875C14.354 12.3932 14.226 12.3399 14.1315 12.2452C14.0371 12.1505 13.984 12.022 13.9838 11.888L13.9838 11.8876Z" fill="#1D2940"/>
</svg>
