<svg width="70" height="59" viewBox="0 0 70 59" fill="none" xmlns="http://www.w3.org/2000/svg">
<path d="M19.0578 41.8895C19.0578 37.6654 20.7374 33.6143 23.7271 30.6274C26.7169 27.6405 30.7719 25.9625 35 25.9625C39.2281 25.9625 43.2831 27.6405 46.2729 30.6274C49.2626 33.6143 50.9422 37.6654 50.9422 41.8895M47.3533 31.3218C49.3565 29.807 51.7431 28.8806 54.2445 28.6471C56.746 28.4135 59.263 28.8819 61.5125 29.9997C63.7619 31.1175 65.6545 32.8402 66.9773 34.9741C68.3001 37.108 69.0006 39.5683 69 42.0783M22.6467 31.3218C20.6435 29.807 18.2569 28.8806 15.7555 28.6471C13.254 28.4135 10.737 28.8819 8.48753 29.9997C6.23807 31.1175 4.34547 32.8402 3.02268 34.9741C1.69988 37.108 0.999384 39.5683 1 42.0783M19.6874 46.494C20.6491 49.8118 22.6635 52.7278 25.4274 54.8029C28.1914 56.878 31.5552 58 35.0126 58C38.47 58 41.8338 56.878 44.5977 54.8029C47.3617 52.7278 49.3761 49.8118 50.3378 46.494M42.7444 8.42514C42.7444 12.69 39.2815 20.1503 35 20.1503C30.7185 20.1503 27.2556 12.7025 27.2556 8.42514C27.3362 6.42878 28.1867 4.54097 29.6291 3.15694C31.0714 1.77292 32.9938 1 34.9937 1C36.9936 1 38.916 1.77292 40.3583 3.15694C41.8007 4.54097 42.6512 6.42878 42.7318 8.42514H42.7444ZM62.0615 13.5454C62.0615 17.1561 59.1274 23.6099 55.5133 23.6099C51.8993 23.6099 48.9652 17.1058 48.9652 13.5454C48.9652 11.8088 49.6557 10.1432 50.8849 8.91517C52.1141 7.68714 53.7813 6.99725 55.5196 6.99725C57.258 6.99725 58.9251 7.68714 60.1543 8.91517C61.3835 10.1432 62.0741 11.8088 62.0741 13.5454H62.0615ZM7.93852 13.5454C7.93852 17.1561 10.8726 23.6099 14.4867 23.6099C18.1007 23.6099 21.0348 17.1058 21.0348 13.5454C21.0348 11.8088 20.3443 10.1432 19.1151 8.91517C17.8859 7.68714 16.2187 6.99725 14.4804 6.99725C12.742 6.99725 11.0749 7.68714 9.84568 8.91517C8.61648 10.1432 7.92593 11.8088 7.92593 13.5454H7.93852Z" stroke="white" stroke-width="2" stroke-linecap="round" stroke-linejoin="round"/>
</svg>
