<svg width="35" height="32" viewBox="0 0 35 32" fill="none" xmlns="http://www.w3.org/2000/svg">
<path d="M34.8555 16.151L32.0335 19.2215C31.9346 19.3289 31.7972 19.3926 31.6514 19.3987C31.6437 19.3994 31.6361 19.3997 31.6284 19.3995C31.4902 19.3994 31.3572 19.3473 31.2556 19.2538L27.9211 16.1833C27.8398 16.1083 27.7829 16.0105 27.7581 15.9026C27.7332 15.7948 27.7414 15.682 27.7817 15.5789C27.822 15.4759 27.8924 15.3874 27.9838 15.325C28.0752 15.2626 28.1833 15.2292 28.294 15.2292H29.4017C29.2754 12.5146 28.2233 9.92497 26.4202 7.89127C24.6171 5.85757 22.1719 4.50239 19.4913 4.05121C16.8107 3.60002 14.0564 4.08004 11.6867 5.41138C9.3169 6.74273 7.47456 8.84514 6.46615 11.3688C6.41194 11.5041 6.30622 11.6123 6.17223 11.6698C6.03823 11.7272 5.88692 11.7291 5.75153 11.675C5.61615 11.6209 5.50776 11.5154 5.45019 11.3815C5.39262 11.2476 5.39058 11.0963 5.4445 10.9609C6.56521 8.156 8.62823 5.82899 11.279 4.37983C13.9297 2.93067 17.0026 2.44988 19.9694 3.0201C22.9363 3.59031 25.6118 5.17592 27.5361 7.50438C29.4605 9.83284 30.5134 12.7587 30.5139 15.7791C30.5139 15.9249 30.4559 16.0648 30.3528 16.1679C30.2497 16.271 30.1098 16.3289 29.9639 16.3289H29.7023L31.5962 18.0728L33.1986 16.3289H32.7507C32.6784 16.3289 32.6069 16.3147 32.5402 16.2871C32.4734 16.2595 32.4128 16.219 32.3617 16.1679C32.3107 16.1168 32.2701 16.0562 32.2425 15.9895C32.2149 15.9228 32.2006 15.8513 32.2006 15.7791C32.2001 12.3808 31.0205 9.08787 28.8628 6.46196C26.7051 3.83605 23.703 2.03978 20.3686 1.3795C17.0341 0.719221 13.5739 1.23583 10.5778 2.84121C7.58184 4.4466 5.23568 7.04133 3.9395 10.1829C3.89784 10.2835 3.82727 10.3695 3.7367 10.4301C3.64614 10.4906 3.53966 10.523 3.43072 10.523C3.3589 10.523 3.2878 10.5088 3.22151 10.4812C3.08664 10.4256 2.97936 10.3188 2.92324 10.1842C2.86712 10.0496 2.86677 9.89825 2.92226 9.76338C4.29758 6.43016 6.77316 3.66829 9.93703 1.93736C13.1009 0.206438 16.7623 -0.389147 20.3118 0.249719C23.8614 0.888585 27.0851 2.72337 29.4465 5.44876C31.8078 8.17414 33.1645 11.6258 33.2907 15.2292H34.4505C34.5572 15.2294 34.6616 15.2606 34.7509 15.319C34.8402 15.3774 34.9106 15.4605 34.9535 15.5582C34.9965 15.6558 35.01 15.7639 34.9926 15.8692C34.9752 15.9744 34.9276 16.0724 34.8555 16.151ZM31.7787 21.5191C31.7126 21.4916 31.6416 21.4774 31.5699 21.4774C31.4608 21.4774 31.3542 21.5098 31.2636 21.5705C31.1729 21.6312 31.1024 21.7174 31.0608 21.8183C29.7644 24.9595 27.4181 27.554 24.4221 29.1591C21.4262 30.7642 17.966 31.2807 14.6317 30.6204C11.2974 29.9601 8.29551 28.1639 6.13783 25.5382C3.98014 22.9125 2.80034 19.6198 2.79959 16.2216C2.79959 16.0758 2.74165 15.9359 2.63851 15.8328C2.53538 15.7297 2.3955 15.6717 2.24963 15.6717H1.80164L3.40404 13.9279L5.29792 15.6717H5.03714C4.89126 15.6717 4.75137 15.7297 4.64822 15.8328C4.54508 15.9359 4.48712 16.0758 4.48711 16.2216C4.4877 19.2419 5.5406 22.1676 7.46486 24.496C9.38912 26.8244 12.0645 28.4099 15.0313 28.9801C17.998 29.5503 21.0708 29.0696 23.7215 27.6205C26.3721 26.1714 28.4351 23.8445 29.5559 21.0398C29.6094 20.9044 29.6071 20.7534 29.5495 20.6197C29.4919 20.486 29.3836 20.3806 29.2483 20.3266C29.1131 20.2727 28.962 20.2745 28.8281 20.3317C28.6942 20.3889 28.5885 20.4968 28.534 20.6318C27.5256 23.1554 25.6834 25.2577 23.3137 26.5889C20.944 27.9202 18.1898 28.4002 15.5094 27.949C12.8289 27.4978 10.3838 26.1427 8.58078 24.109C6.7778 22.0754 5.72566 19.4859 5.59943 16.7714H6.70632C6.81698 16.7714 6.92508 16.738 7.01647 16.6756C7.10786 16.6132 7.17829 16.5247 7.21856 16.4217C7.25882 16.3186 7.26705 16.2058 7.24215 16.098C7.21726 15.9902 7.16041 15.8924 7.07903 15.8175L3.74464 12.7465C3.64447 12.6535 3.51296 12.6014 3.3762 12.6008C3.36708 12.6008 3.35796 12.601 3.34883 12.6015C3.27664 12.6045 3.20574 12.6217 3.1402 12.6521C3.07466 12.6825 3.01575 12.7255 2.96683 12.7787L0.144738 15.8497C0.0725692 15.9283 0.0248496 16.0263 0.00739914 16.1316C-0.0100514 16.2369 0.00352138 16.345 0.0464622 16.4427C0.089403 16.5404 0.159856 16.6235 0.24923 16.6819C0.338603 16.7402 0.443036 16.7713 0.54979 16.7714H1.70957C1.83589 20.3748 3.19264 23.8263 5.55404 26.5515C7.91544 29.2768 11.1391 31.1115 14.6886 31.7503C18.2381 32.3891 21.8994 31.7936 25.0632 30.0627C28.227 28.3318 30.7026 25.5701 32.078 22.2369C32.1055 22.1702 32.1195 22.0986 32.1194 22.0264C32.1192 21.9542 32.1049 21.8827 32.0771 21.8161C32.0493 21.7494 32.0086 21.6889 31.9574 21.6379C31.9063 21.587 31.8455 21.5466 31.7787 21.5191ZM24.7133 12.0247C24.7181 12.0368 24.7222 12.0489 24.7267 12.0614C24.7459 12.1136 24.757 12.1685 24.7596 12.2241C24.7599 12.2318 24.764 12.238 24.764 12.2458V21.9033C24.7634 22.3396 24.5897 22.7579 24.2812 23.0664C23.9726 23.3749 23.5542 23.5485 23.1178 23.5491H11.9178C11.4813 23.5485 11.063 23.3749 10.7544 23.0664C10.4458 22.7579 10.2722 22.3396 10.2717 21.9033V12.2458C10.2717 12.238 10.2757 12.2318 10.2761 12.2241C10.2786 12.1685 10.2897 12.1136 10.3089 12.0613C10.3145 12.0457 10.3188 12.0306 10.3257 12.0157C10.3293 12.0078 10.3305 11.9993 10.3346 11.9915L12.5084 7.8282C12.63 7.59379 12.8137 7.39736 13.0395 7.26042C13.2654 7.12348 13.5245 7.05131 13.7886 7.05182H21.2469C21.511 7.05128 21.7702 7.12344 21.996 7.26039C22.2218 7.39734 22.4056 7.59378 22.5271 7.82821L24.701 11.9915C24.7051 11.9993 24.7063 12.0078 24.7099 12.0156C24.7113 12.0185 24.7121 12.0218 24.7133 12.0247ZM11.7291 11.6958H16.9674V11.061C16.9674 10.9888 16.9816 10.9173 17.0093 10.8505C17.0369 10.7838 17.0774 10.7232 17.1285 10.6722C17.1796 10.6211 17.2402 10.5806 17.3069 10.553C17.3736 10.5253 17.4452 10.5111 17.5174 10.5111C17.5896 10.5111 17.6611 10.5253 17.7279 10.553C17.7946 10.5806 17.8552 10.6211 17.9063 10.6722C17.9574 10.7232 17.9979 10.7838 18.0255 10.8505C18.0532 10.9173 18.0674 10.9888 18.0674 11.061V11.6958H23.3065L21.5529 8.33669C21.5238 8.28076 21.4798 8.23391 21.4258 8.20125C21.3719 8.16859 21.31 8.15138 21.2469 8.15149H18.0674V9.25535C18.0674 9.40117 18.0094 9.54103 17.9063 9.64415C17.8031 9.74726 17.6632 9.80519 17.5174 9.80519C17.3715 9.80519 17.2316 9.74726 17.1285 9.64415C17.0253 9.54103 16.9674 9.40117 16.9674 9.25535V8.15149H13.7886C13.7256 8.15131 13.6638 8.16851 13.6099 8.20118C13.556 8.23385 13.5122 8.28074 13.4833 8.33669L11.7291 11.6958ZM23.664 12.7955H18.0674V15.2852C18.0674 15.431 18.0094 15.5708 17.9063 15.674C17.8031 15.7771 17.6632 15.835 17.5174 15.835C17.3715 15.835 17.2316 15.7771 17.1285 15.674C17.0253 15.5708 16.9674 15.431 16.9674 15.2852V12.7955H11.3717V21.9033C11.3717 22.0481 11.4293 22.1869 11.5317 22.2893C11.6341 22.3917 11.7729 22.4493 11.9178 22.4493H23.1178C23.2626 22.4493 23.4015 22.3917 23.5039 22.2893C23.6063 22.1869 23.6639 22.0481 23.664 21.9033V12.7955ZM15.7262 17.533H13.3936C13.2478 17.533 13.1079 17.5909 13.0047 17.694C12.9016 17.7971 12.8436 17.937 12.8436 18.0828C12.8436 18.2286 12.9016 18.3685 13.0047 18.4716C13.1079 18.5747 13.2478 18.6327 13.3936 18.6327H15.7262C15.8721 18.6327 16.012 18.5747 16.1151 18.4716C16.2183 18.3685 16.2762 18.2286 16.2762 18.0828C16.2762 17.937 16.2183 17.7971 16.1151 17.694C16.012 17.5909 15.8721 17.533 15.7262 17.533ZM15.7262 19.8588H13.3936C13.2478 19.8588 13.1079 19.9167 13.0047 20.0199C12.9016 20.123 12.8436 20.2628 12.8436 20.4087C12.8436 20.5545 12.9016 20.6943 13.0047 20.7975C13.1079 20.9006 13.2478 20.9585 13.3936 20.9585H15.7262C15.8721 20.9585 16.012 20.9006 16.1151 20.7975C16.2183 20.6943 16.2762 20.5545 16.2762 20.4087C16.2762 20.2628 16.2183 20.123 16.1151 20.0199C16.012 19.9167 15.8721 19.8588 15.7262 19.8588Z" fill="white"/>
</svg>
