<svg width="20" height="20" viewBox="0 0 20 20" fill="none" xmlns="http://www.w3.org/2000/svg">
<path d="M16.235 14.7531L16.6769 15.1951L16.9306 14.9415L16.8395 14.5945L16.235 14.7531ZM11.3187 11.4561L10.9226 10.9726L10.9166 10.9776L10.9107 10.9827L11.3187 11.4561ZM8.9097 13.5323L8.5017 13.0589L8.2582 13.2688L8.2873 13.5889L8.9097 13.5323ZM7.38363 17.5L6.81466 17.7586C6.94701 18.0498 7.27784 18.1941 7.58126 18.0929L7.38363 17.5ZM5.85753 14.1427L6.4265 13.8841L6.32951 13.6707L6.11615 13.5737L5.85753 14.1427ZM14.4035 16.5842L13.8679 16.9064C13.9671 17.0712 14.1366 17.1812 14.3274 17.2046C14.5184 17.228 14.7094 17.1622 14.8454 17.0262L14.4035 16.5842ZM16.235 7.42827L16.6311 7.91173C16.6466 7.89899 16.6615 7.88552 16.6758 7.87134L16.235 7.42827ZM17.1507 2.85022L17.7094 2.5702L17.6164 2.3845L17.4307 2.29144L17.1507 2.85022ZM9.21495 16.8896L9.41261 17.4825C9.68778 17.3908 9.86361 17.1218 9.83736 16.833L9.21495 16.8896ZM5.24708 3.76584L5.40574 3.16132L5.05876 3.07025L4.80511 3.32393L5.24708 3.76584ZM8.54428 8.6818L9.0177 9.08989L9.02303 9.08372L9.0282 9.07739L8.54428 8.6818ZM6.46797 11.0907L6.41139 11.7131L6.73151 11.7422L6.94138 11.4987L6.46797 11.0907ZM2.50011 12.6167L1.90719 12.4191C1.80604 12.7225 1.9503 13.0534 2.2415 13.1857L2.50011 12.6167ZM3.4159 5.59721L2.97395 5.15529C2.83795 5.2913 2.77215 5.48235 2.79555 5.67325C2.81895 5.86416 2.92895 6.03366 3.09376 6.13279L3.4159 5.59721ZM12.5669 3.76039L12.125 3.31844C12.1102 3.33319 12.0962 3.34869 12.083 3.36485L12.5669 3.76039ZM3.11055 10.7855L3.16714 10.1631C2.8783 10.1368 2.60935 10.3127 2.51763 10.5879L3.11055 10.7855ZM14.1099 9.11839L15.6304 14.9118L16.8395 14.5945L15.3189 8.80105L14.1099 9.11839ZM10.9107 10.9827L8.5017 13.0589L9.31778 14.0057L11.7268 11.9296L10.9107 10.9827ZM7.9526 17.2413L6.4265 13.8841L5.28856 14.4014L6.81466 17.7586L7.9526 17.2413ZM14.9391 16.2621L11.8543 11.134L10.7832 11.7783L13.8679 16.9064L14.9391 16.2621ZM16.6758 7.87134C17.8923 6.66114 18.1657 5.33484 18.1204 4.31252C18.0982 3.80854 17.9994 3.38231 17.9058 3.08069C17.8588 2.9293 17.8126 2.80754 17.7769 2.72099C17.7589 2.67765 17.7436 2.64299 17.732 2.61767C17.7262 2.605 17.7214 2.59465 17.7175 2.58672C17.7156 2.58275 17.7139 2.57939 17.7126 2.57663C17.7119 2.57525 17.7114 2.57403 17.7108 2.57295C17.7105 2.57242 17.7103 2.57192 17.71 2.57146C17.7099 2.57124 17.7101 2.57158 17.71 2.57146C17.7099 2.57115 17.7094 2.5702 17.1507 2.85022C16.5919 3.13024 16.5918 3.12996 16.5916 3.12969C16.5916 3.12962 16.5917 3.12984 16.5916 3.12969C16.5914 3.12939 16.5911 3.12862 16.5909 3.12838C16.5917 3.12984 16.5932 3.133 16.5959 3.13878C16.6011 3.15034 16.61 3.17033 16.6215 3.19808C16.6444 3.25367 16.6774 3.33974 16.7119 3.45106C16.7813 3.67485 16.8551 3.99358 16.8717 4.36774C16.9041 5.10169 16.7197 6.06442 15.7942 6.98519L16.6758 7.87134ZM14.8454 17.0262L16.6769 15.1951L15.7931 14.3111L13.9616 16.1422L14.8454 17.0262ZM7.58126 18.0929L9.41261 17.4825L9.01728 16.2966L7.186 16.9071L7.58126 18.0929ZM9.83736 16.833L9.5322 13.4757L8.2873 13.5889L8.59253 16.9461L9.83736 16.833ZM11.1994 4.68189L5.40574 3.16132L5.08842 4.37037L10.8822 5.89094L11.1994 4.68189ZM8.0709 8.27379L5.99456 10.6826L6.94138 11.4987L9.0177 9.08989L8.0709 8.27379ZM2.2415 13.1857L5.59892 14.7117L6.11615 13.5737L2.75873 12.0477L2.2415 13.1857ZM3.09376 6.13279L8.22216 9.21739L8.86645 8.14626L3.73805 5.06163L3.09376 6.13279ZM13.0089 4.20234C13.9323 3.27899 14.8968 3.09546 15.6319 3.12851C16.0066 3.14536 16.3257 3.21939 16.5496 3.2889C16.661 3.32349 16.7471 3.3564 16.8028 3.37938C16.8305 3.39084 16.8505 3.39976 16.8621 3.40507C16.8679 3.40772 16.8715 3.40947 16.873 3.41017C16.8728 3.41005 16.872 3.40967 16.8717 3.40951C16.8715 3.40944 16.8718 3.40954 16.8717 3.40951C16.8714 3.40938 16.8707 3.40899 17.1507 2.85022C17.4307 2.29144 17.431 2.29159 17.4307 2.29144C17.4306 2.29139 17.4296 2.29093 17.4294 2.29082C17.4289 2.29059 17.4284 2.29034 17.4279 2.29008C17.4269 2.28954 17.4256 2.28894 17.4243 2.28826C17.4214 2.28691 17.4181 2.28528 17.4142 2.28337C17.4062 2.27956 17.3959 2.27468 17.3832 2.26887C17.3579 2.25726 17.3233 2.24192 17.2799 2.22403C17.1934 2.18829 17.0716 2.14209 16.9202 2.09509C16.6185 2.00146 16.1923 1.90244 15.6881 1.87978C14.6655 1.8338 13.3381 2.10536 12.125 3.31844L13.0089 4.20234ZM3.85787 6.03913L5.68905 4.20776L4.80511 3.32393L2.97395 5.15529L3.85787 6.03913ZM3.09304 12.8144L3.70348 10.9831L2.51763 10.5879L1.90719 12.4191L3.09304 12.8144ZM3.05397 11.408L6.41139 11.7131L6.52455 10.4683L3.16714 10.1631L3.05397 11.408ZM9.0282 9.07739L13.0509 4.15592L12.083 3.36485L8.06039 8.2863L9.0282 9.07739ZM11.7148 11.9396L16.6311 7.91173L15.8389 6.9448L10.9226 10.9726L11.7148 11.9396Z" fill="white"/>
</svg>
