<svg width="40" height="41" viewBox="0 0 40 41" fill="none" xmlns="http://www.w3.org/2000/svg">
<path d="M19.984 3.83203C10.784 3.83203 3.33398 11.2987 3.33398 20.4987C3.33398 29.6987 10.784 37.1654 19.984 37.1654C29.2007 37.1654 36.6673 29.6987 36.6673 20.4987C36.6673 11.2987 29.2007 3.83203 19.984 3.83203ZM20.0007 33.832C12.634 33.832 6.66732 27.8654 6.66732 20.4987C6.66732 13.132 12.634 7.16536 20.0007 7.16536C27.3673 7.16536 33.334 13.132 33.334 20.4987C33.334 27.8654 27.3673 33.832 20.0007 33.832ZM19.634 12.1654H19.534C18.8673 12.1654 18.334 12.6987 18.334 13.3654V21.232C18.334 21.8154 18.634 22.3654 19.1507 22.6654L26.0673 26.8154C26.634 27.1487 27.3673 26.982 27.7007 26.4154C27.7843 26.2804 27.84 26.13 27.8644 25.9731C27.8887 25.8162 27.8812 25.6559 27.8423 25.502C27.8034 25.348 27.734 25.2035 27.638 25.0769C27.5421 24.9504 27.4217 24.8444 27.284 24.7654L20.834 20.932V13.3654C20.834 12.6987 20.3006 12.1654 19.634 12.1654Z" fill="#141B2C"/>
</svg>
