<svg width="40" height="40" viewBox="0 0 40 40" fill="none" xmlns="http://www.w3.org/2000/svg">
<g id="ic:round-schedule">
<path id="Vector" d="M19.984 3.33203C10.784 3.33203 3.33398 10.7987 3.33398 19.9987C3.33398 29.1987 10.784 36.6654 19.984 36.6654C29.2007 36.6654 36.6673 29.1987 36.6673 19.9987C36.6673 10.7987 29.2007 3.33203 19.984 3.33203ZM20.0007 33.332C12.634 33.332 6.66732 27.3654 6.66732 19.9987C6.66732 12.632 12.634 6.66536 20.0007 6.66536C27.3673 6.66536 33.334 12.632 33.334 19.9987C33.334 27.3654 27.3673 33.332 20.0007 33.332ZM19.634 11.6654H19.534C18.8673 11.6654 18.334 12.1987 18.334 12.8654V20.732C18.334 21.3154 18.634 21.8654 19.1507 22.1654L26.0673 26.3154C26.634 26.6487 27.3673 26.482 27.7007 25.9154C27.7843 25.7804 27.84 25.63 27.8644 25.4731C27.8887 25.3162 27.8812 25.1559 27.8423 25.002C27.8034 24.848 27.734 24.7035 27.638 24.5769C27.5421 24.4504 27.4217 24.3444 27.284 24.2654L20.834 20.432V12.8654C20.834 12.1987 20.3006 11.6654 19.634 11.6654Z" fill="#080D06"/>
</g>
</svg>
