<svg width="20" height="20" viewBox="0 0 20 20" fill="none" xmlns="http://www.w3.org/2000/svg">
<path d="M11.1914 8.22266C10.7402 8.22266 10.3906 8.57227 10.3906 9.00391C10.3906 9.43555 10.7402 9.78516 11.1914 9.78516C11.6035 9.78516 11.9531 9.43555 11.9531 9.00391C11.9531 8.57227 11.6035 8.22266 11.1914 8.22266ZM5.72266 8.22266C5.27148 8.22266 4.92188 8.57227 4.92188 9.00391C4.92188 9.43555 5.27148 9.78516 5.72266 9.78516C6.13477 9.78516 6.48438 9.43555 6.48438 9.00391C6.48438 8.57227 6.13477 8.22266 5.72266 8.22266Z" fill="#1D2940"/>
<path d="M17.4607 6.73818C16.5212 5.44912 15.2087 4.58779 13.7693 4.19912V4.20107C13.4353 3.82998 13.0583 3.48818 12.6365 3.18349C9.43919 0.859272 4.95091 1.56826 2.61693 4.76552C0.736067 7.36318 0.816146 10.8573 2.73411 13.3397L2.74974 15.9296C2.74974 15.9921 2.7595 16.0546 2.77904 16.1132C2.88255 16.4433 3.23411 16.6249 3.56224 16.5214L6.03489 15.7421C6.68919 15.9745 7.36497 16.1073 8.03685 16.1444L8.02708 16.1522C9.76732 17.4198 12.0486 17.8007 14.1404 17.1093L16.6228 17.9179C16.6853 17.9374 16.7497 17.9491 16.8161 17.9491C17.1618 17.9491 17.4411 17.6698 17.4411 17.3241V14.7069C19.1618 12.371 19.2068 9.14248 17.4607 6.73818ZM6.30833 14.3554L6.07396 14.2577L4.14036 14.8632L4.12083 12.8319L3.96458 12.6561C2.31224 10.6405 2.20286 7.73623 3.74974 5.60537C5.63255 3.02333 9.24193 2.45302 11.8161 4.3163C14.3982 6.19326 14.9704 9.79677 13.1052 12.3632C11.5408 14.5097 8.73997 15.3026 6.30833 14.3554ZM16.1716 14.0233L16.0154 14.2186L16.0349 16.2499L14.1208 15.6054L13.8865 15.703C12.7927 16.1093 11.6267 16.1425 10.5466 15.8397L10.5427 15.8378C11.9861 15.3944 13.2947 14.496 14.238 13.203C15.7302 11.1464 15.9724 8.5624 15.1052 6.35927L15.1169 6.36708C15.5661 6.68935 15.9783 7.09169 16.3279 7.57802C17.7458 9.52333 17.6658 12.1718 16.1716 14.0233Z" fill="#1D2940"/>
<path d="M8.45703 8.22266C8.00586 8.22266 7.65625 8.57227 7.65625 9.00391C7.65625 9.43555 8.00586 9.78516 8.45703 9.78516C8.86914 9.78516 9.21875 9.43555 9.21875 9.00391C9.21875 8.57227 8.86914 8.22266 8.45703 8.22266Z" fill="#1D2940"/>
</svg>
