<svg width="48" height="48" viewBox="0 0 48 48" fill="none" xmlns="http://www.w3.org/2000/svg">
<g clip-path="url(#clip0_4839_1003)">
<path fill-rule="evenodd" clip-rule="evenodd" d="M21.5185 21.8554L18.2842 18.6211L18.0742 18.8311L13.8301 22.7424L17.3966 26.3089L21.2937 22.0801L21.5185 21.8554Z" fill="#E2C4FF" fill-opacity="0.1"/>
<path fill-rule="evenodd" clip-rule="evenodd" d="M25.0438 34.6055H46.0859C47.138 34.6055 47.9988 35.4663 47.9988 36.5184V46.083C47.9988 47.1351 47.138 47.9959 46.0859 47.9959H25.0438C23.9917 47.9959 23.1309 47.1351 23.1309 46.083V36.5185C23.1309 35.4663 23.9917 34.6055 25.0438 34.6055Z" fill="#E2C4FF" fill-opacity="0.1"/>
<path d="M27.9427 30.8248C28.1827 30.8248 28.4225 30.7332 28.6056 30.5502L39.8633 19.2925C40.2263 18.9434 40.2263 18.3158 39.8633 17.9667L36.6468 14.7503C36.2806 14.3843 35.6873 14.3843 35.321 14.7503L35.1798 14.8915L25.2479 4.95963L25.3891 4.81845C25.7551 4.45239 25.7551 3.85882 25.3891 3.49266L22.1726 0.276202C21.8235 -0.086859 21.1959 -0.086859 20.8468 0.276202L9.58923 11.5338C9.22317 11.8999 9.22317 12.4934 9.58923 12.8596L12.8057 16.0761C13.1548 16.4391 13.7824 16.4391 14.1315 16.0761L14.2727 15.9349L16.9399 18.6021L1.25382 33.0578C-1.46853 35.63 0.563787 40.2255 4.26874 40.1342C5.36111 40.1119 6.36011 39.6684 7.08155 38.8855L21.5372 23.1995L24.2046 25.8668L24.0634 26.008C23.7003 26.3572 23.7003 26.9846 24.0634 27.3338L27.2799 30.5502C27.4629 30.7332 27.7028 30.8248 27.9427 30.8248ZM11.5778 12.1968L21.5097 2.26484L23.4005 4.1556L13.4685 14.0875L11.5778 12.1968ZM5.70289 37.615C5.33055 38.019 4.80766 38.2479 4.2304 38.2597C3.60336 38.271 2.99207 38.0274 2.55195 37.5873C2.11193 37.1474 1.86689 36.5355 1.87964 35.9091C1.89136 35.3318 2.12037 34.8089 2.52439 34.4365L18.2666 19.9289L20.2103 21.8728L5.70289 37.615ZM15.5984 14.6092L23.9222 6.28541L33.8541 16.2174L25.5304 24.5411L15.5984 14.6092ZM35.9839 16.739L37.8746 18.6297L27.9427 28.5616L26.0519 26.6708L35.9839 16.739Z" fill="white"/>
<path d="M35.4402 37.4961C33.8685 37.4961 32.5898 38.7748 32.5898 40.3464V44.1722C32.636 45.4146 34.4189 45.4137 34.4647 44.1722V43.1966H36.4157V44.1722C36.4618 45.4146 38.2448 45.4137 38.2905 44.1722V40.3464C38.2905 38.7747 37.0118 37.4961 35.4402 37.4961ZM36.4157 41.3218H34.4647V40.3464C34.5138 39.0537 36.3671 39.0547 36.4157 40.3464V41.3218Z" fill="white"/>
<path d="M43.1616 41.3031L44.5599 38.9061C44.8208 38.4588 44.6698 37.8848 44.2225 37.624C43.7753 37.363 43.2012 37.5142 42.9404 37.9614L42.0763 39.4427L41.2122 37.9614C40.9515 37.5144 40.3778 37.3632 39.9301 37.624C39.4828 37.8848 39.3318 38.4588 39.5927 38.9061L40.991 41.3031L39.5927 43.7C39.3318 44.1473 39.4828 44.7213 39.9301 44.9821C40.3695 45.2408 40.9498 45.096 41.2122 44.6448L42.0763 43.1635L42.9404 44.6448C43.2028 45.096 43.783 45.2406 44.2225 44.9821C44.6698 44.7213 44.8208 44.1473 44.5599 43.7L43.1616 41.3031Z" fill="white"/>
<path d="M30.7303 37.4961H27.3827C26.1402 37.5422 26.1411 39.3252 27.3827 39.3709H28.119V44.1723C28.1651 45.4147 29.9481 45.4138 29.9938 44.1723V39.3709H30.7302C31.9726 39.3247 31.9717 37.5417 30.7303 37.4961Z" fill="white"/>
</g>
<defs>
<clipPath id="clip0_4839_1003">
<rect width="48" height="48" fill="white"/>
</clipPath>
</defs>
</svg>
