<svg width="20" height="20" viewBox="0 0 20 20" fill="none" xmlns="http://www.w3.org/2000/svg">
<g id="ant-design:file-pdf-outlined">
<path id="Vector" d="M10.377 11.2188L10.3828 11.1914C10.4961 10.7246 10.6387 10.1426 10.5273 9.61523C10.4531 9.19922 10.1465 9.03711 9.88477 9.02539C9.57617 9.01172 9.30078 9.1875 9.23242 9.44336C9.10352 9.91211 9.21875 10.5527 9.42969 11.3691C9.16406 12.002 8.74023 12.9219 8.42969 13.4688C7.85156 13.7676 7.07617 14.2285 6.96094 14.8105C6.9375 14.918 6.96484 15.0547 7.0293 15.1777C7.10156 15.3145 7.2168 15.4199 7.35156 15.4707C7.41016 15.4922 7.48047 15.5098 7.5625 15.5098C7.90625 15.5098 8.46289 15.2324 9.20508 13.959C9.31836 13.9219 9.43555 13.8828 9.54883 13.8438C10.0801 13.6641 10.6309 13.4766 11.1289 13.3926C11.6797 13.6875 12.3066 13.877 12.7324 13.877C13.1543 13.877 13.3203 13.627 13.3828 13.4766C13.4922 13.2129 13.4395 12.8809 13.2617 12.7031C13.0039 12.4492 12.377 12.3828 11.4004 12.5039C10.9199 12.2109 10.6055 11.8125 10.377 11.2188ZM8.23438 14.1855C7.96289 14.5801 7.75781 14.7773 7.64648 14.8633C7.77734 14.623 8.0332 14.3691 8.23438 14.1855ZM9.94531 9.58594C10.0469 9.75977 10.0332 10.2852 9.95508 10.5508C9.85938 10.1621 9.8457 9.61133 9.90234 9.54688C9.91797 9.54883 9.93164 9.56055 9.94531 9.58594ZM9.91406 11.9395C10.123 12.3008 10.3867 12.6113 10.6777 12.8418C10.2559 12.9375 9.87109 13.0957 9.52734 13.2363C9.44531 13.2695 9.36523 13.3027 9.28711 13.334C9.54688 12.8633 9.76367 12.3301 9.91406 11.9395ZM12.9531 13.2188C12.9551 13.2227 12.957 13.2285 12.9453 13.2363H12.9414L12.9375 13.2422C12.9219 13.252 12.7617 13.3457 12.0723 13.0742C12.8652 13.0371 12.9512 13.2168 12.9531 13.2188ZM16.6914 5.63672L12.4883 1.43359C12.3711 1.31641 12.2129 1.25 12.0469 1.25H3.75C3.4043 1.25 3.125 1.5293 3.125 1.875V18.125C3.125 18.4707 3.4043 18.75 3.75 18.75H16.25C16.5957 18.75 16.875 18.4707 16.875 18.125V6.08008C16.875 5.91406 16.8086 5.75391 16.6914 5.63672ZM15.4336 6.36719H11.7578V2.69141L15.4336 6.36719ZM15.4688 17.3438H4.53125V2.65625H10.4297V6.875C10.4297 7.09256 10.5161 7.30121 10.67 7.45505C10.8238 7.60889 11.0324 7.69531 11.25 7.69531H15.4688V17.3438Z" fill="#1D2940"/>
</g>
</svg>
