<svg width="18" height="12" viewBox="0 0 18 12" fill="none" xmlns="http://www.w3.org/2000/svg">
<path d="M17.9602 0.358832C17.9448 0.320948 17.9255 0.284611 17.9023 0.250374C17.8932 0.227657 17.8824 0.205518 17.8702 0.184094C17.8104 0.128416 17.7434 0.0798478 17.6709 0.0394834L17.5617 0.00333073H0.605447C0.560578 -0.00111024 0.515335 -0.00111024 0.470466 0.00333073L0.361196 0.0394834C0.327187 0.0568061 0.294918 0.0769728 0.26478 0.0997378C0.22995 0.122786 0.197653 0.149026 0.168365 0.178069C0.156131 0.199486 0.145396 0.221625 0.136227 0.244348C0.0682487 0.30901 0.0214137 0.390547 0.00124536 0.479341C-0.000415122 0.503418 -0.000415122 0.52757 0.00124536 0.551647V11.3975C0.00124536 11.5573 0.0689654 11.7105 0.189508 11.8235C0.31005 11.9365 0.473541 12 0.644014 12H17.356C17.5265 12 17.6899 11.9365 17.8105 11.8235C17.931 11.7105 17.9988 11.5573 17.9988 11.3975V0.551647C18.0004 0.52757 18.0004 0.503418 17.9988 0.479341C17.9904 0.43802 17.9775 0.39763 17.9602 0.358832ZM15.4662 1.15419L9 5.81789L2.53375 1.15419H15.4662ZM16.7132 10.7949H1.28678V1.75674L8.60791 7.03503C8.7203 7.11614 8.85816 7.16012 9 7.16012C9.14184 7.16012 9.2797 7.11614 9.39209 7.03503L16.7132 1.75674V10.7949Z" fill="white"/>
</svg>
