<svg width="39" height="48" viewBox="0 0 39 48" fill="none" xmlns="http://www.w3.org/2000/svg">
<path d="M5.63008 41.5103C5.59068 41.0758 5.90591 40.6906 6.33935 40.6511C6.77279 40.6116 7.14712 40.9276 7.18653 41.3622C7.25548 42.1622 8.72327 42.6165 9.5606 41.9251C9.76747 41.7572 9.89553 41.5301 9.89553 41.293C9.89553 40.6017 9.14686 40.4536 8.38834 40.3153C6.99936 40.0486 5.61038 39.7721 5.61038 37.7869C5.61038 36.5524 6.57577 35.624 7.73818 35.3376V34.8635C7.73818 34.4191 8.08296 34.0734 8.54595 34.0734C8.98925 34.0734 9.34388 34.4388 9.33403 34.8734L9.32418 35.3277C10.4964 35.6141 11.4717 36.5425 11.4717 37.7869C11.4717 38.2215 11.117 38.577 10.6836 38.577C10.2502 38.577 9.89553 38.2215 9.89553 37.7869C9.89553 36.9376 8.37849 36.4536 7.52146 37.1548C7.31459 37.3326 7.18653 37.5499 7.18653 37.7869C7.18653 38.4783 7.9352 38.6165 8.69372 38.7647C10.0827 39.0412 11.4815 39.3079 11.4815 41.293C11.4815 42.5276 10.5063 43.4658 9.33403 43.7424L9.32418 44.2164C9.32418 44.651 8.96954 45.0065 8.5361 45.0065C8.10266 45.0065 7.74803 44.651 7.74803 44.2164V43.7523C6.66443 43.4856 5.73844 42.656 5.63008 41.5103ZM8.5558 31.1006C9.43254 31.1006 10.2797 31.2389 11.0678 31.4858C9.43254 27.9303 10.2108 23.7625 12.9395 21.0169C14.4467 19.5058 16.4661 18.5182 18.7121 18.3305V15.1997C17.1754 15.3479 15.678 15.9207 14.5846 16.9379C14.4368 17.0762 14.2398 17.1454 14.0526 17.1454H11.0185C10.792 17.1454 10.5949 17.0565 10.4472 16.9083C9.85613 16.375 9.12716 15.9306 8.28983 15.6343C6.02412 14.8047 3.21661 15.0614 1.23658 16.4639C0.606117 16.9083 -0.241062 16.2664 0.0643165 15.5059C1.5124 11.6936 4.182 8.42453 7.62982 6.13322C10.792 4.03943 14.5944 2.7555 18.7121 2.60736V0.790108C18.7121 0.355549 19.0667 0 19.5002 0C19.9336 0 20.2882 0.355549 20.2882 0.790108V2.59748C24.4059 2.74563 28.2084 4.02955 31.3705 6.12334C34.8282 8.42453 37.5076 11.6936 38.9459 15.5256C39.2217 16.2466 38.3844 16.8886 37.7638 16.454C35.1139 14.5874 30.9075 14.7355 28.5236 16.9281C28.3758 17.0663 28.1788 17.1355 27.9917 17.1355H24.9576C24.7409 17.1355 24.534 17.0466 24.3862 16.8984C23.7952 16.3651 23.0662 15.9207 22.2289 15.6244C21.628 15.4071 20.9778 15.259 20.2882 15.1898V18.3206C26.3269 18.8342 30.2672 24.9477 28.2576 30.676H34.2273C34.6607 30.676 35.0154 31.0315 35.0154 31.4661V35.2388C35.0154 35.6438 34.7198 35.9697 34.3357 36.0191V38.2116H34.8972C35.3306 38.2116 35.6852 38.5672 35.6852 39.0017V42.7745C35.6852 43.2091 35.3306 43.5646 34.8972 43.5646H34.3357V46.5374C34.3357 46.9719 33.981 47.3275 33.5476 47.3275H12.9099C12.6932 47.3275 12.4863 47.2386 12.3484 47.0905C9.08775 48.7497 5.15724 48.088 2.596 45.5201C-0.694204 42.2214 -0.694204 36.8684 2.596 33.5697C4.12289 32.0389 6.23099 31.1006 8.5558 31.1006ZM16.3577 36.345C16.604 36.9376 16.7813 37.5598 16.8798 38.2116H20.6626V36.819C19.1948 37.0067 17.7172 36.8388 16.3577 36.345ZM16.9783 39.7918C16.9586 40.5523 16.8404 41.2832 16.6237 41.9745H22.879V39.7918H16.9783ZM15.9735 43.5646C15.5303 44.3843 14.9589 45.1251 14.2792 45.7473H20.6626V43.5646H15.9735ZM13.4025 34.6858C10.723 31.9994 6.3886 31.9994 3.70915 34.6858C1.02971 37.3721 1.02971 41.7177 3.70915 44.4041C6.3886 47.0905 10.723 47.0905 13.4025 44.4041C16.0721 41.7177 16.0721 37.3721 13.4025 34.6858ZM15.3037 27.2884C15.087 26.9131 15.215 26.4291 15.5894 26.2118C15.9637 25.9946 16.4464 26.123 16.6631 26.4983L18.0915 28.9772L23.5095 24.2958C23.8346 24.0094 24.337 24.0489 24.6128 24.3748C24.8985 24.7008 24.8591 25.2045 24.534 25.4909L18.4166 30.7747C18.0225 31.1303 17.4413 31.0216 17.1951 30.5969L15.3037 27.2884ZM27.5287 32.2562C27.0558 33.066 26.4648 33.8068 25.7752 34.4389H33.4392V32.2562H27.5287ZM23.4208 36.0289C23.0367 36.2067 22.6426 36.3549 22.2387 36.4833V38.2116H23.5588V36.0289H23.4208ZM24.9477 22.1329C23.7262 20.9082 22.1008 20.0984 20.2882 19.9107V20.7403C20.2882 21.1749 19.9336 21.5305 19.5002 21.5305C19.0667 21.5305 18.7121 21.1749 18.7121 20.7403V19.9107C14.8111 20.3058 11.7968 23.6144 11.7968 27.5945C11.7968 31.8611 15.2446 35.3178 19.5002 35.3178C22.4653 35.3178 25.0462 33.6487 26.3564 31.1105C27.8932 28.1476 27.2922 24.4835 24.9477 22.1329ZM12.8213 13.6491C12.772 14.0837 12.3878 14.3997 11.9544 14.3503C11.5209 14.301 11.2057 13.9158 11.255 13.4812C11.6293 9.8566 13.5699 6.63691 16.4267 4.3851C10.4866 5.28385 5.19664 8.83934 2.41869 14.0837C4.46768 13.3726 6.79249 13.3923 8.83163 14.1331C9.76747 14.4787 10.6146 14.9627 11.3042 15.5454H13.7571C14.4565 14.9528 15.2938 14.4689 16.2395 14.1331C18.3181 13.3726 20.6921 13.3726 22.7707 14.1331C23.7065 14.4787 24.5537 14.9627 25.2531 15.5454H27.706C28.4054 14.9528 29.2427 14.4689 30.1884 14.1331C32.2177 13.3923 34.5425 13.3726 36.5915 14.0837C33.8136 8.82946 28.5236 5.28385 22.5835 4.3851C25.4304 6.63691 27.3809 9.8566 27.7552 13.4812C27.8045 13.9158 27.4893 14.301 27.0558 14.3503C26.6224 14.3997 26.2382 14.0837 26.1988 13.6491C25.7752 9.59982 23.1352 6.19247 19.5199 4.26659C15.8849 6.19247 13.2448 9.58994 12.8213 13.6491ZM25.8048 43.5646V45.7473H32.7595V43.5646H25.8048ZM24.2286 45.7473V43.5646H22.2387V45.7473H24.2286ZM24.4552 39.7918V41.9745H34.1189V39.7918H24.4552ZM25.125 36.0289V38.2116H32.7595V36.0289H25.125Z" fill="#86B03C"/>
</svg>
