<svg width="40" height="41" viewBox="0 0 40 41" fill="none" xmlns="http://www.w3.org/2000/svg">
<g clip-path="url(#clip0_6089_8657)">
<path d="M11.2914 35.6013C10.4158 35.9284 9.46471 35.9975 8.55097 35.8006C7.63722 35.6037 6.79908 35.1489 6.13586 34.4902C5.67881 34.0388 5.31658 33.5005 5.07044 32.9071C4.8243 32.3137 4.69922 31.6771 4.70253 31.0347C4.70744 30.5831 4.77474 30.1345 4.90253 29.7013C4.42084 28.8005 4.04786 27.8457 3.79142 26.8569C2.7703 28.2653 2.30089 29.9992 2.472 31.7304C2.64311 33.4616 3.44288 35.07 4.71996 36.2513C5.99704 37.4325 7.66282 38.1047 9.40208 38.1405C11.1413 38.1764 12.8334 37.5734 14.1581 36.4458C13.1729 36.2769 12.2108 35.9935 11.2914 35.6013ZM20.4581 31.1236C18.8528 32.0184 16.9996 32.3657 15.1792 32.1131C13.3588 31.8605 11.6702 31.0217 10.3692 29.7236C9.06955 28.4284 8.22842 26.7442 7.97371 24.9271C7.719 23.1101 8.06464 21.2595 8.95808 19.6569C8.71476 18.6179 8.57702 17.5569 8.54697 16.4902C6.65629 18.5074 5.6246 21.181 5.67022 23.9453C5.71585 26.7096 6.8352 29.3477 8.79142 31.3013C10.7529 33.2513 13.3933 34.366 16.1588 34.4116C18.9243 34.4572 21.6 33.4301 23.6247 31.5458C22.5578 31.5106 21.497 31.3692 20.4581 31.1236Z" fill="white"/>
<path d="M24.0651 29.4924C20.9552 29.4878 17.9432 28.4052 15.5419 26.4291C13.1406 24.4529 11.4987 21.7054 10.8958 18.6546C10.2928 15.6037 10.7662 12.4382 12.2352 9.6972C13.7042 6.95617 16.078 4.80917 18.9523 3.62189C21.8266 2.43461 25.0236 2.28048 27.9987 3.18575C30.9739 4.09103 33.5433 5.99971 35.2691 8.58671C36.995 11.1737 37.7707 14.279 37.464 17.3737C37.1573 20.4684 35.7873 23.3611 33.5873 25.5591C32.3363 26.8081 30.8514 27.7983 29.2176 28.4732C27.5837 29.1481 25.8329 29.4944 24.0651 29.4924ZM24.0651 4.81462C22.589 4.81316 21.127 5.10264 19.7629 5.66651C18.3987 6.23039 17.159 7.05759 16.1147 8.10085C15.0704 9.14411 14.242 10.383 13.6768 11.7466C13.1116 13.1102 12.8206 14.5718 12.8206 16.0479C12.8209 17.5255 13.1158 18.9882 13.6881 20.3504C14.2605 21.7126 15.0988 22.947 16.154 23.9813C18.2626 26.0894 21.1223 27.2737 24.104 27.2737C27.0857 27.2737 29.9453 26.0894 32.054 23.9813C33.6244 22.407 34.6922 20.4021 35.1223 18.2204C35.5523 16.0388 35.3252 13.7786 34.4697 11.7261C33.6142 9.67362 32.1688 7.92122 30.3166 6.69085C28.4644 5.46048 26.2887 4.8075 24.0651 4.81462Z" fill="white"/>
</g>
<defs>
<clipPath id="clip0_6089_8657">
<rect width="40" height="40" fill="white" transform="translate(0 0.369141)"/>
</clipPath>
</defs>
</svg>
