<svg width="40" height="41" viewBox="0 0 40 41" fill="none" xmlns="http://www.w3.org/2000/svg">
<path d="M18 8.36906C16.474 8.36906 15.05 8.79506 13.836 9.53706C13.7105 8.86588 13.4818 8.2182 13.158 7.61706C14.6806 6.77446 16.3967 6.34378 18.1367 6.36757C19.8768 6.39136 21.5805 6.86881 23.0794 7.75273C24.5784 8.63664 25.8208 9.89643 26.6838 11.4076C27.5467 12.9187 28.0004 14.6289 28 16.3691H33.002C33.7973 16.3696 34.5599 16.6859 35.122 17.2484C35.6842 17.811 36 18.5738 36 19.3691V31.3691C36 32.1647 35.6839 32.9278 35.1213 33.4904C34.5587 34.053 33.7956 34.3691 33 34.3691H21C20.2044 34.3691 19.4413 34.053 18.8787 33.4904C18.3161 32.9278 18 32.1647 18 31.3691V26.3691C16.6088 26.3708 15.2326 26.0813 13.96 25.5191C13.986 24.8391 14 24.1251 14 23.3691V23.2991C15.176 23.9791 16.542 24.3691 18 24.3691V19.3691C18 18.5734 18.3161 17.8103 18.8787 17.2477C19.4413 16.6851 20.2044 16.3691 21 16.3691H26C26 14.2473 25.1571 12.2125 23.6569 10.7122C22.1566 9.21192 20.1217 8.36906 18 8.36906ZM27.8 18.3691C27.4066 20.2902 26.4577 22.0535 25.0711 23.4401C23.6844 24.8268 21.9211 25.7757 20 26.1691V31.3691C20 31.6343 20.1054 31.8886 20.2929 32.0762C20.4804 32.2637 20.7348 32.3691 21 32.3691H33C33.2652 32.3691 33.5196 32.2637 33.7071 32.0762C33.8946 31.8886 34 31.6343 34 31.3691V19.3691C34 19.1038 33.8946 18.8495 33.7071 18.662C33.5196 18.4744 33.2652 18.3691 33 18.3691H27.8ZM25.748 18.3691H21C20.7348 18.3691 20.4804 18.4744 20.2929 18.662C20.1054 18.8495 20 19.1038 20 19.3691V24.1171C21.3836 23.7586 22.6462 23.0366 23.6569 22.0259C24.6676 21.0153 25.3895 19.7527 25.748 18.3691ZM9.162 4.61906C9.32801 4.76426 9.44135 4.96028 9.4844 5.17658C9.52744 5.39289 9.49777 5.61737 9.4 5.81506C9.38307 5.87357 9.37432 5.93415 9.374 5.99506C9.374 6.12106 9.406 6.36106 9.708 6.66106C9.854 6.80706 9.966 6.91106 10.088 7.02506C10.188 7.11706 10.294 7.21306 10.428 7.34506C10.688 7.59306 10.962 7.88506 11.208 8.25106C11.718 9.01706 12 9.97506 12 11.3691C12 13.0751 11.368 14.5291 10.382 15.4211L10.51 15.5691C11.07 16.2571 11.396 17.1491 11.6 18.0291C12 19.7691 12 21.8611 12 23.3191V23.3691C12 28.9431 11.242 32.1051 10.408 33.9131C9.988 34.8231 9.542 35.4031 9.156 35.7671C8.99907 35.9176 8.82603 36.0504 8.64 36.1631C8.55482 36.2143 8.4659 36.2591 8.374 36.2971C8.374 36.2971 8.148 36.3691 8 36.3691C7.852 36.3691 7.626 36.2971 7.626 36.2971C7.5331 36.2614 7.44399 36.2165 7.36 36.1631C7.17398 36.0504 7.00093 35.9176 6.844 35.7671C6.458 35.4011 6.012 34.8231 5.592 33.9131C4.758 32.1051 4 28.9431 4 23.3691V23.3191C4 21.8591 4 19.7691 4.4 18.0291C4.604 17.1491 4.93 16.2571 5.49 15.5691C5.53 15.5191 5.574 15.4691 5.618 15.4211C4.632 14.5291 4 13.0751 4 11.3691C4 10.7171 4.174 9.93906 4.414 9.22106C4.654 8.50106 4.99 7.75706 5.378 7.15706C5.84 6.37706 6.49 5.72306 6.994 5.28306C7.27032 5.04005 7.55868 4.8111 7.858 4.59706L7.918 4.55706L7.936 4.54306L7.942 4.53906L7.946 4.53706C8.12939 4.41481 8.34803 4.35658 8.56794 4.37141C8.78784 4.38624 8.99668 4.4733 9.162 4.61906ZM8 14.3691C8.774 14.3671 10 13.5091 10 11.3691C10 10.2631 9.782 9.72106 9.542 9.36106C9.39608 9.15079 9.22776 8.95699 9.04 8.78306L8.792 8.55106C8.63 8.39906 8.44 8.22306 8.292 8.07706C8.07326 7.8606 7.88548 7.61494 7.734 7.34706C7.47942 7.61474 7.25538 7.90989 7.066 8.22706C6.786 8.65706 6.514 9.24706 6.312 9.85506C6.104 10.4751 6 11.0231 6 11.3691C6 13.5131 7.23 14.3691 8 14.3691ZM7.04 16.8331C6.756 17.1791 6.52 17.7311 6.348 18.4791C6.004 19.9751 6 21.8551 6 23.3691C6 28.7951 6.742 31.6331 7.408 33.0751C7.628 33.5491 7.834 33.8651 8 34.0751C8.2363 33.7664 8.43503 33.4307 8.592 33.0751C9.258 31.6331 10 28.7951 10 23.3691C10 21.8551 9.996 19.9751 9.65 18.4791C9.478 17.7311 9.242 17.1791 8.96 16.8331C8.84968 16.6836 8.70463 16.5632 8.53736 16.4824C8.3701 16.4015 8.18567 16.3626 8 16.3691H7.996C7.81098 16.3631 7.62728 16.4023 7.46074 16.4831C7.2942 16.5639 7.14981 16.684 7.04 16.8331Z" fill="white"/>
</svg>
