<svg width="45" height="41" viewBox="0 0 45 41" fill="none" xmlns="http://www.w3.org/2000/svg">
<path d="M42.55 20.858C42.55 8.65803 33.178 0.369141 22.75 0.369141C12.432 0.369141 2.95 8.48025 2.95 20.9914C1.63 21.7469 0.75 23.1691 0.75 24.8136V29.258C0.75 31.7025 2.73 33.7025 5.15 33.7025H7.35V20.1469C7.35 11.5469 14.236 4.59136 22.75 4.59136C31.264 4.59136 38.15 11.5469 38.15 20.1469V35.9247H20.55V40.3691H38.15C40.57 40.3691 42.55 38.3691 42.55 35.9247V33.2136C43.848 32.5247 44.75 31.1691 44.75 29.5691V24.458C44.75 22.9025 43.848 21.5469 42.55 20.858Z" fill="white"/>
<path d="M16.1492 24.8136C17.3642 24.8136 18.3492 23.8187 18.3492 22.5914C18.3492 21.3641 17.3642 20.3691 16.1492 20.3691C14.9342 20.3691 13.9492 21.3641 13.9492 22.5914C13.9492 23.8187 14.9342 24.8136 16.1492 24.8136Z" fill="white"/>
<path d="M29.3523 24.8136C30.5674 24.8136 31.5523 23.8187 31.5523 22.5914C31.5523 21.3641 30.5674 20.3691 29.3523 20.3691C28.1373 20.3691 27.1523 21.3641 27.1523 22.5914C27.1523 23.8187 28.1373 24.8136 29.3523 24.8136Z" fill="white"/>
<path d="M35.9506 18.2139C35.426 15.0898 33.8241 12.2538 31.4284 10.2081C29.0327 8.16235 25.9977 7.03873 22.8606 7.03613C16.1946 7.03613 9.02262 12.6139 9.59462 21.3695C12.3075 20.2481 14.7036 18.4661 16.5691 16.1823C18.4347 13.8985 19.7118 11.1839 20.2866 8.28058C23.1686 14.125 29.0866 18.1472 35.9506 18.2139Z" fill="white"/>
</svg>
