<svg width="40" height="41" viewBox="0 0 40 41" fill="none" xmlns="http://www.w3.org/2000/svg">
<path d="M17.0773 4.37379C16.9253 4.14627 16.7196 3.95972 16.4783 3.83065C16.237 3.70158 15.9676 3.63397 15.694 3.63379H3.31901C2.87698 3.63379 2.45306 3.80938 2.1405 4.12194C1.82794 4.43451 1.65234 4.85843 1.65234 5.30046V35.4371C1.65233 35.8231 1.78631 36.1972 2.03141 36.4954C2.27651 36.7936 2.61753 36.9975 2.99624 37.0723C3.37494 37.147 3.76786 37.088 4.1079 36.9053C4.44793 36.7226 4.714 36.4275 4.86068 36.0705L17.2357 5.93546C17.3393 5.68239 17.379 5.40773 17.3514 5.13567C17.3238 4.86362 17.2297 4.60087 17.0773 4.37379ZM4.98568 26.9905V6.96879H13.2073L4.98568 26.9905ZM36.6523 3.63379H24.1223C23.8475 3.63397 23.577 3.7021 23.3349 3.83211C23.0928 3.96212 22.8866 4.14998 22.7347 4.37896C22.5828 4.60794 22.4898 4.87094 22.4641 5.14454C22.4384 5.41814 22.4807 5.69385 22.5873 5.94712L35.1157 35.6971C35.2427 35.9994 35.4561 36.2574 35.7292 36.4389C36.0023 36.6203 36.3228 36.7171 36.6507 36.7171C36.7615 36.7165 36.872 36.7053 36.9807 36.6838C37.3579 36.6077 37.6972 36.4035 37.9411 36.1058C38.185 35.8081 38.3185 35.4353 38.319 35.0505V5.30046C38.319 4.85843 38.1434 4.43451 37.8309 4.12194C37.5183 3.80938 37.0944 3.63379 36.6523 3.63379ZM34.9857 26.7988L26.6323 6.96712H34.9857V26.7988ZM21.5807 16.2355C21.4618 15.9214 21.2509 15.6506 20.9755 15.4585C20.7001 15.2664 20.3731 15.1619 20.0373 15.1588H20.0207C19.688 15.1587 19.363 15.2582 19.0873 15.4445C18.8117 15.6307 18.5981 15.8951 18.474 16.2038L13.3757 28.9221C13.2743 29.1751 13.2365 29.4491 13.2656 29.7201C13.2947 29.9912 13.3899 30.2509 13.5427 30.4766C13.6955 30.7023 13.9013 30.887 14.1422 31.0147C14.383 31.1424 14.6514 31.209 14.924 31.2088H18.6807L21.2173 36.1921C21.3566 36.4667 21.5693 36.6972 21.8318 36.8582C22.0942 37.0191 22.3961 37.1041 22.704 37.1038H27.0573C27.327 37.1039 27.5926 37.0386 27.8315 36.9134C28.0703 36.7883 28.2752 36.6071 28.4286 36.3853C28.582 36.1636 28.6793 35.9079 28.7122 35.6403C28.7451 35.3727 28.7125 35.1011 28.6173 34.8488L21.5807 16.2355ZM23.7257 33.7705L21.1873 28.7871C21.0483 28.5131 20.8361 28.2829 20.5743 28.122C20.3125 27.961 20.0113 27.8757 19.704 27.8755H17.3873L19.9757 21.4171L24.6457 33.7705H23.7257Z" fill="white"/>
</svg>
