<svg width="31" height="41" viewBox="0 0 31 41" fill="none" xmlns="http://www.w3.org/2000/svg">
<path d="M7.10677 15.0352C6.93549 15.0352 6.77121 15.1054 6.6501 15.2304C6.52898 15.3554 6.46094 15.525 6.46094 15.7018C6.46094 15.8786 6.52898 16.0482 6.6501 16.1732C6.77121 16.2983 6.93549 16.3685 7.10677 16.3685H23.8984C24.0697 16.3685 24.234 16.2983 24.3551 16.1732C24.4762 16.0482 24.5443 15.8786 24.5443 15.7018C24.5443 15.525 24.4762 15.3554 24.3551 15.2304C24.234 15.1054 24.0697 15.0352 23.8984 15.0352H7.10677ZM7.10677 19.0352C6.93549 19.0352 6.77121 19.1054 6.6501 19.2304C6.52898 19.3554 6.46094 19.525 6.46094 19.7018C6.46094 19.8786 6.52898 20.0482 6.6501 20.1732C6.77121 20.2983 6.93549 20.3685 7.10677 20.3685H23.8984C24.0697 20.3685 24.234 20.2983 24.3551 20.1732C24.4762 20.0482 24.5443 19.8786 24.5443 19.7018C24.5443 19.525 24.4762 19.3554 24.3551 19.2304C24.234 19.1054 24.0697 19.0352 23.8984 19.0352H7.10677ZM6.46094 23.7018C6.46094 23.525 6.52898 23.3554 6.6501 23.2304C6.77121 23.1054 6.93549 23.0352 7.10677 23.0352H23.8984C24.0697 23.0352 24.234 23.1054 24.3551 23.2304C24.4762 23.3554 24.5443 23.525 24.5443 23.7018C24.5443 23.8786 24.4762 24.0482 24.3551 24.1732C24.234 24.2983 24.0697 24.3685 23.8984 24.3685H7.10677C6.93549 24.3685 6.77121 24.2983 6.6501 24.1732C6.52898 24.0482 6.46094 23.8786 6.46094 23.7018ZM7.10677 27.0352C6.93549 27.0352 6.77121 27.1054 6.6501 27.2304C6.52898 27.3554 6.46094 27.525 6.46094 27.7018C6.46094 27.8786 6.52898 28.0482 6.6501 28.1732C6.77121 28.2983 6.93549 28.3685 7.10677 28.3685H17.4401C17.6114 28.3685 17.7757 28.2983 17.8968 28.1732C18.0179 28.0482 18.0859 27.8786 18.0859 27.7018C18.0859 27.525 18.0179 27.3554 17.8968 27.2304C17.7757 27.1054 17.6114 27.0352 17.4401 27.0352H7.10677Z" fill="white"/>
<path d="M0 4.36914C0 3.30827 0.408258 2.29086 1.13496 1.54071C1.86166 0.790568 2.84729 0.369141 3.875 0.369141H20.7312C21.0738 0.369216 21.4023 0.509741 21.6445 0.759807L30.6215 10.0265C30.8638 10.2765 30.9999 10.6155 31 10.9691V36.3691C31 37.43 30.5917 38.4474 29.865 39.1976C29.1383 39.9477 28.1527 40.3691 27.125 40.3691H3.875C2.84729 40.3691 1.86166 39.9477 1.13496 39.1976C0.408258 38.4474 0 37.43 0 36.3691V4.36914ZM3.875 3.03581C3.53243 3.03581 3.20389 3.17628 2.96165 3.42633C2.71942 3.67638 2.58333 4.01552 2.58333 4.36914V36.3691C2.58333 36.7228 2.71942 37.0619 2.96165 37.312C3.20389 37.562 3.53243 37.7025 3.875 37.7025H27.125C27.4676 37.7025 27.7961 37.562 28.0383 37.312C28.2806 37.0619 28.4167 36.7228 28.4167 36.3691V11.5211L27.9465 11.0358H21.9493C21.608 11.0344 21.2812 10.8932 21.0407 10.6432C20.8001 10.3931 20.6656 10.0548 20.6667 9.70247V3.52114L20.1965 3.03581H3.875Z" fill="white"/>
</svg>
