<svg width="33" height="40" viewBox="0 0 33 40" fill="none" xmlns="http://www.w3.org/2000/svg">
<path fill-rule="evenodd" clip-rule="evenodd" d="M16.7115 14.9013C16.0621 14.8651 15.419 15.0334 14.8915 15.3776C14.3641 15.7218 13.9851 16.2206 13.8191 16.789C13.6531 17.3574 13.7103 17.9602 13.9811 18.4948C14.2518 19.0293 14.7193 19.4625 15.3039 19.7205C15.8885 19.9785 16.554 20.0453 17.1871 19.9097C17.8201 19.774 18.3815 19.4442 18.7756 18.9764C19.1697 18.5087 19.372 17.9319 19.3482 17.3444C19.3244 16.757 19.0759 16.1951 18.6451 15.7547C18.4007 15.5045 18.1042 15.3004 17.7724 15.1539C17.4406 15.0075 17.0801 14.9217 16.7115 14.9013ZM13.8955 14.7391C14.5864 14.188 15.4673 13.8703 16.3883 13.8402C17.3093 13.81 18.2133 14.0693 18.9465 14.5739C19.6796 15.0784 20.1965 15.797 20.4091 16.6073C20.6218 17.4175 20.5169 18.2693 20.1125 19.0176C19.7081 19.7658 19.0291 20.3643 18.1912 20.711C17.3533 21.0577 16.4083 21.1312 15.5172 20.919C14.626 20.7068 13.8438 20.222 13.3038 19.5472C12.7638 18.8724 12.4994 18.0494 12.5556 17.2182C12.587 16.7456 12.7216 16.2832 12.9515 15.8577C13.1815 15.4322 13.5023 15.0521 13.8955 14.7391ZM14.7809 17.9724C14.717 17.9318 14.6626 17.88 14.6211 17.8202C14.5796 17.7604 14.5517 17.6937 14.539 17.624C14.5264 17.5543 14.5293 17.483 14.5475 17.4143C14.5657 17.3456 14.5989 17.2809 14.6451 17.224C14.6913 17.167 14.7496 17.119 14.8166 17.0826C14.8837 17.0463 14.958 17.0224 15.0354 17.0123C15.1128 17.0023 15.1916 17.0063 15.2672 17.0241C15.3429 17.0419 15.4138 17.0731 15.4759 17.116L16.1154 17.54L17.53 16.2618C17.6425 16.1716 17.7889 16.1237 17.9393 16.1277C18.0896 16.1318 18.2326 16.1876 18.3389 16.2837C18.4453 16.3798 18.507 16.509 18.5116 16.6448C18.5161 16.7807 18.463 16.913 18.3632 17.0147L16.5925 18.6147C16.4927 18.7042 16.3609 18.7587 16.2207 18.7682C16.0804 18.7777 15.9411 18.7417 15.8276 18.6667L14.7784 17.9724H14.7809ZM20.4935 20.9018C19.4843 22.1039 18.1099 23.0149 16.5379 23.524C14.9657 23.0151 13.5913 22.104 12.5822 20.9018C11.5782 19.704 11.0341 18.243 11.0323 16.7404V13.0129L16.5379 11.3493L22.0435 13.0129V16.7404C22.0415 18.2429 21.4973 19.7039 20.4935 20.9018ZM23.2215 16.7404C23.2191 18.4738 22.5909 20.1591 21.432 21.5404C20.2395 22.9627 18.5993 24.0264 16.7263 24.592C16.604 24.6298 16.4713 24.6298 16.349 24.592H16.3421C14.4718 24.0258 12.8342 22.9629 11.6432 21.5422C10.4846 20.1608 9.85633 18.4755 9.85376 16.7422V12.6311C9.85398 12.5121 9.89825 12.3965 9.97954 12.3028C10.0608 12.2092 10.1745 12.1428 10.3024 12.1142L16.3524 10.2866C16.4735 10.2502 16.6043 10.2502 16.7253 10.2866L22.8196 12.128C22.9362 12.1636 23.0376 12.2312 23.1096 12.3214C23.1815 12.4116 23.2205 12.5199 23.221 12.6311L23.2215 16.7404ZM24.7734 31.9476V34.9218L27.9524 32.0031L24.7734 31.9476ZM13.2344 3.05153H11.1258C11.0639 3.04966 11.0034 3.06779 10.9551 3.10264C10.9406 3.1118 10.9305 3.12565 10.927 3.14131V7.3022C10.927 7.31198 10.9384 7.32531 10.9561 7.33954C11.0048 7.37362 11.0652 7.39109 11.1267 7.38887H21.8742C21.9286 7.3903 21.9821 7.37716 22.0282 7.35109L22.0449 7.33731C22.0626 7.32309 22.0739 7.30976 22.0739 7.29998V3.14042C22.0696 3.12508 22.0593 3.11167 22.0449 3.10264C21.9965 3.06786 21.936 3.04974 21.8742 3.05153H19.7656C19.609 3.05153 19.4589 2.99534 19.3482 2.89532C19.2375 2.7953 19.1753 2.65965 19.1753 2.5182C19.1556 2.31879 19.0822 2.12678 18.9613 1.95896C18.8405 1.79114 18.676 1.65263 18.4823 1.55553C17.882 1.23463 17.1974 1.06533 16.5 1.06533C15.8026 1.06533 15.118 1.23463 14.5177 1.55553C14.3236 1.65264 14.1588 1.79132 14.0378 1.95939C13.9168 2.12747 13.8433 2.3198 13.8237 2.51953C13.8237 2.66098 13.7615 2.79664 13.6508 2.89666C13.5401 2.99668 13.39 3.05287 13.2334 3.05287L13.2344 3.05153ZM23.2353 7.48487H28.7394V30.956L24.2471 30.8773C24.2264 30.8773 24.2057 30.8747 24.1841 30.8747C24.0276 30.8747 23.8774 30.9309 23.7667 31.0309C23.656 31.1309 23.5938 31.2665 23.5938 31.408V35.6889H4.33442V7.48487H9.76473C9.8153 7.74102 9.96274 7.97336 10.1818 8.1422C10.4442 8.34598 10.7788 8.45767 11.1248 8.45687H21.8742C22.199 8.45746 22.5146 8.35913 22.77 8.17776C22.7862 8.16709 22.8024 8.15598 22.8191 8.14354C23.0381 7.97456 23.1854 7.74228 23.2362 7.4862L23.2353 7.48487ZM23.252 4.23687H29.9076C30.4147 4.23851 30.9006 4.42128 31.2592 4.74532C31.6179 5.06936 31.8201 5.50838 31.822 5.96665V37.2053C31.8196 37.6633 31.6171 38.1019 31.2585 38.4255C30.9 38.7492 30.4144 38.9317 29.9076 38.9333H3.09243C2.58526 38.9317 2.09938 38.7489 1.74076 38.4249C1.38214 38.1008 1.17986 37.6618 1.17804 37.2036V5.96665C1.17986 5.50838 1.38214 5.06936 1.74076 4.74532C2.09938 4.42128 2.58526 4.23851 3.09243 4.23687H9.74752V6.41998H3.74662C3.59008 6.41998 3.43995 6.47617 3.32925 6.57619C3.21856 6.67621 3.15637 6.81186 3.15637 6.95331V36.2196C3.15637 36.361 3.21856 36.4967 3.32925 36.5967C3.43995 36.6967 3.59008 36.7529 3.74662 36.7529H24.1841C24.2698 36.7529 24.3544 36.736 24.4321 36.7035C24.5098 36.6709 24.5788 36.6235 24.6342 36.5644L29.7157 31.8978C29.7789 31.8479 29.8295 31.7864 29.8643 31.7174C29.8991 31.6484 29.9172 31.5736 29.9174 31.4978V6.95242C29.9174 6.81098 29.8552 6.67532 29.7445 6.5753C29.6338 6.47528 29.4837 6.41909 29.3272 6.41909H23.252V4.23687ZM11.1258 1.98664H12.7293C12.9252 1.44206 13.3269 0.977132 13.864 0.673309C14.6569 0.233063 15.5694 0 16.5 0C17.4306 0 18.3431 0.233063 19.136 0.673309C19.6731 0.977132 20.0749 1.44206 20.2707 1.98664H21.8742C22.2203 1.98526 22.5554 2.09648 22.8182 2.29998C22.9532 2.40356 23.0619 2.53229 23.1368 2.67735C23.2116 2.8224 23.2509 2.98037 23.252 3.14042V3.17198H29.9076C30.7273 3.1735 31.513 3.46845 32.0926 3.99223C32.6721 4.51601 32.9984 5.22596 33 5.96665V37.2053C32.9984 37.946 32.6721 38.656 32.0926 39.1797C31.513 39.7035 30.7273 39.9985 29.9076 40H3.09243C2.2727 39.9985 1.48704 39.7035 0.907444 39.1797C0.327853 38.656 0.00155965 37.946 0 37.2053V5.96665C0.00155965 5.22596 0.327853 4.51601 0.907444 3.99223C1.48704 3.46845 2.2727 3.1735 3.09243 3.17198H9.74752V3.14042C9.74869 2.98066 9.78812 2.82302 9.86309 2.67833C9.93806 2.53364 10.0468 2.40533 10.1818 2.3022C10.4449 2.09944 10.78 1.98901 11.1258 1.99109V1.98664ZM15.9107 3.00887C15.9107 2.86742 15.9729 2.73176 16.0836 2.63174C16.1943 2.53172 16.3444 2.47553 16.501 2.47553C16.6575 2.47553 16.8077 2.53172 16.9184 2.63174C17.0291 2.73176 17.0912 2.86742 17.0912 3.00887V3.09376C17.0912 3.2352 17.0291 3.37086 16.9184 3.47088C16.8077 3.5709 16.6575 3.62709 16.501 3.62709C16.3444 3.62709 16.1943 3.5709 16.0836 3.47088C15.9729 3.37086 15.9107 3.2352 15.9107 3.09376V3.00887ZM12.1169 26.9644H25.0655C25.2221 26.9644 25.3722 26.9082 25.4829 26.8082C25.5936 26.7082 25.6558 26.5726 25.6558 26.4311C25.6558 26.2897 25.5936 26.154 25.4829 26.054C25.3722 25.954 25.2221 25.8978 25.0655 25.8978H12.1169C11.9603 25.8978 11.8102 25.954 11.6995 26.054C11.5888 26.154 11.5266 26.2897 11.5266 26.4311C11.5266 26.5726 11.5888 26.7082 11.6995 26.8082C11.8102 26.9082 11.9603 26.9644 12.1169 26.9644ZM8.00775 26.9644H9.90885C10.0654 26.9644 10.2155 26.9082 10.3262 26.8082C10.4369 26.7082 10.4991 26.5726 10.4991 26.4311C10.4991 26.2897 10.4369 26.154 10.3262 26.054C10.2155 25.954 10.0654 25.8978 9.90885 25.8978H8.00775C7.85121 25.8978 7.70107 25.954 7.59038 26.054C7.47969 26.154 7.4175 26.2897 7.4175 26.4311C7.4175 26.5726 7.47969 26.7082 7.59038 26.8082C7.70107 26.9082 7.85121 26.9644 8.00775 26.9644ZM21.19 29.4533H25.068C25.2245 29.4533 25.3747 29.3971 25.4854 29.2971C25.5961 29.1971 25.6583 29.0614 25.6583 28.92C25.6583 28.7785 25.5961 28.6429 25.4854 28.5429C25.3747 28.4429 25.2245 28.3867 25.068 28.3867H21.1876C21.031 28.3867 20.8809 28.4429 20.7702 28.5429C20.6595 28.6429 20.5973 28.7785 20.5973 28.92C20.5973 29.0614 20.6595 29.1971 20.7702 29.2971C20.8809 29.3971 21.031 29.4533 21.1876 29.4533H21.19ZM8.01021 29.4533H18.9791C19.1356 29.4533 19.2857 29.3971 19.3964 29.2971C19.5071 29.1971 19.5693 29.0614 19.5693 28.92C19.5693 28.7785 19.5071 28.6429 19.3964 28.5429C19.2857 28.4429 19.1356 28.3867 18.9791 28.3867H8.01021C7.85367 28.3867 7.70353 28.4429 7.59284 28.5429C7.48215 28.6429 7.41996 28.7785 7.41996 28.92C7.41996 29.0614 7.48215 29.1971 7.59284 29.2971C7.70353 29.3971 7.85367 29.4533 8.01021 29.4533ZM8.01021 31.9422H21.6199C21.7765 31.9422 21.9266 31.886 22.0373 31.786C22.148 31.686 22.2102 31.5503 22.2102 31.4089C22.2102 31.2674 22.148 31.1318 22.0373 31.0318C21.9266 30.9317 21.7765 30.8756 21.6199 30.8756H8.00775C7.85121 30.8756 7.70107 30.9317 7.59038 31.0318C7.47969 31.1318 7.4175 31.2674 7.4175 31.4089C7.4175 31.5503 7.47969 31.686 7.59038 31.786C7.70107 31.886 7.85121 31.9422 8.00775 31.9422H8.01021Z" fill="#86B03C"/>
</svg>
