<svg width="35" height="42" viewBox="0 0 35 42" fill="none" xmlns="http://www.w3.org/2000/svg">
<path d="M21.4801 30.8H18.7081V28H15.9361V30.8H13.1641V33.6H15.9361V36.4H18.7081V33.6H21.4801V30.8Z" fill="#86B03C"/>
<path d="M17.325 0C8.1081 0 0 7.49 0 16.1H1.386C1.386 14.91 2.2869 14 3.465 14C4.6431 14 5.544 14.91 5.544 16.1H6.93C6.93 14.91 7.8309 14 9.009 14C10.1871 14 11.088 14.91 11.088 16.1H12.474C12.474 14.91 13.3749 14 14.553 14C15.7311 14 16.632 14.91 16.632 16.1V20.79C14.553 17.78 10.6029 16.66 7.2072 18.2C3.7422 19.81 1.9404 23.8 3.1185 27.51C5.3361 35.07 17.325 42 17.325 42C17.325 42 29.3139 35.07 31.5315 27.51C32.7789 23.45 30.5613 19.11 26.5419 17.85C25.7796 17.64 25.0173 17.5 24.255 17.5C21.7602 17.5 19.404 18.76 18.018 20.79V16.1C18.018 14.91 18.9189 14 20.097 14C21.2751 14 22.176 14.91 22.176 16.1H23.562C23.562 14.91 24.4629 14 25.641 14C26.8191 14 27.72 14.91 27.72 16.1H29.106C29.106 14.91 30.0069 14 31.185 14C32.3631 14 33.264 14.91 33.264 16.1H34.65C34.65 7.49 26.5419 0 17.325 0ZM26.8191 19.46C29.6604 20.79 31.1157 24.01 30.2148 27.09C28.4823 33.04 19.8198 38.78 17.325 40.39C14.8302 38.85 6.1677 33.04 4.4352 27.09C3.3957 23.8 5.1975 20.23 8.5239 19.18C11.5038 18.2 14.7609 19.67 16.0776 22.54L17.325 25.34L18.5724 22.54C20.0277 19.39 23.7006 18.06 26.8191 19.46ZM5.7519 13.44C5.1282 12.88 4.2966 12.6 3.465 12.6C2.8413 12.6 2.2869 12.74 1.7325 13.02C2.9106 8.33 6.7221 4.27 11.5731 2.45C7.623 5.81 6.1677 11.13 5.7519 13.44ZM11.1573 13.37C10.5336 12.88 9.7713 12.6 9.009 12.6C8.3853 12.6 7.7616 12.74 7.2765 13.09C7.9695 10.22 9.8406 4.55 14.6223 2.17C12.1275 5.39 11.3652 10.57 11.1573 13.37ZM14.553 12.6C13.86 12.6 13.167 12.81 12.6126 13.23C12.8898 10.08 13.7214 4.48 16.632 2.03V13.3C16.0083 12.88 15.3153 12.6 14.553 12.6ZM20.097 12.6C19.3347 12.6 18.6417 12.88 18.018 13.3V2.03C20.9286 4.48 21.8295 10.15 22.0374 13.23C21.483 12.81 20.79 12.6 20.097 12.6ZM25.641 12.6C24.8787 12.6 24.1164 12.88 23.4927 13.37C23.2848 10.5 22.5225 5.39 20.097 2.17C24.8787 4.55 26.7498 10.22 27.4428 13.09C26.8884 12.74 26.2647 12.6 25.641 12.6ZM31.185 12.6C30.3534 12.6 29.5218 12.88 28.8981 13.44C28.413 11.06 27.027 5.74 23.0769 2.45C27.9279 4.27 31.7394 8.33 32.9175 13.02C32.3631 12.74 31.8087 12.6 31.185 12.6Z" fill="#86B03C"/>
</svg>
