<svg width="28" height="32" viewBox="0 0 28 32" fill="none" xmlns="http://www.w3.org/2000/svg">
<path d="M16.7363 13.989C16.4257 13.4509 15.9256 13.1142 15.3646 13.0653C14.8743 13.0221 14.37 13.2149 14.0027 13.6012C13.3494 12.9639 12.4086 12.8874 11.735 13.4431C11.3118 13.794 11.0474 14.3144 10.9935 14.9077C10.939 15.5166 11.1174 16.1171 11.4839 16.5559L13.6173 18.7768C13.7131 18.8739 13.8726 18.9285 14.0076 18.9285C14.1426 18.9285 14.3028 18.8739 14.3979 18.7768L16.2026 16.9458C16.2124 16.9358 16.2215 16.9259 16.2306 16.9146L16.4768 16.6218C17.086 15.8909 17.1952 14.7844 16.7363 13.989ZM15.6983 15.9526L14.0076 17.7099L12.5618 16.2454L12.2617 15.8867C12.0735 15.6627 11.9798 15.3316 12.0099 15.0027C12.0379 14.6922 12.1736 14.4157 12.3806 14.2442C12.4974 14.1478 12.6254 14.1067 12.7541 14.1067C12.9843 14.1067 13.2137 14.2399 13.3718 14.4292L13.618 14.7234C13.7159 14.8397 13.8572 14.9063 14.0076 14.9063C14.1573 14.9063 14.2993 14.8397 14.3972 14.7234L14.6994 14.3619C14.8589 14.1712 15.0687 14.0776 15.2772 14.0953C15.5073 14.1152 15.7123 14.2633 15.8564 14.5121C16.0956 14.9268 16.0256 15.5599 15.6983 15.9526Z" fill="#184E77"/>
<path d="M23.7836 16.0001C24.453 15.3742 25.0644 14.7454 25.5988 14.123C27.756 11.6114 28.4933 9.4365 27.6742 7.99958C26.5529 6.02957 23.0128 6.13236 18.8796 7.43956C17.9297 3.15786 16.2481 -0.000244141 14.0028 -0.000244141C11.7567 -0.000244141 10.0745 3.15715 9.12456 7.43885C4.99061 6.13165 1.45122 6.02886 0.329252 7.99958C-0.792719 9.97029 1.06441 13.0256 4.24776 15.9994C1.06371 18.9732 -0.793418 22.0285 0.329252 23.9999C0.930109 25.0555 2.22345 25.5162 3.93089 25.5162C5.4096 25.5162 7.20517 25.1547 9.12176 24.5493C10.071 28.8367 11.7546 31.9998 14.0028 31.9998C16.2502 31.9998 17.9332 28.8367 18.8823 24.5486C20.7989 25.154 22.5945 25.5155 24.0725 25.5155C25.7793 25.5155 27.0733 25.0541 27.6742 23.9992C28.4933 22.5623 27.756 20.3881 25.5988 17.8758C25.0644 17.2541 24.453 16.6261 23.7836 16.0001ZM24.0536 7.52462C25.4533 7.52462 26.4193 7.86347 26.7914 8.51636C27.3664 9.52582 26.6508 11.3221 24.8287 13.4431C24.2985 14.0606 23.6871 14.6851 23.017 15.3075C21.9972 14.4172 20.8591 13.5381 19.6308 12.6931C19.5196 11.2279 19.3349 9.79874 19.0824 8.45469C21.0305 7.83724 22.7386 7.52462 24.0536 7.52462ZM16.3712 20.1599C15.5668 20.6306 14.7771 21.0524 14.0014 21.4437C13.2256 21.0524 12.4366 20.6306 11.6322 20.1599C10.8271 19.6892 10.0717 19.2071 9.34909 18.7215C9.29523 17.8454 9.26166 16.9415 9.26166 16.0001C9.26166 15.0587 9.29523 14.1549 9.34909 13.2794C10.0717 12.7938 10.8271 12.3125 11.6322 11.8411C12.4394 11.3689 13.2284 10.9514 14.0063 10.5594C14.7806 10.95 15.5682 11.3711 16.3712 11.8411C17.1602 12.3025 17.9199 12.7839 18.6529 13.2751C18.7068 14.1527 18.7404 15.0573 18.7404 16.0001C18.7404 16.9429 18.7068 17.8475 18.6529 18.7251C17.9206 19.2171 17.1602 19.6984 16.3712 20.1599ZM18.5529 20.0216C18.4473 21.1594 18.3025 22.2348 18.1192 23.2272C17.1798 22.8919 16.1893 22.4822 15.1646 22.0065C15.7431 21.7031 16.3173 21.3855 16.8818 21.0552C17.454 20.7199 18.008 20.3733 18.5529 20.0216ZM12.8395 22.0058C11.8148 22.4815 10.8236 22.8919 9.8842 23.2265C9.70023 22.2327 9.55544 21.1559 9.44982 20.016C9.99961 20.3733 10.5564 20.7227 11.1223 21.0545C11.6875 21.3848 12.261 21.7024 12.8395 22.0058ZM8.29287 17.9857C7.37235 17.3229 6.52528 16.658 5.76774 16.0001C6.52458 15.3423 7.37235 14.6766 8.29287 14.0145C8.26279 14.6752 8.24181 15.338 8.24181 16.0001C8.24251 16.6622 8.26279 17.325 8.29287 17.9857ZM9.44982 11.9835C9.55544 10.8436 9.70093 9.76684 9.8842 8.77298C10.825 9.10899 11.8183 9.52015 12.8451 9.99652C12.2652 10.3006 11.6882 10.614 11.123 10.9443C10.5564 11.2768 10.0003 11.6263 9.44982 11.9835ZM15.1562 9.9951C16.1886 9.51518 17.1756 9.11821 18.1206 8.78148C18.3032 9.77109 18.4473 10.8436 18.5529 11.9779C18.008 11.6263 17.454 11.2796 16.8818 10.945C16.3145 10.6133 15.7368 10.2999 15.1562 9.9951ZM19.7098 14.0103C20.6164 14.661 21.4711 15.3267 22.249 16.0001C21.4711 16.6736 20.6164 17.3392 19.7098 17.99C19.7399 17.3279 19.7609 16.6636 19.7609 16.0001C19.7609 15.3366 19.7406 14.6724 19.7098 14.0103ZM14.0021 1.03403C15.4465 1.03403 16.9923 3.59454 17.9129 7.76777C16.6328 8.21933 15.315 8.77369 14.0021 9.41169C12.6891 8.77439 11.3706 8.21933 10.0905 7.76777C11.0111 3.59454 12.5583 1.03403 14.0021 1.03403ZM1.212 8.51707C1.93457 7.25028 4.89548 7.17301 8.92171 8.45185C8.66779 9.80087 8.48243 11.2357 8.37121 12.7066C7.1702 13.5396 6.03704 14.4193 5.01159 15.316C1.90589 12.4216 0.490134 9.78456 1.212 8.51707ZM1.212 23.4832C0.490833 22.2157 1.90589 19.5786 5.01229 16.6842C6.03774 17.5809 7.1709 18.4607 8.37121 19.2936C8.48243 20.7646 8.66779 22.1994 8.92171 23.5491C4.89618 24.8272 1.93457 24.7499 1.212 23.4832ZM14.0021 30.9662C12.5583 30.9662 11.0118 28.4071 10.0912 24.236C11.3706 23.7844 12.6898 23.2202 14.0021 22.5829C15.3143 23.2202 16.6328 23.7844 17.9122 24.236C16.9916 28.4071 15.4458 30.9662 14.0021 30.9662ZM26.7914 23.4832C26.0688 24.7499 23.1079 24.8272 19.0817 23.5491C19.3349 22.2036 19.5196 20.7731 19.6308 19.3064C20.8591 18.4607 21.9972 17.5824 23.017 16.692C23.6871 17.3144 24.2985 17.9382 24.8287 18.5557C26.6508 20.6767 27.3664 22.473 26.7914 23.4832Z" fill="#184E77"/>
</svg>
