<svg width="48" height="48" viewBox="0 0 48 48" fill="none" xmlns="http://www.w3.org/2000/svg">
<g clip-path="url(#clip0_4839_1026)">
<path fill-rule="evenodd" clip-rule="evenodd" d="M16.5 11.7188V21.2811H27.75V11.7188C25.6789 11.7188 24 10.0398 24 7.96875H20.25C20.25 10.0398 18.5711 11.7188 16.5 11.7188Z" fill="white" fill-opacity="0.1"/>
<path d="M45.1875 6.28096H34.7812C33.5386 6.32709 33.5396 8.11021 34.7812 8.15596H45.1875C45.7044 8.15596 46.125 8.57652 46.125 9.09346V34.406H1.875V9.09346C1.875 8.57652 2.29546 8.15596 2.8124 8.15596H11.8125V16.5935H10.875C7.14814 16.7354 7.15095 22.0781 10.875 22.2185H37.1249C40.8519 22.0767 40.849 16.7341 37.1249 16.5935H34.7812C33.5386 16.6397 33.5396 18.4228 34.7812 18.4685H37.1249C38.3672 18.5159 38.3663 20.2967 37.1249 20.3435H32.4374V4.21875C32.4374 3.70106 32.0176 3.28125 31.4999 3.28125H12.75C12.2323 3.28125 11.8125 3.70106 11.8125 4.21875V6.28096H2.8124C1.26159 6.28096 0 7.54265 0 9.09346V37.2185C0 38.7693 1.26159 40.031 2.8124 40.031H19.163L17.6557 45.6563H16.5C15.2574 45.7024 15.2583 47.4855 16.5 47.5313H31.4999C32.7425 47.4851 32.7416 45.702 31.4999 45.6563H30.3442L28.837 40.031H45.1875C46.7383 40.031 48 38.7693 48 37.2185V9.09346C48 7.54265 46.7383 6.28096 45.1875 6.28096ZM9.93757 19.406C9.93757 18.8891 10.358 18.4685 10.875 18.4685H11.8125V20.3435H10.875C10.358 20.3435 9.93757 19.923 9.93757 19.406ZM30.5624 5.15625V20.3435H13.6875V5.15625H30.5624ZM28.4031 45.6563H19.5968L21.1041 40.031H26.8959L28.4031 45.6563ZM46.125 37.2185C46.125 37.7354 45.7044 38.156 45.1875 38.156H2.8124C2.29546 38.156 1.875 37.7354 1.875 37.2185V36.281H46.125V37.2185Z" fill="white"/>
<path d="M10.6406 32.0623C11.1583 32.0623 11.5781 31.6424 11.5781 31.1248V26.4373H12.2812C13.5238 26.3911 13.5229 24.608 12.2812 24.5623H9.00008C7.75752 24.6084 7.75846 26.3915 9.00008 26.4373H9.70311V31.1248C9.70311 31.6425 10.1229 32.0623 10.6406 32.0623Z" fill="white"/>
<path d="M18.7734 32.0637C19.2911 32.0637 19.7109 31.6439 19.7109 31.1262V27.3762C19.5691 23.6492 14.2265 23.6521 14.0859 27.3762V31.1262C14.1321 32.3687 15.9152 32.3678 15.9609 31.1262V30.1886H17.8359V31.1262C17.8359 31.644 18.2558 32.0637 18.7734 32.0637ZM15.9609 28.3136V27.3762C16.0083 26.1339 17.7891 26.1348 17.8359 27.3762V28.3136H15.9609Z" fill="white"/>
<path d="M25.5156 24.6904C25.0683 24.4293 24.4942 24.5807 24.2333 25.0279L23.4025 26.4521L22.5717 25.0279C22.311 24.5808 21.7373 24.4296 21.2895 24.6904C20.8422 24.9513 20.6912 25.5254 20.9521 25.9727L22.3172 28.3128L20.9521 30.6529C20.6912 31.1001 20.8422 31.6743 21.2895 31.9351C21.729 32.1937 22.3093 32.049 22.5717 31.5977L23.4025 30.1734L24.2333 31.5977C24.4958 32.049 25.076 32.1935 25.5156 31.9351C25.9628 31.6743 26.1139 31.1001 25.853 30.6529L24.4879 28.3128L25.853 25.9727C26.1139 25.5255 25.9628 24.9513 25.5156 24.6904Z" fill="white"/>
<path d="M38.9999 25.4998H31.4999C30.2574 25.5459 30.2583 27.329 31.4999 27.3748H38.9999C40.2425 27.3286 40.2416 25.5455 38.9999 25.4998Z" fill="white"/>
<path d="M38.9999 29.25H31.4999C30.2574 29.2961 30.2583 31.0792 31.4999 31.125H38.9999C40.2425 31.0789 40.2416 29.2957 38.9999 29.25Z" fill="white"/>
</g>
<defs>
<clipPath id="clip0_4839_1026">
<rect width="48" height="48" fill="white"/>
</clipPath>
</defs>
</svg>
