<svg width="21" height="20" viewBox="0 0 21 20" fill="none" xmlns="http://www.w3.org/2000/svg">
<path d="M4.43333 2.22222C4.5 3.21111 4.66667 4.17778 4.93333 5.1L3.6 6.43333C3.14444 5.1 2.85556 3.68889 2.75556 2.22222H4.43333ZM15.3889 15.5778C16.3333 15.8444 17.3 16.0111 18.2778 16.0778V17.7333C16.8111 17.6333 15.4 17.3444 14.0556 16.9L15.3889 15.5778ZM5.5 0H1.61111C1 0 0.5 0.5 0.5 1.11111C0.5 11.5444 8.95556 20 19.3889 20C20 20 20.5 19.5 20.5 18.8889V15.0111C20.5 14.4 20 13.9 19.3889 13.9C18.0111 13.9 16.6667 13.6778 15.4222 13.2667C15.3119 13.2267 15.1951 13.2078 15.0778 13.2111C14.7889 13.2111 14.5111 13.3222 14.2889 13.5333L11.8444 15.9778C8.69492 14.3671 6.1329 11.8051 4.52222 8.65556L6.96667 6.21111C7.27778 5.9 7.36667 5.46667 7.24444 5.07778C6.82295 3.79784 6.60913 2.45866 6.61111 1.11111C6.61111 0.5 6.11111 0 5.5 0Z" fill="white"/>
</svg>
