<svg width="24" height="24" viewBox="0 0 24 24" fill="none" xmlns="http://www.w3.org/2000/svg">
<path fill-rule="evenodd" clip-rule="evenodd" d="M8.17374 10.4913L8.1703 10.493C7.72894 10.7137 7.42154 11.1327 7.34254 11.6196C7.26355 12.1056 7.42326 12.6011 7.77188 12.9497L11.0503 16.2281C11.3989 16.5767 11.8944 16.7365 12.3804 16.6575C12.8673 16.5785 13.2863 16.2711 13.507 15.8297L13.5087 15.8263C13.8152 15.2123 14.3983 14.7838 15.0758 14.6739C15.7533 14.564 16.4419 14.7864 16.9271 15.2716L19.0171 17.3607C19.4997 17.8442 19.7719 18.4993 19.7719 19.1828C19.7719 19.8655 19.4997 20.5206 19.0171 21.0041L17.9025 22.1178C16.6978 23.3234 15.0638 24 13.3601 24C11.6557 24 10.0216 23.3234 8.81689 22.1178L1.88222 15.1831C0.676638 13.9784 0 12.3443 0 10.6399C0 8.93624 0.676638 7.30218 1.88222 6.09746L2.99592 4.98289C3.47936 4.50032 4.13453 4.22812 4.81717 4.22812C5.50068 4.22812 6.15585 4.50032 6.63929 4.98289L8.72845 7.07292C9.2136 7.55807 9.43599 8.24673 9.32608 8.92422C9.21617 9.60172 8.78769 10.1848 8.17374 10.4913ZM7.40608 8.95513C7.5263 8.89588 7.60959 8.78168 7.63106 8.64944C7.65252 8.51635 7.60959 8.38239 7.51428 8.28708L5.42426 6.19706C5.26369 6.03649 5.04558 5.94547 4.81717 5.94547C4.58963 5.94547 4.37152 6.03649 4.21009 6.19706L3.09639 7.31163C2.21367 8.19435 1.71735 9.39134 1.71735 10.6399C1.71735 11.8884 2.21367 13.0862 3.09639 13.9689L10.0311 20.9036C10.9138 21.7863 12.1116 22.2826 13.3601 22.2826C14.6087 22.2826 15.8057 21.7863 16.6884 20.9036L17.8029 19.7899C17.9635 19.6285 18.0545 19.4104 18.0545 19.1828C18.0545 18.9544 17.9635 18.7363 17.8029 18.5757L15.7129 16.4857C15.6176 16.3904 15.4837 16.3475 15.3506 16.3689C15.2183 16.3904 15.1041 16.4737 15.0449 16.5939L15.0423 16.5982C14.5752 17.5325 13.6873 18.1859 12.656 18.3533C11.6239 18.5208 10.5755 18.1816 9.83614 17.4431L6.55685 14.1639C5.81839 13.4245 5.47921 12.3761 5.64665 11.344C5.81409 10.3127 6.46755 9.42483 7.40179 8.95771L7.40608 8.95513ZM12.8801 8.51464C12.4062 8.51464 12.0215 8.12909 12.0215 7.65596C12.0215 7.18197 12.4062 6.79728 12.8801 6.79728C15.2664 6.79728 17.2027 8.73359 17.2027 11.1199C17.2027 11.5938 16.818 11.9785 16.344 11.9785C15.8709 11.9785 15.4854 11.5938 15.4854 11.1199C15.4854 9.68157 14.3184 8.51464 12.8801 8.51464ZM12.8801 5.15206C12.4062 5.15206 12.0215 4.76737 12.0215 4.29338C12.0215 3.81939 12.4062 3.43471 12.8801 3.43471C17.122 3.43471 20.5653 6.87799 20.5653 11.1199C20.5653 11.5938 20.1806 11.9785 19.7066 11.9785C19.2326 11.9785 18.8479 11.5938 18.8479 11.1199C18.8479 7.82597 16.174 5.15206 12.8801 5.15206ZM12.8801 1.71735C12.4062 1.71735 12.0215 1.33267 12.0215 0.858676C12.0215 0.384687 12.4062 0 12.8801 0C19.0171 0 24 4.9829 24 11.1199C24 11.5938 23.6153 11.9785 23.1413 11.9785C22.6673 11.9785 22.2826 11.5938 22.2826 11.1199C22.2826 5.93087 18.0691 1.71735 12.8801 1.71735Z" fill="white"/>
</svg>
