<svg width="34" height="32" viewBox="0 0 34 32" fill="none" xmlns="http://www.w3.org/2000/svg">
<g clip-path="url(#clip0_5998_2083)">
<path d="M31.2922 20.0193L24.8943 17.388C23.4994 16.8079 21.8557 17.1937 20.9071 18.3224L19.1193 20.4162C16.2018 18.8068 13.758 16.463 12.083 13.7224L14.2688 12.0048C15.4356 11.0911 15.8383 9.52357 15.2474 8.18918L12.4895 1.971C11.8276 0.52099 10.1871 -0.270267 8.5889 0.084111L2.64384 1.40037C1.08803 1.74162 0 3.05226 0 4.58727C0 19.7062 12.8153 32 28.5754 32C30.1755 32 31.5417 30.9569 31.8395 29.4669L33.2115 23.7581C33.6441 22.2193 32.8102 20.6443 31.2922 20.0193ZM30.2237 23.0818L28.8497 28.795C28.8191 28.8637 28.7123 29 28.5748 29C14.5412 29 3.12668 18.0499 3.12668 4.58734C3.12668 4.45646 3.21118 4.35396 3.34454 4.32465L9.29546 3.00714C9.31582 3.00225 9.3372 3.0003 9.35756 3.0003C9.47053 3.0003 9.5764 3.06574 9.62123 3.16336L12.3667 9.30904C12.4156 9.41941 12.383 9.54829 12.2853 9.62542L9.10815 12.0692C8.54622 12.5106 8.3752 13.2655 8.69483 13.8905C10.8455 18.0924 14.4451 21.5468 18.8259 23.6093C19.4187 23.9159 20.2651 23.7519 20.7257 23.2128L23.3324 20.1584C23.4046 20.0705 23.54 20.0373 23.6531 20.0881L30.0548 22.7187C30.1781 22.8256 30.2498 22.9568 30.2237 23.0818Z" fill="#22BFCA"/>
</g>
<defs>
<clipPath id="clip0_5998_2083">
<rect width="33.3254" height="32" fill="white"/>
</clipPath>
</defs>
</svg>
