<svg width="38" height="38" viewBox="0 0 38 38" fill="none" xmlns="http://www.w3.org/2000/svg">
<g clip-path="url(#clip0_5118_2308)">
<path d="M16.4811 31.8102H29.2584V24.4315C29.2584 24.1243 29.5068 23.876 29.8161 23.876C30.1232 23.876 30.3715 24.1243 30.3715 24.4315V32.3677C30.3715 32.6749 30.1232 32.9231 29.8161 32.9231H16.4811V34.2445C16.7883 34.337 17.0616 34.5053 17.2805 34.7263C17.6298 35.0734 17.8443 35.5531 17.8443 36.0812C17.8443 36.6094 17.6298 37.089 17.2805 37.4383C16.9333 37.7855 16.4536 38.0001 15.9255 38.0001H3.94131C3.41317 38.0001 2.9335 37.7855 2.58623 37.4383C2.23918 37.089 2.02246 36.6094 2.02246 36.0812C2.02246 35.5531 2.23918 35.0734 2.58623 34.7263C2.80725 34.5053 3.08075 34.337 3.38571 34.2445V33.0452C3.38571 32.738 3.63405 32.4897 3.94124 32.4897C4.25043 32.4897 4.49877 32.738 4.49877 33.0452V34.1624H15.368V32.3677V30.2553C15.368 29.2538 15.0965 28.3175 14.6231 27.5117C14.1371 26.6869 13.4366 25.9968 12.5991 25.5214C12.414 25.4308 12.2877 25.2415 12.2877 25.0227V23.855H7.57914V25.0227C7.57914 25.2184 7.47591 25.4057 7.29504 25.5087C6.44508 25.9843 5.736 26.6785 5.2437 27.5117C4.77026 28.3175 4.49884 29.2538 4.49884 30.2553V30.5245C4.49884 30.8317 4.25051 31.08 3.94131 31.08C3.63405 31.08 3.38579 30.8317 3.38579 30.5245V30.2553C3.38579 29.054 3.71405 27.9241 4.28851 26.952C4.82504 26.0388 5.5739 25.2688 6.46609 24.7071V23.8549H5.75485C5.44766 23.8549 5.19954 23.6046 5.19954 23.2974V20.9767C5.19954 20.6696 5.44773 20.4213 5.75485 20.4213H7.92842V7.84158H2.58007C2.27288 7.84158 2.02254 7.59332 2.02254 7.28613V3.47366C2.02254 2.52054 2.42012 1.6579 3.05343 1.02882C3.68251 0.403973 4.54723 0.0126172 5.48989 0H26.8621C27.832 0 28.7093 0.391355 29.3449 1.02674C29.9781 1.66213 30.3716 2.53947 30.3716 3.50736V5.25573C30.5883 5.14625 30.8092 5.04324 31.0364 4.9443C32.2903 4.39724 33.7252 4.01019 35.3665 3.83971C35.6715 3.80809 35.945 4.03119 35.9744 4.33623C35.9954 4.54248 35.9008 4.73597 35.7409 4.84752C34.8761 5.4913 34.3165 6.07206 33.9629 6.51388C34.0324 6.5118 34.0998 6.50965 34.165 6.50965C34.5753 6.50542 34.9224 6.5265 35.278 6.55589C35.623 6.58536 35.8566 6.91993 35.7703 7.25236C35.3875 9.25537 33.9967 12.7817 31.1627 15.7673C30.9101 16.0323 30.6471 16.2911 30.3716 16.5477V21.9109C30.3716 22.2181 30.1232 22.4684 29.8162 22.4684C29.5068 22.4684 29.2585 22.218 29.2585 21.9109V17.4967C27.6637 18.7422 25.7386 19.7858 23.4389 20.4234C22.2439 23.3079 22.1429 25.4897 22.1429 25.5002C22.126 25.8074 21.8631 26.041 21.5579 26.0241C21.2508 26.0073 21.0173 25.7465 21.0341 25.4393C21.0341 25.4266 21.1456 23.0239 22.469 19.8848C22.4774 19.1567 22.6477 13.3771 25.9974 8.94195C26.1825 8.69784 26.5297 8.64738 26.7758 8.83248C27.0199 9.01765 27.0682 9.36693 26.8831 9.61096C24.9938 12.1147 24.1837 15.0835 23.8365 17.198C25.0295 15.2223 26.7274 13.1499 29.1427 11.3005C29.3868 11.1132 29.736 11.1595 29.9211 11.4036C30.1085 11.6476 30.0622 11.9969 29.8181 12.182C26.9819 14.3534 25.1914 16.8382 24.0616 19.0705C26.479 18.2394 28.6084 16.8424 30.3567 15.0014C32.7637 12.4682 34.0575 9.54156 34.55 7.62479C34.4238 7.62056 34.2996 7.6164 34.1734 7.61848C33.8325 7.62056 33.4517 7.64787 32.9888 7.70895C32.892 7.7258 32.791 7.71526 32.6943 7.67741C32.4081 7.56371 32.2714 7.23974 32.3849 6.95563C32.3849 6.9514 32.6626 6.24454 33.5926 5.26196C32.8309 5.44291 32.1283 5.67855 31.4803 5.96259C30.3966 6.43387 29.4036 7.06295 28.5157 7.84359C28.2863 8.04761 27.935 8.02453 27.7309 7.7952C27.5288 7.56371 27.55 7.21243 27.7814 7.01041C28.2338 6.61066 28.7261 6.23616 29.2584 5.89319V3.50736C29.2584 2.84666 28.9891 2.24705 28.5557 1.81361C28.1055 1.3634 27.4995 1.10875 26.862 1.10875H8.09452C8.70682 1.76099 9.04133 2.61517 9.04133 3.50736C9.04133 9.14598 9.04348 14.7825 9.04348 20.4213H14.112C14.4192 20.4213 14.6696 20.6696 14.6696 20.9767V23.2974C14.6696 23.6046 14.4192 23.8549 14.112 23.8549H13.4008V24.7071C14.293 25.2688 15.044 26.0388 15.5805 26.952C16.1528 27.9241 16.4811 29.0539 16.4811 30.2553V31.8102ZM14.6422 6.95786C14.335 6.95786 14.0866 6.7096 14.0866 6.40241C14.0866 6.09521 14.3351 5.84487 14.6422 5.84487H17.7329C18.0422 5.84487 18.2904 6.09521 18.2904 6.40241C18.2904 6.7096 18.0422 6.95786 17.7329 6.95786H14.6422ZM10.9433 16.6846C10.6361 16.6846 10.3857 16.4363 10.3857 16.1291C10.3857 15.822 10.6361 15.5716 10.9433 15.5716H21.4338C21.741 15.5716 21.9893 15.822 21.9893 16.1291C21.9893 16.4363 21.741 16.6846 21.4338 16.6846H10.9433ZM10.9433 14.5238C10.6361 14.5238 10.3857 14.2755 10.3857 13.9662C10.3857 13.659 10.6361 13.4107 10.9433 13.4107H21.4338C21.741 13.4107 21.9893 13.659 21.9893 13.9662C21.9893 14.2755 21.741 14.5238 21.4338 14.5238H10.9433ZM10.9433 12.363C10.6361 12.363 10.3857 12.1126 10.3857 11.8055C10.3857 11.4983 10.6361 11.2479 10.9433 11.2479H21.4338C21.741 11.2479 21.9893 11.4983 21.9893 11.8055C21.9893 12.1126 21.741 12.363 21.4338 12.363H10.9433ZM10.9433 10.2001C10.6361 10.2001 10.3857 9.95184 10.3857 9.64465C10.3857 9.33746 10.6361 9.08712 10.9433 9.08712H21.4338C21.741 9.08712 21.9893 9.33754 21.9893 9.64465C21.9893 9.95184 21.741 10.2001 21.4338 10.2001H10.9433ZM21.5874 28.1892C21.2802 28.1892 21.032 27.9388 21.032 27.6316C21.032 27.3244 21.2803 27.0761 21.5874 27.0761H27.7373C28.0445 27.0761 28.2949 27.3244 28.2949 27.6316C28.2949 27.9388 28.0445 28.1892 27.7373 28.1892H21.5874ZM13.5565 22.7398V21.5343H8.48595H6.31245V22.7398H13.5565ZM9.93344 27.2487C10.7161 27.2487 11.423 27.5643 11.9343 28.0777C12.4478 28.589 12.7634 29.2959 12.7634 30.0786C12.7634 30.8592 12.4478 31.5661 11.9343 32.0795C11.423 32.5908 10.7161 32.9084 9.93344 32.9084C9.15295 32.9084 8.44595 32.5908 7.93265 32.0795C7.42128 31.5661 7.1037 30.8592 7.1037 30.0786C7.1037 29.296 7.42128 28.589 7.93265 28.0777C8.44595 27.5643 9.15295 27.2487 9.93344 27.2487ZM11.1474 28.8646C10.836 28.5531 10.407 28.3617 9.93344 28.3617C9.46014 28.3617 9.03094 28.5531 8.71952 28.8646C8.41017 29.1738 8.21668 29.6031 8.21668 30.0786C8.21668 30.5519 8.41017 30.9811 8.71952 31.2925C9.03094 31.6018 9.46022 31.7953 9.93344 31.7953C10.407 31.7953 10.836 31.6018 11.1474 31.2925C11.4588 30.9811 11.6503 30.5519 11.6503 30.0786C11.6503 29.603 11.4589 29.1738 11.1474 28.8646ZM15.9256 35.2754H3.94131C3.72036 35.2754 3.52042 35.3659 3.37317 35.5132C3.22807 35.6583 3.13545 35.8603 3.13545 36.0812C3.13545 36.3022 3.22807 36.5041 3.37317 36.6493C3.52042 36.7966 3.72044 36.8871 3.94131 36.8871H15.9256C16.1465 36.8871 16.3484 36.7966 16.4937 36.6493C16.641 36.5041 16.7314 36.3022 16.7314 36.0812C16.7314 35.8603 16.641 35.6584 16.4937 35.5132C16.3484 35.3658 16.1465 35.2754 15.9256 35.2754ZM7.22779 1.81361C6.79428 1.38017 6.19474 1.11091 5.53189 1.11091C4.98498 1.11091 4.35375 1.30232 3.83607 1.81576C3.37732 2.27236 3.13121 2.86351 3.13545 3.50951V6.7286H7.93042L7.93257 3.50743C7.93265 2.84666 7.66123 2.24705 7.22779 1.81361Z" fill="white"/>
</g>
<defs>
<clipPath id="clip0_5118_2308">
<rect width="38" height="38" fill="white"/>
</clipPath>
</defs>
</svg>
