<svg width="38" height="38" viewBox="0 0 38 38" fill="none" xmlns="http://www.w3.org/2000/svg">
<path d="M18.9994 0C19.801 0 20.428 0.494371 21.0444 0.982434C21.419 1.27708 21.7892 1.5695 22.1153 1.6579C22.4478 1.75045 22.9233 1.68105 23.3987 1.60951C24.1457 1.50011 24.8905 1.39079 25.5426 1.77361C26.1969 2.15657 26.4642 2.86143 26.7293 3.56614C26.8934 4.00173 27.0575 4.43717 27.2931 4.67289C27.5267 4.90846 27.9622 5.07255 28.3998 5.23665C29.1047 5.50184 29.8095 5.76902 30.1924 6.42126C30.5753 7.07349 30.4659 7.8182 30.3544 8.56729C30.2851 9.04066 30.2156 9.51826 30.3061 9.85068C30.3965 10.1769 30.689 10.5471 30.9835 10.9194C31.4717 11.538 31.966 12.165 31.966 12.9666C31.966 13.7661 31.4716 14.3931 30.9835 15.0116C30.689 15.3841 30.3965 15.7544 30.3061 16.0804C30.2156 16.4129 30.285 16.8905 30.3544 17.3638C30.4659 18.1128 30.5754 18.8576 30.1924 19.5098C29.9063 19.9979 29.4371 20.2715 28.9259 20.4882L36.0729 32.8678C36.1213 32.9415 36.155 33.0256 36.1656 33.1183C36.1992 33.4232 35.9783 33.6989 35.6732 33.7325L31.2865 34.2186L28.6713 37.7742C28.6166 37.8395 28.5766 37.8836 28.5009 37.9257C28.2358 38.0792 27.8971 37.9867 27.7434 37.7216L24.6317 32.3333C24.4803 32.0661 24.5707 31.7274 24.8379 31.576C25.103 31.4224 25.4418 31.515 25.5932 31.78L28.28 36.4318L30.5354 33.3664C30.6279 33.2402 30.7669 33.1581 30.9225 33.1413L34.7075 32.7206L27.8823 20.8984C27.6425 21.0036 27.4321 21.1195 27.2932 21.2583C27.0576 21.4939 26.8935 21.9294 26.7294 22.3649C26.4643 23.0698 26.1971 23.7746 25.5427 24.1575C24.8905 24.5404 24.1457 24.431 23.3988 24.3216C22.9233 24.2501 22.4478 24.1807 22.1154 24.2732C21.9135 24.3279 21.6925 24.4626 21.4653 24.6267L24.333 29.5941C24.4866 29.8592 24.3961 30.2001 24.1311 30.3536C23.8659 30.5072 23.5251 30.4168 23.3715 30.1517L20.5754 25.3083C20.102 25.6533 19.5992 25.9311 18.9996 25.9311C18.4 25.9311 17.8971 25.6534 17.4216 25.3083L10.2556 37.7216C10.0577 38.0688 9.56333 38.096 9.32768 37.7742L6.71243 34.2186L2.32574 33.7325C1.90699 33.6862 1.69458 33.2087 1.92807 32.8678L5.02084 27.5091C5.17447 27.244 5.51321 27.1515 5.77832 27.305C6.04343 27.4565 6.13598 27.7952 5.98242 28.0603L3.29147 32.7207L7.07648 33.1413C7.22581 33.1583 7.3689 33.236 7.4636 33.3664L9.71904 36.4319L16.5358 24.6267C16.3085 24.4626 16.0877 24.328 15.8836 24.2732C15.5511 24.1807 15.0756 24.2502 14.6023 24.3216C13.8532 24.431 13.1085 24.5404 12.4562 24.1575C11.8019 23.7746 11.5368 23.0698 11.2717 22.3649C11.1055 21.9294 10.9414 21.4939 10.7079 21.2583C10.5669 21.1195 10.3586 21.0036 10.1188 20.9006L7.24273 25.8785C7.08909 26.1436 6.75036 26.2341 6.48533 26.0805C6.22022 25.927 6.12974 25.5882 6.2833 25.3231L9.07311 20.4882C8.56182 20.2715 8.09476 19.998 7.80657 19.5098C7.42575 18.8576 7.53515 18.1128 7.64455 17.3638C7.71402 16.8905 7.78549 16.4129 7.69294 16.0804C7.60247 15.7543 7.3122 15.384 7.01547 15.0116C6.52949 14.3931 6.03504 13.7661 6.03504 12.9666C6.03504 12.165 6.52949 11.538 7.01547 10.9194C7.3122 10.547 7.60247 10.1768 7.69294 9.85068C7.78556 9.51826 7.71402 9.04066 7.64455 8.56729C7.53515 7.8182 7.42575 7.07349 7.80657 6.42126C8.18954 5.76902 8.89647 5.50184 9.59917 5.23665C10.0368 5.07255 10.4723 4.90846 10.7079 4.67289C10.9415 4.43717 11.1056 4.00173 11.2718 3.56614C11.5369 2.86143 11.802 2.15657 12.4563 1.77361C13.1085 1.39079 13.8533 1.50011 14.6023 1.60951C15.0757 1.68105 15.5512 1.75045 15.8836 1.6579C16.2098 1.56958 16.58 1.27708 16.9545 0.982434C17.573 0.494371 18.1979 0 18.9994 0ZM20.4259 24.0271C20.8657 23.6798 21.3054 23.3454 21.8251 23.2023C22.3868 23.0487 22.9738 23.135 23.5587 23.2213C24.1162 23.3033 24.6717 23.3832 24.983 23.2023C25.2965 23.0172 25.4922 22.4953 25.6899 21.9735C25.8962 21.4224 26.1045 20.871 26.5042 20.4714C26.9061 20.0716 27.4573 19.8634 28.0085 19.6551C28.5303 19.4593 29.0521 19.2615 29.2351 18.9481C29.4182 18.6368 29.3361 18.0812 29.254 17.5259C29.1678 16.9389 29.0815 16.3519 29.2372 15.7901C29.3866 15.2451 29.7485 14.7865 30.1146 14.3236C30.4806 13.8586 30.851 13.3874 30.851 12.9666C30.851 12.5436 30.4806 12.0723 30.1146 11.6074C29.7485 11.1446 29.3866 10.6859 29.2372 10.141C29.0815 9.57919 29.1678 8.9922 29.254 8.4052C29.336 7.84975 29.4182 7.29429 29.2351 6.98295C29.0521 6.66937 28.5302 6.47158 28.0085 6.27601C27.4573 6.06768 26.9061 5.85942 26.5042 5.45975C26.1045 5.05986 25.8962 4.50871 25.6899 3.95742C25.4922 3.43573 25.2965 2.9139 24.983 2.7288C24.6717 2.54771 24.1162 2.62786 23.5587 2.70988C22.9738 2.79612 22.3868 2.88236 21.8251 2.7288C21.2802 2.5794 20.8215 2.21743 20.3587 1.85139C19.8937 1.48534 19.4224 1.11291 18.9995 1.11291C18.5766 1.11291 18.1053 1.48541 17.6425 1.85139C17.1775 2.21751 16.7209 2.57947 16.176 2.7288C15.6142 2.88236 15.0252 2.79612 14.4402 2.70988C13.8827 2.62786 13.3293 2.54771 13.018 2.7288C12.7045 2.9139 12.5067 3.43566 12.3111 3.95742C12.1027 4.50871 11.8945 5.05986 11.4947 5.45975C11.095 5.85942 10.5438 6.06768 9.99038 6.27601C9.4707 6.47165 8.94679 6.66945 8.76384 6.98295C8.58074 7.29429 8.66283 7.84975 8.74492 8.4052C8.83116 8.9922 8.9174 9.57912 8.76384 10.141C8.61236 10.6859 8.25047 11.1445 7.88643 11.6074C7.52038 12.0723 7.14795 12.5436 7.14795 12.9666C7.14795 13.3874 7.52038 13.8586 7.88643 14.3236C8.2504 14.7865 8.61229 15.2451 8.76384 15.7901C8.9174 16.3518 8.83116 16.9389 8.74492 17.5259C8.66283 18.0812 8.58074 18.6368 8.76384 18.9481C9.03103 19.4046 10.2576 19.7203 10.8025 19.9917C11.0592 20.12 11.2948 20.2716 11.4947 20.4715C11.8945 20.8711 12.1027 21.4225 12.3111 21.9736C12.5067 22.4953 12.7045 23.0172 13.018 23.2023C13.3293 23.3833 13.8827 23.3034 14.4402 23.2213C15.0251 23.135 15.6142 23.0488 16.176 23.2023C16.7294 23.3559 17.1985 23.7304 17.6425 24.0797C18.1053 24.4458 18.5766 24.8182 18.9995 24.8182C19.5402 24.8182 20.0052 24.3153 20.4259 24.0271ZM17.2258 15.0916H18.444V10.6922H15.5237L16.4283 11.8684C16.523 11.9903 16.5609 12.144 16.5377 12.2933C16.462 12.8194 16.1948 13.2822 15.8119 13.6146C15.4311 13.9449 14.9345 14.1448 14.3938 14.1448C13.853 14.1448 13.3586 13.9449 12.9778 13.6146C12.5907 13.2822 12.3256 12.8131 12.2498 12.2849C12.2267 12.1208 12.2772 11.963 12.3761 11.8473L13.9288 9.83176C14.0277 9.67813 14.2002 9.57711 14.3938 9.57711H18.4438V8.64507C18.4438 8.33788 18.6921 8.08962 18.9993 8.08962C19.3065 8.08962 19.5568 8.33796 19.5568 8.64507V9.57711H23.6048C23.8005 9.57711 23.9709 9.67805 24.0718 9.83176L25.6393 11.8684C25.7318 11.9883 25.7718 12.144 25.7487 12.2933C25.6708 12.8194 25.4057 13.2822 25.0228 13.6146C24.6421 13.9449 24.1455 14.1448 23.6048 14.1448C23.0641 14.1448 22.5676 13.9449 22.1867 13.6146C21.8016 13.2822 21.5344 12.8131 21.4587 12.2849C21.4356 12.1208 21.4861 11.963 21.5871 11.8473L22.4749 10.6922H19.5567V15.0916H20.7728C21.2294 15.0916 21.6438 15.2767 21.9426 15.5776C22.2435 15.8764 22.4286 16.2908 22.4286 16.7474C22.4286 17.2019 22.2435 17.6163 21.9426 17.9151C21.6439 18.216 21.2294 18.4011 20.7728 18.4011H17.2256C16.769 18.4011 16.3566 18.216 16.0558 17.9151C15.757 17.6163 15.5698 17.2019 15.5698 16.7474C15.5698 16.2909 15.757 15.8764 16.0558 15.5776C16.3569 15.2767 16.7692 15.0916 17.2258 15.0916ZM20.773 16.2046H17.2258C17.0764 16.2046 16.9418 16.2656 16.8428 16.3644C16.744 16.4634 16.683 16.5979 16.683 16.7473C16.683 16.8946 16.744 17.0293 16.8428 17.1282C16.9418 17.2271 17.0763 17.2881 17.2258 17.2881H20.773C20.9224 17.2881 21.0571 17.2271 21.156 17.1282C21.2549 17.0293 21.3159 16.8947 21.3159 16.7473C21.3159 16.5979 21.2549 16.4634 21.156 16.3644C21.0571 16.2656 20.9224 16.2046 20.773 16.2046ZM24.2951 12.7752C24.4319 12.6594 24.537 12.5079 24.598 12.3354L23.605 11.0435L22.6119 12.3354C22.673 12.5079 22.7781 12.6594 22.9128 12.7752C23.098 12.9351 23.3399 13.0318 23.605 13.0318C23.8701 13.0318 24.1121 12.9351 24.2951 12.7752ZM15.0861 12.7752C15.2207 12.6594 15.326 12.5079 15.3891 12.3354L14.3939 11.0435L13.4009 12.3354C13.4619 12.5079 13.5671 12.6594 13.7038 12.7752C13.8869 12.9351 14.1288 13.0318 14.3939 13.0318C14.6611 13.0318 14.901 12.9351 15.0861 12.7752ZM24.6527 18.5505C24.8673 18.3317 25.2187 18.3295 25.4375 18.5441C25.6563 18.7588 25.6606 19.1101 25.4438 19.3289C24.6065 20.1768 23.605 20.8606 22.4878 21.3276C21.4126 21.7758 20.2344 22.024 18.9994 22.024C16.4978 22.024 14.234 21.0099 12.595 19.3709C10.954 17.732 9.93984 15.4661 9.93984 12.9666C9.93984 10.465 10.954 8.19902 12.595 6.56005C14.234 4.92107 16.4978 3.90702 18.9994 3.90702C21.501 3.90702 23.7669 4.92107 25.4059 6.56005C27.0449 8.19902 28.059 10.465 28.059 12.9666C28.059 13.7093 27.9685 14.433 27.7961 15.1316C27.6214 15.8448 27.3605 16.5264 27.0239 17.1661C26.8829 17.4375 26.5484 17.5426 26.277 17.4018C26.0056 17.2587 25.9004 16.9241 26.0414 16.6527C26.3338 16.0952 26.5631 15.4976 26.7188 14.8665C26.8661 14.2605 26.9461 13.6251 26.9461 12.9666C26.9461 10.7722 26.0561 8.78401 24.6191 7.34691C23.18 5.90996 21.1939 5.02001 18.9995 5.02001C16.8051 5.02001 14.819 5.90996 13.382 7.34691C11.9429 8.78394 11.055 10.7721 11.055 12.9666C11.055 15.1589 11.9428 17.1471 13.382 18.5842C14.819 20.0212 16.8051 20.9111 18.9995 20.9111C20.0872 20.9111 21.1203 20.6943 22.0629 20.3009C23.0412 19.8907 23.9206 19.2931 24.6527 18.5505Z" fill="white"/>
</svg>
