<svg width="38" height="32" viewBox="0 0 38 32" fill="none" xmlns="http://www.w3.org/2000/svg">
<path d="M3.79044 28.8628H16.4252C16.7741 28.8628 17.0569 28.5819 17.0569 28.2354C17.0569 27.8889 16.7741 27.608 16.4252 27.608H3.79044C2.3971 27.608 1.26349 26.4821 1.26349 25.0982V12.849L7.58087 15.3587V16.9416C7.65382 20.0143 12.0336 20.3523 12.5932 17.3502C16.451 18.9731 16.4064 18.9701 20.2572 17.3502C20.8181 20.3537 25.1968 20.013 25.2695 16.9415C25.2695 16.9416 25.2695 15.3586 25.2695 15.3586L26.7674 14.7637C27.5337 14.4438 27.0748 13.3074 26.2986 13.5983L25.2695 14.007V13.177C25.1633 9.86008 20.3213 9.86119 20.2156 13.177C20.2156 13.177 20.2156 16.0152 20.2156 16.0152L17.3799 17.1426C16.7648 17.3849 16.0868 17.3858 15.4723 17.1435L12.6348 16.0152V13.177C12.5285 9.86008 7.68651 9.86119 7.58086 13.177C7.58086 13.177 7.58086 14.0068 7.58086 14.0068L1.26348 11.4972V7.53011C1.26348 6.14626 2.39709 5.02037 3.79043 5.02037C10.3402 5.02294 22.4477 5.0185 29.06 5.02037C30.4533 5.02037 31.5869 6.14626 31.5869 7.53011V9.4124C31.5967 10.234 32.8385 10.2384 32.8504 9.41237C32.8504 9.4124 32.8504 7.53011 32.8504 7.53011C32.8504 5.45419 31.1501 3.76551 29.06 3.76551H25.5497C26.5557 2.17732 25.2748 -0.0514411 23.3743 0.000949534C23.3743 0.000911888 9.47607 0.000911836 9.47607 0.000911836C7.57824 -0.0516294 6.29151 2.17774 7.30066 3.76551H3.79043C1.70027 3.76551 0 5.45419 0 7.53011V25.0982C0 27.1741 1.70028 28.8628 3.79044 28.8628ZM21.4791 16.4519V13.177C21.5221 11.5234 23.9626 11.5216 24.0061 13.177C24.0061 14.1047 24.006 16.009 24.0061 16.9416C23.963 18.5953 21.5226 18.5968 21.4791 16.9416C21.4791 16.9416 21.4791 16.4519 21.4791 16.4519ZM8.84435 14.9227V13.177C8.88738 11.5234 11.3278 11.5216 11.3713 13.177C11.3713 13.4952 11.3713 16.7357 11.3713 16.9416C11.328 18.596 8.88761 18.5961 8.84435 16.9416C8.84435 16.9416 8.84435 14.9227 8.84435 14.9227ZM9.47608 1.25578H23.3743C25.0362 1.29736 25.0436 3.72181 23.3743 3.76551C23.3743 3.76551 9.47608 3.76551 9.47608 3.76551C7.81418 3.72388 7.80678 1.29947 9.47608 1.25578Z" fill="white"/>
<path d="M27.7966 13.177V29.4902C27.7966 29.9493 27.9304 30.3744 28.1481 30.7451H26.1816C26.3992 30.3744 26.5331 29.9493 26.5331 29.4902V25.0982C26.5331 23.7143 25.3995 22.5885 24.0061 22.5885H20.2157C18.8224 22.5885 17.6888 23.7143 17.6888 25.0982V29.4902C17.6888 29.9493 17.8226 30.3744 18.0403 30.7451H13.8983C13.0758 30.7569 13.0616 31.9852 13.8984 32C21.3412 31.9998 29.8968 32 37.2727 32C38.0945 31.9885 38.1098 30.7597 37.2726 30.7451H36.2894C36.507 30.3744 36.6409 29.9493 36.6409 29.4902V13.177C36.6409 11.7931 35.5073 10.6672 34.1139 10.6672H30.3235C28.9302 10.6672 27.7966 11.7931 27.7966 13.177ZM25.2696 29.4902C25.2696 30.1823 24.703 30.7451 24.0061 30.7451H20.2157C19.5189 30.7451 18.9522 30.1823 18.9522 29.4902V25.0982C18.9522 24.4061 19.5189 23.8433 20.2157 23.8433H24.0061C24.703 23.8433 25.2696 24.4061 25.2696 25.0982V29.4902ZM35.3774 13.177V29.4902C35.3774 30.1823 34.8108 30.7451 34.1139 30.7451H30.3235C29.6267 30.7451 29.06 30.1823 29.06 29.4902V13.177C29.06 12.4849 29.6267 11.9221 30.3235 11.9221H34.1139C34.8108 11.9221 35.3774 12.4849 35.3774 13.177Z" fill="white"/>
<path d="M2.52686 15.6869V25.0984C2.52686 25.4449 2.80972 25.7258 3.15859 25.7258C3.50747 25.7258 3.79033 25.4449 3.79033 25.0984V15.6869C3.77715 14.8651 2.54116 14.8599 2.52686 15.6869Z" fill="white"/>
</svg>
