<svg width="36" height="32" viewBox="0 0 36 32" fill="none" xmlns="http://www.w3.org/2000/svg">
<path d="M35.6484 16.3127C35.3591 15.5972 34.8732 14.9783 34.2469 14.5274C33.6206 14.0765 32.8794 13.8121 32.1091 13.7647C31.9974 13.7575 31.8845 13.7538 31.7715 13.7538C31.6615 13.7538 31.5516 13.7573 31.4427 13.7647C30.8794 13.8014 30.3297 13.9529 29.8272 14.2099V9.30256L31.5736 9.98954C31.638 10.0152 31.7066 10.0284 31.776 10.0283C31.8489 10.0284 31.9211 10.0141 31.9885 9.98621C32.0559 9.95834 32.1171 9.91746 32.1687 9.86591C32.2203 9.81436 32.2612 9.75315 32.2891 9.68578C32.317 9.6184 32.3314 9.54619 32.3314 9.47326V5.95425C32.3313 5.83881 32.2952 5.72627 32.2282 5.63227C32.1612 5.53827 32.0666 5.46748 31.9575 5.42976L16.3465 0.0301712C16.2291 -0.0100571 16.1016 -0.0100571 15.9842 0.0301712L0.373899 5.42976C0.264801 5.46749 0.170169 5.53827 0.103159 5.63227C0.03615 5.72627 9.26799e-05 5.83881 2.92651e-08 5.95425V9.47325C-2.93547e-05 9.56373 0.0220692 9.65285 0.0643701 9.73283C0.106671 9.81282 0.16789 9.88124 0.242694 9.93215C0.317497 9.98305 0.403615 10.0149 0.493542 10.0249C0.583469 10.0349 0.674476 10.0227 0.758634 9.98951L2.50341 9.30256V31.445C2.50342 31.5922 2.56191 31.7333 2.666 31.8374C2.77008 31.9415 2.91126 32 3.05846 32H29.2721C29.345 32 29.4172 31.9857 29.4845 31.9578C29.5519 31.9299 29.6131 31.889 29.6646 31.8375C29.7161 31.7859 29.757 31.7247 29.7849 31.6574C29.8128 31.59 29.8272 31.5179 29.8272 31.445V28.3041H30.6315C31.0822 28.3036 31.5143 28.1244 31.8329 27.8057C32.1516 27.487 32.3309 27.0549 32.3314 26.6042V23.9359L34.9726 20.821C35.4936 20.2069 35.833 19.4596 35.9524 18.6631C36.0718 17.8666 35.9665 17.0526 35.6484 16.3127ZM2.88656 7.9603C2.88281 7.96148 2.88047 7.9646 2.87672 7.9659C2.86958 7.96832 2.86195 7.96866 2.85493 7.97148L1.11007 8.65845V6.34941L16.1654 1.14169L31.2213 6.34939V8.65845L29.475 7.97148C29.4683 7.96882 29.461 7.96849 29.4543 7.96614C29.4505 7.96476 29.448 7.96158 29.444 7.9603L16.3372 3.68623C16.2255 3.64979 16.1051 3.64979 15.9934 3.68623L2.88656 7.9603ZM6.74151 13.077C6.67419 13.077 6.60963 13.0502 6.56203 13.0026C6.51443 12.955 6.48769 12.8904 6.48767 12.8231V11.2649C6.48777 11.1976 6.51456 11.1331 6.56215 11.0856C6.60974 11.0381 6.67425 11.0114 6.74151 11.0114H25.5891C25.6564 11.0114 25.7209 11.0381 25.7685 11.0856C25.8161 11.1331 25.8429 11.1976 25.843 11.2649V12.8231C25.843 12.8904 25.8162 12.955 25.7686 13.0026C25.721 13.0502 25.6564 13.0769 25.5891 13.077H6.74151ZM15.7968 30.89H10.4711V26.7122H12.579V27.7491C12.5789 27.8221 12.5931 27.8944 12.6209 27.9619C12.6487 28.0294 12.6896 28.0907 12.7411 28.1424C12.7927 28.1941 12.8539 28.2351 12.9213 28.2631C12.9888 28.2911 13.0611 28.3055 13.1341 28.3055C13.2071 28.3055 13.2793 28.2911 13.3468 28.2631C13.4142 28.2351 13.4754 28.1941 13.527 28.1424C13.5786 28.0907 13.6194 28.0294 13.6472 27.9619C13.675 27.8944 13.6893 27.8221 13.6891 27.7491V26.7122H15.7968V30.89ZM16.8349 23.5133V25.6021H11.5092V21.4243H13.617V22.5387C13.6169 22.6117 13.6311 22.684 13.6589 22.7515C13.6867 22.819 13.7276 22.8803 13.7791 22.932C13.8307 22.9837 13.8919 23.0247 13.9593 23.0527C14.0268 23.0807 14.0991 23.0951 14.1721 23.0951C14.2451 23.0951 14.3173 23.0807 14.3848 23.0527C14.4522 23.0247 14.5135 22.9837 14.565 22.932C14.6166 22.8803 14.6574 22.819 14.6852 22.7515C14.713 22.684 14.7273 22.6117 14.7271 22.5387V21.4243H16.8349L16.8349 23.5133ZM19.12 19.8615C19.1929 19.8615 19.265 19.8471 19.3324 19.8193C19.3997 19.7914 19.4609 19.7505 19.5124 19.699C19.564 19.6474 19.6049 19.5863 19.6328 19.5189C19.6607 19.4516 19.675 19.3794 19.675 19.3065V18.7805H21.7829V22.9582H17.945V20.8693C17.945 20.7222 17.8865 20.581 17.7824 20.4769C17.6783 20.3729 17.5372 20.3144 17.39 20.3144H16.4571V18.7805H18.565V19.3065C18.565 19.3794 18.5793 19.4516 18.6072 19.5189C18.6351 19.5862 18.676 19.6474 18.7275 19.699C18.7791 19.7505 18.8403 19.7914 18.9076 19.8193C18.9749 19.8471 19.0471 19.8615 19.12 19.8615ZM22.2326 30.89H16.9069V26.7122H19.0147V27.576C19.0146 27.649 19.0288 27.7213 19.0566 27.7888C19.0844 27.8563 19.1253 27.9176 19.1768 27.9693C19.2284 28.021 19.2896 28.062 19.357 28.09C19.4245 28.118 19.4968 28.1324 19.5698 28.1324C19.6428 28.1324 19.7151 28.118 19.7825 28.09C19.8499 28.062 19.9112 28.021 19.9627 27.9693C20.0143 27.9176 20.0551 27.8563 20.0829 27.7888C20.1107 27.7213 20.125 27.649 20.1248 27.576V26.7122H22.2326V30.89ZM24.6664 30.89H23.3427V28.3041H24.6664V30.89ZM28.7171 30.89H25.7764V28.3041H28.7171L28.7171 30.89ZM31.2213 26.6042C31.2212 26.7606 31.1589 26.9105 31.0484 27.0211C30.9378 27.1317 30.7878 27.1939 30.6315 27.194H29.2741L29.2721 27.1937L29.2702 27.194H23.3427V26.1572C23.3427 26.01 23.2842 25.8688 23.1801 25.7647C23.0761 25.6606 22.9349 25.6021 22.7877 25.6021H17.945V24.0684H22.3379C22.4851 24.0684 22.6263 24.0099 22.7304 23.9058C22.8345 23.8017 22.8929 23.6605 22.8929 23.5133V18.2255C22.8929 18.1526 22.8786 18.0804 22.8507 18.0131C22.8228 17.9457 22.7819 17.8846 22.7304 17.833C22.6788 17.7815 22.6176 17.7406 22.5503 17.7127C22.483 17.6848 22.4108 17.6704 22.3379 17.6704H15.9021C15.8292 17.6704 15.757 17.6848 15.6897 17.7127C15.6224 17.7406 15.5612 17.7815 15.5096 17.833C15.4581 17.8846 15.4173 17.9458 15.3894 18.0131C15.3615 18.0804 15.3472 18.1526 15.3472 18.2255V20.3144H10.9541C10.8813 20.3144 10.8091 20.3287 10.7418 20.3566C10.6744 20.3845 10.6132 20.4254 10.5617 20.4769C10.5102 20.5284 10.4693 20.5896 10.4414 20.657C10.4135 20.7243 10.3992 20.7965 10.3992 20.8693V25.6021H9.91608C9.76888 25.6021 9.62772 25.6606 9.52365 25.7647C9.41958 25.8688 9.36112 26.01 9.36113 26.1572V30.89H7.66431V14.187H24.6664V24.7948C24.6662 24.8678 24.6804 24.9401 24.7082 25.0076C24.736 25.0751 24.7769 25.1364 24.8284 25.1881C24.88 25.2398 24.9412 25.2808 25.0087 25.3088C25.0761 25.3367 25.1484 25.3511 25.2214 25.3511C25.2944 25.3511 25.3667 25.3367 25.4341 25.3088C25.5015 25.2808 25.5628 25.2398 25.6143 25.1881C25.6659 25.1364 25.7067 25.0751 25.7345 25.0076C25.7623 24.9401 25.7766 24.8678 25.7764 24.7948V14.1681C26.1017 14.1234 26.3999 13.9627 26.6161 13.7155C26.8323 13.4684 26.952 13.1515 26.953 12.8231V11.2649C26.9525 10.9033 26.8086 10.5568 26.5529 10.3012C26.2972 10.0456 25.9506 9.90181 25.5891 9.90133H6.74151C6.38 9.90182 6.03343 10.0456 5.77776 10.3012C5.5221 10.5568 5.37821 10.9033 5.37763 11.2649V12.8231C5.37869 13.1514 5.49834 13.4684 5.71455 13.7155C5.93075 13.9627 6.22897 14.1234 6.55428 14.1681V30.89H3.61345V8.89043L16.1654 4.79732L28.7171 8.89043V15.0613C27.9942 15.8387 27.581 16.8539 27.5558 17.9152C27.5305 18.9764 27.895 20.0102 28.5801 20.821L31.2213 23.9359L31.2213 26.6042ZM34.1257 20.1034L31.7763 22.8743L29.4269 20.1034C29.0391 19.6458 28.7866 19.089 28.698 18.4956C28.6094 17.9023 28.6881 17.296 28.9253 16.745C29.0889 16.3535 29.3297 15.999 29.6332 15.7026C29.6483 15.6905 29.6627 15.6776 29.6764 15.6639C30.1795 15.1944 30.8302 14.9143 31.5171 14.8717C31.603 14.8664 31.6889 14.8633 31.7763 14.8633C31.863 14.8633 31.9498 14.866 32.0349 14.8717C32.5997 14.9076 33.1427 15.1026 33.6013 15.434C34.0599 15.7655 34.4153 16.22 34.6265 16.745C34.8637 17.296 34.9425 17.9022 34.854 18.4955C34.7655 19.0888 34.5133 19.6456 34.1257 20.1034ZM31.7763 15.7465C31.3461 15.7465 30.9256 15.8741 30.5679 16.1131C30.2102 16.3522 29.9314 16.6919 29.7668 17.0894C29.6022 17.4868 29.5591 17.9242 29.6431 18.3461C29.727 18.7681 29.9342 19.1556 30.2384 19.4598C30.5426 19.764 30.9302 19.9712 31.3521 20.0551C31.7741 20.139 32.2114 20.0959 32.6089 19.9313C33.0063 19.7666 33.3461 19.4878 33.5851 19.1301C33.8241 18.7724 33.9516 18.3519 33.9516 17.9217C33.9509 17.345 33.7215 16.7921 33.3137 16.3843C32.9059 15.9766 32.353 15.7472 31.7763 15.7465ZM31.7763 18.9868C31.5656 18.9868 31.3597 18.9244 31.1845 18.8073C31.0094 18.6903 30.8728 18.5239 30.7922 18.3293C30.7116 18.1346 30.6905 17.9205 30.7316 17.7138C30.7727 17.5072 30.8742 17.3174 31.0231 17.1685C31.1721 17.0195 31.3619 16.918 31.5685 16.8769C31.7751 16.8358 31.9893 16.8569 32.1839 16.9376C32.3786 17.0182 32.5449 17.1547 32.662 17.3299C32.779 17.505 32.8415 17.711 32.8415 17.9217C32.8411 18.204 32.7287 18.4747 32.529 18.6744C32.3294 18.8741 32.0587 18.9864 31.7763 18.9868Z" fill="white"/>
</svg>
