<svg width="37" height="23" viewBox="0 0 37 23" fill="none" xmlns="http://www.w3.org/2000/svg">
<path d="M28.7211 14.8156C32.2601 14.8156 35.1289 11.9467 35.1289 8.40778C35.1289 4.86886 32.2601 2 28.7211 2C25.1822 2 22.3134 4.86886 22.3134 8.40778C22.3134 11.9467 25.1822 14.8156 28.7211 14.8156Z" stroke="white" stroke-width="2.30441" stroke-miterlimit="10" stroke-linecap="round" stroke-linejoin="round"/>
<path d="M35.129 8.4082C35.129 15.4568 29.362 21.2238 22.3135 21.2238" stroke="white" stroke-width="2.30441" stroke-miterlimit="10" stroke-linecap="round" stroke-linejoin="round"/>
<path d="M8.40778 14.8157C11.9467 14.8157 14.8156 11.9468 14.8156 8.40791C14.8156 4.86898 11.9467 2.00012 8.40778 2.00012C4.86886 2.00012 2 4.86898 2 8.40791C2 11.9468 4.86886 14.8157 8.40778 14.8157Z" stroke="white" stroke-width="2.30441" stroke-miterlimit="10" stroke-linecap="round" stroke-linejoin="round"/>
<path d="M14.8156 8.4082C14.8156 15.4568 9.04856 21.2238 2 21.2238" stroke="white" stroke-width="2.30441" stroke-miterlimit="10" stroke-linecap="round" stroke-linejoin="round"/>
</svg>
