<svg width="48" height="48" viewBox="0 0 48 48" fill="none" xmlns="http://www.w3.org/2000/svg">
<g clip-path="url(#clip0_4839_1049)">
<path fill-rule="evenodd" clip-rule="evenodd" d="M12.283 7.125H35.7192C35.7192 9.19592 37.3981 10.8748 39.469 10.8748V17.9057C37.3981 17.9057 35.7192 19.5845 35.7192 21.6555H12.283C12.283 19.5845 10.6041 17.9057 8.5332 17.9057V10.8748C10.6041 10.8748 12.283 9.19592 12.283 7.125Z" fill="white" fill-opacity="0.1"/>
<path d="M4.78315 26.3424H43.2186C43.7363 26.3424 44.156 25.9226 44.156 25.4049V3.37495C44.156 2.85729 43.7363 2.4375 43.2186 2.4375H4.78315C4.2654 2.4375 3.8457 2.85729 3.8457 3.37495V25.4049C3.8457 25.9227 4.2654 26.3424 4.78315 26.3424ZM5.7206 4.3124H42.2811V24.4675H5.7206V4.3124Z" fill="white"/>
<path d="M24.7733 13.9278L23.9466 13.5853C23.8025 13.5257 23.6897 13.412 23.629 13.2653C23.5682 13.1186 23.5676 12.9583 23.6273 12.8142C23.6869 12.6701 23.8006 12.5573 23.9473 12.4965C24.094 12.4357 24.2543 12.4351 24.3984 12.4948L24.8118 12.666C25.2902 12.8638 25.8385 12.6368 26.0365 12.1585C26.2347 11.6801 26.0075 11.1318 25.5292 10.9337L25.1159 10.7626C25.0574 10.7384 24.9983 10.7165 24.9387 10.6969V10.4042C24.8926 9.16168 23.1094 9.16262 23.0638 10.4042V10.8402C22.5343 11.1057 22.1231 11.5462 21.8951 12.0966C21.6437 12.7035 21.6444 13.3732 21.8968 13.9826C22.1492 14.592 22.6223 15.0661 23.229 15.3173L24.0558 15.6599C24.3513 15.7823 24.4975 16.1354 24.3751 16.431C24.3155 16.5751 24.2018 16.6879 24.055 16.7487C23.9083 16.8094 23.7481 16.8101 23.604 16.7504L23.1907 16.5792C22.7125 16.3816 22.164 16.6084 21.9659 17.0866C21.7678 17.565 21.995 18.1133 22.4733 18.3115L22.8866 18.4826C22.9451 18.5068 23.0043 18.5288 23.0638 18.5483V18.8411C23.1099 20.0836 24.893 20.0827 24.9387 18.8411V18.4049C26.8102 17.4873 26.7061 14.7106 24.7733 13.9278Z" fill="white"/>
<path d="M15.9744 13.6875H14.0995C12.857 13.7336 12.8579 15.5167 14.0995 15.5624H15.9744C17.2169 15.5163 17.2159 13.7332 15.9744 13.6875Z" fill="white"/>
<path d="M33.9041 13.6875H32.0292C30.7867 13.7336 30.7876 15.5167 32.0292 15.5624H33.9041C35.1466 15.5163 35.1456 13.7332 33.9041 13.6875Z" fill="white"/>
<path d="M47.8821 31.8884C47.505 30.5905 46.1291 29.4099 43.999 29.8831C43.9935 29.8844 43.9879 29.8855 43.9825 29.8869L35.1309 32.0241C34.8864 30.6176 33.4942 29.5242 32.0679 29.6834C31.0911 29.7728 24.9472 30.4723 23.927 30.5669C22.9139 30.6607 21.5216 30.5283 19.9095 30.375C17.2335 30.1208 13.9031 29.8043 10.8833 30.4782C7.26956 31.2846 4.70883 33.4005 3.27228 36.767L0.0778299 44.2533C-0.195343 44.8453 0.288381 45.5776 0.940095 45.5587H14.5503C14.9314 45.5587 15.2747 45.3278 15.4185 44.9748L16.3463 42.6961L21.8 42.9561C25.917 43.1528 27.2309 42.9436 31.1731 41.4655C35.3487 39.9259 42.1676 37.0087 45.8946 35.5871L45.9038 35.5838C47.7172 34.9286 48.2716 33.2287 47.8821 31.8884ZM45.2705 33.8192C44.5102 34.0857 42.6905 34.8305 40.3881 35.7728C37.3368 37.0217 33.5394 38.576 30.5149 39.7102C26.8049 41.1012 25.7572 41.2682 21.8894 41.0835L15.773 40.7919C15.3753 40.7724 15.0101 41.0065 14.8601 41.3747L13.9198 43.6839H2.3593L4.99672 37.5029C7.72844 31.1009 14.384 31.7331 19.732 32.2417C21.4379 32.4038 22.9113 32.544 24.0993 32.4341C25.0773 32.3444 31.2212 31.6449 32.2402 31.5505C32.4874 31.5272 32.7326 31.6064 32.931 31.772C33.1485 31.9538 33.2821 32.2131 33.3071 32.5021C33.3232 32.6879 33.366 33.1818 32.1247 33.7191C29.5455 34.8358 26.8057 35.7723 24.6077 36.2884C24.1036 36.4068 23.791 36.9113 23.9093 37.4153C24.0277 37.9193 24.5323 38.2322 25.0362 38.1136C27.3377 37.5731 30.1928 36.5986 32.8695 35.4396C33.803 35.0355 34.381 34.5485 34.726 34.0506L44.4134 31.7117C45.2759 31.5222 45.8991 31.7836 46.0814 32.4115C46.2273 32.9127 46.0328 33.5418 45.2705 33.8192Z" fill="white"/>
</g>
<defs>
<clipPath id="clip0_4839_1049">
<rect width="48" height="48" fill="white"/>
</clipPath>
</defs>
</svg>
