<svg width="44" height="44" viewBox="0 0 44 44" fill="none" xmlns="http://www.w3.org/2000/svg">
<path d="M37.8086 36.4221C37.8086 35.5523 37.4469 34.7519 36.8615 34.1825C37.4469 33.6131 37.8086 32.8129 37.8086 31.943C37.8086 30.8701 37.2581 29.9028 36.4165 29.3444C36.8128 28.8187 37.0471 28.1638 37.0471 27.4639C37.0471 25.7551 35.6784 24.365 34.0002 24.365L29.755 24.3455C28.8571 24.3402 28.1264 23.61 28.1264 22.7177V18.15C28.1264 16.2559 26.5937 14.7148 24.7097 14.7148C22.8257 14.7148 21.293 16.2559 21.293 18.15V22.6653C21.293 23.5592 20.5611 24.2895 19.6587 24.2932C17.0371 24.312 14.9094 26.4679 14.9158 29.1005L14.9177 29.5679H10.9577V28.4049C10.9577 27.9304 10.573 27.5456 10.0984 27.5456H3.02734C2.55271 27.5456 2.16797 27.9304 2.16797 28.4049V41.0024C2.16797 41.477 2.55271 41.8618 3.02734 41.8618H10.0984C10.573 41.8618 10.9577 41.477 10.9577 41.0024V39.8395H15.169C15.4389 40.7356 15.9231 41.5585 16.5976 42.2469C17.705 43.3774 19.1849 43.9999 20.7645 43.9999H33.9524C35.6059 43.9999 36.996 42.6579 37.0512 41.0084C37.0762 40.2627 36.8416 39.5666 36.4255 39.0145C37.262 38.4553 37.8086 37.4912 37.8086 36.4221ZM3.88672 40.1431V29.2645H9.23899V40.1431H3.88672ZM34.9424 35.055C35.5965 35.1485 36.0898 35.7362 36.0898 36.4221C36.0898 37.0969 35.6122 37.6767 34.9738 37.7843L34.2592 37.8253C33.8184 37.8506 33.4686 38.2059 33.4498 38.647C33.4312 39.0881 33.7497 39.4716 34.1868 39.534C34.8644 39.6309 35.3572 40.24 35.3335 40.951C35.3089 41.6844 34.6894 42.2812 33.9525 42.2812H20.7645C19.6507 42.2812 18.6069 41.8419 17.8253 41.044C17.0807 40.2841 16.6638 39.2919 16.6399 38.2327V38.0304C16.6399 37.5593 16.2605 37.1759 15.7894 37.1711C15.7864 37.171 15.7835 37.171 15.7805 37.171C15.3134 37.171 14.9311 37.5447 14.9214 38.0128C14.9207 38.0489 14.9203 38.0848 14.9201 38.1208H10.9578V31.2869H15.7806C16.0091 31.2869 16.2283 31.1958 16.3895 31.0339C16.5508 30.872 16.6409 30.6526 16.64 30.424L16.6345 29.0951C16.6305 27.4071 17.9927 26.0241 19.6685 26.0121C21.512 26.0045 23.0118 24.5032 23.0118 22.6654V18.1502C23.0118 17.2038 23.7734 16.4338 24.7097 16.4338C25.646 16.4338 26.4077 17.2038 26.4077 18.1502V22.7179C26.4077 24.5525 27.9048 26.0536 29.7461 26.0644L33.9963 26.0839C34.7308 26.0839 35.3284 26.703 35.3284 27.4641C35.3284 28.15 34.8351 28.7377 34.181 28.8312C33.7438 28.8937 33.4252 29.2772 33.4439 29.7184C33.4627 30.1596 33.8127 30.5148 34.2537 30.5399L34.9741 30.5811C35.6125 30.6886 36.0899 31.2684 36.0899 31.9433C36.0899 32.629 35.5966 33.2168 34.9425 33.3103C34.5191 33.3708 34.2047 33.7333 34.2047 34.161V34.2044C34.2046 34.6319 34.5191 34.9945 34.9424 35.055Z" fill="#007DE7"/>
<path d="M36.9095 14.7184L34.9357 15.5511C34.201 15.861 33.3991 15.2809 33.4681 14.4892L33.6535 12.3626L32.2483 10.7506C31.7252 10.1505 32.0315 9.2118 32.8089 9.03254L34.8971 8.55095L36.0025 6.72202C36.4139 6.04123 37.4051 6.04123 37.8165 6.72202L38.9219 8.55095L41.0101 9.03254C41.7875 9.2118 42.0938 10.1506 41.5707 10.7506L40.1655 12.3626L40.3509 14.4892C40.4199 15.2809 39.618 15.861 38.8833 15.5511L36.9095 14.7184Z" fill="#007DE7"/>
<path d="M12.4095 14.7187L10.4357 15.5513C9.70097 15.8613 8.89909 15.2811 8.96809 14.4895L9.15346 12.3629L7.7483 10.7508C7.2252 10.1507 7.53148 9.21205 8.30887 9.03278L10.3971 8.55119L11.5025 6.72227C11.9139 6.04147 12.9051 6.04147 13.3165 6.72227L14.4219 8.55119L16.5101 9.03278C17.2875 9.21205 17.5938 10.1508 17.0707 10.7508L15.6655 12.3629L15.8509 14.4895C15.9199 15.2811 15.118 15.8613 14.3833 15.5513L12.4095 14.7187Z" fill="#007DE7"/>
<path d="M24.6622 10.4226L22.244 11.4428C21.3438 11.8226 20.3614 11.1118 20.4459 10.1419L20.6729 7.53642L18.9513 5.56149C18.3105 4.82629 18.6857 3.67619 19.6382 3.45654L22.1967 2.86649L23.5509 0.625582C24.055 -0.208527 25.2694 -0.208527 25.7735 0.625582L27.1277 2.8664L29.6862 3.45645C30.6387 3.67611 31.0139 4.82621 30.373 5.5614L28.6515 7.53633L28.8785 10.1418C28.9631 11.1117 27.9805 11.8225 27.0803 11.4427L24.6622 10.4226Z" fill="#007DE7"/>
</svg>
