<svg width="44" height="44" viewBox="0 0 44 44" fill="none" xmlns="http://www.w3.org/2000/svg">
<path d="M21.9975 32.0909C27.5708 32.0909 32.0888 27.5729 32.0888 21.9996C32.0888 16.4264 27.5708 11.9083 21.9975 11.9083C16.4243 11.9083 11.9062 16.4264 11.9062 21.9996C11.9062 27.5729 16.4243 32.0909 21.9975 32.0909Z" fill="#007DE7"/>
<path d="M43.3947 18.2952L41.579 17.7332C41.0724 15.3937 40.1598 13.1919 38.8606 11.1745L39.748 9.49137C39.9237 9.1581 39.8619 8.7493 39.5955 8.48289L35.5172 4.40447C35.2506 4.13806 34.8418 4.07636 34.5087 4.25202L32.8256 5.13949C30.808 3.8402 28.6062 2.92763 26.2669 2.42112L25.7049 0.605344C25.5934 0.245352 25.2606 0 24.8839 0H19.1162C18.7394 0 18.4066 0.245352 18.2952 0.605258L17.7332 2.42103C15.3938 2.92755 13.192 3.84012 11.1745 5.13941L9.49137 4.25193C9.15819 4.07627 8.7493 4.13806 8.48289 4.49977L4.40447 8.57811C4.13806 8.74921 4.07627 9.15802 4.25202 9.49128L5.13941 11.2697C3.8402 13.2872 2.92763 15.3936 2.42103 17.7331L0.605258 18.2951C0.245352 18.4066 0 18.7394 0 19.1161V24.8838C0 25.2606 0.245352 25.5934 0.605258 25.7048L2.42103 26.2668C2.92763 28.6063 3.8402 30.8081 5.13941 32.8255L4.25202 34.5086C4.07627 34.8419 4.13815 35.2507 4.40447 35.5171L8.4828 39.5955C8.7493 39.8619 9.1581 39.9236 9.49128 39.748L11.1744 38.8605C13.192 40.1598 15.3938 41.0724 17.7331 41.5789L18.2951 43.3947C18.4065 43.7546 18.7394 43.9999 19.1161 43.9999H24.8838C25.2606 43.9999 25.5934 43.7546 25.7048 43.3947L26.2668 41.5789C28.6062 41.0724 30.808 40.1598 32.8255 38.8605L34.5086 39.748C34.8417 39.9236 35.2506 39.8618 35.5171 39.5955L39.5954 35.5171C39.8619 35.2506 39.9236 34.8419 39.7479 34.5086L38.8605 32.8255C40.1597 30.808 41.0723 28.6062 41.5789 26.2668L43.3947 25.7048C43.7546 25.5934 43.9999 25.2606 43.9999 24.8838V19.1161C44 18.7394 43.7547 18.4066 43.3947 18.2952ZM42.2812 24.2503L40.5842 24.7756C40.2804 24.8697 40.0532 25.1238 39.994 25.4363C39.5258 27.9033 38.5698 30.21 37.1526 32.2923C36.9737 32.5553 36.9545 32.8954 37.1028 33.1767L37.9322 34.7499L34.7499 37.9322L33.1768 37.1027C32.8954 36.9543 32.5553 36.9737 32.2924 37.1525C30.21 38.5699 27.9033 39.5258 25.4364 39.9939C25.1238 40.0531 24.8697 40.2802 24.7757 40.5841L24.2503 42.2812H19.7498L19.2245 40.5842C19.1304 40.2803 18.8763 40.0532 18.5638 39.9939C16.0969 39.5259 13.7902 38.57 11.7078 37.1526C11.445 36.9738 11.1047 36.9545 10.8234 37.1028L9.25023 37.9323L6.06796 34.7499L6.89734 33.1768C7.04567 32.8955 7.02651 32.5554 6.84759 32.2924C5.43039 30.2101 4.47434 27.9034 4.00615 25.4364C3.94694 25.1238 3.7198 24.8697 3.41602 24.7757L1.71875 24.2503V19.7498L3.41584 19.2245C3.71963 19.1304 3.94677 18.8763 4.00598 18.5638C4.47416 16.0968 5.43022 13.8854 6.84741 11.8031C7.02634 11.5401 7.0455 11.2 6.89717 10.9187L6.06779 9.34553L9.25005 6.16318L10.8232 6.99265C11.1046 7.14106 11.4447 7.02642 11.7076 6.8475C13.79 5.43013 16.0967 4.47416 18.5636 4.00615C18.8762 3.94685 19.1303 3.7198 19.2243 3.41593L19.7497 1.71875H24.2502L24.7755 3.41584C24.8696 3.71972 25.1237 3.94677 25.4362 4.00606C27.9031 4.47408 30.2098 5.43005 32.2922 6.84741C32.5551 7.02634 32.8955 7.04567 33.1766 6.89717L34.7498 6.0677L37.932 9.25005L37.1027 10.8232C36.9543 11.1045 36.9735 11.4446 37.1524 11.7076C38.5696 13.7899 39.5257 16.0966 39.9939 18.5636C40.0531 18.8762 40.2802 19.1303 40.584 19.2243L42.2812 19.7497V24.2503Z" fill="#007DE7"/>
<path d="M21.9957 5.98096C13.1627 5.98096 5.97656 13.4214 5.97656 22C5.97656 30.833 13.1627 38.0191 21.9957 38.0191C30.8286 38.0191 38.0147 30.833 38.0147 22C38.0147 13.1671 30.8286 5.98096 21.9957 5.98096ZM21.9957 36.3004C14.1104 36.3004 7.69531 29.8853 7.69531 22C7.69531 14.3691 14.1104 7.69971 21.9957 7.69971C29.8809 7.69971 36.296 14.1148 36.296 22C36.296 29.8853 29.8809 36.3004 21.9957 36.3004Z" fill="#007DE7"/>
<path d="M25.5034 23.374L22.8594 21.3573V16.29C22.8594 15.8155 22.4745 15.4307 22 15.4307C21.5255 15.4307 21.1406 15.8155 21.1406 16.29V21.7826C21.1406 22.0506 21.2657 22.3033 21.4789 22.4658L24.4611 24.7406C24.6167 24.8594 24.7998 24.9168 24.9816 24.9168C25.2405 24.9167 25.4965 24.8003 25.6656 24.5785C25.9534 24.2011 25.8808 23.6618 25.5034 23.374Z" fill="#007DE7"/>
</svg>
