<svg width="28" height="28" viewBox="0 0 28 28" fill="none" xmlns="http://www.w3.org/2000/svg">
<path d="M27.3704 26.7415H1.25841V0.629212C1.25841 0.281887 0.976526 0 0.629205 0C0.281884 0 0 0.281887 0 0.629212V27.3707C0 27.7181 0.281884 27.9999 0.629205 27.9999H27.3704C27.7177 27.9999 27.9996 27.7181 27.9996 27.3707C27.9996 27.0234 27.7177 26.7415 27.3704 26.7415Z" fill="white"/>
<path d="M3.89385 25.483H9.98927C10.3366 25.483 10.6185 25.2011 10.6185 24.8538V15.9268C10.6185 15.5795 10.3366 15.2976 9.98927 15.2976H3.89385C3.54653 15.2976 3.26465 15.5795 3.26465 15.9268V24.8538C3.26465 25.2011 3.54653 25.483 3.89385 25.483ZM4.52306 16.556H9.36007V24.2246H4.52306V16.556Z" fill="white"/>
<path d="M11.9551 10.4212V24.8538C11.9551 25.2011 12.237 25.483 12.5843 25.483H18.6797C19.027 25.483 19.3089 25.2011 19.3089 24.8538V10.4212C19.3089 10.0739 19.027 9.79199 18.6797 9.79199H12.5843C12.237 9.79199 11.9551 10.0739 11.9551 10.4212ZM13.2135 11.0504H18.0505V24.2245H13.2135V11.0504Z" fill="white"/>
<path d="M27.3706 3.61792H21.2752C20.9279 3.61792 20.646 3.89981 20.646 4.24713V24.8538C20.646 25.2012 20.9279 25.483 21.2752 25.483H27.3706C27.7179 25.483 27.9998 25.2012 27.9998 24.8538V4.24713C27.9998 3.89981 27.7179 3.61792 27.3706 3.61792ZM26.7414 24.2246H21.9044V4.87634H26.7414V24.2246Z" fill="white"/>
<path d="M4.58274 13.1323C4.74382 13.1323 4.90489 13.0709 5.02759 12.9479L15.8273 2.14813V4.92075C15.8273 5.26808 16.1091 5.54997 16.4565 5.54997C16.8038 5.54997 17.0857 5.26808 17.0857 4.92075V0.629212C17.0857 0.587999 17.0813 0.546785 17.0731 0.505887C17.0693 0.487325 17.0624 0.470021 17.057 0.452089C17.0507 0.43101 17.0457 0.409303 17.0372 0.388539C17.0284 0.36746 17.0165 0.348269 17.0054 0.328134C16.9966 0.312089 16.9897 0.295415 16.9793 0.280314C16.9334 0.211101 16.8739 0.151955 16.8047 0.105708C16.7903 0.0959549 16.7742 0.0893481 16.7588 0.0808538C16.7383 0.0695279 16.7182 0.0569437 16.6962 0.0481347C16.6764 0.0399549 16.6553 0.0352359 16.6348 0.0289438C16.616 0.0232809 16.5983 0.0160449 16.5788 0.0122696C16.5389 0.0044045 16.4986 0 16.458 0C16.4574 0 16.4568 0 16.4558 0H12.165C11.8177 0 11.5358 0.281887 11.5358 0.629212C11.5358 0.976537 11.8177 1.25842 12.165 1.25842H14.9376L4.13789 12.0582C3.89219 12.3039 3.89219 12.7022 4.13789 12.9479C4.26059 13.0706 4.42166 13.1323 4.58274 13.1323Z" fill="white"/>
</svg>
