<svg width="40" height="48" viewBox="0 0 40 48" fill="none" xmlns="http://www.w3.org/2000/svg">
<path fill-rule="evenodd" clip-rule="evenodd" d="M19.9988 39.2418C25.3468 39.2418 29.7087 34.88 29.7087 29.5319C29.212 16.6699 10.7838 16.6734 10.2891 29.532C10.2891 34.88 14.6509 39.2418 19.9988 39.2418Z" fill="white" fill-opacity="0.1"/>
<path d="M39.4129 9.64959L30.038 0.274594C29.8621 0.0988125 29.6237 0 29.3751 0H1.25C0.732219 0 0.3125 0.419813 0.3125 0.9375V47.0625C0.3125 47.5802 0.732219 48 1.25 48H38.75C39.2677 48 39.6875 47.5802 39.6875 47.0625V10.3125C39.6875 10.0639 39.5887 9.82547 39.4129 9.64959ZM30.3126 3.20091L36.4866 9.375H30.3125V3.20091H30.3126ZM2.1875 46.125V1.875H28.4375V10.3125C28.4375 10.8302 28.8573 11.25 29.375 11.25H37.8125V46.125H2.1875Z" fill="white"/>
<path d="M5.70321 5.625V11.2499C5.74933 12.4925 7.53255 12.4915 7.57821 11.2499V5.625H8.28133C9.5239 5.57887 9.52296 3.79566 8.28133 3.75H5.00008C3.75752 3.79613 3.75846 5.57934 5.00008 5.625H5.70321Z" fill="white"/>
<path d="M11.0234 12.1887C11.5412 12.1887 11.9609 11.7689 11.9609 11.2512V9.84484H13.8359V11.2512C13.8821 12.4937 15.6653 12.4928 15.7109 11.2512V6.56368C15.5691 2.83674 10.2265 2.83955 10.0859 6.56368V11.2512C10.0859 11.7689 10.5057 12.1887 11.0234 12.1887ZM11.9609 6.56368C12.0082 5.3214 13.7891 5.32234 13.8359 6.56368V7.96984H11.9609V6.56368Z" fill="white"/>
<path d="M17.3426 12.0888C17.7958 12.3182 18.368 12.1373 18.6005 11.6695L19.4026 10.0652L20.2047 11.6695C20.437 12.1373 21.0094 12.3182 21.4625 12.0888C21.9256 11.8573 22.1133 11.2941 21.8818 10.8311L20.4507 7.969L21.8817 5.107C22.1133 4.64397 21.9256 4.08081 21.4624 3.84925C20.9992 3.61759 20.4362 3.80528 20.2046 4.26859L19.4026 5.87265L18.6006 4.26859C18.369 3.80546 17.806 3.61787 17.3427 3.84925C16.8796 4.08081 16.6919 4.64397 16.9235 5.107L18.3545 7.969L16.9235 10.8311C16.6918 11.2942 16.8795 11.8574 17.3426 12.0888Z" fill="white"/>
<path d="M34.0625 15H5.93749C4.69493 15.0461 4.69587 16.8293 5.93749 16.875H34.0625C35.3051 16.8289 35.304 15.0457 34.0625 15Z" fill="white"/>
<path d="M34.0625 42.1875H5.93749C4.69493 42.2336 4.69587 44.0168 5.93749 44.0625H34.0625C35.3051 44.0164 35.304 42.2332 34.0625 42.1875Z" fill="white"/>
<path d="M10.6794 18.8828H5.93755C4.69499 18.9289 4.69593 20.7122 5.93755 20.7578H10.6794C11.922 20.7117 11.9211 18.9285 10.6794 18.8828Z" fill="white"/>
<path d="M5.93755 24.6445H7.86308C9.10565 24.5984 9.10471 22.8152 7.86308 22.7695H5.93755C4.69499 22.8157 4.69593 24.5989 5.93755 24.6445Z" fill="white"/>
<path d="M5.93755 28.5273H6.68024C7.9228 28.4812 7.92186 26.698 6.68024 26.6523H5.93755C4.69499 26.6985 4.69593 28.4817 5.93755 28.5273Z" fill="white"/>
<path d="M5.93755 32.4102H6.68024C7.9228 32.364 7.92186 30.5808 6.68024 30.5352H5.93755C4.69499 30.5813 4.69593 32.3645 5.93755 32.4102Z" fill="white"/>
<path d="M5.93755 36.293H7.86308C9.10565 36.2468 9.10471 34.4636 7.86308 34.418H5.93755C4.69499 34.4641 4.69593 36.2472 5.93755 36.293Z" fill="white"/>
<path d="M5.93755 40.1797H10.6794C11.922 40.1336 11.9211 38.3503 10.6794 38.3047H5.93755C4.69499 38.3508 4.69593 40.134 5.93755 40.1797Z" fill="white"/>
<path d="M17.1877 34.4037C17.6281 34.6603 18.2079 34.5131 18.4683 34.0606L23.1558 25.9416C23.4147 25.4931 23.2611 24.9199 22.8127 24.6609C22.3641 24.402 21.7909 24.5557 21.532 25.0041L16.8445 33.1231C16.5856 33.5715 16.7393 34.1448 17.1877 34.4037Z" fill="white"/>
<path d="M17.6566 26.4102C18.8991 26.364 18.8982 24.5808 17.6566 24.5352H17.6558C16.4132 24.5815 16.4149 26.3647 17.6566 26.4102Z" fill="white"/>
<path d="M22.3441 32.6523H22.3434C21.8257 32.6523 21.4062 33.0722 21.4062 33.5898C21.4524 34.8318 23.2358 34.8319 23.2816 33.5898C23.2816 33.0721 22.8618 32.6523 22.3441 32.6523Z" fill="white"/>
<path d="M34.0621 18.8828H29.3202C28.0777 18.9289 28.0786 20.7121 29.3202 20.7578H34.0621C35.3047 20.7116 35.3036 18.9285 34.0621 18.8828Z" fill="white"/>
<path d="M34.0621 22.7695H32.1366C30.8941 22.8157 30.895 24.5988 32.1366 24.6445H34.0621C35.3046 24.5984 35.3036 22.8153 34.0621 22.7695Z" fill="white"/>
<path d="M34.0629 26.6523H33.3202C32.0777 26.6985 32.0786 28.4816 33.3202 28.5273H34.0629C35.3055 28.4812 35.3045 26.6981 34.0629 26.6523Z" fill="white"/>
<path d="M34.0629 30.5352H33.3202C32.0777 30.5813 32.0786 32.3644 33.3202 32.4102H34.0629C35.3055 32.3639 35.3045 30.5809 34.0629 30.5352Z" fill="white"/>
<path d="M34.0621 34.418H32.1366C30.8941 34.4641 30.895 36.2472 32.1366 36.293H34.0621C35.3046 36.2467 35.3036 34.4636 34.0621 34.418Z" fill="white"/>
<path d="M34.062 38.3047H29.3202C28.0777 38.3508 28.0786 40.1339 29.3202 40.1797H34.062C35.3046 40.1336 35.3036 38.3504 34.062 38.3047Z" fill="white"/>
</svg>
