<svg width="60" height="60" viewBox="0 0 60 60" fill="none" xmlns="http://www.w3.org/2000/svg">
<path d="M42.0841 26.1541H18.3691C18.3691 19.606 23.6768 14.2983 30.2261 14.2983C36.7753 14.2983 42.083 19.606 42.083 26.1541H42.0841Z" stroke="white" stroke-width="2" stroke-miterlimit="10" stroke-linecap="round" stroke-linejoin="round"/>
<path d="M30.2262 14.2985C27.352 14.2985 25.0166 10.852 25.0166 7.97775C25.0166 5.10352 27.352 2.76929 30.2262 2.76929C33.1004 2.76929 35.4358 5.10467 35.4358 7.9789C35.4358 10.8531 33.1004 14.2997 30.2262 14.2997V14.2985ZM57.6912 57.2308H33.9785C33.9785 50.6827 39.2862 45.3751 45.8343 45.3751C52.3824 45.3751 57.6912 50.6827 57.6912 57.232V57.2308Z" stroke="white" stroke-width="2" stroke-miterlimit="10" stroke-linecap="round" stroke-linejoin="round"/>
<path d="M51.0398 39.0579C51.0398 41.9298 48.7125 45.3786 45.8394 45.3786C45.0606 45.3786 44.3233 45.1225 43.661 44.6956C43.0935 44.3296 42.5948 43.8668 42.1875 43.3283L42.1552 43.2959C41.2044 42.0786 40.6287 40.499 40.6287 39.0567C40.629 37.6748 41.1781 36.3496 42.1552 35.3725C43.1323 34.3953 44.4575 33.8463 45.8394 33.8459C47.2197 33.8484 48.5426 34.3985 49.5176 35.3755C50.4927 36.3525 51.0401 37.6764 51.0398 39.0567V39.0579ZM26.0198 57.2309H2.30713C2.30713 50.6829 7.61482 45.3752 14.1641 45.3752C20.7133 45.3752 26.0198 50.6829 26.0198 57.2321V57.2309Z" stroke="white" stroke-width="2" stroke-miterlimit="10" stroke-linecap="round" stroke-linejoin="round"/>
<path d="M17.8494 43.2958C24.9306 37.8289 35.0752 37.8289 42.1552 43.2958M30.0029 26.1543V39.1962M19.3771 39.0578C19.3771 40.4989 18.7886 42.0785 17.8494 43.2958L17.8171 43.3281C17.3902 43.8728 16.8883 44.3539 16.3333 44.6955C15.6709 45.1224 14.9348 45.3785 14.1652 45.3785C11.2921 45.3785 8.95441 41.9285 8.95441 39.0566C8.95441 36.1847 11.2933 33.8458 14.1652 33.8458C17.0371 33.8458 19.3771 36.1847 19.3771 39.0566V39.0578Z" stroke="white" stroke-width="2" stroke-miterlimit="10" stroke-linecap="round" stroke-linejoin="round"/>
</svg>
