<svg width="44" height="48" viewBox="0 0 44 48" fill="none" xmlns="http://www.w3.org/2000/svg">
<path d="M36.5226 9.84009L26.9571 0.274594C26.7812 0.0988125 26.5428 0 26.2942 0L1.42383 9.375e-05C0.906047 9.375e-05 0.486328 0.419906 0.486328 0.937594V43.0258C0.486328 43.5435 0.906047 43.9633 1.42383 43.9633H28.0542C29.2967 43.9172 29.2958 42.134 28.0542 42.0883H2.36133V1.87509L25.3567 1.875V10.503C25.3567 11.0207 25.7764 11.4405 26.2942 11.4405H34.9222V31.7917C34.9683 33.0343 36.7515 33.0334 36.7972 31.7917V10.503C36.7972 10.2544 36.6984 10.016 36.5226 9.84009ZM27.2317 3.20081L33.5964 9.5655H27.2317V3.20081Z" fill="white"/>
<path d="M20.5549 11.4424C21.0727 11.4424 21.4924 11.0226 21.4924 10.5049V5.70312H22.2288C23.4714 5.657 23.4704 3.87378 22.2288 3.82812H18.8809C17.6383 3.87425 17.6393 5.65747 18.8809 5.70312H19.6173V10.5049C19.6174 11.0227 20.0371 11.4424 20.5549 11.4424Z" fill="white"/>
<path d="M16.0118 11.4394C16.5295 11.4394 16.9493 11.0196 16.9493 10.5019V6.67576C16.8055 2.89829 11.3905 2.9012 11.248 6.67576V10.5019C11.2942 11.7444 13.0774 11.7435 13.123 10.5019V9.52623H15.0743V10.5019C15.0743 11.0197 15.494 11.4394 16.0118 11.4394ZM13.123 7.65123V6.67576C13.1723 5.38295 15.0255 5.38389 15.0743 6.67576V7.65123H13.123Z" fill="white"/>
<path d="M6.51213 10.7977C6.79057 11.6454 8.0127 11.645 8.29095 10.7977L10.2041 5.05845C10.3679 4.5673 10.1024 4.03639 9.61123 3.87261C9.11988 3.70883 8.58907 3.97424 8.42538 4.46558L7.40163 7.53674L6.37788 4.46558C6.2141 3.97433 5.68329 3.70902 5.19204 3.87261C4.70088 4.03639 4.43538 4.5673 4.59917 5.05845L6.51213 10.7977Z" fill="white"/>
<path d="M31.7936 15.6641H5.48821C4.24565 15.7102 4.24659 17.4934 5.48821 17.5391H31.7936C33.0361 17.4929 33.0351 15.7097 31.7936 15.6641Z" fill="white"/>
<path d="M31.7936 19.7305H5.48821C4.24565 19.7766 4.24659 21.5598 5.48821 21.6055H31.7936C33.0361 21.5593 33.0351 19.7762 31.7936 19.7305Z" fill="white"/>
<path d="M5.48821 25.668H18.6409C19.8834 25.6218 19.8825 23.8386 18.6409 23.793H5.48821C4.24565 23.8391 4.24659 25.6222 5.48821 25.668Z" fill="white"/>
<path d="M28.3886 27.8594H5.48821C4.24565 27.9055 4.24659 29.6887 5.48821 29.7344H28.3886C29.6312 29.6882 29.6302 27.905 28.3886 27.8594Z" fill="white"/>
<path d="M25.2551 32.8633C25.2551 32.3456 24.8354 31.9258 24.3176 31.9258H5.48821C4.24565 31.9719 4.24659 33.7551 5.48821 33.8008H24.3177C24.8354 33.8008 25.2551 33.3811 25.2551 32.8633Z" fill="white"/>
<path d="M5.48821 35.9922C4.24565 36.0383 4.24659 37.8215 5.48821 37.8672H22.7115C23.9541 37.8211 23.9531 36.0378 22.7115 35.9922H5.48821Z" fill="white"/>
<path fill-rule="evenodd" clip-rule="evenodd" d="M34.9019 48.0005C39.6436 48.0005 43.5109 44.1332 43.5109 39.3916C43.0706 27.9877 26.7316 27.9908 26.293 39.3916C26.293 44.1332 30.1603 48.0005 34.9019 48.0005Z" fill="white" fill-opacity="0.2"/>
<path d="M36.23 39.3923L37.9584 37.6638C38.8058 36.7555 37.54 35.491 36.6325 36.3379L34.9041 38.0664L33.1756 36.3379C32.8095 35.9719 32.2159 35.9719 31.8497 36.3379C31.4836 36.704 31.4836 37.2976 31.8497 37.6638L33.5782 39.3923L31.8497 41.1207C31.0024 42.0291 32.2682 43.2935 33.1756 42.4466L34.9041 40.7182L36.6325 42.4466C36.9987 42.8127 37.5923 42.8127 37.9584 42.4466C38.3245 42.0805 38.3245 41.4869 37.9584 41.1207L36.23 39.3923Z" fill="white"/>
</svg>
